<svg width="90" height="89" viewBox="0 0 90 89" fill="none" xmlns="http://www.w3.org/2000/svg">
<path d="M20.9328 0.371427L32.0977 0.371427C36.6824 0.371427 40.412 4.10098 40.412 8.68571C40.412 13.2942 36.6824 17 32.0977 17L22.952 17C19.0561 17 15.8017 14.3394 14.899 10.7049H14.7089V8.6382H16.4431V7.94931L14.7089 7.94931V6.57151L15.3978 6.57151V4.50482H16.0867V3.81592H16.7756V3.12702H17.4645V2.43812H18.1772V1.74922H18.8661V1.06033L20.9328 1.06033V0.371427ZM37.1575 8.68571C37.1575 7.688 36.9437 6.71404 36.5874 5.81135V5.90637H36.5636V5.76384C36.5636 5.76384 36.5636 5.74008 36.5399 5.74008H36.3974V5.71633H36.5399C35.9935 4.45731 35.1146 3.38833 34.0218 2.60441L28.772 2.60441L28.3206 1.20286L25.3987 1.20286C25.2562 1.20286 25.0899 1.20286 24.9474 1.20286V1.06033L23.7121 1.06033V1.74922L22.3343 1.74922V2.43812L20.9328 2.43812V3.12702H20.2439V3.81592L19.555 3.81592V4.50482H18.8661V5.88261H18.1772V7.94931H19.9113V8.6382H18.1772V10.7049C19.0324 13.8643 21.9543 16.1923 25.3987 16.1923H28.3206L28.772 14.7908H28.7245L29.4846 13.8643H29.7697L29.0095 14.7908H29.4846L30.2448 13.8643H30.5298L29.7697 14.7908H30.2448L31.0049 13.8643H31.29L30.5298 14.7908H31.0049L31.7651 13.8643H32.0739L31.29 14.7908H31.7651L32.5253 13.8643H32.8341L32.0739 14.7908H32.5253L33.3092 13.8643H33.5943L32.8341 14.7908H33.3092L34.0694 13.8643H34.3544L33.5943 14.7908H34.0218C34.0456 14.767 34.0931 14.7433 34.1406 14.7195L34.8295 13.8643H35.0908C35.7085 13.2229 36.1836 12.4865 36.5399 11.6789H36.3974V11.6551H36.5399C36.5636 11.6551 36.5636 11.6313 36.5636 11.6313V11.4888H36.5874V11.5838C36.9437 10.6811 37.1575 9.70718 37.1575 8.68571ZM31.6226 6.54775V6.71404H31.7889V6.7378H31.6226V6.88033H31.5988V6.54775H31.6226ZM31.5988 5.90637V5.71633H31.7889V5.74008H31.6226V5.90637H31.5988ZM31.6226 7.52171V7.688H31.7889V7.71175H31.6226V7.87804H31.5988V7.52171H31.6226ZM31.6226 8.51943V8.68571H31.7889V8.70947H31.6226V8.87575H31.5988V8.51943H31.6226ZM31.6226 9.51714V9.68343H31.7889V9.70718H31.6226V9.87347H31.5988V9.51714H31.6226ZM31.6226 10.5149V10.6574H31.7889V10.6811H31.6226V10.8474H31.5988V10.5149H31.6226ZM31.6226 11.4888V11.6551H31.7889V11.6789H31.5988V11.4888H31.6226ZM32.6203 6.54775V6.71404H32.7866V6.7378H32.6203V6.88033H32.5965V6.7378H32.4303V6.71404H32.5965V6.54775H32.6203ZM32.4303 5.74008V5.71633H32.7866V5.74008H32.6203V5.90637H32.5965V5.74008H32.4303ZM32.6203 7.52171V7.688H32.7866V7.71175H32.6203V7.87804H32.5965V7.71175H32.4303V7.688H32.5965V7.52171H32.6203ZM32.6203 8.51943V8.68571H32.7866V8.70947H32.6203V8.87575H32.5965V8.70947H32.4303V8.68571H32.5965V8.51943H32.6203ZM32.6203 9.51714V9.68343H32.7866V9.70718H32.6203V9.87347H32.5965V9.70718H32.4303V9.68343H32.5965V9.51714H32.6203ZM32.6203 10.5149V10.6574H32.7866V10.6811H32.6203V10.8474H32.5965V10.6811H32.4303V10.6574H32.5965V10.5149H32.6203ZM32.6203 11.4888V11.6551H32.7866V11.6789H32.4303V11.6551H32.5965V11.4888H32.6203ZM33.618 6.54775V6.71404H33.7843V6.7378H33.618V6.88033H33.5943V6.7378H33.428V6.71404H33.5943V6.54775H33.618ZM33.428 5.74008V5.71633H33.7843V5.74008H33.618V5.90637H33.5943V5.74008H33.428ZM33.618 7.52171V7.688H33.7843V7.71175H33.618V7.87804H33.5943V7.71175H33.428V7.688H33.5943V7.52171H33.618ZM33.618 8.51943V8.68571H33.7843V8.70947H33.618V8.87575H33.5943V8.70947H33.428V8.68571H33.5943V8.51943H33.618ZM33.618 9.51714V9.68343H33.7843V9.70718H33.618V9.87347H33.5943V9.70718H33.428V9.68343H33.5943V9.51714H33.618ZM33.618 10.5149V10.6574H33.7843V10.6811H33.618V10.8474H33.5943V10.6811H33.428V10.6574H33.5943V10.5149H33.618ZM33.618 11.4888V11.6551H33.7843V11.6789H33.428V11.6551H33.5943V11.4888H33.618ZM34.6157 6.54775V6.71404H34.7583V6.7378H34.6157V6.88033H34.5682V6.7378H34.4257V6.71404H34.5682V6.54775H34.6157ZM34.4257 5.74008V5.71633H34.7583V5.74008H34.6157V5.90637H34.5682V5.74008H34.4257ZM34.6157 7.52171V7.688H34.7583V7.71175H34.6157V7.87804H34.5682V7.71175H34.4257V7.688H34.5682V7.52171H34.6157ZM34.6157 8.51943V8.68571H34.7583V8.70947H34.6157V8.87575H34.5682V8.70947H34.4257V8.68571H34.5682V8.51943H34.6157ZM34.6157 9.51714V9.68343H34.7583V9.70718H34.6157V9.87347H34.5682V9.70718H34.4257V9.68343H34.5682V9.51714H34.6157ZM34.6157 10.5149V10.6574L34.7583 10.6574V10.6811L34.6157 10.6811V10.8474H34.5682V10.6811H34.4257V10.6574H34.5682V10.5149H34.6157ZM34.6157 11.4888V11.6551L34.7583 11.6551V11.6789L34.4257 11.6789V11.6551H34.5682V11.4888H34.6157ZM35.5897 6.54775V6.71404H35.756V6.7378H35.5897V6.88033H35.5659V6.7378H35.3996V6.71404H35.5659V6.54775H35.5897ZM35.3996 5.74008V5.71633H35.756V5.74008H35.5897V5.90637H35.5659V5.74008H35.3996ZM35.5897 7.52171V7.688H35.756V7.71175H35.5897V7.87804H35.5659V7.71175H35.3996V7.688H35.5659V7.52171H35.5897ZM35.5897 8.51943V8.68571H35.756V8.70947H35.5897V8.87575H35.5659V8.70947H35.3996V8.68571H35.5659V8.51943H35.5897ZM35.5897 9.51714V9.68343H35.756V9.70718H35.5897V9.87347H35.5659V9.70718H35.3996V9.68343H35.5659V9.51714H35.5897ZM35.5897 10.5149V10.6574H35.756V10.6811H35.5897V10.8474H35.5659V10.6811H35.3996V10.6574H35.5659V10.5149H35.5897ZM35.5897 11.4888V11.6551H35.756V11.6789H35.3996V11.6551H35.5659V11.4888H35.5897ZM36.5874 6.54775V6.71404H36.7537V6.7378H36.5874V6.88033H36.5636V6.7378H36.3974V6.71404H36.5636V6.54775H36.5874ZM36.5874 7.52171V7.688H36.7537V7.71175H36.5874V7.87804H36.5636V7.71175H36.3974V7.688H36.5636V7.52171H36.5874ZM36.5874 8.51943V8.68571H36.7537V8.70947H36.5874V8.87575H36.5636V8.70947H36.3974V8.68571H36.5636V8.51943H36.5874ZM36.5874 9.51714V9.68343H36.7537V9.70718H36.5874V9.87347H36.5636V9.70718H36.3974V9.68343H36.5636V9.51714H36.5874ZM36.5874 10.5149V10.6574H36.7537V10.6811H36.5874V10.8474H36.5636V10.6811H36.3974V10.6574H36.5636V10.5149H36.5874ZM24.1397 13.8643H24.4248L23.6646 14.7908L23.3796 14.7908L24.1397 13.8643ZM24.8999 13.8643H25.1849L24.4248 14.7908H24.1397L24.8999 13.8643ZM25.66 13.8643H25.9451L25.1849 14.7908H24.8999L25.66 13.8643ZM27.9643 13.8643H28.2494L27.4892 14.7908H27.1804L27.9643 13.8643ZM26.4202 13.8643H26.7053L25.9451 14.7908H25.66L26.4202 13.8643ZM27.1804 13.8643H27.4892L26.7053 14.7908H26.4202L27.1804 13.8643ZM27.9643 14.7908L28.7245 13.8643H29.0095L28.2494 14.7908H27.9643ZM55.6663 3.81592L54.2885 3.81592V4.48106L55.6663 4.48106V6.54775H54.9774V7.23665H54.2885V7.92555L53.5996 7.92555V8.59069H52.2218V9.27959L48.2784 9.27959L47.6608 10.0398H47.3757L47.9934 9.27959H47.5183L46.9006 10.0398H46.6156L47.2332 9.27959H46.7581L46.1405 10.0398H45.8317L46.4493 9.27959H45.9979L45.3803 10.0398H45.3328V10.0873H45.309V10.0398H45.0715L45.1903 9.92098H45.1428V9.89722H45.1903L45.309 9.75469V9.73094H45.3328L45.6891 9.27959H45.309V9.16082L44.5964 10.0398H44.3351V10.0873H44.3113V10.0398V9.92098H44.145V9.89722H44.3113V9.73094H44.3351V9.89722H44.4301L45.0715 9.11331H44.5964L43.8362 10.0398H43.5512L44.3113 9.11331H43.8362L43.3374 9.73094H43.3611V9.89722H43.5037V9.92098H43.3611V10.0873H43.3374V9.92098H43.1711L43.0761 10.0398H42.791L43.5512 9.11331H43.0761L42.4347 9.89722H42.5297V9.92098H42.4109L42.3634 9.99224V10.0873H42.3397V10.016L42.3159 10.0398H42.0308L42.791 9.11331H42.3159L41.5557 10.0398H41.3657V10.0873H41.3419V10.0398H41.2469L41.3419 9.94473V9.92098H41.1757V9.89722H41.3419V9.73094H41.3657V9.89722H41.3895L42.0308 9.11331H41.5557L40.7956 10.0398H40.4868L41.2469 9.11331H40.7956L40.0117 10.0398H39.7266L40.4868 9.11331H40.0117L39.394 9.87347V9.89722H39.5603V9.92098H39.394V10.0873H39.3703V9.92098L39.2515 10.0398H38.9664L39.7266 9.11331H39.2515L38.4913 10.0398V13.7931L39.8929 14.2444V16.2161H43.5749V17.0238H32.9801V16.2161H36.6384V1.20286L32.9801 1.20286V0.371427L52.9107 0.371427V1.06033L54.2885 1.06033V1.74922L54.9774 1.74922V3.12702H55.6663V3.81592ZM38.4913 9.68343L38.9664 9.11331H38.4913V9.68343ZM43.3374 9.89722V9.73094L43.1948 9.89722H43.3374ZM44.3351 10.016L44.4063 9.92098H44.3351V10.016ZM52.2218 3.81592V3.12702H51.5329V2.43812H50.844V1.74922L50.1551 1.74922V1.06033L45.3328 1.06033V1.20286L43.5274 1.20286L43.0761 2.60441L39.8929 2.60441V8.28188H45.309V8.09184V7.94931H45.1428V7.92555L50.844 7.92555V7.23665H51.5329V6.54775H52.2218V4.48106H50.844V3.81592H52.2218ZM39.5603 10.8949V10.9187H39.394V11.0612H39.3703V10.7287H39.394V10.8949H39.5603ZM39.5603 11.8689V11.8927H39.394V12.0589H39.3703V11.7264H39.394V11.8689H39.5603ZM39.5603 12.8666V12.8904H39.394V13.0567H39.3703V12.7003H39.394V12.8666H39.5603ZM39.3703 13.698H39.394V13.8643H39.5603V13.8881H39.3703V13.698ZM40.2017 7.94931V7.92555H40.5343V7.94931H40.3917V8.09184H40.368V7.94931H40.2017ZM40.368 9.73094H40.3917V9.89722H40.5343V9.92098H40.3917V10.0873H40.368V9.92098H40.2017V9.89722H40.368V9.73094ZM40.5343 10.8949V10.9187H40.3917V11.0612H40.368V10.9187H40.2017V10.8949H40.368V10.7287H40.3917V10.8949H40.5343ZM40.5343 11.8689V11.8927H40.3917V12.0589H40.368V11.8927H40.2017V11.8689H40.368V11.7264H40.3917V11.8689H40.5343ZM40.5343 12.8666V12.8904H40.3917V13.0567H40.368V12.8904H40.2017V12.8666H40.368V12.7003H40.3917V12.8666H40.5343ZM40.368 13.698H40.3917V13.8643H40.5343V13.8881H40.2017V13.8643H40.368V13.698ZM41.1757 7.94931V7.92555H41.532V7.94931H41.3657V8.09184H41.3419V7.94931H41.1757ZM41.532 10.8949V10.9187H41.3657V11.0612H41.3419V10.9187H41.1757V10.8949H41.3419V10.7287H41.3657V10.8949H41.532ZM41.532 11.8689V11.8927H41.3657V12.0589H41.3419V11.8927H41.1757V11.8689H41.3419V11.7264H41.3657V11.8689H41.532ZM41.532 12.8666V12.8904H41.3657V13.0567H41.3419V12.8904H41.1757V12.8666H41.3419V12.7003H41.3657V12.8666H41.532ZM41.3419 13.698H41.3657V13.8643H41.532V13.8881H41.1757V13.8643H41.3419V13.698ZM42.1734 7.94931V7.92555H42.5297V7.94931H42.3634V8.09184H42.3397V7.94931H42.1734ZM42.5297 10.8949V10.9187H42.3634V11.0612H42.3397V10.9187H42.1734V10.8949H42.3397V10.7287H42.3634V10.8949H42.5297ZM42.5297 11.8689V11.8927H42.3634V12.0589H42.3397V11.8927H42.1734V11.8689H42.3397V11.7264H42.3634V11.8689H42.5297ZM42.5297 12.8666V12.8904H42.3634V13.0567H42.3397V12.8904H42.1734V12.8666H42.3397V12.7003H42.3634V12.8666H42.5297ZM42.3397 13.698H42.3634V13.8643H42.5297V13.8881H42.1734V13.8643H42.3397V13.698ZM43.1711 7.94931V7.92555H43.5037V7.94931H43.3611V8.09184H43.3374V7.94931H43.1711ZM43.5037 10.8949V10.9187H43.3611V11.0612H43.3374V10.9187H43.1711V10.8949H43.3374V10.7287H43.3611V10.8949H43.5037ZM43.5037 11.8689V11.8927H43.3611V12.0589H43.3374V11.8927H43.1711V11.8689H43.3374V11.7264H43.3611V11.8689H43.5037ZM43.5037 12.8666V12.8904H43.3611V13.0567H43.3374V12.8904H43.1711V12.8666H43.3374V12.7003H43.3611V12.8666H43.5037ZM43.3374 13.698H43.3611V13.8643H43.5037V13.8881H43.1711V13.8643H43.3374V13.698ZM44.1688 7.94931V7.92555H44.5014V7.94931H44.3351V8.09184H44.3113V7.94931H44.1688ZM44.3351 10.7287V10.8949H44.5014V10.9187H44.3351V11.0612H44.3113V10.9187H44.1688V10.8949H44.3113V10.7287H44.3351ZM45.309 10.8949V10.7287H45.3328V11.0612H45.309V10.9187H45.1428V10.8949H45.309ZM44.3351 11.7264V11.8689H44.5014V11.8927H44.3351V12.0589H44.3113V11.8927H44.1688V11.8689H44.3113V11.7264H44.3351ZM45.309 11.8689V11.7264H45.3328V12.0589H45.309V11.8927H45.1428V11.8689H45.309ZM44.3351 12.7003V12.8666H44.5014V12.8904H44.3351V13.0567H44.3113V12.8904H44.1688V12.8666H44.3113V12.7003H44.3351ZM45.309 12.8666V12.7003H45.3328V13.0567H45.309V12.8904H45.1428V12.8666H45.309ZM44.3351 13.698V13.8643H44.5014V13.8881H44.1688V13.8643H44.3113V13.698H44.3351ZM45.309 13.8643V13.698H45.3328V13.8881H45.1428V13.8643H45.309ZM68.5807 13.5793H67.8918V12.2015H68.5807V13.5793ZM66.4902 14.2682H67.1791V13.5793L67.8918 13.5793V16.3349L67.1791 16.3349V17L47.5574 17V16.1923H51.2157V1.20286L47.5574 1.20286V0.371427L67.0604 0.371427L68.5332 4.86114H67.9868C66.9416 2.69943 64.7324 1.20286 62.1906 1.20286L58.176 1.20286L57.7246 2.60441L54.4702 2.60441V8.28188H58.176V8.06808H61.6442V7.37918H62.3331V6.69029H62.4519C62.5469 6.42898 62.5944 6.14392 62.5944 5.8351H63.4021V6.69029H63.7109V9.44588H65.1124V10.1348H63.7109V11.5363H63.6871V11.5126H62.7369V11.5363H62.7132V11.5126H62.3331V10.1348H63.022V9.44588H62.7369L62.2381 10.0398H61.953L62.4281 9.44588H61.953L61.4779 10.0398H61.1929L61.668 9.44588H61.1929L60.7178 10.0398H60.4089L60.9078 9.44588H60.4327L59.9576 10.0398H59.6488L60.1476 9.44588H59.6725L59.1737 10.0398H58.8886L59.3875 9.44588H58.9124L58.4135 10.0398H58.1284L58.6273 9.44588H58.176V9.39837L57.6533 10.0398H57.3683L58.1284 9.11331H57.6533L56.8932 10.0398L56.6081 10.0398L57.3683 9.11331H56.8932L56.133 10.0398H55.8242L56.6081 9.11331H56.133L55.3729 10.0398H55.064L55.8242 9.11331H55.3729L54.5889 10.0398H54.3039L55.064 9.11331H54.5889L53.8288 10.0398H53.5437L54.3039 9.11331L53.8288 9.11331L53.0686 10.0398V13.7931L54.4702 14.2444V16.1923L57.7484 16.1923V16.1448H57.7721V16.1923H58.2235V16.3349H58.5798V16.2873H58.7461V16.1448H58.7698V16.2873H58.9361V16.3349H59.5775V16.2873H59.7438V16.1448H59.7675V16.2873H59.9338V16.3349H60.5752V16.2873H60.7178V16.1448H60.7415V16.2873H60.9078V16.3349H61.5492V16.2873H61.7155V16.1448H61.7392V16.2873H61.9055V16.3349H62.5469V16.2873H62.7132V16.1448H62.7369V16.2873H62.9032V16.3349H63.5446V16.2873H63.6871V16.1448H63.7109V15.646H65.8013V14.9571H66.4902V14.2682ZM53.0686 9.11331V9.68343L53.5437 9.11331H53.0686ZM57.9384 11.3463V11.37H57.7721V11.5363H57.7484V11.18H57.7721V11.3463H57.9384ZM57.9384 10.3486V10.3723H57.7721V10.5386H57.7484V10.3486H57.9384ZM57.9384 12.344V12.3678H57.7721V12.534H57.7484V12.1777H57.7721V12.344H57.9384ZM57.9384 13.318V13.3417H57.7721V13.508H57.7484V13.1754H57.7721V13.318H57.9384ZM57.9384 14.3157V14.3394H57.7721V14.5057H57.7484V14.1494H57.7721V14.3157H57.9384ZM57.7484 15.1471H57.7721V15.3134H57.9384V15.3371H57.7721V15.5034H57.7484V15.1471ZM58.9361 11.3463V11.37H58.7698V11.5363H58.7461V11.37H58.5798V11.3463H58.7461V11.18H58.7698V11.3463H58.9361ZM58.9361 10.3486V10.3723H58.7698V10.5386H58.7461V10.3723H58.5798V10.3486H58.9361ZM58.9361 12.344V12.3678H58.7698V12.534H58.7461V12.3678H58.5798V12.344H58.7461V12.1777H58.7698V12.344H58.9361ZM58.9361 13.318V13.3417H58.7698V13.508H58.7461V13.3417H58.5798V13.318H58.7461V13.1754H58.7698V13.318H58.9361ZM58.9361 14.3157V14.3394H58.7698V14.5057H58.7461V14.3394H58.5798V14.3157H58.7461V14.1494H58.7698V14.3157H58.9361ZM58.7698 15.5034H58.7461V15.3371H58.5798V15.3134H58.7461V15.1471H58.7698V15.3134H58.9361V15.3371H58.7698V15.5034ZM59.9338 11.3463V11.37H59.7675V11.5363H59.7438V11.37H59.5775V11.3463H59.7438V11.18H59.7675V11.3463H59.9338ZM59.9338 10.3486V10.3723H59.7675V10.5386H59.7438V10.3723H59.5775V10.3486H59.9338ZM59.9338 12.344V12.3678H59.7675V12.534H59.7438V12.3678H59.5775V12.344H59.7438V12.1777H59.7675V12.344H59.9338ZM59.9338 13.318V13.3417H59.7675V13.508H59.7438V13.3417H59.5775V13.318H59.7438V13.1754H59.7675V13.318H59.9338ZM59.9338 14.3157V14.3394H59.7675V14.5057H59.7438V14.3394H59.5775V14.3157H59.7438V14.1494H59.7675V14.3157H59.9338ZM59.7675 15.5034H59.7438V15.3371H59.5775V15.3134H59.7438V15.1471H59.7675V15.3134H59.9338V15.3371H59.7675V15.5034ZM60.9078 11.3463V11.37H60.7415V11.5363H60.7178V11.37H60.5752V11.3463H60.7178V11.18H60.7415V11.3463H60.9078ZM60.9078 10.3486V10.3723H60.7415V10.5386H60.7178V10.3723H60.5752V10.3486H60.9078ZM60.9078 12.344V12.3678H60.7415V12.534H60.7178V12.3678H60.5752V12.344H60.7178V12.1777H60.7415V12.344H60.9078ZM60.9078 13.318V13.3417H60.7415V13.508H60.7178V13.3417H60.5752V13.318H60.7178V13.1754H60.7415V13.318H60.9078ZM60.9078 14.3157V14.3394H60.7415V14.5057H60.7178V14.3394H60.5752V14.3157H60.7178V14.1494H60.7415V14.3157H60.9078ZM60.7415 15.5034H60.7178V15.3371H60.5752V15.3134H60.7178V15.1471H60.7415V15.3134H60.9078V15.3371H60.7415V15.5034ZM61.9055 11.3463V11.37H61.7392V11.5363H61.7155V11.37H61.5492V11.3463H61.7155V11.18H61.7392V11.3463H61.9055ZM61.9055 10.3486V10.3723H61.7392V10.5386H61.7155V10.3723H61.5492V10.3486H61.9055ZM61.9055 12.344V12.3678H61.7392V12.534H61.7155V12.3678H61.5492V12.344H61.7155V12.1777H61.7392V12.344H61.9055ZM61.9055 13.318V13.3417H61.7392V13.508H61.7155V13.3417H61.5492V13.318H61.7155V13.1754H61.7392V13.318H61.9055ZM61.9055 14.3157V14.3394H61.7392V14.5057H61.7155V14.3394H61.5492V14.3157H61.7155V14.1494H61.7392V14.3157H61.9055ZM61.7392 15.5034H61.7155V15.3371H61.5492V15.3134H61.7155V15.1471H61.7392V15.3134H61.9055V15.3371H61.7392V15.5034ZM62.9032 12.344V12.3678H62.7369V12.534H62.7132V12.3678H62.5469V12.344H62.7132V12.1777H62.7369V12.344H62.9032ZM63.7109 12.1777V12.534H63.6871V12.3678H63.5446V12.344H63.6871V12.1777H63.7109ZM62.9032 13.318V13.3417H62.7369V13.508H62.7132V13.3417H62.5469V13.318H62.7132V13.1754H62.7369V13.318H62.9032ZM63.7109 13.1754V13.508H63.6871V13.3417H63.5446V13.318H63.6871V13.1754H63.7109ZM62.9032 14.3157V14.3394H62.7369V14.5057H62.7132V14.3394H62.5469V14.3157H62.7132V14.1494H62.7369V14.3157H62.9032ZM63.7109 14.1494V14.5057H63.6871V14.3394H63.5446V14.3157H63.6871V14.1494H63.7109ZM62.7369 15.5034H62.7132V15.3371H62.5469V15.3134H62.7132V15.1471H62.7369V15.3134H62.9032V15.3371H62.7369V15.5034ZM63.7109 15.5034H63.6871V15.3371H63.5446V15.3134H63.6871V15.1471H63.7109V15.5034ZM79.5678 0.395182L88.4285 0.395182V1.20286L86.7656 1.20286L86.2905 2.60441L84.6989 2.60441V17.0238H82.8698L76.7885 11.8214H76.5509L76.6459 11.6789L76.3609 11.4413L76.0758 11.8214H75.7907L76.1946 11.2988L75.9095 11.0612L75.3156 11.8214H75.0306L75.7432 10.9187L71.6573 7.37918H71.111V6.66653L70.4221 6.66653V5.97763H69.9232V6.07265H69.8995V5.97763H69.7094V5.26498L69.0205 5.26498V4.93241H68.9255V5.07494H68.9018V4.93241H68.7355V4.90865H69.0205V4.57608H67.619V3.88718H66.2174V4.57608L66.9301 4.57608V4.90865H67.1201V4.93241H66.9538V5.07494H66.9301V5.71633H66.9538V5.88261H67.1201V5.90637H66.9538V6.07265H66.9301V6.71404H66.9538V6.88033H67.1201V6.90408H66.9538V7.07037H66.9301V7.71175H66.9538V7.87804H67.1201V7.9018H66.9538V8.04433H66.9301V8.68571H66.9538V8.852H67.1201V8.87575H66.9538V9.04204H66.9301V9.68343H66.9538V9.84971H67.1201V9.87347H66.9538V10.0398H66.9301V10.6811H66.9538V10.8474H67.1201V10.8712H66.9063L66.74 11.0612V11.6551L67.3814 10.8712H67.6665L66.9063 11.8214H66.74V14.8145L68.688 14.8145L69.1631 16.2161H70.2083V17.0238L61.3476 17.0238V16.2161H65.0772V10.8712H64.8396V4.57608H64.127V3.88718L64.8396 3.88718V1.08408L61.3476 1.08408V0.371427L68.3316 0.371427V1.08408L69.0205 1.08408V1.77298H69.7094V2.48563H71.111V3.17453L71.8236 3.17453V3.79216L83.0123 13.413V1.20286L79.5678 1.20286V0.395182ZM67.7615 5.90637V5.88261H67.9278V5.71633H67.9516V5.88261H68.0941V5.90637H67.9516V6.07265H67.9278V5.90637H67.7615ZM67.9516 5.07494H67.9278V4.93241H67.7615V4.90865H68.0941V4.93241H67.9516V5.07494ZM67.7615 6.90408V6.88033H67.9278V6.71404H67.9516V6.88033H68.0941V6.90408H67.9516V7.07037H67.9278V6.90408H67.7615ZM67.7615 7.9018V7.87804H67.9278V7.71175H67.9516V7.87804H68.0941V7.9018H67.9516V8.04433H67.9278V7.9018H67.7615ZM67.7615 8.87575V8.852H67.9278V8.68571H67.9516V8.852H68.0941V8.87575H67.9516V9.04204H67.9278V8.87575H67.7615ZM67.7615 9.87347V9.84971H67.9278V9.68343H67.9516V9.84971H68.0941V9.87347H67.9516V10.0398H67.9278V9.87347H67.7615ZM67.7615 10.8712V10.8474L67.9278 10.8474V10.6811H67.9516V10.8474H68.0941V10.8712L67.7615 10.8712ZM68.9018 5.71633H68.9255V5.88261H69.0918V5.90637H68.9255V6.07265H68.9018V5.90637H68.7355V5.88261H68.9018V5.71633ZM68.7355 6.90408V6.88033H68.9018V6.71404H68.9255V6.88033H69.0918V6.90408H68.9255V7.07037H68.9018V6.90408H68.7355ZM68.7355 7.9018V7.87804H68.9018V7.71175H68.9255V7.87804H69.0918V7.9018H68.9255V8.04433H68.9018V7.9018H68.7355ZM68.7355 8.87575V8.852H68.9018V8.68571H68.9255V8.852H69.0918V8.87575H68.9255V9.04204H68.9018V8.87575H68.7355ZM68.7355 9.87347V9.84971H68.9018V9.68343H68.9255V9.84971H69.0918V9.87347H68.9255V10.0398H68.9018V9.87347H68.7355ZM69.8995 6.71404H69.9232V6.88033H70.0895V6.90408H69.9232V7.07037H69.8995V6.90408H69.7332V6.88033H69.8995V6.71404ZM69.7332 7.9018V7.87804H69.8995V7.71175H69.9232V7.87804H70.0895V7.9018H69.9232V8.04433H69.8995V7.9018H69.7332ZM69.7332 8.87575V8.852H69.8995V8.68571H69.9232V8.852H70.0895V8.87575H69.9232V9.04204H69.8995V8.87575H69.7332ZM69.7332 9.87347V9.84971H69.8995V9.68343H69.9232V9.84971H70.0895V9.87347H69.9232V10.0398H69.8995V9.87347H69.7332ZM70.8972 6.71404H70.9209V6.88033H71.0635V6.90408H70.9209V7.07037H70.8972V6.90408H70.7309V6.88033H70.8972V6.71404ZM70.7309 7.9018V7.87804H70.8972V7.71175H70.9209V7.87804H71.0635V7.9018H70.9209V8.04433H70.8972V7.9018H70.7309ZM70.7309 8.87575V8.852H70.8972V8.68571H70.9209V8.852H71.0635V8.87575H70.9209V9.04204H70.8972V8.87575H70.7309ZM70.7309 9.87347V9.84971H70.8972V9.68343H70.9209V9.84971H71.0635V9.87347H70.9209V10.0398H70.8972V9.87347H70.7309ZM71.8711 7.71175H71.8949V7.87804H72.0612V7.9018H71.8949V8.04433H71.8711V7.9018H71.7049V7.87804H71.8711V7.71175ZM71.7049 8.87575V8.852H71.8711V8.68571H71.8949V8.852H72.0612V8.87575H71.8949V9.04204H71.8711V8.87575H71.7049ZM72.8926 9.04204H72.8689V8.87575H72.7026V8.852H72.8689V8.68571H72.8926V9.04204ZM71.7049 9.87347V9.84971H71.8711V9.68343H71.8949V9.84971H72.0612V9.87347H71.8949V10.0398H71.8711V9.87347H71.7049ZM72.7026 9.87347V9.84971H72.8689V9.68343H72.8926V10.0398H72.8689V9.87347H72.7026ZM75.0306 10.8712H75.3156L74.5555 11.8214H74.2467L75.0306 10.8712ZM74.2467 10.8712H74.5555L73.7716 11.8214H73.4865L74.2467 10.8712ZM67.6665 11.8214H67.3814L68.1416 10.8712H68.4267L67.6665 11.8214ZM73.4865 10.8712H73.7716L73.0114 11.8214H72.7263L73.4865 10.8712ZM70.7309 10.8712L69.9707 11.8214H69.6619L70.4458 10.8712H70.7309V10.8474H70.8972V10.6811H70.9209V10.8474H71.0635V10.8712H70.7309ZM72.8926 10.8712H73.0114L72.2512 11.8214H71.9662L72.7263 10.8712H72.7026V10.8474H72.8689V10.6811H72.8926V10.8712ZM69.1868 10.8712L68.4267 11.8214H68.1416L68.9018 10.8712H68.7355V10.8474H68.9018V10.6811H68.9255V10.8474H69.0918V10.8712H69.1868ZM69.9707 10.8712L69.1868 11.8214H68.9018L69.6619 10.8712H69.7332V10.8474H69.8995V10.6811H69.9232V10.8474H70.0895V10.8712H69.9707ZM72.0612 10.8712H72.2512L71.4911 11.8214H71.206L71.9662 10.8712H71.7049V10.8474H71.8711V10.6811H71.8949V10.8474H72.0612V10.8712ZM71.206 10.8712H71.4911L70.7309 11.8214H70.4458L71.206 10.8712ZM28.6833 18.3714L37.829 18.3714V19.2029H36.6412L36.1899 20.6044H33.9569L29.7047 28.4198L29.9423 28.1348H30.2273L29.4672 29.0612H29.3484L27.2342 33.0046V33.0283H27.2104L27.1392 33.1709V34.0023H27.2342V34.026H27.1392V34.3349H26.4503V35.0238H22.982V33.646H22.2931V32.2682H21.6042V30.8904H20.9153V30.2015H20.2027V29.0612H20.0126L20.2027 28.8237H19.5138V27.4459H18.8249V28.8237H18.136V29.5126H17.4471V30.8904H16.8057V31.508L14.9053 35.0238H12.0784L7.30366 26.1156H7.16113L7.25615 26.0206L7.06611 25.6642L6.68603 26.1156H6.40097L6.94733 25.4504L4.19174 20.3193C3.81166 19.6304 3.09901 19.2029 2.31509 19.2029H0.462191V18.3714L10.8669 18.3714L10.8669 19.2029H10.2968V19.2266H10.1543V19.3929H10.1305V19.2266H9.96423V19.2029H9.94048L9.48913 20.6044H8.15884L10.0593 24.1439H10.1305V23.9776H10.1543V24.1439H10.2968V24.1677H10.1543V24.2864L10.7719 25.4504L10.9857 25.1654H10.9382V25.1416H11.1045V24.9753H11.1282V25.1416H11.2945V25.1654H11.2708L10.8669 25.6642L11.057 25.9968L11.7459 25.1654H11.9359V25.1416H12.1022V24.9753H12.1259V25.1416H12.2922V25.1654H12.0309L11.2708 26.1156H11.1282L14.644 32.6958L16.7582 28.8237V28.1348H17.4471V26.757H16.1406V26.0681H18.136V24.714H17.7797L14.8103 19.2029H14.2639V19.2266H14.0976V19.3929H14.0739V19.2266H13.9313V19.2029H13.3375V18.3714H26.2127V19.2029H23.4809L21.0579 23.6688L21.6042 24.714V25.3792H22.2931V26.0681H20.2977V26.757H22.982V28.1348H23.0533H23.077H23.3621H23.6709V28.3248L23.8372 28.1348H24.1223L23.6709 28.6811V28.8237H24.0273L24.5974 28.1348H24.8824L24.3123 28.8237H24.3598V30.2015H25.0487V29.8689H25.0725V30.0352H25.2388V30.0589H25.0725V30.2252H25.0487V30.8666H25.0725V31.0329H25.2388V31.0567H25.0725V31.2229H25.0487V31.5793H25.7614V32.2682H26.4503V30.8904H27.0442V30.8666H27.0679V30.8904H27.1154V30.4153L27.8281 29.0612H27.6618L28.2082 28.3723L33.1967 19.2029L28.6833 19.2029V18.3714ZM10.1305 24.2389V24.1677H10.083L10.1305 24.2389ZM18.6348 19.2029L20.2977 22.2673L21.9606 19.2029H18.6348ZM9.32284 21.1745V21.1983H9.15656V21.3646H9.1328V21.0082H9.15656V21.1745H9.32284ZM9.1328 22.006H9.15656V22.1722H9.32284V22.196H9.15656V22.3623H9.1328V22.006ZM10.2968 20.1768V20.2006H10.1543V20.3669H10.1305V20.2006H9.96423V20.1768H10.1305V20.0343H10.1543V20.1768H10.2968ZM10.2968 21.1745V21.1983H10.1543V21.3646H10.1305V21.1983H9.96423V21.1745H10.1305V21.0082H10.1543V21.1745H10.2968ZM10.2968 22.1722V22.196H10.1543V22.3623H10.1305V22.196H9.96423V22.1722H10.1305V22.006H10.1543V22.1722H10.2968ZM10.1543 23.3362H10.1305V23.1937H9.96423V23.1462H10.1305V23.0037H10.1543V23.1462H10.2968V23.1937H10.1543V23.3362ZM11.1045 20.3669V20.2006H10.9382V20.1768H11.1045V20.0343H11.1282V20.1768H11.2945V20.2006H11.1282V20.3669H11.1045ZM11.1045 19.3929V19.2266H10.9382V19.2029H11.2945V19.2266H11.1282V19.3929H11.1045ZM11.1045 21.3646V21.1983H10.9382V21.1745H11.1045V21.0082H11.1282V21.1745H11.2945V21.1983H11.1282V21.3646H11.1045ZM11.1045 22.3623V22.196H10.9382V22.1722H11.1045V22.006H11.1282V22.1722H11.2945V22.196H11.1282V22.3623H11.1045ZM11.1045 23.3362V23.1937H10.9382V23.1462H11.1045V23.0037H11.1282V23.1462H11.2945V23.1937H11.1282V23.3362H11.1045ZM11.1045 24.334V24.1677H10.9382V24.1439H11.1045V23.9776H11.1282V24.1439H11.2945V24.1677H11.1282V24.334H11.1045ZM12.1022 20.3669V20.2006H11.9359V20.1768H12.1022V20.0343H12.1259V20.1768H12.2922V20.2006H12.1259V20.3669H12.1022ZM12.1022 19.3929V19.2266H11.9359V19.2029H12.2922V19.2266H12.1259V19.3929H12.1022ZM12.1022 21.3646V21.1983H11.9359V21.1745H12.1022V21.0082H12.1259V21.1745H12.2922V21.1983H12.1259V21.3646H12.1022ZM12.1022 22.3623V22.196H11.9359V22.1722H12.1022V22.006H12.1259V22.1722H12.2922V22.196H12.1259V22.3623H12.1022ZM12.1022 23.3362V23.1937H11.9359V23.1462H12.1022V23.0037H12.1259V23.1462H12.2922V23.1937H12.1259V23.3362H12.1022ZM12.1022 24.334V24.1677H11.9359V24.1439H12.1022V23.9776H12.1259V24.1439H12.2922V24.1677H12.1259V24.334H12.1022ZM13.0999 20.3669V20.2006H12.9336V20.1768H13.0999V20.0343H13.1237V20.1768H13.2899V20.2006H13.1237V20.3669H13.0999ZM13.0999 19.3929V19.2266H12.9336V19.2029H13.2899V19.2266H13.1237V19.3929H13.0999ZM13.0999 21.3646V21.1983H12.9336V21.1745H13.0999V21.0082H13.1237V21.1745H13.2899V21.1983H13.1237V21.3646H13.0999ZM13.0999 22.3623V22.196H12.9336V22.1722H13.0999V22.006H13.1237V22.1722H13.2899V22.196H13.1237V22.3623H13.0999ZM13.0999 23.3362V23.1937H12.9336V23.1462H13.0999V23.0037H13.1237V23.1462H13.2899V23.1937H13.1237V23.3362H13.0999ZM13.0999 24.334V24.1677H12.9336V24.1439H13.0999V23.9776H13.1237V24.1439H13.2899V24.1677H13.1237V24.334H13.0999ZM12.506 26.1156L13.2662 25.1654H12.9336V25.1416H13.0999V24.9753H13.1237V25.1416H13.2899V25.1654H13.575L12.8148 26.1156H12.506ZM14.0739 20.0343H14.0976V20.1768H14.2639V20.2006H14.0976V20.3669H14.0739V20.2006H13.9313V20.1768H14.0739V20.0343ZM15.0716 20.1768V20.0343H15.0953V20.3669H15.0716V20.2006H14.9053V20.1768H15.0716ZM13.9313 21.1983V21.1745H14.0739V21.0082H14.0976V21.1745H14.2639V21.1983H14.0976V21.3646H14.0739V21.1983H13.9313ZM14.9053 21.1983V21.1745H15.0716V21.0082H15.0953V21.3646H15.0716V21.1983H14.9053ZM13.9313 22.196V22.1722H14.0739V22.006H14.0976V22.1722H14.2639V22.196H14.0976V22.3623H14.0739V22.196H13.9313ZM14.9053 22.196V22.1722H15.0716V22.006H15.0953V22.3623H15.0716V22.196H14.9053ZM13.9313 23.1937V23.1462H14.0739V23.0037H14.0976V23.1462H14.2639V23.1937H14.0976V23.3362H14.0739V23.1937H13.9313ZM14.9053 23.1937V23.1462H15.0716V23.0037H15.0953V23.3362H15.0716V23.1937H14.9053ZM13.9313 24.1677V24.1439H14.0739V23.9776H14.0976V24.1439H14.2639V24.1677H14.0976V24.334H14.0739V24.1677H13.9313ZM14.9053 24.1677V24.1439H15.0716V23.9776H15.0953V24.334H15.0716V24.1677H14.9053ZM14.9053 25.1654V25.1416H15.0716V24.9753H15.0953V25.1654L14.3352 26.1156H14.0501L14.8103 25.1654H14.9053ZM25.0725 29.2275H25.0487V29.0375H25.2388V29.0612H25.0725V29.2275ZM26.2365 30.0352V30.0589H26.0702V30.2252H26.0464V30.0589H25.8802V30.0352H26.0464V29.8689H26.0702V30.0352H26.2365ZM26.2365 31.0329V31.0567H26.0702V31.2229H26.0464V31.0567H25.8802V31.0329H26.0464V30.8666H26.0702V31.0329H26.2365ZM26.0702 32.1969H26.0464V32.0306H25.8802V32.0069H26.0464V31.8643H26.0702V32.0069H26.2365V32.0306H26.0702V32.1969ZM27.0679 30.2252H27.0442V30.0589H26.8779V30.0352H27.0442V29.8689H27.0679V30.0352H27.2342V30.0589H27.0679V30.2252ZM27.0679 34.8337V34.9762H27.2342V35.0238H26.8779V34.9762H27.0442V34.8337H27.0679ZM28.0656 31.8643V32.0069H28.2082V32.0306H28.0656V32.1969H28.0181V32.0306H27.8756V32.0069H28.0181V31.8643H28.0656ZM28.0656 32.8383V33.0046H28.2082V33.0283H28.0656V33.1946H28.0181V33.0283H27.8756V33.0046H28.0181V32.8383H28.0656ZM28.0656 33.836V34.0023H28.2082V34.026H28.0656V34.1923H28.0181V34.026H27.8756V34.0023H28.0181V33.836H28.0656ZM28.0656 34.8337V34.9762H28.2082V35.0238H27.8756V34.9762H28.0181V34.8337H28.0656ZM29.0396 29.8689V30.0352L29.2059 30.0352V30.0589L29.0396 30.0589V30.2252H29.0158V30.0589H28.8495V30.0352H29.0158V29.8689H29.0396ZM29.0396 30.8666V31.0329L29.2059 31.0329V31.0567L29.0396 31.0567V31.2229H29.0158V31.0567H28.8495V31.0329H29.0158V30.8666H29.0396ZM29.0396 31.8643V32.0069L29.2059 32.0069V32.0306L29.0396 32.0306V32.1969H29.0158V32.0306H28.8495V32.0069H29.0158V31.8643H29.0396ZM29.0396 32.8383V33.0046L29.2059 33.0046V33.0283L29.0396 33.0283V33.1946H29.0158V33.0283H28.8495V33.0046H29.0158V32.8383H29.0396ZM29.0396 33.836V34.0023H29.2059V34.026H29.0396V34.1923H29.0158V34.026H28.8495V34.0023H29.0158V33.836H29.0396ZM29.0396 34.8337V34.9762H29.2059V35.0238H28.8495V34.9762H29.0158V34.8337H29.0396ZM30.0373 29.8689V30.0352H30.2036V30.0589H30.0373V30.2252H30.0135V30.0589H29.8473V30.0352H30.0135V29.8689H30.0373ZM31.0113 30.0352V29.8689H31.035V30.2252H31.0113V30.0589H30.845V30.0352H31.0113ZM30.0373 30.8666V31.0329H30.2036V31.0567H30.0373V31.2229H30.0135V31.0567H29.8473V31.0329H30.0135V30.8666H30.0373ZM31.0113 31.0329V30.8666H31.035V31.2229H31.0113V31.0567H30.845V31.0329H31.0113ZM30.0373 31.8643V32.0069H30.2036V32.0306H30.0373V32.1969H30.0135V32.0306H29.8473V32.0069H30.0135V31.8643H30.0373ZM31.0113 32.0069V31.8643H31.035V32.1969H31.0113V32.0306H30.845V32.0069H31.0113ZM30.0373 32.8383V33.0046H30.2036V33.0283H30.0373V33.1946H30.0135V33.0283H29.8473V33.0046H30.0135V32.8383H30.0373ZM31.0113 33.0046V32.8383H31.035V33.1946H31.0113V33.0283H30.845V33.0046H31.0113ZM30.0373 33.836V34.0023H30.2036V34.026H30.0373V34.1923H30.0135V34.026H29.8473V34.0023H30.0135V33.836H30.0373ZM31.0113 34.0023V33.836H31.035V34.1923H31.0113V34.026H30.845V34.0023H31.0113ZM30.0373 34.8337V34.9762H30.2036V35.0238H29.8473V34.9762H30.0135V34.8337H30.0373ZM31.0113 34.9762V34.8337H31.035V35.0238H30.845V34.9762H31.0113ZM30.7024 28.1348H31.0113L30.2273 29.0612H30.0373V29.2275H30.0135V29.0612H29.8473V29.0375H29.966L30.7024 28.1348ZM26.8779 29.0375H26.9016L27.6618 28.1348H27.9468L27.2104 29.0375H27.2342V29.0612H27.0679V29.2275H27.0442V29.0612H26.8779V29.0375ZM31.4626 28.1348H31.7714L31.0113 29.0375H31.035V29.2275H31.0113V29.0612H30.7024L31.4626 28.1348ZM25.8802 29.0375H26.1415L26.8779 28.1348H27.1867L26.4265 29.0612H26.0702V29.2275H26.0464V29.0612H25.8802V29.0375ZM25.3575 29.0612L26.1177 28.1348H26.4265L25.6426 29.0612H25.3575ZM25.3575 28.1348H25.6426L24.8824 29.0612H24.5974L25.3575 28.1348ZM4.88064 25.1654H5.1657L4.40554 26.1156H4.12048L4.88064 25.1654ZM5.6408 25.1654H5.92586L5.1657 26.1156H4.88064L5.6408 25.1654ZM13.575 26.1156H13.2662L14.0501 25.1654H13.9313V25.1416H14.0739V24.9753H14.0976V25.1416H14.2639V25.1654H14.3352L13.575 26.1156ZM12.0309 26.1156H11.7459L12.506 25.1654H12.8148L12.0309 26.1156ZM6.40097 25.1654H6.68603L5.92586 26.1156H5.6408L6.40097 25.1654ZM15.0953 26.1156H14.8103L15.5704 25.1654H15.8555L15.0953 26.1156ZM54.5888 34.1923H55.4677V35.0238H44.2553V34.3349H47.7235V32.9571H47.0346V31.5793H46.3457V30.6528L45.9419 31.1517H45.6331L46.3457 30.2965V30.2015H45.9419L45.1817 31.1517H44.8729L45.6331 30.2015V29.5126H44.9442V28.1348H42.8775V27.4459H44.2553V27.3746L40.4782 20.6994L35.0621 30.2015V30.249H35.0383L33.9218 32.1969H34.0643V32.2207H33.9218V32.3869H33.8981V32.2682L32.8053 34.1686H32.9003V34.0023H32.9241V34.1686H33.0904V34.1923H33.7318V34.1686H33.8981V34.0023H33.9218V34.1686H34.0643V34.1923H34.7057V34.1686H34.872V34.0023H34.8958V34.1686H35.0621V34.1923H35.7034V34.1686H35.8697V34.0023H35.8935V34.1686H36.0598V34.1923H36.7012V34.1686H36.8674V34.0023H36.8912V35.0238H28.1493V34.1923H30.9287V34.0023H30.9524V34.1686H31.095V34.1923H31.2612L31.8314 33.2184H31.7363V33.1946H31.8551L31.9026 33.0758V33.0283H31.9264L32.9003 31.318V31.2229H32.7341V31.1992H32.9003V31.0329H32.9241V31.1992H32.9716L34.0643 29.2513H33.9218V29.4176H33.8981V29.2513H33.7318V29.2275H33.8981V29.0612H33.9218V29.2275H34.0643V29.2513L40.2407 18.3714H43.4476L47.0109 24.714H47.0346V25.3792H47.7235V26.757H48.4124V27.4459H47.7235V28.1348H49.1013V28.8237H49.7902V30.2015H50.5029V31.5793H51.1918V32.2682L51.8807 32.2682V33.646H52.5696V34.3349H54.5888V34.1923ZM32.9241 31.2704L32.9479 31.2229H32.9241V31.2704ZM30.9524 29.2513V29.4176H30.9287V29.0612H30.9524V29.2275H31.095V29.2513H30.9524ZM30.9524 28.2536V28.4198H30.9287V28.2298H31.095V28.2536H30.9524ZM30.9524 30.249V30.3915H30.9287V30.0589H30.9524V30.2015H31.095V30.249H30.9524ZM30.9524 31.2229V31.3892H30.9287V31.0329H30.9524V31.1992H31.095V31.2229H30.9524ZM30.9524 32.2207V32.3869H30.9287V32.0306H30.9524V32.1969H31.095V32.2207H30.9524ZM30.9524 33.2184V33.3609H30.9287V33.0283H30.9524V33.1946H31.095V33.2184H30.9524ZM31.9026 29.4176V29.2513H31.7363V29.2275H31.9026V29.0612H31.9264V29.2275H32.0927V29.2513H31.9264V29.4176H31.9026ZM31.9026 28.4198V28.2536H31.7363V28.2298H32.0927V28.2536H31.9264V28.4198H31.9026ZM31.9026 30.3915V30.249H31.7363V30.2015H31.9026V30.0589H31.9264V30.2015H32.0927V30.249H31.9264V30.3915H31.9026ZM31.9026 31.3892V31.2229H31.7363V31.1992H31.9026V31.0329H31.9264V31.1992H32.0927V31.2229H31.9264V31.3892H31.9026ZM31.9026 32.3869V32.2207H31.7363V32.1969H31.9026V32.0306H31.9264V32.1969H32.0927V32.2207H31.9264V32.3869H31.9026ZM32.9003 29.4176V29.2513H32.7341V29.2275H32.9003V29.0612H32.9241V29.2275H33.0904V29.2513H32.9241V29.4176H32.9003ZM32.9003 28.4198V28.2536H32.7341V28.2298H33.0904V28.2536H32.9241V28.4198H32.9003ZM32.9003 30.3915V30.249H32.7341V30.2015H32.9003V30.0589H32.9241V30.2015H33.0904V30.249H32.9241V30.3915H32.9003ZM33.8981 28.4198V28.2536H33.7318V28.2298H34.0643V28.2536H33.9218V28.4198H33.8981ZM33.9218 33.3609H33.8981V33.2184H33.7318V33.1946H33.8981V33.0283H33.9218V33.1946H34.0643V33.2184H33.9218V33.3609ZM35.0621 31.1992V31.2229H34.8958V31.3892H34.872V31.2229H34.7057V31.1992H34.872V31.0329H34.8958V31.1992H35.0621ZM35.0621 32.1969V32.2207H34.8958V32.3869H34.872V32.2207H34.7057V32.1969H34.872V32.0306H34.8958V32.1969H35.0621ZM34.8958 33.3609H34.872V33.2184H34.7057V33.1946H34.872V33.0283H34.8958V33.1946H35.0621V33.2184H34.8958V33.3609ZM36.8912 28.4198H36.8674V28.2536H36.7012V28.2298H36.8912V28.4198ZM36.0598 29.2275V29.2513H35.8935V29.4176H35.8697V29.2513H35.7034V29.2275H35.8697V29.0612H35.8935V29.2275H36.0598ZM36.7012 29.2513V29.2275H36.8674V29.0612H36.8912V29.4176H36.8674V29.2513H36.7012ZM36.0598 30.2015V30.249H35.8935V30.3915H35.8697V30.249H35.7034V30.2015H35.8697V30.0589H35.8935V30.2015H36.0598ZM36.7012 30.249V30.2015H36.8674V30.0589H36.8912V30.3915H36.8674V30.249H36.7012ZM36.0598 31.1992V31.2229H35.8935V31.3892H35.8697V31.2229H35.7034V31.1992H35.8697V31.0329H35.8935V31.1992H36.0598ZM36.8674 31.1992V31.0329H36.8912V31.3892H36.8674V31.2229H36.7012V31.1992H36.8674ZM36.0598 32.1969V32.2207H35.8935V32.3869H35.8697V32.2207H35.7034V32.1969H35.8697V32.0306H35.8935V32.1969H36.0598ZM36.8674 32.1969V32.0306H36.8912V32.3869H36.8674V32.2207H36.7012V32.1969H36.8674ZM35.8935 33.3609H35.8697V33.2184H35.7034V33.1946H35.8697V33.0283H35.8935V33.1946H36.0598V33.2184H35.8935V33.3609ZM36.8674 33.1946V33.0283H36.8912V33.3609H36.8674V33.2184H36.7012V33.1946H36.8674ZM36.7724 31.1517H36.4874L37.2475 30.2015H37.5326L36.7724 31.1517ZM38.0077 30.2015H38.2928L37.5326 31.1517H37.2475L38.0077 30.2015ZM45.1817 30.2015L44.3978 31.1517H44.1127L44.8729 30.2015H45.1817ZM38.7679 30.2015H39.0529L38.2928 31.1517H38.0077L38.7679 30.2015ZM44.1127 30.2015H44.3978L43.6376 31.1517H43.3526L44.1127 30.2015ZM41.0721 30.2015H41.3572L40.597 31.1517H40.2882L41.0721 30.2015ZM43.3526 30.2015H43.6376L42.8775 31.1517H42.5924L43.3526 30.2015ZM39.528 30.2015H39.8131L39.0529 31.1517H38.7679L39.528 30.2015ZM40.2882 30.2015H40.597L39.8131 31.1517H39.528L40.2882 30.2015ZM42.5924 30.2015H42.8775L42.1173 31.1517H41.8323L42.5924 30.2015ZM41.8323 30.2015H42.1173L41.3572 31.1517H41.0721L41.8323 30.2015ZM70.7495 34.1923H72.8162V35H63.0766V34.0023H63.1003V34.1686H63.2666V34.1923H63.908V34.1686H64.0505V34.0023H64.0743V34.1686H64.2406V34.1923H64.8819V34.1686H65.0482V34.0023H65.072V34.1686H65.2383V34.1923H65.8797V34.1686H66.0459V34.0023H66.0697V34.1686H66.236V34.1923H66.8774V34.1686H66.9249L66.0697 33.2184V33.3609H66.0459V33.2184H65.8797V33.1946H66.0459V33.1709L65.9509 33.0758H65.8084V32.3869H65.1195V32.2207H65.072V32.3869H65.0482V32.2207H64.8819V32.1969H65.0482V32.0306H65.072V32.1969H65.1195V31.698H64.4306V31.0091H63.7417V30.3202H63.1003V30.3915H63.0766V30.3202H63.0528V29.6313H62.3639V28.9424H60.2972V28.2536H61.675V27.7072L61.4137 28.0398H61.1049L61.5087 27.5647H61.0336L60.6535 28.0398H60.3447L60.8436 27.4459C60.7486 27.3746 60.6298 27.3033 60.511 27.2558L59.8696 28.0398H59.5846L60.2972 27.1846C60.1547 27.1371 60.0122 27.1133 59.8696 27.1133L59.1095 28.0398H58.8244L59.5846 27.1133H59.1095L58.3493 28.0398H58.0642L58.8244 27.1133H58.3493L57.5891 28.0398H57.3041L58.0642 27.1133H57.5891L56.829 28.0398H56.5202L57.3041 27.1133H56.829L56.0688 28.0398H55.76L56.5202 27.1133H56.0688L55.2849 28.0398H54.9998L55.76 27.1133H55.2849L54.5247 28.0398H54.2397L54.9998 27.1133H54.5247L53.7646 28.0398V31.7931L55.1661 32.2444V34.1923H58.8482V35H48.2534V34.1923H51.9117L51.9117 19.2029L48.2534 19.2029V18.3952L66.9486 18.3952C69.3479 18.3952 71.2958 20.3193 71.3196 22.7186H71.3433V23.4075H70.6544V24.0964H71.3433V24.8091H70.6544V25.498H69.9655V26.1869H69.2766V26.8758H64.4306V27.5647H65.1195V28.2298H65.2383V28.2536H65.072V28.4198H65.0482V28.2536H64.8819H64.4306V28.9424H66.4973V29.6313H67.2099V30.2015V30.249V30.3202H67.8988V31.0091H68.5877V32.3869H69.2766V33.0521H69.728L70.7495 34.1923ZM53.7646 27.6834L54.2397 27.1133H53.7646V27.6834ZM60.9861 26.1869H66.4973V25.498H67.2099V24.8091H67.8988V24.0964H67.2099V23.4075H67.8988V22.7186H68.0651C68.0651 20.7707 66.4735 19.2029 64.5256 19.2029H61.0099L60.5585 20.6044H55.1661L55.1661 26.2819H60.9861V26.1869ZM63.0766 31.0329H63.1003V31.1992H63.2666V31.2229H63.1003V31.3892H63.0766V31.0329ZM63.0766 32.3869V32.0306H63.1003V32.1969H63.2666V32.2207H63.1003V32.3869H63.0766ZM63.0766 33.3609V33.0283H63.1003V33.1946H63.2666V33.2184H63.1003V33.3609H63.0766ZM64.0505 31.0329H64.0743V31.1992H64.2406V31.2229H64.0743V31.3892H64.0505V31.2229H63.908V31.1992H64.0505V31.0329ZM63.908 32.2207V32.1969H64.0505V32.0306H64.0743V32.1969H64.2406V32.2207H64.0743V32.3869H64.0505V32.2207H63.908ZM63.908 33.2184V33.1946H64.0505V33.0283H64.0743V33.1946H64.2406V33.2184H64.0743V33.3609H64.0505V33.2184H63.908ZM65.0482 33.0283H65.072V33.1946H65.2383V33.2184H65.072V33.3609H65.0482V33.2184H64.8819V33.1946H65.0482V33.0283ZM66.0697 28.4198H66.0459V28.2536H65.8797V28.2298H66.236V28.2536H66.0697V28.4198ZM67.0674 29.4176H67.0199V29.2513H66.8774V29.2275H67.0199V29.0612H67.0674V29.2275H67.2099V29.2513H67.0674V29.4176ZM67.2099 28.2298V28.2536H67.0674V28.4198H67.0199V28.2536H66.8774V28.2298H67.2099ZM69.0391 28.2298V28.4198H69.0153V28.2536H68.8491V28.2298H69.0391ZM68.2077 29.2275V29.2513H68.0414V29.4176H68.0176V29.2513H67.8513V29.2275H68.0176V29.0612H68.0414V29.2275H68.2077ZM69.0391 29.0612V29.4176H69.0153V29.2513H68.8491V29.2275H69.0153V29.0612H69.0391ZM68.2077 28.2298V28.2536H68.0414V28.4198H68.0176V28.2536H67.8513V28.2298H68.2077ZM68.0414 30.3915H68.0176V30.249H67.8513V30.2015H68.0176V30.0589H68.0414V30.2015H68.2077V30.249H68.0414V30.3915ZM69.0391 30.0589V30.3915H69.0153V30.249H68.8491V30.2015H69.0153V30.0589H69.0391ZM69.0391 31.0329V31.3892H69.0153V31.2229H68.8491V31.1992H69.0153V31.0329H69.0391ZM69.0391 32.3869H69.0153V32.2207H68.8491V32.1969H69.0153V32.0306H69.0391V32.3869ZM89.6325 24.5715H87.5658V25.2604H89.6325V28.7049H89.4425C88.5636 32.3157 85.2854 35 81.3658 35H65.5686V34.1923H69.2269V19.2029H65.5686V18.3714L84.0976 18.3714V19.0603H85.4754V19.7492H86.1643V20.4381H87.5658V21.8159H88.2547V22.5048H88.9436V23.8826H89.6325V24.5715ZM72.0775 25.6167V25.5692H71.935L72.0775 25.6167ZM86.1643 24.5715V23.8826H85.4754V22.5048H84.7865V21.8159H84.0976V21.127H83.4087V20.4381H82.0071V19.7492H80.6293V19.0603H79.3703V19.2029C79.2278 19.2029 79.0853 19.2029 78.9427 19.2029H76.8048L76.3534 20.6044H76.2109V20.6282H76.0684V20.7707H76.0209V20.6282H75.8783V20.6044H75.2369V20.6282H75.0707V20.7707H75.0469V20.6282H74.8806V20.6044H74.2392V20.6282H74.0729V20.7707H74.0492V20.6282H73.8829V20.6044L73.2415 20.6044V20.6282H73.099V20.7707H73.0515V20.6282H72.9089V20.6044H72.2676V20.6282H72.1013V20.7707H72.0775V20.6282H71.9112V20.6044H71.2698V20.6282H71.1036V20.7707H71.0798V21.4121H71.1036V21.5784H71.2698V21.6021H71.1036V21.7684H71.0798V22.4098H71.1036V22.5761H71.2698V22.5998H71.1036V22.7661H71.0798V23.4075H71.1036V23.5738H71.2698V23.5976H71.1036V23.7638H71.0798V24.4052H71.1036V24.5478H71.2698V24.5715H71.1036V24.7378H71.0798V25.2842L71.9112 25.5692V25.5455H72.0775V25.3792H72.1013V25.5455H72.2676V25.5692H72.1013V25.6167L72.4813 25.7355V33.836L72.9565 33.2421H73.2415L72.4813 34.1923H72.9565L73.7166 33.2421H74.0017L73.2415 34.1923H73.7166L74.4768 33.2421H74.7618L74.0017 34.1923H74.4768L75.2369 33.2421H75.5458L74.7618 34.1923H75.2369L76.0209 33.2421H76.3059L75.5458 34.1923H78.9427C78.9902 34.1923 79.014 34.1923 79.0615 34.1923L79.8217 33.2421H80.1305L79.3703 34.1923C79.5366 34.1686 79.7029 34.1686 79.8692 34.1448L80.5818 33.2421H80.8907L80.2018 34.0973C80.3918 34.0498 80.5818 34.026 80.7719 33.9785L81.3658 33.2421H81.6508L81.152 33.8598C81.3895 33.7885 81.6033 33.7172 81.8171 33.6222L82.1259 33.2421H82.411L82.2922 33.4084C84.1689 32.4582 85.5942 30.7716 86.1643 28.7049V25.2604H84.0976V24.5715H86.1643ZM72.1013 21.4121V21.5784H72.2676V21.6021H72.1013V21.7684H72.0775V21.6021H71.9112V21.5784H72.0775V21.4121H72.1013ZM72.1013 22.4098V22.5761H72.2676V22.5998H72.1013V22.7661H72.0775V22.5998H71.9112V22.5761H72.0775V22.4098H72.1013ZM72.1013 23.4075V23.5738H72.2676V23.5976H72.1013V23.7638H72.0775V23.5976H71.9112V23.5738H72.0775V23.4075H72.1013ZM72.1013 24.4052V24.5478H72.2676V24.5715H72.1013V24.7378H72.0775V24.5715H71.9112V24.5478H72.0775V24.4052H72.1013ZM73.099 21.4121V21.5784H73.2415V21.6021H73.099V21.7684H73.0515V21.6021H72.9089V21.5784H73.0515V21.4121H73.099ZM73.099 22.4098V22.5761H73.2415V22.5998H73.099V22.7661H73.0515V22.5998H72.9089V22.5761H73.0515V22.4098H73.099ZM73.099 23.4075V23.5738H73.2415V23.5976H73.099V23.7638H73.0515V23.5976H72.9089V23.5738H73.0515V23.4075H73.099ZM73.099 24.4052V24.5478H73.2415V24.5715H73.099V24.7378H73.0515V24.5715H72.9089V24.5478H73.0515V24.4052H73.099ZM73.099 25.3792V25.5455H73.2415V25.5692H73.099V25.7355H73.0515V25.5692H72.9089V25.5455H73.0515V25.3792H73.099ZM73.099 26.3769V26.5432H73.2415V26.5669H72.9089V26.5432H73.0515V26.3769H73.099ZM74.0729 21.4121V21.5784H74.2392V21.6021H74.0729V21.7684H74.0492V21.6021H73.8829V21.5784H74.0492V21.4121H74.0729ZM74.0729 22.4098V22.5761H74.2392V22.5998H74.0729V22.7661H74.0492V22.5998H73.8829V22.5761H74.0492V22.4098H74.0729ZM74.0729 23.4075V23.5738H74.2392V23.5976H74.0729V23.7638H74.0492V23.5976H73.8829V23.5738H74.0492V23.4075H74.0729ZM74.0729 24.4052V24.5478H74.2392V24.5715H74.0729V24.7378H74.0492V24.5715H73.8829V24.5478H74.0492V24.4052H74.0729ZM74.0729 25.3792V25.5455H74.2392V25.5692H74.0729V25.7355H74.0492V25.5692H73.8829V25.5455H74.0492V25.3792H74.0729ZM74.0729 26.3769V26.5432H74.2392V26.5669H73.8829V26.5432H74.0492V26.3769H74.0729ZM75.0707 21.4121V21.5784H75.2369V21.6021H75.0707V21.7684H75.0469V21.6021H74.8806V21.5784H75.0469V21.4121H75.0707ZM75.0707 22.4098V22.5761H75.2369V22.5998H75.0707V22.7661H75.0469V22.5998H74.8806V22.5761H75.0469V22.4098H75.0707ZM75.0707 23.4075V23.5738H75.2369V23.5976H75.0707V23.7638H75.0469V23.5976H74.8806V23.5738H75.0469V23.4075H75.0707ZM75.0707 24.4052V24.5478H75.2369V24.5715H75.0707V24.7378H75.0469V24.5715H74.8806V24.5478H75.0469V24.4052H75.0707ZM75.0707 25.3792V25.5455H75.2369V25.5692H75.0707V25.7355H75.0469V25.5692H74.8806V25.5455H75.0469V25.3792H75.0707ZM75.0707 26.3769V26.5432H75.2369V26.5669H74.8806V26.5432H75.0469V26.3769H75.0707ZM76.8523 20.6282V20.6044H77.0423V20.7707H77.0186V20.6282H76.8523ZM76.0684 21.4121V21.5784H76.2109V21.6021H76.0684V21.7684H76.0446V21.6021H75.8783V21.5784H76.0446V21.4121H76.0684ZM77.0186 21.5784V21.4121H77.0423V21.7684H77.0186V21.6021H76.8523V21.5784H77.0186ZM76.0684 22.4098V22.5761H76.2109V22.5998H76.0684V22.7661H76.0446V22.5998H75.8783V22.5761H76.0446V22.4098H76.0684ZM77.0186 22.5761V22.4098H77.0423V22.7661H77.0186V22.5998H76.8523V22.5761H77.0186ZM76.0684 23.4075V23.5738H76.2109V23.5976H76.0684V23.7638H76.0446V23.5976H75.8783V23.5738H76.0446V23.4075H76.0684ZM77.0186 23.5738V23.4075H77.0423V23.7638H77.0186V23.5976H76.8523V23.5738H77.0186ZM76.0684 24.4052V24.5478H76.2109V24.5715H76.0684V24.7378H76.0446V24.5715H75.8783V24.5478H76.0446V24.4052H76.0684ZM77.0186 24.5478V24.4052H77.0423V24.7378H77.0186V24.5715H76.8523V24.5478H77.0186ZM76.0684 25.3792V25.5455H76.2109V25.5692H76.0684V25.7355H76.0446V25.5692H75.8783V25.5455H76.0446V25.3792H76.0684ZM77.0186 25.5455V25.3792H77.0423V25.7355H77.0186V25.5692H76.8523V25.5455H77.0186ZM76.0684 26.3769V26.5432H76.2109V26.5669H75.8783V26.5432H76.0446V26.3769H76.0684ZM77.0186 26.5432V26.3769H77.0423V26.5669H76.8523V26.5432H77.0186ZM77.0661 33.2421L76.3059 34.1923H76.0209L76.781 33.2421H77.0661ZM78.3013 34.1923L79.0615 33.2421H79.3466L78.5864 34.1923H78.3013ZM78.3013 33.2421H78.5864L77.8262 34.1923H77.5412L78.3013 33.2421ZM77.5412 33.2421H77.8262L77.0661 34.1923H76.781L77.5412 33.2421ZM38.0212 52.1923H40.0879V53H30.3483V52.0023H30.3721V52.1686H30.5384V52.1923H31.1798V52.1686H31.3223V52.0023H31.3461V52.1686H31.5123V52.1923H32.1537V52.1686H32.32V52.0023H32.3438V52.1686H32.5101V52.1923H33.1514V52.1686H33.3177V52.0023H33.3415V52.1686H33.5078V52.1923H34.1492V52.1686H34.1967L33.3415 51.2184V51.3609H33.3177V51.2184H33.1514V51.1946H33.3177V51.1709L33.2227 51.0758H33.0802V50.3869H32.3913V50.2207H32.3438V50.3869H32.32V50.2207H32.1537V50.1969H32.32V50.0306H32.3438V50.1969H32.3913V49.698H31.7024V49.0091H31.0135V48.3202H30.3721V48.3915H30.3483V48.3202H30.3246V47.6313H29.6357V46.9424H27.569V46.2536H28.9468V45.7072L28.6855 46.0398H28.3767L28.7805 45.5647H28.3054L27.9253 46.0398H27.6165L28.1154 45.4459C28.0203 45.3746 27.9016 45.3033 27.7828 45.2558L27.1414 46.0398H26.8563L27.569 45.1846C27.4265 45.1371 27.2839 45.1133 27.1414 45.1133L26.3812 46.0398H26.0962L26.8563 45.1133H26.3812L25.6211 46.0398H25.336L26.0962 45.1133H25.6211L24.8609 46.0398H24.5759L25.336 45.1133H24.8609L24.1007 46.0398H23.7919L24.5759 45.1133H24.1007L23.3406 46.0398H23.0318L23.7919 45.1133H23.3406L22.5567 46.0398H22.2716L23.0318 45.1133H22.5567L21.7965 46.0398H21.5114L22.2716 45.1133H21.7965L21.0363 46.0398V49.7931L22.4379 50.2444V52.1923H26.1199V53L15.5252 53V52.1923L19.1834 52.1923V37.2029L15.5252 37.2029V36.3952L34.2204 36.3952C36.6197 36.3952 38.5676 38.3193 38.5914 40.7186H38.6151V41.4075H37.9262V42.0964H38.6151V42.8091H37.9262V43.498H37.2373V44.1869H36.5484V44.8758H31.7024V45.5647H32.3913V46.2298H32.5101V46.2536H32.3438V46.4198H32.32V46.2536H32.1537H31.7024V46.9424H33.7691V47.6313H34.4817V48.2015V48.249V48.3202H35.1706V49.0091H35.8595V50.3869H36.5484V51.0521H36.9998L38.0212 52.1923ZM21.0363 45.6834L21.5114 45.1133H21.0363V45.6834ZM28.2579 44.1869H33.7691V43.498H34.4817V42.8091H35.1706V42.0964H34.4817V41.4075H35.1706V40.7186H35.3369C35.3369 38.7707 33.7453 37.2029 31.7974 37.2029H28.2816L27.8303 38.6044H22.4379V44.2819H28.2579V44.1869ZM30.3483 49.0329H30.3721V49.1992H30.5384V49.2229H30.3721V49.3892H30.3483V49.0329ZM30.3483 50.3869V50.0306H30.3721V50.1969H30.5384V50.2207H30.3721V50.3869H30.3483ZM30.3483 51.3609V51.0283H30.3721V51.1946H30.5384V51.2184H30.3721V51.3609H30.3483ZM31.3223 49.0329H31.3461V49.1992H31.5123V49.2229H31.3461V49.3892H31.3223V49.2229H31.1798V49.1992H31.3223V49.0329ZM31.1798 50.2207V50.1969H31.3223V50.0306H31.3461V50.1969H31.5123V50.2207H31.3461V50.3869H31.3223V50.2207H31.1798ZM31.1798 51.2184V51.1946H31.3223V51.0283H31.3461V51.1946H31.5123V51.2184H31.3461V51.3609H31.3223V51.2184H31.1798ZM32.32 51.0283H32.3438V51.1946H32.5101V51.2184H32.3438V51.3609H32.32V51.2184H32.1537V51.1946H32.32V51.0283ZM33.3415 46.4198H33.3177V46.2536H33.1514V46.2298H33.5078V46.2536H33.3415V46.4198ZM34.3392 47.4176H34.2917V47.2513H34.1492V47.2275H34.2917V47.0612H34.3392V47.2275H34.4817V47.2513H34.3392V47.4176ZM34.4817 46.2298V46.2536H34.3392V46.4198H34.2917V46.2536H34.1492V46.2298H34.4817ZM36.3109 46.2298V46.4198H36.2871V46.2536H36.1208V46.2298H36.3109ZM35.4794 47.2275V47.2513H35.3132V47.4176H35.2894V47.2513H35.1231V47.2275H35.2894V47.0612H35.3132V47.2275H35.4794ZM36.3109 47.0612V47.4176H36.2871V47.2513H36.1208V47.2275H36.2871V47.0612H36.3109ZM35.4794 46.2298V46.2536H35.3132V46.4198H35.2894V46.2536H35.1231V46.2298H35.4794ZM35.3132 48.3915H35.2894V48.249H35.1231V48.2015H35.2894V48.0589H35.3132V48.2015H35.4794V48.249H35.3132V48.3915ZM36.3109 48.0589V48.3915H36.2871V48.249H36.1208V48.2015H36.2871V48.0589H36.3109ZM36.3109 49.0329V49.3892H36.2871V49.2229H36.1208V49.1992H36.2871V49.0329H36.3109ZM36.3109 50.3869H36.2871V50.2207H36.1208V50.1969H36.2871V50.0306H36.3109V50.3869ZM39.176 36.3714H50.3409C54.9256 36.3714 58.6551 40.101 58.6551 44.6857C58.6551 49.2942 54.9256 53 50.3409 53H41.1951C37.2993 53 34.0449 50.3394 33.1422 46.7049H32.9521V44.6382H34.6862V43.9493H32.9521V42.5715H33.641V40.5048H34.3299V39.8159H35.0188V39.127H35.7077V38.4381H36.4204V37.7492H37.1093V37.0603H39.176V36.3714ZM55.4007 44.6857C55.4007 43.688 55.1869 42.714 54.8306 41.8113V41.9064H54.8068V41.7638C54.8068 41.7638 54.8068 41.7401 54.7831 41.7401H54.6405V41.7163H54.7831C54.2367 40.4573 53.3578 39.3883 52.265 38.6044H47.0151L46.5638 37.2029H43.6419C43.4994 37.2029 43.3331 37.2029 43.1906 37.2029V37.0603H41.9553V37.7492H40.5775V38.4381H39.176V39.127H38.4871V39.8159H37.7982V40.5048H37.1093V41.8826H36.4204V43.9493H38.1545V44.6382H36.4204V46.7049C37.2756 49.8643 40.1974 52.1923 43.6419 52.1923H46.5638L47.0151 50.7908H46.9676L47.7278 49.8643H48.0129L47.2527 50.7908H47.7278L48.488 49.8643H48.773L48.0129 50.7908H48.488L49.2481 49.8643H49.5332L48.773 50.7908H49.2481L50.0083 49.8643H50.3171L49.5332 50.7908H50.0083L50.7685 49.8643H51.0773L50.3171 50.7908H50.7685L51.5524 49.8643H51.8374L51.0773 50.7908H51.5524L52.3125 49.8643H52.5976L51.8374 50.7908H52.265C52.2888 50.767 52.3363 50.7433 52.3838 50.7195L53.0727 49.8643H53.334C53.9516 49.2229 54.4267 48.4865 54.7831 47.6789H54.6405V47.6551H54.7831C54.8068 47.6551 54.8068 47.6313 54.8068 47.6313V47.4888H54.8306V47.5838C55.1869 46.6811 55.4007 45.7072 55.4007 44.6857ZM49.8658 42.5478V42.714H50.032V42.7378H49.8658V42.8803H49.842V42.5478H49.8658ZM49.842 41.9064V41.7163H50.032V41.7401H49.8658V41.9064H49.842ZM49.8658 43.5217V43.688H50.032V43.7118H49.8658V43.878H49.842V43.5217H49.8658ZM49.8658 44.5194V44.6857H50.032V44.7095H49.8658V44.8758H49.842V44.5194H49.8658ZM49.8658 45.5171V45.6834H50.032V45.7072H49.8658V45.8735H49.842V45.5171H49.8658ZM49.8658 46.5149V46.6574H50.032V46.6811H49.8658V46.8474H49.842V46.5149H49.8658ZM49.8658 47.4888V47.6551H50.032V47.6789H49.842V47.4888H49.8658ZM50.8635 42.5478V42.714H51.0298V42.7378H50.8635V42.8803H50.8397V42.7378H50.6734V42.714H50.8397V42.5478H50.8635ZM50.6734 41.7401V41.7163H51.0298V41.7401H50.8635V41.9064H50.8397V41.7401H50.6734ZM50.8635 43.5217V43.688H51.0298V43.7118H50.8635V43.878H50.8397V43.7118H50.6734V43.688H50.8397V43.5217H50.8635ZM50.8635 44.5194V44.6857H51.0298V44.7095H50.8635V44.8758H50.8397V44.7095H50.6734V44.6857H50.8397V44.5194H50.8635ZM50.8635 45.5171V45.6834H51.0298V45.7072H50.8635V45.8735H50.8397V45.7072H50.6734V45.6834H50.8397V45.5171H50.8635ZM50.8635 46.5149V46.6574H51.0298V46.6811H50.8635V46.8474H50.8397V46.6811H50.6734V46.6574H50.8397V46.5149H50.8635ZM50.8635 47.4888V47.6551H51.0298V47.6789H50.6734V47.6551H50.8397V47.4888H50.8635ZM51.8612 42.5478V42.714H52.0275V42.7378H51.8612V42.8803H51.8374V42.7378H51.6711V42.714H51.8374V42.5478H51.8612ZM51.6711 41.7401V41.7163H52.0275V41.7401H51.8612V41.9064H51.8374V41.7401H51.6711ZM51.8612 43.5217V43.688H52.0275V43.7118H51.8612V43.878H51.8374V43.7118H51.6711V43.688H51.8374V43.5217H51.8612ZM51.8612 44.5194V44.6857H52.0275V44.7095H51.8612V44.8758H51.8374V44.7095H51.6711V44.6857H51.8374V44.5194H51.8612ZM51.8612 45.5171V45.6834H52.0275V45.7072H51.8612V45.8735H51.8374V45.7072H51.6711V45.6834H51.8374V45.5171H51.8612ZM51.8612 46.5149V46.6574H52.0275V46.6811H51.8612V46.8474H51.8374V46.6811H51.6711V46.6574H51.8374V46.5149H51.8612ZM51.8612 47.4888V47.6551H52.0275V47.6789H51.6711V47.6551H51.8374V47.4888H51.8612ZM52.8589 42.5478V42.714H53.0014V42.7378H52.8589V42.8803H52.8114V42.7378H52.6689V42.714H52.8114V42.5478H52.8589ZM52.6689 41.7401V41.7163H53.0014V41.7401H52.8589V41.9064H52.8114V41.7401H52.6689ZM52.8589 43.5217V43.688H53.0014V43.7118H52.8589V43.878H52.8114V43.7118H52.6689V43.688H52.8114V43.5217H52.8589ZM52.8589 44.5194V44.6857H53.0014V44.7095H52.8589V44.8758H52.8114V44.7095H52.6689V44.6857H52.8114V44.5194H52.8589ZM52.8589 45.5171V45.6834H53.0014V45.7072H52.8589V45.8735H52.8114V45.7072H52.6689V45.6834H52.8114V45.5171H52.8589ZM52.8589 46.5149V46.6574H53.0014V46.6811H52.8589V46.8474H52.8114V46.6811H52.6689V46.6574H52.8114V46.5149H52.8589ZM52.8589 47.4888V47.6551H53.0014V47.6789H52.6689V47.6551H52.8114V47.4888H52.8589ZM53.8329 42.5478V42.714H53.9991V42.7378H53.8329V42.8803H53.8091V42.7378H53.6428V42.714H53.8091V42.5478H53.8329ZM53.6428 41.7401V41.7163H53.9991V41.7401H53.8329V41.9064H53.8091V41.7401H53.6428ZM53.8329 43.5217V43.688H53.9991V43.7118H53.8329V43.878H53.8091V43.7118H53.6428V43.688H53.8091V43.5217H53.8329ZM53.8329 44.5194V44.6857H53.9991V44.7095H53.8329V44.8758H53.8091V44.7095H53.6428V44.6857H53.8091V44.5194H53.8329ZM53.8329 45.5171V45.6834H53.9991V45.7072H53.8329V45.8735H53.8091V45.7072H53.6428V45.6834H53.8091V45.5171H53.8329ZM53.8329 46.5149V46.6574H53.9991V46.6811H53.8329V46.8474H53.8091V46.6811H53.6428V46.6574H53.8091V46.5149H53.8329ZM53.8329 47.4888V47.6551H53.9991V47.6789H53.6428V47.6551H53.8091V47.4888H53.8329ZM54.8306 42.5478V42.714H54.9969V42.7378H54.8306V42.8803H54.8068V42.7378H54.6405V42.714H54.8068V42.5478H54.8306ZM54.8306 43.5217V43.688H54.9969V43.7118H54.8306V43.878H54.8068V43.7118H54.6405V43.688H54.8068V43.5217H54.8306ZM54.8306 44.5194V44.6857H54.9969V44.7095H54.8306V44.8758H54.8068V44.7095H54.6405V44.6857H54.8068V44.5194H54.8306ZM54.8306 45.5171V45.6834H54.9969V45.7072H54.8306V45.8735H54.8068V45.7072H54.6405V45.6834H54.8068V45.5171H54.8306ZM54.8306 46.5149V46.6574H54.9969V46.6811H54.8306V46.8474H54.8068V46.6811H54.6405V46.6574H54.8068V46.5149H54.8306ZM42.3829 49.8643H42.668L41.9078 50.7908H41.6227L42.3829 49.8643ZM43.1431 49.8643H43.4281L42.668 50.7908H42.3829L43.1431 49.8643ZM43.9032 49.8643H44.1883L43.4281 50.7908H43.1431L43.9032 49.8643ZM46.2075 49.8643H46.4925L45.7324 50.7908H45.4236L46.2075 49.8643ZM44.6634 49.8643H44.9485L44.1883 50.7908H43.9032L44.6634 49.8643ZM45.4236 49.8643H45.7324L44.9485 50.7908H44.6634L45.4236 49.8643ZM46.2075 50.7908L46.9676 49.8643H47.2527L46.4925 50.7908H46.2075ZM73.7194 47.5126H72.3179V48.2015H73.7194V50.2682H73.0305V51.646H72.3179V52.3349H70.9401V53L51.1996 53V52.1923H54.8579V37.2029H51.1996V36.3714L67.6619 36.3714C70.0611 36.3714 72.009 38.3431 72.009 40.7424C72.009 41.455 71.8427 42.0964 71.5577 42.6903H71.629V43.3792H70.9401V44.0681H70.2512V44.757H71.629V45.4459H73.0305L73.0305 46.8237H73.7194V47.5126ZM62.8633 38.6044L58.1123 38.6044V44.2819L63.3147 44.2819V44.0681H67.4718V43.3792H68.1607V43.3079H68.1132V43.2604H68.1607V42.6903H68.1845C68.2557 42.5715 68.327 42.429 68.3983 42.3102H68.3032V42.4765H68.2795V42.3102H68.1132V42.2864H68.2795V42.1202H68.3032V42.2864H68.3983C68.6358 41.8113 68.7546 41.2887 68.7546 40.7424C68.7546 38.7944 67.163 37.2029 65.2151 37.2029H63.3147L62.8633 38.6044ZM56.7107 45.1133V45.6834L57.1859 45.1133H56.7107ZM70.2512 47.5126V46.8237H69.5623L69.5623 46.1348H69.2772L69.2772 46.4198H69.2534V46.2773H69.0872V46.2536H69.2534L69.2534 46.1348H68.8734V45.4459H67.1392L66.6404 46.0398H66.3553L66.8304 45.4459H66.3791L65.8802 46.0398H65.5952L66.0703 45.4459H65.5952L65.1201 46.0398H64.835L65.3101 45.4459H64.835L64.3599 46.0398H64.0511L64.5499 45.4459H64.0748L63.5997 46.0398H63.2909L63.7898 45.4459H63.3147L62.8158 46.0398H62.5307L63.2909 45.1133H62.8158L62.0556 46.0398H61.7706L62.5307 45.1133L62.0556 45.1133L61.2955 46.0398H61.0104L61.7706 45.1133H61.2955L60.5353 46.0398H60.2503L61.0104 45.1133H60.5353L59.7752 46.0398H59.4663L60.2503 45.1133H59.7752L59.015 46.0398H58.7062L59.4663 45.1133H59.015L58.2311 46.0398H57.946L58.7062 45.1133H58.2311L57.4709 46.0398H57.1859L57.946 45.1133H57.4709L56.7107 46.0398V49.7931L58.1123 50.2444V52.1923L63.3384 52.1923V52.3349H68.1607V51.646H69.5623V50.2682H70.2512V48.2015H68.8734V47.5126H70.2512ZM63.3384 42.3102V42.4765H63.3147V42.1202H63.3384V42.2864H63.5047V42.3102H63.3384ZM63.3384 41.3125V41.4788H63.3147V41.2887H63.5047V41.3125H63.3384ZM63.3384 43.3079V43.4504H63.3147V43.1179H63.3384V43.2604H63.5047V43.3079H63.3384ZM63.3384 46.0873L63.3384 46.2536H63.5047V46.2773H63.3384V46.4198H63.3147L63.3147 46.0873H63.3384ZM63.3384 47.0612V47.2275H63.5047V47.2513H63.3147V47.0612H63.3384ZM64.3124 42.4765V42.3102H64.1461V42.2864H64.3124V42.1202H64.3361V42.2864H64.5024V42.3102H64.3361V42.4765H64.3124ZM64.3124 41.4788V41.3125H64.1461V41.2887H64.5024V41.3125H64.3361V41.4788H64.3124ZM64.3124 43.4504V43.3079H64.1461V43.2604H64.3124V43.1179H64.3361V43.2604H64.5024V43.3079H64.3361V43.4504H64.3124ZM64.3361 46.0873L64.3361 46.2536H64.5024V46.2773H64.3361V46.4198H64.3124V46.2773H64.1461V46.2536H64.3124L64.3124 46.0873H64.3361ZM64.3361 47.0612V47.2275H64.5024V47.2513H64.1461V47.2275H64.3124V47.0612H64.3361ZM65.2863 42.4765V42.3102H65.1438V42.2864H65.2863V42.1202H65.3339V42.2864H65.4764V42.3102H65.3339V42.4765H65.2863ZM65.2863 41.4788V41.3125H65.1438V41.2887H65.4764V41.3125H65.3339V41.4788H65.2863ZM65.2863 43.4504V43.3079H65.1438V43.2604H65.2863V43.1179H65.3339V43.2604H65.4764V43.3079H65.3339V43.4504H65.2863ZM65.3339 46.0873L65.3339 46.2536H65.4764V46.2773H65.3339V46.4198H65.2863V46.2773H65.1438V46.2536H65.2863L65.2863 46.0873H65.3339ZM65.3339 47.0612V47.2275H65.4764V47.2513H65.1438V47.2275H65.2863V47.0612H65.3339ZM66.2841 42.4765V42.3102H66.1178V42.2864H66.2841V42.1202H66.3078V42.2864H66.4741V42.3102H66.3078V42.4765H66.2841ZM66.2841 41.4788V41.3125H66.1178V41.2887H66.4741V41.3125H66.3078V41.4788H66.2841ZM66.2841 43.4504V43.3079H66.1178V43.2604H66.2841V43.1179H66.3078V43.2604H66.4741V43.3079H66.3078V43.4504H66.2841ZM66.3078 46.0873L66.3078 46.2536H66.4741V46.2773H66.3078V46.4198H66.2841V46.2773H66.1178V46.2536H66.2841L66.2841 46.0873H66.3078ZM66.3078 47.0612V47.2275H66.4741V47.2513H66.1178V47.2275H66.2841V47.0612H66.3078ZM67.2818 42.4765V42.3102H67.1155V42.2864H67.2818V42.1202H67.3055V42.2864H67.4718V42.3102H67.3055V42.4765H67.2818ZM67.2818 41.4788V41.3125H67.1155V41.2887H67.4718V41.3125H67.3055V41.4788H67.2818ZM67.2818 43.4504V43.3079H67.1155V43.2604H67.2818V43.1179H67.3055V43.2604H67.4718V43.3079H67.3055V43.4504H67.2818ZM67.3055 46.0873L67.3055 46.2536H67.4718V46.2773H67.3055V46.4198H67.2818V46.2773H67.1155V46.2536H67.2818L67.2818 46.0873H67.3055ZM67.3055 47.0612V47.2275H67.4718V47.2513H67.1155V47.2275H67.2818V47.0612H67.3055ZM68.2795 41.4788V41.3125H68.1132V41.2887H68.4458V41.3125H68.3032V41.4788H68.2795ZM68.3032 46.0873L68.3032 46.2536H68.4458V46.2773H68.3032V46.4198H68.2795V46.2773H68.1132V46.2536H68.2795L68.2795 46.0873H68.3032ZM68.3032 47.0612V47.2275H68.4458V47.2513H68.1132V47.2275H68.2795V47.0612H68.3032ZM69.2534 47.2275V47.0612H69.2772V47.2513H69.0872V47.2275H69.2534ZM87.3342 49.5793H86.6453V48.2015H87.3342V49.5793ZM85.2438 50.2682H85.9327V49.5793H86.6453V52.3349H85.9327V53H66.311V52.1923H69.9693L69.9693 37.2029H66.311V36.3714H85.8139L87.2867 40.8611H86.7404C85.6951 38.6994 83.4859 37.2029 80.9441 37.2029H76.9295L76.4782 38.6044H73.2237V44.2819H76.9295V44.0681H80.3977V43.3792H81.0866V42.6903H81.2054C81.3004 42.429 81.348 42.1439 81.348 41.8351H82.1556V42.6903H82.4644V45.4459H83.866V46.1348H82.4644L82.4644 47.5363H82.4407V47.5126H81.4905V47.5363H81.4667V47.5126H81.0866L81.0866 46.1348H81.7755V45.4459H81.4905L80.9916 46.0398H80.7066L81.1817 45.4459H80.7066L80.2315 46.0398H79.9464L80.4215 45.4459H79.9464L79.4713 46.0398H79.1625L79.6613 45.4459H79.1862L78.7111 46.0398H78.4023L78.9012 45.4459H78.4261L77.9272 46.0398H77.6422L78.141 45.4459H77.6659L77.1671 46.0398H76.882L77.3808 45.4459H76.9295V45.3984L76.4069 46.0398H76.1218L76.882 45.1133H76.4069L75.6467 46.0398H75.3617L76.1218 45.1133H75.6467L74.8866 46.0398H74.5777L75.3617 45.1133H74.8866L74.1264 46.0398H73.8176L74.5777 45.1133H74.1264L73.3425 46.0398H73.0574L73.8176 45.1133H73.3425L72.5823 46.0398H72.2973L73.0574 45.1133H72.5823L71.8222 46.0398L71.8222 49.7931L73.2237 50.2444V52.1923H76.5019V52.1448H76.5257V52.1923H76.977V52.3349H77.3333V52.2873H77.4996V52.1448H77.5234V52.2873H77.6897V52.3349H78.3311V52.2873H78.4973V52.1448H78.5211V52.2873H78.6874V52.3349H79.3288V52.2873H79.4713V52.1448H79.4951V52.2873H79.6613V52.3349H80.3027V52.2873H80.469V52.1448H80.4928V52.2873H80.6591V52.3349H81.3004V52.2873H81.4667V52.1448H81.4905V52.2873H81.6568V52.3349H82.2982V52.2873H82.4407V52.1448H82.4644V51.646H84.5549V50.9571H85.2438V50.2682ZM71.8222 45.1133V45.6834L72.2973 45.1133H71.8222ZM76.6919 47.3463V47.37H76.5257V47.5363H76.5019V47.18H76.5257V47.3463H76.6919ZM76.6919 46.3486V46.3723H76.5257V46.5386H76.5019V46.3486H76.6919ZM76.6919 48.344V48.3678H76.5257V48.534H76.5019V48.1777H76.5257V48.344H76.6919ZM76.6919 49.318V49.3417H76.5257V49.508H76.5019V49.1754H76.5257V49.318H76.6919ZM76.6919 50.3157V50.3394H76.5257V50.5057H76.5019V50.1494H76.5257V50.3157H76.6919ZM76.5019 51.1471H76.5257V51.3134H76.6919V51.3371H76.5257V51.5034H76.5019V51.1471ZM77.6897 47.3463V47.37H77.5234V47.5363H77.4996V47.37H77.3333V47.3463H77.4996V47.18H77.5234V47.3463H77.6897ZM77.6897 46.3486V46.3723H77.5234V46.5386H77.4996V46.3723H77.3333V46.3486H77.6897ZM77.6897 48.344V48.3678H77.5234V48.534H77.4996V48.3678H77.3333V48.344H77.4996V48.1777H77.5234V48.344H77.6897ZM77.6897 49.318V49.3417H77.5234V49.508H77.4996V49.3417H77.3333V49.318H77.4996V49.1754H77.5234V49.318H77.6897ZM77.6897 50.3157V50.3394H77.5234V50.5057H77.4996V50.3394H77.3333V50.3157H77.4996V50.1494H77.5234V50.3157H77.6897ZM77.5234 51.5034H77.4996V51.3371H77.3333V51.3134H77.4996V51.1471H77.5234V51.3134H77.6897V51.3371H77.5234V51.5034ZM78.6874 47.3463V47.37H78.5211V47.5363H78.4973V47.37H78.3311V47.3463H78.4973V47.18H78.5211V47.3463H78.6874ZM78.6874 46.3486V46.3723H78.5211V46.5386H78.4973V46.3723H78.3311V46.3486H78.6874ZM78.6874 48.344V48.3678H78.5211V48.534H78.4973V48.3678H78.3311V48.344H78.4973V48.1777H78.5211V48.344H78.6874ZM78.6874 49.318V49.3417H78.5211V49.508H78.4973V49.3417H78.3311V49.318H78.4973V49.1754H78.5211V49.318H78.6874ZM78.6874 50.3157V50.3394H78.5211V50.5057H78.4973V50.3394H78.3311V50.3157H78.4973V50.1494H78.5211V50.3157H78.6874ZM78.5211 51.5034H78.4973V51.3371H78.3311V51.3134H78.4973V51.1471H78.5211V51.3134H78.6874V51.3371H78.5211V51.5034ZM79.6613 47.3463V47.37H79.4951V47.5363H79.4713V47.37H79.3288V47.3463H79.4713V47.18H79.4951V47.3463H79.6613ZM79.6613 46.3486V46.3723H79.4951V46.5386H79.4713V46.3723H79.3288V46.3486H79.6613ZM79.6613 48.344V48.3678H79.4951V48.534H79.4713V48.3678H79.3288V48.344H79.4713V48.1777H79.4951V48.344H79.6613ZM79.6613 49.318V49.3417H79.4951V49.508H79.4713V49.3417H79.3288V49.318H79.4713V49.1754H79.4951V49.318H79.6613ZM79.6613 50.3157V50.3394H79.4951V50.5057H79.4713V50.3394H79.3288V50.3157H79.4713V50.1494H79.4951V50.3157H79.6613ZM79.4951 51.5034H79.4713V51.3371H79.3288V51.3134H79.4713V51.1471H79.4951V51.3134H79.6613V51.3371H79.4951V51.5034ZM80.6591 47.3463V47.37H80.4928V47.5363H80.469V47.37H80.3027V47.3463H80.469V47.18H80.4928V47.3463H80.6591ZM80.6591 46.3486V46.3723H80.4928V46.5386H80.469V46.3723H80.3027V46.3486H80.6591ZM80.6591 48.344V48.3678H80.4928V48.534H80.469V48.3678H80.3027V48.344H80.469V48.1777H80.4928V48.344H80.6591ZM80.6591 49.318V49.3417H80.4928V49.508H80.469V49.3417H80.3027V49.318H80.469V49.1754H80.4928V49.318H80.6591ZM80.6591 50.3157V50.3394H80.4928V50.5057H80.469V50.3394H80.3027V50.3157H80.469V50.1494H80.4928V50.3157H80.6591ZM80.4928 51.5034H80.469V51.3371H80.3027V51.3134H80.469V51.1471H80.4928V51.3134H80.6591V51.3371H80.4928V51.5034ZM81.6568 48.344V48.3678H81.4905V48.534H81.4667V48.3678H81.3004V48.344H81.4667V48.1777H81.4905V48.344H81.6568ZM82.4644 48.1777V48.534H82.4407V48.3678H82.2982V48.344H82.4407V48.1777H82.4644ZM81.6568 49.318V49.3417H81.4905V49.508H81.4667V49.3417H81.3004V49.318H81.4667V49.1754H81.4905V49.318H81.6568ZM82.4644 49.1754V49.508H82.4407V49.3417H82.2982V49.318H82.4407V49.1754H82.4644ZM81.6568 50.3157V50.3394H81.4905V50.5057H81.4667V50.3394H81.3004V50.3157H81.4667V50.1494H81.4905V50.3157H81.6568ZM82.4644 50.1494V50.5057H82.4407V50.3394H82.2982V50.3157H82.4407V50.1494H82.4644ZM81.4905 51.5034H81.4667V51.3371H81.3004V51.3134H81.4667V51.1471H81.4905V51.3134H81.6568V51.3371H81.4905V51.5034ZM82.4644 51.5034H82.4407V51.3371H82.2982V51.3134H82.4407V51.1471H82.4644V51.5034ZM44.4412 54.3714H52.1141V55.2029H46.983V57.6496L47.3394 57.222H47.6244L46.983 58.006V59.8826L48.3846 60.3577L48.3846 70.1923H52.1141V71H42.4696V70.1923H45.1301L45.1301 58.1485H45.0351L45.1301 58.0535V57.4596L44.56 58.1485H44.275L45.0351 57.222H45.1301V55.9155L44.4412 57.222H44.56L44.1799 57.6971L41.7807 62.1393H41.7569L40.7117 64.111H40.783V64.1348H40.6879L39.0488 67.1517V67.5555H38.3599L38.3599 68.9096H37.671V70.2873H36.9821V70.9762H34.2265V70.2873H33.5376V69.5984H32.8487L32.8487 67.5555H32.1599V66.8666H31.471V65.4888H30.7583V64.7999H33.1813V64.1348H30.0694V62.757H29.3805V61.3792H28.6916V60.8803L26.031 55.9393L26.031 64.2298H26.2211V64.2536H26.0548V64.4198H26.031V65.0612H26.0548V65.2275H26.2211V65.2513H26.0548V65.4176H26.031V66.0589H26.0548V66.2015H26.2211V66.249H26.0548V66.3915H26.031V67.0329H26.0548V67.1992H26.2211V67.2229H26.0548V67.3892H26.031V68.0306H26.0548V68.1969H26.2211V68.2207H26.0548V68.3869H26.031V69.0283H26.0548V69.1946H26.2211V69.2184H26.0548V69.3609H26.031V70.0023H26.0548V70.1686H26.2211V70.1923H26.8625V70.1686H27.0287V70.0023H27.0525V70.1686H27.2188V70.1923H27.8602V70.1686H28.0265V70.0023H28.0502V70.1686H28.2165V70.1923H28.7154V71H20.6386V70.1923H22.3015L22.7528 68.7908H24.3682L24.3682 55.2029H20.6386V54.3714H29.0242L32.4212 60.6903H32.8487V62.0681H33.5376V63.4459H34.2265V64.1348H36.6258V64.7999H34.9154V66.1777H35.6043V66.8666H36.2932V68.2444H36.9821V67.5555H37.671V66.1777H38.3599V64.7999H39.0251V64.4198L39.619 63.3033H39.5952V63.1371H39.4527V63.1133H39.5952V62.947H39.619V63.1133H39.7377L42.6834 57.6496L42.2795 58.1485H41.9707L42.7546 57.222H42.9209L44.4412 54.3714ZM39.619 63.2796L39.714 63.1371H39.619V63.2796ZM36.6496 59.17V59.3362H36.6258V58.9799H36.6496V59.1462H36.8159V59.17H36.6496ZM36.6496 58.1722V58.3385H36.6258V58.1485L37.4097 57.222H37.6948L36.9346 58.1485H36.8159V58.1722H36.6496ZM36.6496 60.1677V60.334H36.6258V59.9776H36.6496V60.1439H36.8159V60.1677H36.6496ZM36.6496 61.1654V61.3079H36.6258V60.9753H36.6496V61.1179H36.8159V61.1654H36.6496ZM36.6496 62.1393V62.3056H36.6258V61.9493H36.6496V62.1156H36.8159V62.1393H36.6496ZM36.6496 63.1371V63.3033H36.6258V62.947H36.6496V63.1133H36.8159V63.1371H36.6496ZM36.8159 64.111V64.1348H36.6258V63.9447H36.6496V64.111H36.8159ZM37.8136 59.1462V59.17H37.6473V59.3362H37.6235V59.17H37.4572V59.1462H37.6235V58.9799H37.6473V59.1462H37.8136ZM37.8136 60.1439V60.1677H37.6473V60.334H37.6235V60.1677H37.4572V60.1439H37.6235V59.9776H37.6473V60.1439H37.8136ZM37.8136 61.1179V61.1654H37.6473V61.3079H37.6235V61.1654H37.4572V61.1179H37.6235V60.9753H37.6473V61.1179H37.8136ZM37.8136 62.1156V62.1393H37.6473V62.3056H37.6235V62.1393H37.4572V62.1156H37.6235V61.9493H37.6473V62.1156H37.8136ZM37.8136 63.1133V63.1371H37.6473V63.3033H37.6235V63.1371H37.4572V63.1133H37.6235V62.947H37.6473V63.1133H37.8136ZM37.6235 63.9447H37.6473V64.111H37.8136V64.1348H37.4572V64.111H37.6235V63.9447ZM38.8113 59.1462V59.17H38.645V59.3362H38.6212V59.17H38.455V59.1462H38.6212V58.9799H38.645V59.1462H38.8113ZM38.8113 60.1439V60.1677H38.645V60.334H38.6212V60.1677H38.455V60.1439H38.6212V59.9776H38.645V60.1439H38.8113ZM38.8113 61.1179V61.1654H38.645V61.3079H38.6212V61.1654H38.455V61.1179H38.6212V60.9753H38.645V61.1179H38.8113ZM38.8113 62.1156V62.1393H38.645V62.3056H38.6212V62.1393H38.455V62.1156H38.6212V61.9493H38.645V62.1156H38.8113ZM38.8113 63.1133V63.1371H38.645V63.3033H38.6212V63.1371H38.455V63.1133H38.6212V62.947H38.645V63.1133H38.8113ZM38.6212 63.9447H38.645V64.111H38.8113V64.1348H38.455V64.111H38.6212V63.9447ZM39.7852 59.1462V59.17H39.619V59.3362H39.5952V59.17H39.4527V59.1462H39.5952V58.9799H39.619V59.1462H39.7852ZM39.4527 58.1485H39.6902L40.4504 57.222H40.7354L39.9753 58.1485H39.7852V58.1722H39.619V58.3385H39.5952V58.1722H39.4527V58.1485ZM39.7852 60.1439V60.1677H39.619V60.334H39.5952V60.1677H39.4527V60.1439H39.5952V59.9776H39.619V60.1439H39.7852ZM39.7852 61.1179V61.1654H39.619V61.3079H39.5952V61.1654H39.4527V61.1179H39.5952V60.9753H39.619V61.1179H39.7852ZM39.619 62.3056H39.5952V62.1393H39.4527V62.1156H39.5952V61.9493H39.619V62.1156H39.7852V62.1393H39.619V62.3056ZM40.783 59.1462V59.17H40.6167V59.3362H40.5929V59.17H40.4266V59.1462H40.5929V58.9799H40.6167V59.1462H40.783ZM40.4266 58.1485H40.4504L41.2105 57.222H41.5194L40.7354 58.1485H40.783V58.1722H40.6167V58.3385H40.5929V58.1722H40.4266V58.1485ZM40.783 60.1439V60.1677H40.6167V60.334H40.5929V60.1677H40.4266V60.1439H40.5929V59.9776H40.6167V60.1439H40.783ZM40.6167 61.3079H40.5929V61.1654H40.4266V61.1179H40.5929V60.9753H40.6167V61.1179H40.783V61.1654H40.6167V61.3079ZM41.6144 59.3362H41.5906V59.17H41.4243V59.1462H41.5906V58.9799H41.6144V59.1462H41.7807V59.17H41.6144V59.3362ZM42.6121 61.3079H42.5646V61.1654H42.4221V61.1179H42.5646V60.9753H42.6121V61.3079ZM42.4221 62.1393V62.1156H42.5646V61.9493H42.6121V62.3056H42.5646V62.1393H42.4221ZM41.6144 62.947V63.1133H41.7807V63.1371H41.6144V63.3033H41.5906V63.1371H41.4243V63.1133H41.5906V62.947H41.6144ZM42.4221 63.1371V63.1133H42.5646V62.947H42.6121V63.3033H42.5646V63.1371H42.4221ZM41.6144 63.9447V64.111H41.7807V64.1348H41.4243V64.111H41.5906V63.9447H41.6144ZM42.4221 64.1348V64.111H42.5646V63.9447H42.6121V64.1348H42.4221ZM27.2188 65.2275V65.2513H27.0525V65.4176H27.0287V65.2513H26.8625V65.2275H27.0287V65.0612H27.0525V65.2275H27.2188ZM27.2188 64.2298V64.2536H27.0525V64.4198H27.0287V64.2536H26.8625V64.2298H27.2188ZM27.2188 66.2015V66.249H27.0525V66.3915H27.0287V66.249H26.8625V66.2015H27.0287V66.0589H27.0525V66.2015H27.2188ZM27.2188 67.1992V67.2229H27.0525V67.3892H27.0287V67.2229H26.8625V67.1992H27.0287V67.0329H27.0525V67.1992H27.2188ZM27.2188 68.1969V68.2207H27.0525V68.3869H27.0287V68.2207H26.8625V68.1969H27.0287V68.0306H27.0525V68.1969H27.2188ZM27.0525 69.3609H27.0287V69.2184H26.8625V69.1946H27.0287V69.0283H27.0525V69.1946H27.2188V69.2184H27.0525V69.3609ZM28.2165 65.2275V65.2513H28.0502V65.4176H28.0265V65.2513H27.8602V65.2275H28.0265V65.0612H28.0502V65.2275H28.2165ZM28.2165 64.2298V64.2536H28.0502V64.4198H28.0265V64.2536H27.8602V64.2298H28.2165ZM28.2165 66.2015V66.249H28.0502V66.3915H28.0265V66.249H27.8602V66.2015H28.0265V66.0589H28.0502V66.2015H28.2165ZM28.2165 67.1992V67.2229H28.0502V67.3892H28.0265V67.2229H27.8602V67.1992H28.0265V67.0329H28.0502V67.1992H28.2165ZM28.2165 68.1969V68.2207H28.0502L28.0502 68.3869H28.0265L28.0265 68.2207H27.8602V68.1969H28.0265V68.0306H28.0502V68.1969H28.2165ZM28.0502 69.3609H28.0265V69.2184H27.8602V69.1946H28.0265V69.0283H28.0502V69.1946H28.2165V69.2184H28.0502V69.3609ZM29.0242 65.0612V65.2275H29.1905V65.2513H29.0242V65.4176H29.0004V65.2513H28.8579V65.2275H29.0004V65.0612H29.0242ZM28.8579 64.2536V64.2298H29.1905V64.2536H29.0242V64.4198H29.0004V64.2536H28.8579ZM29.0242 66.0589V66.2015H29.1905V66.249H29.0242V66.3915H29.0004V66.249H28.8579V66.2015H29.0004V66.0589H29.0242ZM29.0242 67.0329V67.1992H29.1905V67.2229H29.0242V67.3892H29.0004V67.2229H28.8579V67.1992H29.0004V67.0329H29.0242ZM29.0242 68.0306V68.1969H29.1905V68.2207H29.0242L29.0242 68.3869H29.0004L29.0004 68.2207H28.8579V68.1969H29.0004V68.0306H29.0242ZM29.0242 69.0283V69.1946H29.1905V69.2184H29.0242V69.3609H29.0004V69.2184H28.8579V69.1946H29.0004V69.0283H29.0242ZM29.0242 70.0023V70.1686H29.1905V70.1923H28.8579V70.1686H29.0004V70.0023H29.0242ZM30.0219 65.0612V65.2275H30.1882V65.2513H30.0219V65.4176H29.9981V65.2513H29.8319V65.2275H29.9981V65.0612H30.0219ZM29.8319 64.2536V64.2298H30.1882V64.2536H30.0219V64.4198H29.9981V64.2536H29.8319ZM30.0219 66.0589V66.2015H30.1882V66.249H30.0219V66.3915H29.9981V66.249H29.8319V66.2015H29.9981V66.0589H30.0219ZM30.0219 67.0329V67.1992H30.1882V67.2229H30.0219V67.3892H29.9981V67.2229H29.8319V67.1992H29.9981V67.0329H30.0219ZM30.0219 68.0306V68.1969H30.1882V68.2207H30.0219L30.0219 68.3869H29.9981L29.9981 68.2207H29.8319V68.1969H29.9981V68.0306H30.0219ZM30.0219 69.0283V69.1946H30.1882V69.2184H30.0219V69.3609H29.9981V69.2184H29.8319V69.1946H29.9981V69.0283H30.0219ZM30.0219 70.0023V70.1686H30.1882V70.1923H29.8319V70.1686H29.9981V70.0023H30.0219ZM31.9936 64.4198H31.9698V64.2536H31.8273V64.2298H31.9936V64.4198ZM31.0196 64.4198H30.9959V64.2536H30.8296V64.2298H31.1859V64.2536H31.0196V64.4198ZM31.0196 66.0589V66.2015H31.1859V66.249H31.0196V66.3915H30.9959V66.249H30.8296V66.2015H30.9959V66.0589H31.0196ZM31.0196 67.0329V67.1992H31.1859V67.2229H31.0196V67.3892H30.9959V67.2229H30.8296V67.1992H30.9959V67.0329H31.0196ZM31.9698 67.1992V67.0329H31.9936V67.3892H31.9698V67.2229H31.8273V67.1992H31.9698ZM31.0196 68.0306V68.1969H31.1859V68.2207H31.0196L31.0196 68.3869H30.9959L30.9959 68.2207H30.8296V68.1969H30.9959V68.0306H31.0196ZM31.9698 68.1969V68.0306H31.9936L31.9936 68.3869H31.9698L31.9698 68.2207H31.8273V68.1969H31.9698ZM31.0196 69.0283V69.1946H31.1859V69.2184H31.0196V69.3609H30.9959V69.2184H30.8296V69.1946H30.9959V69.0283H31.0196ZM31.9698 69.1946V69.0283H31.9936V69.3609H31.9698V69.2184H31.8273V69.1946H31.9698ZM31.0196 70.0023V70.1686H31.1859V70.1923H30.8296V70.1686H30.9959V70.0023H31.0196ZM31.9698 70.1686V70.0023H31.9936V70.1923H31.8273V70.1686H31.9698ZM37.4572 58.1485H37.4097L38.1699 57.222H38.455L37.6948 58.1485H37.8136V58.1722H37.6473V58.3385H37.6235V58.1722H37.4572V58.1485ZM38.455 58.1485H38.1699L38.9301 57.222H39.2151L38.455 58.1485H38.8113V58.1722H38.645V58.3385H38.6212V58.1722H38.455V58.1485ZM47.6244 58.1485H47.3394L48.0995 57.222H48.3846L47.6244 58.1485ZM39.2151 58.1485H38.9301L39.6902 57.222H39.9753L39.2151 58.1485ZM41.4243 58.1485H41.2105L41.9707 57.222H42.2795L41.5194 58.1485H41.7807V58.1722H41.6144V58.3385H41.5906V58.1722H41.4243V58.1485ZM71.3472 70.1923H72.2262V71.0238H61.0138V70.3349H64.482V68.9571H63.7931V67.5793H63.1042V66.6528L62.7004 67.1517H62.3916L63.1042 66.2965V66.2015H62.7004L61.9402 67.1517H61.6314L62.3916 66.2015V65.5126L61.7027 65.5126V64.1348H59.636V63.4459H61.0138V63.3746L57.2367 56.6994L51.8205 66.2015V66.249H51.7968L50.6803 68.1969H50.8228V68.2207H50.6803L50.6803 68.3869H50.6565L50.6565 68.2682L49.5638 70.1686H49.6588V70.0023H49.6826V70.1686H49.8489V70.1923H50.4903V70.1686H50.6565V70.0023H50.6803V70.1686H50.8228V70.1923H51.4642V70.1686H51.6305V70.0023H51.6543V70.1686H51.8205V70.1923H52.4619V70.1686H52.6282V70.0023H52.652V70.1686H52.8183V70.1923H53.4596V70.1686H53.6259V70.0023H53.6497V71.0238H44.9078V70.1923H47.6872V70.0023H47.7109V70.1686H47.8534V70.1923H48.0197L48.5898 69.2184H48.4948V69.1946H48.6136L48.6611 69.0758V69.0283H48.6849L49.6588 67.318V67.2229H49.4925V67.1992H49.6588V67.0329H49.6826V67.1992H49.7301L50.8228 65.2513H50.6803V65.4176H50.6565V65.2513H50.4903V65.2275H50.6565V65.0612H50.6803V65.2275H50.8228V65.2513L56.9992 54.3714H60.2061L63.7694 60.714H63.7931V61.3792H64.482V62.757H65.1709V63.4459H64.482V64.1348H65.8598V64.8237H66.5487V66.2015H67.2614V67.5793H67.9503V68.2682H68.6392V69.646H69.3281V70.3349H71.3472V70.1923ZM49.6826 67.2704L49.7063 67.2229H49.6826V67.2704ZM47.7109 65.2513V65.4176H47.6872V65.0612H47.7109V65.2275H47.8534V65.2513H47.7109ZM47.7109 64.2536V64.4198H47.6872V64.2298H47.8534V64.2536H47.7109ZM47.7109 66.249V66.3915H47.6872V66.0589H47.7109V66.2015H47.8534V66.249H47.7109ZM47.7109 67.2229V67.3892H47.6872V67.0329H47.7109V67.1992H47.8534V67.2229H47.7109ZM47.7109 68.2207L47.7109 68.3869H47.6872L47.6872 68.0306H47.7109V68.1969H47.8534V68.2207H47.7109ZM47.7109 69.2184V69.3609H47.6872V69.0283H47.7109V69.1946H47.8534V69.2184H47.7109ZM48.6611 65.4176V65.2513H48.4948V65.2275H48.6611V65.0612H48.6849V65.2275H48.8512V65.2513H48.6849V65.4176H48.6611ZM48.6611 64.4198V64.2536H48.4948V64.2298H48.8512V64.2536H48.6849V64.4198H48.6611ZM48.6611 66.3915V66.249H48.4948V66.2015H48.6611V66.0589H48.6849V66.2015H48.8512V66.249H48.6849V66.3915H48.6611ZM48.6611 67.3892V67.2229H48.4948V67.1992H48.6611V67.0329H48.6849V67.1992H48.8512V67.2229H48.6849V67.3892H48.6611ZM48.6611 68.3869L48.6611 68.2207H48.4948V68.1969H48.6611V68.0306H48.6849V68.1969H48.8512V68.2207H48.6849L48.6849 68.3869H48.6611ZM49.6588 65.4176V65.2513H49.4925V65.2275H49.6588V65.0612H49.6826V65.2275H49.8489V65.2513H49.6826V65.4176H49.6588ZM49.6588 64.4198V64.2536H49.4925V64.2298H49.8489V64.2536H49.6826V64.4198H49.6588ZM49.6588 66.3915V66.249H49.4925V66.2015H49.6588V66.0589H49.6826V66.2015H49.8489V66.249H49.6826V66.3915H49.6588ZM50.6565 64.4198V64.2536H50.4903V64.2298H50.8228V64.2536H50.6803V64.4198H50.6565ZM50.6803 69.3609H50.6565V69.2184H50.4903V69.1946H50.6565V69.0283H50.6803V69.1946H50.8228V69.2184H50.6803V69.3609ZM51.8205 67.1992V67.2229H51.6543V67.3892H51.6305V67.2229H51.4642V67.1992H51.6305V67.0329H51.6543V67.1992H51.8205ZM51.8205 68.1969V68.2207H51.6543L51.6543 68.3869H51.6305L51.6305 68.2207H51.4642V68.1969H51.6305V68.0306H51.6543V68.1969H51.8205ZM51.6543 69.3609H51.6305V69.2184H51.4642V69.1946H51.6305V69.0283H51.6543V69.1946H51.8205V69.2184H51.6543V69.3609ZM53.6497 64.4198H53.6259V64.2536H53.4596V64.2298H53.6497V64.4198ZM52.8183 65.2275V65.2513H52.652V65.4176H52.6282V65.2513H52.4619V65.2275H52.6282V65.0612H52.652V65.2275H52.8183ZM53.4596 65.2513V65.2275H53.6259V65.0612H53.6497V65.4176H53.6259V65.2513H53.4596ZM52.8183 66.2015V66.249H52.652V66.3915H52.6282V66.249H52.4619V66.2015H52.6282V66.0589H52.652V66.2015H52.8183ZM53.4596 66.249V66.2015H53.6259V66.0589H53.6497V66.3915H53.6259V66.249H53.4596ZM52.8183 67.1992V67.2229H52.652V67.3892H52.6282V67.2229H52.4619V67.1992H52.6282V67.0329H52.652V67.1992H52.8183ZM53.6259 67.1992V67.0329H53.6497V67.3892H53.6259V67.2229H53.4596V67.1992H53.6259ZM52.8183 68.1969V68.2207H52.652L52.652 68.3869H52.6282L52.6282 68.2207H52.4619V68.1969H52.6282V68.0306H52.652V68.1969H52.8183ZM53.6259 68.1969V68.0306H53.6497L53.6497 68.3869H53.6259L53.6259 68.2207H53.4596V68.1969H53.6259ZM52.652 69.3609H52.6282V69.2184H52.4619V69.1946H52.6282V69.0283H52.652V69.1946H52.8183V69.2184H52.652V69.3609ZM53.6259 69.1946V69.0283H53.6497V69.3609H53.6259V69.2184H53.4596V69.1946H53.6259ZM53.5309 67.1517H53.2458L54.006 66.2015H54.2911L53.5309 67.1517ZM54.7662 66.2015H55.0512L54.2911 67.1517H54.006L54.7662 66.2015ZM61.9402 66.2015L61.1563 67.1517H60.8712L61.6314 66.2015H61.9402ZM55.5263 66.2015H55.8114L55.0512 67.1517H54.7662L55.5263 66.2015ZM60.8712 66.2015H61.1563L60.3961 67.1517H60.1111L60.8712 66.2015ZM57.8306 66.2015H58.1156L57.3555 67.1517H57.0467L57.8306 66.2015ZM60.1111 66.2015H60.3961L59.636 67.1517H59.3509L60.1111 66.2015ZM56.2865 66.2015H56.5716L55.8114 67.1517H55.5263L56.2865 66.2015ZM57.0467 66.2015H57.3555L56.5716 67.1517H56.2865L57.0467 66.2015ZM59.3509 66.2015H59.636L58.8758 67.1517H58.5907L59.3509 66.2015ZM58.5907 66.2015H58.8758L58.1156 67.1517H57.8306L58.5907 66.2015ZM87.5079 70.1923H89.5746V71H79.835V70.0023H79.8588V70.1686H80.0251V70.1923H80.6665V70.1686H80.809V70.0023H80.8328V70.1686H80.999V70.1923H81.6404V70.1686H81.8067V70.0023H81.8305V70.1686H81.9968V70.1923H82.6381V70.1686H82.8044V70.0023H82.8282V70.1686H82.9945V70.1923H83.6359V70.1686H83.6834L82.8282 69.2184V69.3609H82.8044V69.2184H82.6381V69.1946H82.8044V69.1709L82.7094 69.0758H82.5669V68.3869H81.878V68.2207H81.8305V68.3869H81.8067V68.2207H81.6404V68.1969H81.8067V68.0306H81.8305V68.1969H81.878V67.698H81.1891V67.0091H80.5002V66.3202H79.8588V66.3915H79.835V66.3202H79.8113V65.6313H79.1224V64.9424H77.0557V64.2536H78.4335V63.7072L78.1722 64.0398H77.8634L78.2672 63.5647H77.7921L77.412 64.0398H77.1032L77.6021 63.4459C77.507 63.3746 77.3883 63.3033 77.2695 63.2558L76.6281 64.0398H76.343L77.0557 63.1846C76.9132 63.1371 76.7706 63.1133 76.6281 63.1133L75.8679 64.0398H75.5829L76.343 63.1133H75.8679L75.1078 64.0398H74.8227L75.5829 63.1133H75.1078L74.3476 64.0398H74.0626L74.8227 63.1133H74.3476L73.5875 64.0398H73.2786L74.0626 63.1133H73.5875L72.8273 64.0398H72.5185L73.2786 63.1133H72.8273L72.0434 64.0398H71.7583L72.5185 63.1133H72.0434L71.2832 64.0398H70.9981L71.7583 63.1133H71.2832L70.523 64.0398V67.7931L71.9246 68.2444V70.1923H75.6066V71H65.0119V70.1923H68.6701V55.2029H65.0119V54.3952H83.7071C86.1064 54.3952 88.0543 56.3193 88.0781 58.7186H88.1018V59.4075H87.4129V60.0964H88.1018V60.8091H87.4129V61.498H86.724V62.1869H86.0351V62.8758H81.1891V63.5647H81.878V64.2298H81.9968V64.2536H81.8305V64.4198H81.8067V64.2536H81.6404H81.1891V64.9424H83.2558V65.6313H83.9684V66.2015V66.249V66.3202H84.6573V67.0091H85.3462V68.3869H86.0351V69.0521H86.4865L87.5079 70.1923ZM70.523 63.6834L70.9981 63.1133H70.523V63.6834ZM77.7446 62.1869H83.2558V61.498H83.9684V60.8091H84.6573V60.0964H83.9684V59.4075H84.6573V58.7186H84.8236C84.8236 56.7707 83.232 55.2029 81.2841 55.2029H77.7683L77.317 56.6044H71.9246V62.2819H77.7446V62.1869ZM79.835 67.0329H79.8588V67.1992H80.0251V67.2229H79.8588V67.3892H79.835V67.0329ZM79.835 68.3869V68.0306H79.8588V68.1969H80.0251V68.2207H79.8588V68.3869H79.835ZM79.835 69.3609V69.0283H79.8588V69.1946H80.0251V69.2184H79.8588V69.3609H79.835ZM80.809 67.0329H80.8328V67.1992H80.999V67.2229H80.8328V67.3892H80.809V67.2229H80.6665V67.1992H80.809V67.0329ZM80.6665 68.2207V68.1969H80.809V68.0306H80.8328V68.1969H80.999V68.2207H80.8328V68.3869H80.809V68.2207H80.6665ZM80.6665 69.2184V69.1946H80.809V69.0283H80.8328V69.1946H80.999V69.2184H80.8328V69.3609H80.809V69.2184H80.6665ZM81.8067 69.0283H81.8305V69.1946H81.9968V69.2184H81.8305V69.3609H81.8067V69.2184H81.6404V69.1946H81.8067V69.0283ZM82.8282 64.4198H82.8044V64.2536H82.6381V64.2298H82.9945V64.2536H82.8282V64.4198ZM83.8259 65.4176H83.7784V65.2513H83.6359V65.2275H83.7784V65.0612H83.8259V65.2275H83.9684V65.2513H83.8259V65.4176ZM83.9684 64.2298V64.2536H83.8259V64.4198H83.7784V64.2536H83.6359V64.2298H83.9684ZM85.7976 64.2298V64.4198H85.7738V64.2536H85.6075V64.2298H85.7976ZM84.9661 65.2275V65.2513H84.7999V65.4176H84.7761V65.2513H84.6098V65.2275H84.7761V65.0612H84.7999V65.2275H84.9661ZM85.7976 65.0612V65.4176H85.7738V65.2513H85.6075V65.2275H85.7738V65.0612H85.7976ZM84.9661 64.2298V64.2536H84.7999V64.4198H84.7761V64.2536H84.6098V64.2298H84.9661ZM84.7999 66.3915H84.7761V66.249H84.6098V66.2015H84.7761V66.0589H84.7999V66.2015H84.9661V66.249H84.7999V66.3915ZM85.7976 66.0589V66.3915H85.7738V66.249H85.6075V66.2015H85.7738V66.0589H85.7976ZM85.7976 67.0329V67.3892H85.7738V67.2229H85.6075V67.1992H85.7738V67.0329H85.7976ZM85.7976 68.3869H85.7738V68.2207H85.6075V68.1969H85.7738V68.0306H85.7976V68.3869ZM49.0429 77.5976H47.6413V78.9753H48.354V79.6642H49.0429V80.3531H49.7318V81.042H52.1548V81.7309H50.4207V82.4198H51.1096V82.8237L55.8606 88.1923H57.951V89H48.1877V88.1923H47.9501L48.7103 87.2421H49.0191L48.2352 88.1923H48.7103L49.4705 87.2421H49.7793L49.0191 88.1923H49.4705L50.2544 87.2421H50.5394L49.7793 88.1923H50.2544L51.0145 87.2421H51.2283L49.9931 85.8643H49.7318V85.1754H49.0429V84.4865H48.354V83.7976H47.6413V82.4198H46.9524V81.7309H48.6865V81.042H45.5746V80.3531H44.1968V81.042H43.4842V81.7309H42.1064V82.4198H41.5125H41.4887H41.4175V83.1087H40.5148V83.2275H40.6811V83.2513H40.5148V83.4176H40.491V83.2513H40.3247V83.2275H40.491V83.1087L39.5171 83.1087V83.2275H39.6834V83.2513H39.5171V83.4176H39.4933V83.2513H39.3508V84.2015H39.4933V84.0589H39.5171V84.2015H39.6834V84.249H39.5171V84.3915H39.4933V84.249H39.3508V85.1992H39.4933V85.0329H39.5171V85.1992H39.6834V85.2229H39.5171V85.3892H39.4933V85.2229H39.3508V86.1969H39.4933V86.0306H39.5171V86.1969H39.6834V86.2207H39.5171V86.3869H39.4933V86.2207H39.3508V86.4107L40.7523 86.8858V88.1923H41.0849L41.8451 87.2421H42.1301L41.5125 88.026V88.1686H41.6788V88.1923H41.8451L42.6052 87.2421H42.8903L42.1301 88.1923H42.3202V88.1686H42.4627V88.0023H42.4865V88.1686H42.629L43.3654 87.2421H43.4604V87.2184H43.2941V87.1946H43.4604V87.0283H43.4842V87.1946H43.6505V87.2184H43.4842V87.2421H43.6505L42.8903 88.1923H43.2941V88.1686H43.3891L43.4604 88.0736V88.0023H43.4842V88.0498L44.1256 87.2421H44.4344L43.6505 88.1923H44.1256L44.8857 87.2421H45.1945L44.4819 88.1211V89L33.7683 89V88.1923H37.4979V73.2029H33.7683V72.3714L44.4819 72.3714V73.2029H42.7953L42.3439 74.6044H40.7523V81.7309H41.4175V81.042H42.1064V80.3531H42.7953V79.6642H44.1968V78.9753H44.8857V78.2864H45.5746V77.5976H46.9524V76.9087H47.6413V76.2198H48.354V75.5309H48.9716L52.0598 73.2029H48.1877V72.3714H57.951V73.2029H53.9839L50.872 75.5309H50.4207V76.2198H49.7318V76.9087H49.0429V77.5976ZM44.4581 88.1686H44.4344H44.4581ZM41.4887 88.0498L41.3937 88.1686H41.4887V88.0498ZM39.4933 83.2275V83.1087H39.3508V83.2275H39.4933ZM51.9172 88.026L51.6559 87.741L51.2996 88.1923H51.7747L51.9172 88.026ZM51.5134 87.5747L51.2758 87.2896L50.5394 88.1923H51.0145L51.5134 87.5747ZM40.6811 84.2015V84.249H40.5148V84.3915H40.491V84.249H40.3247V84.2015H40.491V84.0589H40.5148V84.2015H40.6811ZM40.6811 85.1992V85.2229H40.5148V85.3892H40.491V85.2229H40.3247V85.1992H40.491V85.0329H40.5148V85.1992H40.6811ZM40.5148 86.3869H40.491V86.2207H40.3247V86.1969H40.491V86.0306H40.5148V86.1969H40.6811V86.2207H40.5148V86.3869ZM41.6788 83.2275V83.2513H41.5125V83.4176H41.4887V83.2513H41.3225V83.2275H41.4887V83.0612H41.5125V83.2275H41.6788ZM41.6788 84.2015V84.249H41.5125V84.3915H41.4887V84.249H41.3225V84.2015H41.4887V84.0589H41.5125V84.2015H41.6788ZM41.6788 85.1992V85.2229H41.5125V85.3892H41.4887V85.2229H41.3225V85.1992H41.4887V85.0329H41.5125V85.1992H41.6788ZM41.6788 86.1969V86.2207H41.5125V86.3869H41.4887V86.2207H41.3225V86.1969H41.4887V86.0306H41.5125V86.1969H41.6788ZM41.5125 87.3609H41.4887V87.2184H41.3225V87.1946H41.4887V87.0283H41.5125V87.1946H41.6788V87.2184H41.5125V87.3609ZM42.6527 83.2275V83.2513H42.4865V83.4176H42.4627V83.2513H42.3202V83.2275H42.4627V83.0612H42.4865V83.2275H42.6527ZM42.6527 82.2298V82.2536H42.4865V82.4198H42.4627V82.2536H42.3202V82.2298H42.6527ZM42.6527 84.2015V84.249H42.4865V84.3915H42.4627V84.249H42.3202V84.2015H42.4627V84.0589H42.4865V84.2015H42.6527ZM42.6527 85.1992V85.2229H42.4865V85.3892H42.4627V85.2229H42.3202V85.1992H42.4627V85.0329H42.4865V85.1992H42.6527ZM42.6527 86.1969V86.2207H42.4865V86.3869H42.4627V86.2207H42.3202V86.1969H42.4627V86.0306H42.4865V86.1969H42.6527ZM42.4865 87.3609H42.4627V87.2184H42.3202V87.1946H42.4627V87.0283H42.4865V87.1946H42.6527V87.2184H42.4865V87.3609ZM44.4819 82.2298V82.4198H44.4581V82.2536H44.2918V82.2298H44.4819ZM43.6505 83.2275V83.2513H43.4842V83.4176H43.4604V83.2513H43.2941V83.2275H43.4604V83.0612H43.4842V83.2275H43.6505ZM44.4819 83.0612V83.4176H44.4581V83.2513H44.2918V83.2275H44.4581V83.0612H44.4819ZM43.6505 82.2298V82.2536H43.4842V82.4198H43.4604V82.2536H43.2941V82.2298H43.6505ZM43.6505 84.2015V84.249H43.4842V84.3915H43.4604V84.249H43.2941V84.2015H43.4604V84.0589H43.4842V84.2015H43.6505ZM44.4819 84.0589V84.3915H44.4581V84.249H44.2918V84.2015H44.4581V84.0589H44.4819ZM43.6505 85.1992V85.2229H43.4842V85.3892H43.4604V85.2229H43.2941V85.1992H43.4604V85.0329H43.4842V85.1992H43.6505ZM44.4819 85.0329V85.3892H44.4581V85.2229H44.2918V85.1992H44.4581V85.0329H44.4819ZM43.4842 86.3869H43.4604V86.2207H43.2941V86.1969H43.4604V86.0306H43.4842V86.1969H43.6505V86.2207H43.4842V86.3869ZM44.4819 86.0306V86.3869H44.4581V86.2207H44.2918V86.1969H44.4581V86.0306H44.4819ZM44.4819 87.3609H44.4581V87.2184H44.2918V87.1946H44.4581V87.0283H44.4819V87.3609ZM45.6696 87.2421H45.9547L45.1945 88.1923H44.8857L45.6696 87.2421ZM47.9501 87.2421H48.2352L47.475 88.1923H47.19L47.9501 87.2421ZM47.19 87.2421H47.475L46.7149 88.1923H46.4298L47.19 87.2421ZM46.4298 87.2421H46.7149L45.9547 88.1923H45.6696L46.4298 87.2421ZM71.7589 85.5793H71.07V84.2015H71.7589V85.5793ZM69.6684 86.2682H70.3573V85.5793H71.07V88.3349H70.3573V89H50.7356V88.1923H54.3939V73.2029H50.7356V72.3714H70.2385L71.7114 76.8611H71.165C70.1198 74.6994 67.9105 73.2029 65.3687 73.2029H61.3541L60.9028 74.6044H57.6483V80.2819H61.3541V80.0681H64.8224V79.3792H65.5113V78.6903H65.63C65.7251 78.429 65.7726 78.1439 65.7726 77.8351H66.5803V78.6903H66.8891V81.4459H68.2906V82.1348H66.8891V83.5363H66.8653V83.5126H65.9151V83.5363H65.8914V83.5126H65.5113V82.1348H66.2002V81.4459H65.9151L65.4163 82.0398H65.1312L65.6063 81.4459H65.1312L64.6561 82.0398H64.371L64.8461 81.4459H64.371L63.8959 82.0398H63.5871L64.086 81.4459H63.6109L63.1358 82.0398H62.8269L63.3258 81.4459H62.8507L62.3518 82.0398H62.0668L62.5656 81.4459H62.0905L61.5917 82.0398H61.3066L61.8055 81.4459H61.3541V81.3984L60.8315 82.0398H60.5465L61.3066 81.1133H60.8315L60.0714 82.0398H59.7863L60.5465 81.1133H60.0714L59.3112 82.0398H59.0024L59.7863 81.1133H59.3112L58.551 82.0398H58.2422L59.0024 81.1133H58.551L57.7671 82.0398H57.482L58.2422 81.1133H57.7671L57.0069 82.0398H56.7219L57.482 81.1133H57.0069L56.2468 82.0398V85.7931L57.6483 86.2444V88.1923H60.9265V88.1448H60.9503V88.1923H61.4016V88.3349H61.758V88.2873H61.9243V88.1448H61.948V88.2873H62.1143V88.3349H62.7557V88.2873H62.922V88.1448H62.9457V88.2873H63.112V88.3349H63.7534V88.2873H63.8959V88.1448H63.9197V88.2873H64.086V88.3349H64.7274V88.2873H64.8936V88.1448H64.9174V88.2873H65.0837V88.3349H65.7251V88.2873H65.8914V88.1448H65.9151V88.2873H66.0814V88.3349H66.7228V88.2873H66.8653V88.1448H66.8891V87.646H68.9795V86.9571H69.6684V86.2682ZM56.2468 81.1133V81.6834L56.7219 81.1133H56.2468ZM61.1166 83.3463V83.37H60.9503V83.5363H60.9265V83.18H60.9503V83.3463H61.1166ZM61.1166 82.3486V82.3723H60.9503V82.5386H60.9265V82.3486H61.1166ZM61.1166 84.344V84.3678H60.9503V84.534H60.9265V84.1777H60.9503V84.344H61.1166ZM61.1166 85.318V85.3417H60.9503V85.508H60.9265V85.1754H60.9503V85.318H61.1166ZM61.1166 86.3157V86.3394H60.9503V86.5057H60.9265V86.1494H60.9503V86.3157H61.1166ZM60.9265 87.1471H60.9503V87.3134H61.1166V87.3371H60.9503V87.5034H60.9265V87.1471ZM62.1143 83.3463V83.37H61.948V83.5363H61.9243V83.37H61.758V83.3463H61.9243V83.18H61.948V83.3463H62.1143ZM62.1143 82.3486V82.3723H61.948V82.5386H61.9243V82.3723H61.758V82.3486H62.1143ZM62.1143 84.344V84.3678H61.948V84.534H61.9243V84.3678H61.758V84.344H61.9243V84.1777H61.948V84.344H62.1143ZM62.1143 85.318V85.3417H61.948V85.508H61.9243V85.3417H61.758V85.318H61.9243V85.1754H61.948V85.318H62.1143ZM62.1143 86.3157V86.3394H61.948V86.5057H61.9243V86.3394H61.758V86.3157H61.9243V86.1494H61.948V86.3157H62.1143ZM61.948 87.5034H61.9243V87.3371H61.758V87.3134H61.9243V87.1471H61.948V87.3134H62.1143V87.3371H61.948V87.5034ZM63.112 83.3463V83.37H62.9457V83.5363H62.922V83.37H62.7557V83.3463H62.922V83.18H62.9457V83.3463H63.112ZM63.112 82.3486V82.3723H62.9457V82.5386H62.922V82.3723H62.7557V82.3486H63.112ZM63.112 84.344V84.3678H62.9457V84.534H62.922V84.3678H62.7557V84.344H62.922V84.1777H62.9457V84.344H63.112ZM63.112 85.318V85.3417H62.9457V85.508H62.922V85.3417H62.7557V85.318H62.922V85.1754H62.9457V85.318H63.112ZM63.112 86.3157V86.3394H62.9457V86.5057H62.922V86.3394H62.7557V86.3157H62.922V86.1494H62.9457V86.3157H63.112ZM62.9457 87.5034H62.922V87.3371H62.7557V87.3134H62.922V87.1471H62.9457V87.3134H63.112V87.3371H62.9457V87.5034ZM64.086 83.3463V83.37H63.9197V83.5363H63.8959V83.37H63.7534V83.3463H63.8959V83.18H63.9197V83.3463H64.086ZM64.086 82.3486V82.3723H63.9197V82.5386H63.8959V82.3723H63.7534V82.3486H64.086ZM64.086 84.344V84.3678H63.9197V84.534H63.8959V84.3678H63.7534V84.344H63.8959V84.1777H63.9197V84.344H64.086ZM64.086 85.318V85.3417H63.9197V85.508H63.8959V85.3417H63.7534V85.318H63.8959V85.1754H63.9197V85.318H64.086ZM64.086 86.3157V86.3394H63.9197V86.5057H63.8959V86.3394H63.7534V86.3157H63.8959V86.1494H63.9197V86.3157H64.086ZM63.9197 87.5034H63.8959V87.3371H63.7534V87.3134H63.8959V87.1471H63.9197V87.3134H64.086V87.3371H63.9197V87.5034ZM65.0837 83.3463V83.37H64.9174V83.5363H64.8936V83.37H64.7274V83.3463H64.8936V83.18H64.9174V83.3463H65.0837ZM65.0837 82.3486V82.3723H64.9174V82.5386H64.8936V82.3723H64.7274V82.3486H65.0837ZM65.0837 84.344V84.3678H64.9174V84.534H64.8936V84.3678H64.7274V84.344H64.8936V84.1777H64.9174V84.344H65.0837ZM65.0837 85.318V85.3417H64.9174V85.508H64.8936V85.3417H64.7274V85.318H64.8936V85.1754H64.9174V85.318H65.0837ZM65.0837 86.3157V86.3394H64.9174V86.5057H64.8936V86.3394H64.7274V86.3157H64.8936V86.1494H64.9174V86.3157H65.0837ZM64.9174 87.5034H64.8936V87.3371H64.7274V87.3134H64.8936V87.1471H64.9174V87.3134H65.0837V87.3371H64.9174V87.5034ZM66.0814 84.344V84.3678H65.9151V84.534H65.8914V84.3678H65.7251V84.344H65.8914V84.1777H65.9151V84.344H66.0814ZM66.8891 84.1777V84.534H66.8653V84.3678H66.7228V84.344H66.8653V84.1777H66.8891ZM66.0814 85.318V85.3417H65.9151V85.508H65.8914V85.3417H65.7251V85.318H65.8914V85.1754H65.9151V85.318H66.0814ZM66.8891 85.1754V85.508H66.8653V85.3417H66.7228V85.318H66.8653V85.1754H66.8891ZM66.0814 86.3157V86.3394H65.9151V86.5057H65.8914V86.3394H65.7251V86.3157H65.8914V86.1494H65.9151V86.3157H66.0814ZM66.8891 86.1494V86.5057H66.8653V86.3394H66.7228V86.3157H66.8653V86.1494H66.8891ZM65.9151 87.5034H65.8914V87.3371H65.7251V87.3134H65.8914V87.1471H65.9151V87.3134H66.0814V87.3371H65.9151V87.5034ZM66.8891 87.5034H66.8653V87.3371H66.7228V87.3134H66.8653V87.1471H66.8891V87.5034ZM65.0512 76.4811H64.3861V75.8159H65.0512V76.4811ZM65.7401 72.3714H86.6446L88.0937 76.8611H87.5473C86.5021 74.6994 84.2928 73.2029 81.751 73.2029H81.5848L81.1334 74.6044H77.8552V88.1923H81.5848V89H70.8712V88.1923L71.6314 87.2421H71.9164L71.1563 88.1923H71.6314L72.3915 87.2421H72.7003L71.9164 88.1923H72.3915L73.1517 87.2421H73.4605L72.7003 88.1923H73.1517L73.9356 87.2421H74.2207L73.4605 88.1923H73.9356L74.6008 87.3609V78.2152L74.9808 78.0964V78.0489H74.8383V78.0251H74.9808V77.8589H75.0046V78.0251H75.1709L76.0023 77.7638V77.2175H75.9786V77.0512H75.8123V77.0274H75.9786V76.8611H76.0023V76.2198H75.9786V76.0535H75.8123V76.0297H75.9786V75.8872H76.0023V75.2458H75.9786V75.0795H75.8123V75.0558H75.9786V74.8895H76.0023V74.2481H75.9786V74.0818H75.8123V74.058H75.9786V73.8918H76.0023V73.2504H75.9786V73.0841H75.8123V73.0603H75.1709V73.0841H75.0046V73.2504H74.9808V73.0841H74.8383V73.0603H74.1969V73.0841H74.0306V73.2504H74.0069V73.0841H73.8406V73.0603H73.1992V73.0841H73.0329V73.2504H73.0092V73.0841H72.8429V73.0603H72.2015V73.0841H72.0352V73.2504H72.0115V73.0841H71.8689V73.0603H71.2275V73.0841H71.0612V73.2504H71.0375V73.0841H70.8712V73.0603H70.2298V73.0841H70.0635V73.2504H70.0398V73.0603H69.1608V73.7492H67.8068V74.4381H66.429V75.127H65.7401V75.8159H65.0512V73.7492H65.7401V72.3714ZM74.6008 88.1923V87.7172L74.2207 88.1923H74.6008ZM75.0046 78.0964L75.1471 78.0489H75.0046V78.0964ZM70.0635 73.8918V74.058H70.2298V74.0818H70.0635V74.2481H70.0398V73.8918H70.0635ZM70.0635 74.8895V75.0558H70.2298V75.0795H70.0635V75.2458H70.0398V74.8895H70.0635ZM70.0635 75.8872V76.0297H70.2298V76.0535H70.0635V76.2198H70.0398V75.8872H70.0635ZM70.0635 76.8611V77.0274H70.2298V77.0512H70.0635V77.2175H70.0398V76.8611H70.0635ZM70.0635 77.8589V78.0251H70.2298V78.0489H70.0635V78.2152H70.0398V77.8589H70.0635ZM70.0635 78.8566V78.9991H70.2298V79.0229H70.0398V78.8566H70.0635ZM71.0375 73.8918H71.0612V74.058H71.2275V74.0818H71.0612V74.2481H71.0375V74.0818H70.8712V74.058H71.0375V73.8918ZM70.8712 75.0795V75.0558H71.0375V74.8895H71.0612V75.0558H71.2275V75.0795H71.0612V75.2458H71.0375V75.0795H70.8712ZM70.8712 76.0535V76.0297H71.0375V75.8872H71.0612V76.0297H71.2275V76.0535H71.0612V76.2198H71.0375V76.0535H70.8712ZM70.8712 77.0512V77.0274H71.0375V76.8611H71.0612V77.0274H71.2275V77.0512H71.0612V77.2175H71.0375V77.0512H70.8712ZM70.8712 78.0489V78.0251H71.0375V77.8589H71.0612V78.0251H71.2275V78.0489H71.0612V78.2152H71.0375V78.0489H70.8712ZM70.8712 79.0229V78.9991H71.0375V78.8566H71.0612V78.9991H71.2275V79.0229H70.8712ZM72.0115 73.8918H72.0352V74.058H72.2015V74.0818H72.0352V74.2481H72.0115V74.0818H71.8689V74.058H72.0115V73.8918ZM71.8689 75.0795V75.0558H72.0115V74.8895H72.0352V75.0558H72.2015V75.0795H72.0352V75.2458H72.0115V75.0795H71.8689ZM71.8689 76.0535V76.0297H72.0115V75.8872H72.0352V76.0297H72.2015V76.0535H72.0352V76.2198H72.0115V76.0535H71.8689ZM71.8689 77.0512V77.0274H72.0115V76.8611H72.0352V77.0274H72.2015V77.0512H72.0352V77.2175H72.0115V77.0512H71.8689ZM71.8689 78.0489V78.0251H72.0115V77.8589H72.0352V78.0251H72.2015V78.0489H72.0352V78.2152H72.0115V78.0489H71.8689ZM71.8689 79.0229V78.9991H72.0115V78.8566H72.0352V78.9991H72.2015V79.0229H71.8689ZM73.0092 73.8918H73.0329V74.058H73.1992V74.0818H73.0329V74.2481H73.0092V74.0818H72.8429V74.058H73.0092V73.8918ZM72.8429 75.0795V75.0558H73.0092V74.8895H73.0329V75.0558H73.1992V75.0795H73.0329V75.2458H73.0092V75.0795H72.8429ZM72.8429 76.0535V76.0297H73.0092V75.8872H73.0329V76.0297H73.1992V76.0535H73.0329V76.2198H73.0092V76.0535H72.8429ZM72.8429 77.0512V77.0274H73.0092V76.8611H73.0329V77.0274H73.1992V77.0512H73.0329V77.2175H73.0092V77.0512H72.8429ZM72.8429 78.0489V78.0251H73.0092V77.8589H73.0329V78.0251H73.1992V78.0489H73.0329V78.2152H73.0092V78.0489H72.8429ZM72.8429 79.0229V78.9991H73.0092V78.8566H73.0329V78.9991H73.1992V79.0229H72.8429ZM74.0069 73.8918H74.0306V74.058H74.1969V74.0818H74.0306V74.2481H74.0069V74.0818H73.8406V74.058H74.0069V73.8918ZM73.8406 75.0795V75.0558H74.0069V74.8895H74.0306V75.0558H74.1969V75.0795H74.0306V75.2458H74.0069V75.0795H73.8406ZM73.8406 76.0535V76.0297H74.0069V75.8872H74.0306V76.0297H74.1969V76.0535H74.0306V76.2198H74.0069V76.0535H73.8406ZM73.8406 77.0512V77.0274H74.0069V76.8611H74.0306V77.0274H74.1969V77.0512H74.0306V77.2175H74.0069V77.0512H73.8406ZM73.8406 78.0489V78.0251H74.0069V77.8589H74.0306V78.0251H74.1969V78.0489H74.0306V78.2152H74.0069V78.0489H73.8406ZM73.8406 79.0229V78.9991H74.0069V78.8566H74.0306V78.9991H74.1969V79.0229H73.8406ZM74.9808 73.8918H75.0046V74.058H75.1709V74.0818H75.0046V74.2481H74.9808V74.0818H74.8383V74.058H74.9808V73.8918ZM74.8383 75.0795V75.0558H74.9808V74.8895H75.0046V75.0558H75.1709V75.0795H75.0046V75.2458H74.9808V75.0795H74.8383ZM74.8383 76.0535V76.0297H74.9808V75.8872H75.0046V76.0297H75.1709V76.0535H75.0046V76.2198H74.9808V76.0535H74.8383ZM74.8383 77.0512V77.0274H74.9808V76.8611H75.0046V77.0274H75.1709V77.0512H75.0046V77.2175H74.9808V77.0512H74.8383Z" fill="#B223B0"/>
</svg>
