<svg width="7" height="37" viewBox="0 0 7 37" fill="none" xmlns="http://www.w3.org/2000/svg">
<path d="M0.34 11.43L0.339999 12.2L-0.0100005 12.2L-0.0100003 7.45L0.28 7.45L0.28 8.9L0.57 8.9L0.57 8.61L0.86 8.61L0.86 8.32L1.15 8.32L1.15 8.03L1.44 8.03L1.44 8.68L1.73 8.68L1.73 7.16L2.02 7.16L2.02 6.86L2.24 6.86L2.9 6.12L0.79 3.32L0.76 3.32L0.76 3.39L0.75 3.39L0.75 3.32L0.69 3.32L0.69 3.31L0.75 3.31L0.75 3.28L0.34 2.72L0.34 2.82L0.35 2.82L0.35 2.89L0.42 2.89L0.42 2.9L0.35 2.9L0.35 2.97L0.34 2.97L0.34 3.24L0.35 3.24L0.35 3.31L0.42 3.31L0.42 3.32L0.35 3.32L0.35 3.39L0.34 3.39L0.34 3.66L0.35 3.66L0.35 3.72L0.42 3.72L0.42 3.73L0.35 3.73L0.35 3.8L0.34 3.8L0.34 4.07L0.35 4.07L0.35 4.14L0.42 4.14L0.42 4.15L0.35 4.15L0.35 4.22L0.34 4.22L0.34 4.49L0.35 4.49L0.35 4.56L0.42 4.56L0.42 4.57L-0.0100002 4.57L-0.01 0.799999L0.34 0.799999L0.34 1.92L0.75 2.47L0.75 2.41L0.76 2.41L0.76 2.47L0.83 2.47L0.83 2.48L0.77 2.48L2 4.12L2 4.07L2.02 4.07L2.02 4.14L2.08 4.14L2.08 4.15L2.03 4.15L2.91 5.33L3.25 5.59L3.25 5.72L3.15 5.64L3.23 5.75L6.43 2.16C6.57 2 6.65 1.79 6.65 1.57L6.65 0.8L7 0.8L7 5.48L6.65 5.48L6.65 3.99L4.09 6.86L4.33 6.86L4.33 7.2L6.65 10.27L6.65 8.43L7 8.43L7 12.2L6.65 12.2L6.65 11.08L4.33 8.01L4.33 7.74L4.05 7.74L4.05 7.45L3.47 7.45L3.47 7.74L3.18 7.74L3.18 8.03L2.89 8.03L2.89 8.32L2.6 8.32L2.6 8.61L2.31 8.61L2.31 9.2L2.02 9.2L2.02 9.49L1.73 9.49L1.73 10.72L1.44 10.72L1.44 10.07L1.15 10.07L1.15 10.36L0.86 10.36L0.86 10.65L0.57 10.65L0.57 11.24L0.36 11.24C0.34 11.3 0.34 11.36 0.34 11.43ZM0.76 3.31L0.78 3.31L0.76 3.29L0.76 3.31ZM2.35 2.06L2.5 2.06L2.5 2.07L2.43 2.07L2.43 2.14L2.42 2.14L2.42 2.07L2.35 2.07L2.35 2.06ZM1.94 2.06L2.08 2.06L2.08 2.07L2.02 2.07L2.02 2.14L2 2.14L2 2.07L1.94 2.07L1.94 2.06ZM1.52 2.06L1.67 2.06L1.67 2.07L1.6 2.07L1.6 2.14L1.59 2.14L1.59 2.07L1.52 2.07L1.52 2.06ZM1.1 2.06L1.25 2.06L1.25 2.07L1.18 2.07L1.18 2.14L1.17 2.14L1.17 2.07L1.1 2.07L1.1 2.06ZM0.69 2.06L0.83 2.06L0.83 2.07L0.76 2.07L0.76 2.14L0.75 2.14L0.75 2.07L0.69 2.07L0.69 2.06ZM2.43 2.55L2.42 2.55L2.42 2.48L2.35 2.48L2.35 2.47L2.42 2.47L2.42 2.41L2.43 2.41L2.43 2.47L2.5 2.47L2.5 2.48L2.43 2.48L2.43 2.55ZM2.02 2.55L2 2.55L2 2.48L1.94 2.48L1.94 2.47L2 2.47L2 2.41L2.02 2.41L2.02 2.47L2.08 2.47L2.08 2.48L2.02 2.48L2.02 2.55ZM1.6 2.55L1.59 2.55L1.59 2.48L1.52 2.48L1.52 2.47L1.59 2.47L1.59 2.41L1.6 2.41L1.6 2.47L1.67 2.47L1.67 2.48L1.6 2.48L1.6 2.55ZM1.1 2.48L1.1 2.47L1.17 2.47L1.17 2.41L1.18 2.41L1.18 2.47L1.25 2.47L1.25 2.48L1.18 2.48L1.18 2.55L1.17 2.55L1.17 2.48L1.1 2.48ZM2.43 2.97L2.42 2.97L2.42 2.9L2.35 2.9L2.35 2.89L2.42 2.89L2.42 2.82L2.43 2.82L2.43 2.89L2.5 2.89L2.5 2.9L2.43 2.9L2.43 2.97ZM2.02 2.97L2 2.97L2 2.9L1.94 2.9L1.94 2.89L2 2.89L2 2.82L2.02 2.82L2.02 2.89L2.08 2.89L2.08 2.9L2.02 2.9L2.02 2.97ZM1.6 2.97L1.59 2.97L1.59 2.9L1.52 2.9L1.52 2.89L1.59 2.89L1.59 2.82L1.6 2.82L1.6 2.89L1.67 2.89L1.67 2.9L1.6 2.9L1.6 2.97ZM1.1 2.9L1.1 2.89L1.17 2.89L1.17 2.82L1.18 2.82L1.18 2.89L1.25 2.89L1.25 2.9L1.18 2.9L1.18 2.97L1.17 2.97L1.17 2.9L1.1 2.9ZM2.43 3.39L2.42 3.39L2.42 3.32L2.35 3.32L2.35 3.31L2.42 3.31L2.42 3.24L2.43 3.24L2.43 3.31L2.5 3.31L2.5 3.32L2.43 3.32L2.43 3.39ZM2.02 3.39L2 3.39L2 3.32L1.94 3.32L1.94 3.31L2 3.31L2 3.24L2.02 3.24L2.02 3.31L2.08 3.31L2.08 3.32L2.02 3.32L2.02 3.39ZM1.52 3.32L1.52 3.31L1.59 3.31L1.59 3.24L1.6 3.24L1.6 3.31L1.67 3.31L1.67 3.32L1.6 3.32L1.6 3.39L1.59 3.39L1.59 3.32L1.52 3.32ZM2.43 3.8L2.42 3.8L2.42 3.73L2.35 3.73L2.35 3.72L2.42 3.72L2.42 3.66L2.43 3.66L2.43 3.72L2.5 3.72L2.5 3.73L2.43 3.73L2.43 3.8ZM1.94 3.73L1.94 3.72L2 3.72L2 3.66L2.02 3.66L2.02 3.72L2.08 3.72L2.08 3.73L2.02 3.73L2.02 3.8L2 3.8L2 3.73L1.94 3.73ZM0.69 3.73L0.69 3.72L0.75 3.72L0.75 3.66L0.76 3.66L0.76 3.72L0.83 3.72L0.83 3.73L0.76 3.73L0.76 3.8L0.75 3.8L0.75 3.73L0.69 3.73ZM2.85 4.57L2.77 4.57L2.77 4.56L2.84 4.56L2.84 4.49L2.85 4.49L2.85 4.57ZM2.35 4.15L2.35 4.14L2.42 4.14L2.42 4.07L2.43 4.07L2.43 4.14L2.5 4.14L2.5 4.15L2.43 4.15L2.43 4.22L2.42 4.22L2.42 4.15L2.35 4.15ZM2.35 4.57L2.35 4.56L2.42 4.56L2.42 4.49L2.43 4.49L2.43 4.56L2.5 4.56L2.5 4.57L2.35 4.57ZM1.6 4.56L1.67 4.56L1.67 4.57L1.52 4.57L1.52 4.56L1.59 4.56L1.59 4.49L1.6 4.49L1.6 4.56ZM1.18 4.22L1.17 4.22L1.17 4.15L1.1 4.15L1.1 4.14L1.17 4.14L1.17 4.07L1.18 4.07L1.18 4.14L1.25 4.14L1.25 4.15L1.18 4.15L1.18 4.22ZM1.18 4.56L1.25 4.56L1.25 4.57L1.1 4.57L1.1 4.56L1.17 4.56L1.17 4.49L1.18 4.49L1.18 4.56ZM0.69 4.15L0.69 4.14L0.75 4.14L0.75 4.07L0.76 4.07L0.76 4.14L0.83 4.14L0.83 4.15L0.76 4.15L0.76 4.22L0.75 4.22L0.75 4.15L0.69 4.15ZM0.76 4.56L0.83 4.56L0.83 4.57L0.69 4.57L0.69 4.56L0.75 4.56L0.75 4.49L0.76 4.49L0.76 4.56ZM2.85 2.06L3.25 2.38L3.25 2.5L2.85 2.18L2.85 2.14L2.84 2.14L2.84 2.07L2.77 2.07L2.77 2.06L2.85 2.06ZM2.85 2.38L3.25 2.7L3.25 2.82L2.85 2.5L2.85 2.55L2.84 2.55L2.84 2.48L2.77 2.48L2.77 2.47L2.84 2.47L2.84 2.41L2.85 2.41L2.85 2.38ZM2.85 2.7L3.25 3.02L3.25 3.14L2.85 2.82L2.85 2.97L2.84 2.97L2.84 2.9L2.77 2.9L2.77 2.89L2.84 2.89L2.84 2.82L2.85 2.82L2.85 2.7ZM3.25 5.4L2.85 5.07L2.85 4.95L3.25 5.27L3.25 5.4ZM2.85 3.66L3.25 3.99L3.25 4.11L2.85 3.79L2.85 3.8L2.84 3.8L2.84 3.73L2.77 3.73L2.77 3.72L2.84 3.72L2.84 3.66L2.85 3.66ZM2.85 4.63L3.25 4.95L3.25 5.07L2.85 4.75L2.85 4.63ZM2.85 3.02L3.25 3.34L3.25 3.47L2.85 3.14L2.85 3.02ZM2.85 3.34L3.25 3.66L3.25 3.79L2.85 3.47L2.85 3.39L2.84 3.39L2.84 3.32L2.77 3.32L2.77 3.31L2.84 3.31L2.84 3.24L2.85 3.24L2.85 3.34ZM2.85 4.31L3.25 4.63L3.25 4.75L2.85 4.43L2.85 4.31ZM2.85 3.99L3.25 4.31L3.25 4.43L2.85 4.11L2.85 4.22L2.84 4.22L2.84 4.15L2.77 4.15L2.77 4.14L2.84 4.14L2.84 4.07L2.85 4.07L2.85 3.99ZM0.339999 19.4183L0.339999 20.1883L-0.0100009 20.1883L-0.0100007 15.4383L0.279999 15.4383L0.279999 16.8883L0.569999 16.8883L0.569999 16.5983L0.859999 16.5983L0.859999 16.3083L1.15 16.3083L1.15 16.0183L1.44 16.0183L1.44 16.6683L1.73 16.6683L1.73 15.1483L2.02 15.1483L2.02 14.8483L2.24 14.8483L2.9 14.1083L0.79 11.3083L0.76 11.3083L0.76 11.3783L0.75 11.3783L0.75 11.3083L0.69 11.3083L0.69 11.2983L0.75 11.2983L0.75 11.2683L0.34 10.7083L0.34 10.8083L0.35 10.8083L0.35 10.8783L0.42 10.8783L0.42 10.8883L0.35 10.8883L0.35 10.9583L0.34 10.9583L0.34 11.2283L0.35 11.2283L0.35 11.2983L0.42 11.2983L0.42 11.3083L0.35 11.3083L0.35 11.3783L0.34 11.3783L0.34 11.6483L0.349999 11.6483L0.349999 11.7083L0.42 11.7083L0.42 11.7183L0.349999 11.7183L0.349999 11.7883L0.34 11.7883L0.339999 12.0583L0.349999 12.0583L0.349999 12.1283L0.42 12.1283L0.42 12.1383L0.349999 12.1383L0.349999 12.2083L0.339999 12.2083L0.339999 12.4783L0.349999 12.4783L0.349999 12.5483L0.419999 12.5483L0.419999 12.5583L-0.0100005 12.5583L-0.0100004 8.78828L0.34 8.78828L0.34 9.90828L0.75 10.4583L0.75 10.3983L0.76 10.3983L0.76 10.4583L0.83 10.4583L0.83 10.4683L0.77 10.4683L2 12.1083L2 12.0583L2.02 12.0583L2.02 12.1283L2.08 12.1283L2.08 12.1383L2.03 12.1383L2.91 13.3183L3.25 13.5783L3.25 13.7083L3.15 13.6283L3.23 13.7383L6.43 10.1483C6.57 9.98828 6.65 9.77828 6.65 9.55828L6.65 8.78828L7 8.78828L7 13.4683L6.65 13.4683L6.65 11.9783L4.09 14.8483L4.33 14.8483L4.33 15.1883L6.65 18.2583L6.65 16.4183L7 16.4183L7 20.1883L6.65 20.1883L6.65 19.0683L4.33 15.9983L4.33 15.7283L4.05 15.7283L4.05 15.4383L3.47 15.4383L3.47 15.7283L3.18 15.7283L3.18 16.0183L2.89 16.0183L2.89 16.3083L2.6 16.3083L2.6 16.5983L2.31 16.5983L2.31 17.1883L2.02 17.1883L2.02 17.4783L1.73 17.4783L1.73 18.7083L1.44 18.7083L1.44 18.0583L1.15 18.0583L1.15 18.3483L0.859999 18.3483L0.859999 18.6383L0.569999 18.6383L0.569999 19.2283L0.359999 19.2283C0.339999 19.2883 0.339999 19.3483 0.339999 19.4183ZM0.76 11.2983L0.78 11.2983L0.76 11.2783L0.76 11.2983ZM2.35 10.0483L2.5 10.0483L2.5 10.0583L2.43 10.0583L2.43 10.1283L2.42 10.1283L2.42 10.0583L2.35 10.0583L2.35 10.0483ZM1.94 10.0483L2.08 10.0483L2.08 10.0583L2.02 10.0583L2.02 10.1283L2 10.1283L2 10.0583L1.94 10.0583L1.94 10.0483ZM1.52 10.0483L1.67 10.0483L1.67 10.0583L1.6 10.0583L1.6 10.1283L1.59 10.1283L1.59 10.0583L1.52 10.0583L1.52 10.0483ZM1.1 10.0483L1.25 10.0483L1.25 10.0583L1.18 10.0583L1.18 10.1283L1.17 10.1283L1.17 10.0583L1.1 10.0583L1.1 10.0483ZM0.69 10.0483L0.83 10.0483L0.83 10.0583L0.76 10.0583L0.76 10.1283L0.75 10.1283L0.75 10.0583L0.69 10.0583L0.69 10.0483ZM2.43 10.5383L2.42 10.5383L2.42 10.4683L2.35 10.4683L2.35 10.4583L2.42 10.4583L2.42 10.3983L2.43 10.3983L2.43 10.4583L2.5 10.4583L2.5 10.4683L2.43 10.4683L2.43 10.5383ZM2.02 10.5383L2 10.5383L2 10.4683L1.94 10.4683L1.94 10.4583L2 10.4583L2 10.3983L2.02 10.3983L2.02 10.4583L2.08 10.4583L2.08 10.4683L2.02 10.4683L2.02 10.5383ZM1.6 10.5383L1.59 10.5383L1.59 10.4683L1.52 10.4683L1.52 10.4583L1.59 10.4583L1.59 10.3983L1.6 10.3983L1.6 10.4583L1.67 10.4583L1.67 10.4683L1.6 10.4683L1.6 10.5383ZM1.1 10.4683L1.1 10.4583L1.17 10.4583L1.17 10.3983L1.18 10.3983L1.18 10.4583L1.25 10.4583L1.25 10.4683L1.18 10.4683L1.18 10.5383L1.17 10.5383L1.17 10.4683L1.1 10.4683ZM2.43 10.9583L2.42 10.9583L2.42 10.8883L2.35 10.8883L2.35 10.8783L2.42 10.8783L2.42 10.8083L2.43 10.8083L2.43 10.8783L2.5 10.8783L2.5 10.8883L2.43 10.8883L2.43 10.9583ZM2.02 10.9583L2 10.9583L2 10.8883L1.94 10.8883L1.94 10.8783L2 10.8783L2 10.8083L2.02 10.8083L2.02 10.8783L2.08 10.8783L2.08 10.8883L2.02 10.8883L2.02 10.9583ZM1.6 10.9583L1.59 10.9583L1.59 10.8883L1.52 10.8883L1.52 10.8783L1.59 10.8783L1.59 10.8083L1.6 10.8083L1.6 10.8783L1.67 10.8783L1.67 10.8883L1.6 10.8883L1.6 10.9583ZM1.1 10.8883L1.1 10.8783L1.17 10.8783L1.17 10.8083L1.18 10.8083L1.18 10.8783L1.25 10.8783L1.25 10.8883L1.18 10.8883L1.18 10.9583L1.17 10.9583L1.17 10.8883L1.1 10.8883ZM2.43 11.3783L2.42 11.3783L2.42 11.3083L2.35 11.3083L2.35 11.2983L2.42 11.2983L2.42 11.2283L2.43 11.2283L2.43 11.2983L2.5 11.2983L2.5 11.3083L2.43 11.3083L2.43 11.3783ZM2.02 11.3783L2 11.3783L2 11.3083L1.94 11.3083L1.94 11.2983L2 11.2983L2 11.2283L2.02 11.2283L2.02 11.2983L2.08 11.2983L2.08 11.3083L2.02 11.3083L2.02 11.3783ZM1.52 11.3083L1.52 11.2983L1.59 11.2983L1.59 11.2283L1.6 11.2283L1.6 11.2983L1.67 11.2983L1.67 11.3083L1.6 11.3083L1.6 11.3783L1.59 11.3783L1.59 11.3083L1.52 11.3083ZM2.43 11.7883L2.42 11.7883L2.42 11.7183L2.35 11.7183L2.35 11.7083L2.42 11.7083L2.42 11.6483L2.43 11.6483L2.43 11.7083L2.5 11.7083L2.5 11.7183L2.43 11.7183L2.43 11.7883ZM1.94 11.7183L1.94 11.7083L2 11.7083L2 11.6483L2.02 11.6483L2.02 11.7083L2.08 11.7083L2.08 11.7183L2.02 11.7183L2.02 11.7883L2 11.7883L2 11.7183L1.94 11.7183ZM0.69 11.7183L0.69 11.7083L0.75 11.7083L0.75 11.6483L0.76 11.6483L0.76 11.7083L0.83 11.7083L0.83 11.7183L0.76 11.7183L0.76 11.7883L0.75 11.7883L0.75 11.7183L0.69 11.7183ZM2.85 12.5583L2.77 12.5583L2.77 12.5483L2.84 12.5483L2.84 12.4783L2.85 12.4783L2.85 12.5583ZM2.35 12.1383L2.35 12.1283L2.42 12.1283L2.42 12.0583L2.43 12.0583L2.43 12.1283L2.5 12.1283L2.5 12.1383L2.43 12.1383L2.43 12.2083L2.42 12.2083L2.42 12.1383L2.35 12.1383ZM2.35 12.5583L2.35 12.5483L2.42 12.5483L2.42 12.4783L2.43 12.4783L2.43 12.5483L2.5 12.5483L2.5 12.5583L2.35 12.5583ZM1.6 12.5483L1.67 12.5483L1.67 12.5583L1.52 12.5583L1.52 12.5483L1.59 12.5483L1.59 12.4783L1.6 12.4783L1.6 12.5483ZM1.18 12.2083L1.17 12.2083L1.17 12.1383L1.1 12.1383L1.1 12.1283L1.17 12.1283L1.17 12.0583L1.18 12.0583L1.18 12.1283L1.25 12.1283L1.25 12.1383L1.18 12.1383L1.18 12.2083ZM1.18 12.5483L1.25 12.5483L1.25 12.5583L1.1 12.5583L1.1 12.5483L1.17 12.5483L1.17 12.4783L1.18 12.4783L1.18 12.5483ZM0.69 12.1383L0.69 12.1283L0.749999 12.1283L0.75 12.0583L0.76 12.0583L0.76 12.1283L0.83 12.1283L0.83 12.1383L0.76 12.1383L0.76 12.2083L0.749999 12.2083L0.749999 12.1383L0.69 12.1383ZM0.76 12.5483L0.829999 12.5483L0.829999 12.5583L0.69 12.5583L0.69 12.5483L0.749999 12.5483L0.749999 12.4783L0.76 12.4783L0.76 12.5483ZM2.85 10.0483L3.25 10.3683L3.25 10.4883L2.85 10.1683L2.85 10.1283L2.84 10.1283L2.84 10.0583L2.77 10.0583L2.77 10.0483L2.85 10.0483ZM2.85 10.3683L3.25 10.6883L3.25 10.8083L2.85 10.4883L2.85 10.5383L2.84 10.5383L2.84 10.4683L2.77 10.4683L2.77 10.4583L2.84 10.4583L2.84 10.3983L2.85 10.3983L2.85 10.3683ZM2.85 10.6883L3.25 11.0083L3.25 11.1283L2.85 10.8083L2.85 10.9583L2.84 10.9583L2.84 10.8883L2.77 10.8883L2.77 10.8783L2.84 10.8783L2.84 10.8083L2.85 10.8083L2.85 10.6883ZM3.25 13.3883L2.85 13.0583L2.85 12.9383L3.25 13.2583L3.25 13.3883ZM2.85 11.6483L3.25 11.9783L3.25 12.0983L2.85 11.7783L2.85 11.7883L2.84 11.7883L2.84 11.7183L2.77 11.7183L2.77 11.7083L2.84 11.7083L2.84 11.6483L2.85 11.6483ZM2.85 12.6183L3.25 12.9383L3.25 13.0583L2.85 12.7383L2.85 12.6183ZM2.85 11.0083L3.25 11.3283L3.25 11.4583L2.85 11.1283L2.85 11.0083ZM2.85 11.3283L3.25 11.6483L3.25 11.7783L2.85 11.4583L2.85 11.3783L2.84 11.3783L2.84 11.3083L2.77 11.3083L2.77 11.2983L2.84 11.2983L2.84 11.2283L2.85 11.2283L2.85 11.3283ZM2.85 12.2983L3.25 12.6183L3.25 12.7383L2.85 12.4183L2.85 12.2983ZM2.85 11.9783L3.25 12.2983L3.25 12.4183L2.85 12.0983L2.85 12.2083L2.84 12.2083L2.84 12.1383L2.77 12.1383L2.77 12.1283L2.84 12.1283L2.84 12.0583L2.85 12.0583L2.85 11.9783ZM0.339999 27.4066L0.339999 28.1766L-0.0100012 28.1766L-0.010001 23.4266L0.279999 23.4266L0.279999 24.8766L0.569999 24.8766L0.569999 24.5866L0.859999 24.5866L0.859999 24.2966L1.15 24.2966L1.15 24.0066L1.44 24.0066L1.44 24.6566L1.73 24.6566L1.73 23.1366L2.02 23.1366L2.02 22.8366L2.24 22.8366L2.9 22.0966L0.789999 19.2966L0.759999 19.2966L0.759999 19.3666L0.749999 19.3666L0.749999 19.2966L0.689999 19.2966L0.689999 19.2866L0.749999 19.2866L0.749999 19.2566L0.339999 18.6966L0.339999 18.7966L0.349999 18.7966L0.349999 18.8666L0.419999 18.8666L0.419999 18.8766L0.349999 18.8766L0.349999 18.9466L0.339999 18.9466L0.339999 19.2166L0.349999 19.2166L0.349999 19.2866L0.419999 19.2866L0.419999 19.2966L0.349999 19.2966L0.349999 19.3666L0.339999 19.3666L0.339999 19.6366L0.349999 19.6366L0.349999 19.6966L0.419999 19.6966L0.419999 19.7066L0.349999 19.7066L0.349999 19.7766L0.339999 19.7766L0.339999 20.0466L0.349999 20.0466L0.349999 20.1166L0.419999 20.1166L0.419999 20.1266L0.349999 20.1266L0.349999 20.1966L0.339999 20.1966L0.339999 20.4666L0.349999 20.4666L0.349999 20.5366L0.419999 20.5366L0.419999 20.5466L-0.0100009 20.5466L-0.0100007 16.7766L0.339999 16.7766L0.339999 17.8966L0.749999 18.4466L0.749999 18.3866L0.759999 18.3866L0.759999 18.4466L0.829999 18.4466L0.829999 18.4566L0.769999 18.4566L2 20.0966L2 20.0466L2.02 20.0466L2.02 20.1166L2.08 20.1166L2.08 20.1266L2.03 20.1266L2.91 21.3066L3.25 21.5666L3.25 21.6966L3.15 21.6166L3.23 21.7266L6.43 18.1366C6.57 17.9766 6.65 17.7666 6.65 17.5466L6.65 16.7766L7 16.7766L7 21.4566L6.65 21.4566L6.65 19.9666L4.09 22.8366L4.33 22.8366L4.33 23.1766L6.65 26.2466L6.65 24.4066L7 24.4066L7 28.1766L6.65 28.1766L6.65 27.0566L4.33 23.9866L4.33 23.7166L4.05 23.7166L4.05 23.4266L3.47 23.4266L3.47 23.7166L3.18 23.7166L3.18 24.0066L2.89 24.0066L2.89 24.2966L2.6 24.2966L2.6 24.5866L2.31 24.5866L2.31 25.1766L2.02 25.1766L2.02 25.4666L1.73 25.4666L1.73 26.6966L1.44 26.6966L1.44 26.0466L1.15 26.0466L1.15 26.3366L0.859999 26.3366L0.859999 26.6266L0.569999 26.6266L0.569999 27.2166L0.359999 27.2166C0.339999 27.2766 0.339999 27.3366 0.339999 27.4066ZM0.759999 19.2866L0.779999 19.2866L0.759999 19.2666L0.759999 19.2866ZM2.35 18.0366L2.5 18.0366L2.5 18.0466L2.43 18.0466L2.43 18.1166L2.42 18.1166L2.42 18.0466L2.35 18.0466L2.35 18.0366ZM1.94 18.0366L2.08 18.0366L2.08 18.0466L2.02 18.0466L2.02 18.1166L2 18.1166L2 18.0466L1.94 18.0466L1.94 18.0366ZM1.52 18.0366L1.67 18.0366L1.67 18.0466L1.6 18.0466L1.6 18.1166L1.59 18.1166L1.59 18.0466L1.52 18.0466L1.52 18.0366ZM1.1 18.0366L1.25 18.0366L1.25 18.0466L1.18 18.0466L1.18 18.1166L1.17 18.1166L1.17 18.0466L1.1 18.0466L1.1 18.0366ZM0.689999 18.0366L0.829999 18.0366L0.829999 18.0466L0.759999 18.0466L0.759999 18.1166L0.749999 18.1166L0.749999 18.0466L0.689999 18.0466L0.689999 18.0366ZM2.43 18.5266L2.42 18.5266L2.42 18.4566L2.35 18.4566L2.35 18.4466L2.42 18.4466L2.42 18.3866L2.43 18.3866L2.43 18.4466L2.5 18.4466L2.5 18.4566L2.43 18.4566L2.43 18.5266ZM2.02 18.5266L2 18.5266L2 18.4566L1.94 18.4566L1.94 18.4466L2 18.4466L2 18.3866L2.02 18.3866L2.02 18.4466L2.08 18.4466L2.08 18.4566L2.02 18.4566L2.02 18.5266ZM1.6 18.5266L1.59 18.5266L1.59 18.4566L1.52 18.4566L1.52 18.4466L1.59 18.4466L1.59 18.3866L1.6 18.3866L1.6 18.4466L1.67 18.4466L1.67 18.4566L1.6 18.4566L1.6 18.5266ZM1.1 18.4566L1.1 18.4466L1.17 18.4466L1.17 18.3866L1.18 18.3866L1.18 18.4466L1.25 18.4466L1.25 18.4566L1.18 18.4566L1.18 18.5266L1.17 18.5266L1.17 18.4566L1.1 18.4566ZM2.43 18.9466L2.42 18.9466L2.42 18.8766L2.35 18.8766L2.35 18.8666L2.42 18.8666L2.42 18.7966L2.43 18.7966L2.43 18.8666L2.5 18.8666L2.5 18.8766L2.43 18.8766L2.43 18.9466ZM2.02 18.9466L2 18.9466L2 18.8766L1.94 18.8766L1.94 18.8666L2 18.8666L2 18.7966L2.02 18.7966L2.02 18.8666L2.08 18.8666L2.08 18.8766L2.02 18.8766L2.02 18.9466ZM1.6 18.9466L1.59 18.9466L1.59 18.8766L1.52 18.8766L1.52 18.8666L1.59 18.8666L1.59 18.7966L1.6 18.7966L1.6 18.8666L1.67 18.8666L1.67 18.8766L1.6 18.8766L1.6 18.9466ZM1.1 18.8766L1.1 18.8666L1.17 18.8666L1.17 18.7966L1.18 18.7966L1.18 18.8666L1.25 18.8666L1.25 18.8766L1.18 18.8766L1.18 18.9466L1.17 18.9466L1.17 18.8766L1.1 18.8766ZM2.43 19.3666L2.42 19.3666L2.42 19.2966L2.35 19.2966L2.35 19.2866L2.42 19.2866L2.42 19.2166L2.43 19.2166L2.43 19.2866L2.5 19.2866L2.5 19.2966L2.43 19.2966L2.43 19.3666ZM2.02 19.3666L2 19.3666L2 19.2966L1.94 19.2966L1.94 19.2866L2 19.2866L2 19.2166L2.02 19.2166L2.02 19.2866L2.08 19.2866L2.08 19.2966L2.02 19.2966L2.02 19.3666ZM1.52 19.2966L1.52 19.2866L1.59 19.2866L1.59 19.2166L1.6 19.2166L1.6 19.2866L1.67 19.2866L1.67 19.2966L1.6 19.2966L1.6 19.3666L1.59 19.3666L1.59 19.2966L1.52 19.2966ZM2.43 19.7766L2.42 19.7766L2.42 19.7066L2.35 19.7066L2.35 19.6966L2.42 19.6966L2.42 19.6366L2.43 19.6366L2.43 19.6966L2.5 19.6966L2.5 19.7066L2.43 19.7066L2.43 19.7766ZM1.94 19.7066L1.94 19.6966L2 19.6966L2 19.6366L2.02 19.6366L2.02 19.6966L2.08 19.6966L2.08 19.7066L2.02 19.7066L2.02 19.7766L2 19.7766L2 19.7066L1.94 19.7066ZM0.689999 19.7066L0.689999 19.6966L0.749999 19.6966L0.749999 19.6366L0.759999 19.6366L0.759999 19.6966L0.829999 19.6966L0.829999 19.7066L0.759999 19.7066L0.759999 19.7766L0.749999 19.7766L0.749999 19.7066L0.689999 19.7066ZM2.85 20.5466L2.77 20.5466L2.77 20.5366L2.84 20.5366L2.84 20.4666L2.85 20.4666L2.85 20.5466ZM2.35 20.1266L2.35 20.1166L2.42 20.1166L2.42 20.0466L2.43 20.0466L2.43 20.1166L2.5 20.1166L2.5 20.1266L2.43 20.1266L2.43 20.1966L2.42 20.1966L2.42 20.1266L2.35 20.1266ZM2.35 20.5466L2.35 20.5366L2.42 20.5366L2.42 20.4666L2.43 20.4666L2.43 20.5366L2.5 20.5366L2.5 20.5466L2.35 20.5466ZM1.6 20.5366L1.67 20.5366L1.67 20.5466L1.52 20.5466L1.52 20.5366L1.59 20.5366L1.59 20.4666L1.6 20.4666L1.6 20.5366ZM1.18 20.1966L1.17 20.1966L1.17 20.1266L1.1 20.1266L1.1 20.1166L1.17 20.1166L1.17 20.0466L1.18 20.0466L1.18 20.1166L1.25 20.1166L1.25 20.1266L1.18 20.1266L1.18 20.1966ZM1.18 20.5366L1.25 20.5366L1.25 20.5466L1.1 20.5466L1.1 20.5366L1.17 20.5366L1.17 20.4666L1.18 20.4666L1.18 20.5366ZM0.689999 20.1266L0.689999 20.1166L0.749999 20.1166L0.749999 20.0466L0.759999 20.0466L0.759999 20.1166L0.829999 20.1166L0.829999 20.1266L0.759999 20.1266L0.759999 20.1966L0.749999 20.1966L0.749999 20.1266L0.689999 20.1266ZM0.759999 20.5366L0.829999 20.5366L0.829999 20.5466L0.689999 20.5466L0.689999 20.5366L0.749999 20.5366L0.749999 20.4666L0.759999 20.4666L0.759999 20.5366ZM2.85 18.0366L3.25 18.3566L3.25 18.4766L2.85 18.1566L2.85 18.1166L2.84 18.1166L2.84 18.0466L2.77 18.0466L2.77 18.0366L2.85 18.0366ZM2.85 18.3566L3.25 18.6766L3.25 18.7966L2.85 18.4766L2.85 18.5266L2.84 18.5266L2.84 18.4566L2.77 18.4566L2.77 18.4466L2.84 18.4466L2.84 18.3866L2.85 18.3866L2.85 18.3566ZM2.85 18.6766L3.25 18.9966L3.25 19.1166L2.85 18.7966L2.85 18.9466L2.84 18.9466L2.84 18.8766L2.77 18.8766L2.77 18.8666L2.84 18.8666L2.84 18.7966L2.85 18.7966L2.85 18.6766ZM3.25 21.3766L2.85 21.0466L2.85 20.9266L3.25 21.2466L3.25 21.3766ZM2.85 19.6366L3.25 19.9666L3.25 20.0866L2.85 19.7666L2.85 19.7766L2.84 19.7766L2.84 19.7066L2.77 19.7066L2.77 19.6966L2.84 19.6966L2.84 19.6366L2.85 19.6366ZM2.85 20.6066L3.25 20.9266L3.25 21.0466L2.85 20.7266L2.85 20.6066ZM2.85 18.9966L3.25 19.3166L3.25 19.4466L2.85 19.1166L2.85 18.9966ZM2.85 19.3166L3.25 19.6366L3.25 19.7666L2.85 19.4466L2.85 19.3666L2.84 19.3666L2.84 19.2966L2.77 19.2966L2.77 19.2866L2.84 19.2866L2.84 19.2166L2.85 19.2166L2.85 19.3166ZM2.85 20.2866L3.25 20.6066L3.25 20.7266L2.85 20.4066L2.85 20.2866ZM2.85 19.9666L3.25 20.2866L3.25 20.4066L2.85 20.0866L2.85 20.1966L2.84 20.1966L2.84 20.1266L2.77 20.1266L2.77 20.1166L2.84 20.1166L2.84 20.0466L2.85 20.0466L2.85 19.9666ZM0.339998 35.3948L0.339998 36.1648L-0.0100016 36.1648L-0.0100014 31.4148L0.279999 31.4148L0.279999 32.8648L0.569999 32.8648L0.569999 32.5748L0.859999 32.5748L0.859999 32.2848L1.15 32.2848L1.15 31.9948L1.44 31.9948L1.44 32.6448L1.73 32.6448L1.73 31.1248L2.02 31.1248L2.02 30.8248L2.24 30.8248L2.9 30.0848L0.789999 27.2848L0.759999 27.2848L0.759999 27.3548L0.749999 27.3548L0.749999 27.2848L0.689999 27.2848L0.689999 27.2748L0.749999 27.2748L0.749999 27.2448L0.339999 26.6848L0.339999 26.7848L0.349999 26.7848L0.349999 26.8548L0.419999 26.8548L0.419999 26.8648L0.349999 26.8648L0.349999 26.9348L0.339999 26.9348L0.339999 27.2048L0.349999 27.2048L0.349999 27.2748L0.419999 27.2748L0.419999 27.2848L0.349999 27.2848L0.349999 27.3548L0.339999 27.3548L0.339999 27.6248L0.349999 27.6248L0.349999 27.6848L0.419999 27.6848L0.419999 27.6948L0.349999 27.6948L0.349999 27.7648L0.339999 27.7648L0.339999 28.0348L0.349999 28.0348L0.349999 28.1048L0.419999 28.1048L0.419999 28.1148L0.349999 28.1148L0.349999 28.1848L0.339999 28.1848L0.339999 28.4548L0.349999 28.4548L0.349999 28.5248L0.419999 28.5248L0.419999 28.5348L-0.0100012 28.5348L-0.0100011 24.7648L0.339999 24.7648L0.339999 25.8848L0.749999 26.4348L0.749999 26.3748L0.759999 26.3748L0.759999 26.4348L0.829999 26.4348L0.829999 26.4448L0.769999 26.4448L2 28.0848L2 28.0348L2.02 28.0348L2.02 28.1048L2.08 28.1048L2.08 28.1148L2.03 28.1148L2.91 29.2948L3.25 29.5548L3.25 29.6848L3.15 29.6048L3.23 29.7148L6.43 26.1248C6.57 25.9648 6.65 25.7548 6.65 25.5348L6.65 24.7648L7 24.7648L7 29.4448L6.65 29.4448L6.65 27.9548L4.09 30.8248L4.33 30.8248L4.33 31.1648L6.65 34.2348L6.65 32.3948L7 32.3948L7 36.1648L6.65 36.1648L6.65 35.0448L4.33 31.9748L4.33 31.7048L4.05 31.7048L4.05 31.4148L3.47 31.4148L3.47 31.7048L3.18 31.7048L3.18 31.9948L2.89 31.9948L2.89 32.2848L2.6 32.2848L2.6 32.5748L2.31 32.5748L2.31 33.1648L2.02 33.1648L2.02 33.4548L1.73 33.4548L1.73 34.6848L1.44 34.6848L1.44 34.0348L1.15 34.0348L1.15 34.3248L0.859999 34.3248L0.859999 34.6148L0.569999 34.6148L0.569998 35.2048L0.359998 35.2048C0.339998 35.2648 0.339998 35.3248 0.339998 35.3948ZM0.759999 27.2748L0.779999 27.2748L0.759999 27.2548L0.759999 27.2748ZM2.35 26.0248L2.5 26.0248L2.5 26.0348L2.43 26.0348L2.43 26.1048L2.42 26.1048L2.42 26.0348L2.35 26.0348L2.35 26.0248ZM1.94 26.0248L2.08 26.0248L2.08 26.0348L2.02 26.0348L2.02 26.1048L2 26.1048L2 26.0348L1.94 26.0348L1.94 26.0248ZM1.52 26.0248L1.67 26.0248L1.67 26.0348L1.6 26.0348L1.6 26.1048L1.59 26.1048L1.59 26.0348L1.52 26.0348L1.52 26.0248ZM1.1 26.0248L1.25 26.0248L1.25 26.0348L1.18 26.0348L1.18 26.1048L1.17 26.1048L1.17 26.0348L1.1 26.0348L1.1 26.0248ZM0.689999 26.0248L0.829999 26.0248L0.829999 26.0348L0.759999 26.0348L0.759999 26.1048L0.749999 26.1048L0.749999 26.0348L0.689999 26.0348L0.689999 26.0248ZM2.43 26.5148L2.42 26.5148L2.42 26.4448L2.35 26.4448L2.35 26.4348L2.42 26.4348L2.42 26.3748L2.43 26.3748L2.43 26.4348L2.5 26.4348L2.5 26.4448L2.43 26.4448L2.43 26.5148ZM2.02 26.5148L2 26.5148L2 26.4448L1.94 26.4448L1.94 26.4348L2 26.4348L2 26.3748L2.02 26.3748L2.02 26.4348L2.08 26.4348L2.08 26.4448L2.02 26.4448L2.02 26.5148ZM1.6 26.5148L1.59 26.5148L1.59 26.4448L1.52 26.4448L1.52 26.4348L1.59 26.4348L1.59 26.3748L1.6 26.3748L1.6 26.4348L1.67 26.4348L1.67 26.4448L1.6 26.4448L1.6 26.5148ZM1.1 26.4448L1.1 26.4348L1.17 26.4348L1.17 26.3748L1.18 26.3748L1.18 26.4348L1.25 26.4348L1.25 26.4448L1.18 26.4448L1.18 26.5148L1.17 26.5148L1.17 26.4448L1.1 26.4448ZM2.43 26.9348L2.42 26.9348L2.42 26.8648L2.35 26.8648L2.35 26.8548L2.42 26.8548L2.42 26.7848L2.43 26.7848L2.43 26.8548L2.5 26.8548L2.5 26.8648L2.43 26.8648L2.43 26.9348ZM2.02 26.9348L2 26.9348L2 26.8648L1.94 26.8648L1.94 26.8548L2 26.8548L2 26.7848L2.02 26.7848L2.02 26.8548L2.08 26.8548L2.08 26.8648L2.02 26.8648L2.02 26.9348ZM1.6 26.9348L1.59 26.9348L1.59 26.8648L1.52 26.8648L1.52 26.8548L1.59 26.8548L1.59 26.7848L1.6 26.7848L1.6 26.8548L1.67 26.8548L1.67 26.8648L1.6 26.8648L1.6 26.9348ZM1.1 26.8648L1.1 26.8548L1.17 26.8548L1.17 26.7848L1.18 26.7848L1.18 26.8548L1.25 26.8548L1.25 26.8648L1.18 26.8648L1.18 26.9348L1.17 26.9348L1.17 26.8648L1.1 26.8648ZM2.43 27.3548L2.42 27.3548L2.42 27.2848L2.35 27.2848L2.35 27.2748L2.42 27.2748L2.42 27.2048L2.43 27.2048L2.43 27.2748L2.5 27.2748L2.5 27.2848L2.43 27.2848L2.43 27.3548ZM2.02 27.3548L2 27.3548L2 27.2848L1.94 27.2848L1.94 27.2748L2 27.2748L2 27.2048L2.02 27.2048L2.02 27.2748L2.08 27.2748L2.08 27.2848L2.02 27.2848L2.02 27.3548ZM1.52 27.2848L1.52 27.2748L1.59 27.2748L1.59 27.2048L1.6 27.2048L1.6 27.2748L1.67 27.2748L1.67 27.2848L1.6 27.2848L1.6 27.3548L1.59 27.3548L1.59 27.2848L1.52 27.2848ZM2.43 27.7648L2.42 27.7648L2.42 27.6948L2.35 27.6948L2.35 27.6848L2.42 27.6848L2.42 27.6248L2.43 27.6248L2.43 27.6848L2.5 27.6848L2.5 27.6948L2.43 27.6948L2.43 27.7648ZM1.94 27.6948L1.94 27.6848L2 27.6848L2 27.6248L2.02 27.6248L2.02 27.6848L2.08 27.6848L2.08 27.6948L2.02 27.6948L2.02 27.7648L2 27.7648L2 27.6948L1.94 27.6948ZM0.689999 27.6948L0.689999 27.6848L0.749999 27.6848L0.749999 27.6248L0.759999 27.6248L0.759999 27.6848L0.829999 27.6848L0.829999 27.6948L0.759999 27.6948L0.759999 27.7648L0.749999 27.7648L0.749999 27.6948L0.689999 27.6948ZM2.85 28.5348L2.77 28.5348L2.77 28.5248L2.84 28.5248L2.84 28.4548L2.85 28.4548L2.85 28.5348ZM2.35 28.1148L2.35 28.1048L2.42 28.1048L2.42 28.0348L2.43 28.0348L2.43 28.1048L2.5 28.1048L2.5 28.1148L2.43 28.1148L2.43 28.1848L2.42 28.1848L2.42 28.1148L2.35 28.1148ZM2.35 28.5348L2.35 28.5248L2.42 28.5248L2.42 28.4548L2.43 28.4548L2.43 28.5248L2.5 28.5248L2.5 28.5348L2.35 28.5348ZM1.6 28.5248L1.67 28.5248L1.67 28.5348L1.52 28.5348L1.52 28.5248L1.59 28.5248L1.59 28.4548L1.6 28.4548L1.6 28.5248ZM1.18 28.1848L1.17 28.1848L1.17 28.1148L1.1 28.1148L1.1 28.1048L1.17 28.1048L1.17 28.0348L1.18 28.0348L1.18 28.1048L1.25 28.1048L1.25 28.1148L1.18 28.1148L1.18 28.1848ZM1.18 28.5248L1.25 28.5248L1.25 28.5348L1.1 28.5348L1.1 28.5248L1.17 28.5248L1.17 28.4548L1.18 28.4548L1.18 28.5248ZM0.689999 28.1148L0.689999 28.1048L0.749999 28.1048L0.749999 28.0348L0.759999 28.0348L0.759999 28.1048L0.829999 28.1048L0.829999 28.1148L0.759999 28.1148L0.759999 28.1848L0.749999 28.1848L0.749999 28.1148L0.689999 28.1148ZM0.759999 28.5248L0.829999 28.5248L0.829999 28.5348L0.689999 28.5348L0.689999 28.5248L0.749999 28.5248L0.749999 28.4548L0.759999 28.4548L0.759999 28.5248ZM2.85 26.0248L3.25 26.3448L3.25 26.4648L2.85 26.1448L2.85 26.1048L2.84 26.1048L2.84 26.0348L2.77 26.0348L2.77 26.0248L2.85 26.0248ZM2.85 26.3448L3.25 26.6648L3.25 26.7848L2.85 26.4648L2.85 26.5148L2.84 26.5148L2.84 26.4448L2.77 26.4448L2.77 26.4348L2.84 26.4348L2.84 26.3748L2.85 26.3748L2.85 26.3448ZM2.85 26.6648L3.25 26.9848L3.25 27.1048L2.85 26.7848L2.85 26.9348L2.84 26.9348L2.84 26.8648L2.77 26.8648L2.77 26.8548L2.84 26.8548L2.84 26.7848L2.85 26.7848L2.85 26.6648ZM3.25 29.3648L2.85 29.0348L2.85 28.9148L3.25 29.2348L3.25 29.3648ZM2.85 27.6248L3.25 27.9548L3.25 28.0748L2.85 27.7548L2.85 27.7648L2.84 27.7648L2.84 27.6948L2.77 27.6948L2.77 27.6848L2.84 27.6848L2.84 27.6248L2.85 27.6248ZM2.85 28.5948L3.25 28.9148L3.25 29.0348L2.85 28.7148L2.85 28.5948ZM2.85 26.9848L3.25 27.3048L3.25 27.4348L2.85 27.1048L2.85 26.9848ZM2.85 27.3048L3.25 27.6248L3.25 27.7548L2.85 27.4348L2.85 27.3548L2.84 27.3548L2.84 27.2848L2.77 27.2848L2.77 27.2748L2.84 27.2748L2.84 27.2048L2.85 27.2048L2.85 27.3048ZM2.85 28.2748L3.25 28.5948L3.25 28.7148L2.85 28.3948L2.85 28.2748ZM2.85 27.9548L3.25 28.2748L3.25 28.3948L2.85 28.0748L2.85 28.1848L2.84 28.1848L2.84 28.1148L2.77 28.1148L2.77 28.1048L2.84 28.1048L2.84 28.0348L2.85 28.0348L2.85 27.9548Z" fill="white"/>
</svg>
