<svg width="6" height="12" viewBox="0 0 6 12" fill="none" xmlns="http://www.w3.org/2000/svg">
<path d="M2.89616 0.93C4.26816 1.042 5.31816 1.854 5.31816 3.492L5.31816 8.84C5.31816 10.478 4.26816 11.304 2.89616 11.402L2.89616 11.22C3.40016 11.136 3.75016 10.8 3.75016 10.226L3.75016 2.092C3.75016 1.532 3.40016 1.196 2.89616 1.112L2.89616 0.93ZM2.51816 0.93L2.51816 1.112C2.01416 1.196 1.65016 1.532 1.65016 2.092L1.65016 10.226C1.65016 10.8 2.01416 11.136 2.51816 11.22L2.51816 11.402C1.14616 11.304 0.0961559 10.478 0.096156 8.84L0.0961565 3.492C0.0961566 1.854 1.14616 1.028 2.51816 0.93Z" fill="white"/>
</svg>
