<svg width="41" height="10" viewBox="0 0 41 10" fill="none" xmlns="http://www.w3.org/2000/svg">
<path d="M2.87623 9.055C1.79823 8.967 0.973234 8.329 0.973234 7.042V2.84C0.973234 1.553 1.79823 0.903999 2.87623 0.827V0.97C2.48023 1.036 2.20523 1.3 2.20523 1.751V8.142C2.20523 8.582 2.48023 8.846 2.87623 8.912V9.055ZM3.17323 9.055V8.912C3.56923 8.846 3.85523 8.582 3.85523 8.142V1.751C3.85523 1.3 3.56923 1.036 3.17323 0.97V0.827C4.25123 0.903999 5.07623 1.553 5.07623 2.84V7.042C5.07623 8.329 4.25123 8.978 3.17323 9.055ZM6.4215 9V8.824H7.0265V1.058H6.4215V0.882H8.2365V8.824H8.8415V9H6.4215ZM10.9755 9C10.1395 9 9.7875 8.538 9.7875 7.801V5.7C9.7875 5.139 9.4575 4.875 8.9075 4.875H8.5445V4.699H8.9075C9.3475 4.699 9.6225 4.424 9.6225 3.929V1.817C9.6225 1.322 9.4465 1.058 8.9845 1.058H8.5445V0.882H8.9845C10.1615 0.882 10.8765 1.542 10.8765 2.851C10.8765 4.017 10.2605 4.6 9.3585 4.776C10.3485 4.963 10.9755 5.392 10.9755 6.646V8.824H11.5805V9H10.9755ZM12.2223 9V8.824H12.8273V1.058H12.2223V0.882H14.6423V1.058H14.0373V8.824H14.6423V9H12.2223ZM17.8611 9.055C16.6951 8.967 15.9801 8.329 15.9801 7.009V2.884C15.9801 1.564 16.7831 0.827 18.0041 0.827C18.3781 0.827 18.7301 0.926 19.0271 1.102L18.9501 1.256C18.6861 1.102 18.3671 1.003 18.0371 1.003C17.5861 1.003 17.2671 1.267 17.2671 1.762V8.23C17.2671 8.648 17.5201 8.813 17.8611 8.879V9.055ZM19.2361 2.851C18.8731 2.851 18.5761 2.554 18.5761 2.191C18.5761 1.817 18.8731 1.52 19.2361 1.52C19.5991 1.52 19.8961 1.817 19.8961 2.191C19.8961 2.554 19.5991 2.851 19.2361 2.851ZM18.1581 9.055V8.89C18.5211 8.824 18.8071 8.615 18.8071 8.12V5.073H18.2021V4.897H20.6331V5.073H20.0281V7.042C20.0281 8.219 19.3131 8.967 18.1581 9.055ZM21.3854 9V8.824H21.9904V1.058H21.3854V0.882H23.8054V1.058H23.2004V8.824H23.8054V9H21.3854ZM29.2022 9L25.2422 2.07V1.058H24.6372V0.882H26.1552L29.2022 6.206V9ZM29.2022 5.898L29.0262 5.579V1.058H28.4212V0.882H29.8072V1.058H29.2022V5.898ZM24.6372 9V8.824H25.2422V2.378L25.4182 2.664V8.824H26.0232V9H24.6372ZM33.5711 9V8.824H34.1541L32.1631 0.882H33.3841L35.3751 8.824H36.0021V9H33.5711ZM29.9631 9V8.824H30.5351L32.2731 2.103L32.3611 2.477L31.3711 6.294H33.3181L33.3731 6.47H31.3271L30.7111 8.824H31.2501V9H29.9631ZM36.2848 9V8.824H36.8898V1.058H36.2848V0.882H38.7048V1.058H38.0998V9H36.2848ZM38.4078 9V8.824H38.9138C40.1018 8.824 40.7838 8.032 40.7838 6.943H40.9598V9H38.4078Z" fill="white"/>
</svg>
