<svg width="9" height="34" viewBox="0 0 9 34" fill="none" xmlns="http://www.w3.org/2000/svg">
<path d="M-5.4881e-08 0.255531L0.96 0.495531L7.44 0.495531L8.4 0.255531L8.4 5.47553C8.4 5.88353 8.244 6.25553 7.956 6.54353L7.128 7.37153C6.852 7.65953 6.504 7.81553 6.12 7.81553L4.728 7.81553C4.32 7.81553 3.936 7.67153 3.66 7.37153L3.072 6.73553L0.972 7.63553L-4.05796e-07 8.28353L-2.63647e-07 5.03153L0.972 4.87553L2.448 4.23953L2.448 3.13553L0.96 3.13553L-1.91261e-07 3.37553L-5.4881e-08 0.255531ZM4.428 3.13553L4.428 4.32353C4.428 4.81553 4.764 5.17553 5.22 5.17553L5.628 5.17553C6.084 5.17553 6.42 4.81553 6.42 4.32353L6.42 3.13553L4.428 3.13553ZM-4.70732e-07 9.76909L0.96 10.2491L7.44 12.1091L8.4 11.9891L8.4 16.7291L7.44 16.6091L0.959999 18.4691L-8.72003e-07 18.9491L-7.30378e-07 15.7091L0.959999 15.8291L1.572 15.6731L1.572 13.0451L0.959999 12.8891L-6.12357e-07 13.0091L-4.70732e-07 9.76909ZM3.54 13.5731L3.54 15.1571L6.564 14.3651L3.54 13.5731ZM-9.54379e-07 20.8337L0.959999 21.0617L7.464 21.0617L8.4 20.8337L8.4 23.9537L7.452 23.7137L0.959999 23.7137L-1.09076e-06 23.9537L-9.54379e-07 20.8337ZM-1.26901e-06 28.0315L0.959999 28.2715L6.24 28.2715L6.24 26.7715L6 25.8715L8.4 26.2315L8.4 32.9515L6 33.3115L6.24 32.4115L6.24 30.9115L0.959999 30.9115L-1.40539e-06 31.1515L-1.26901e-06 28.0315Z" fill="#DDA939"/>
</svg>
