<svg width="5" height="20" viewBox="0 0 5 20" fill="none" xmlns="http://www.w3.org/2000/svg">
<path d="M0.89 3.40196C0.89 1.75196 1.704 0.574959 2.925 0.574959C4.146 0.574959 4.96 1.75196 4.96 3.40196C4.96 5.04096 4.146 6.22346 2.925 6.22346C1.704 6.22346 0.89 5.04096 0.89 3.40196ZM1.8415 3.40196C1.8415 4.18846 2.254 4.76046 2.925 4.76046C3.596 4.76046 4.0085 4.18846 4.0085 3.40196C4.0085 2.60446 3.596 2.03246 2.925 2.03246C2.254 2.03246 1.8415 2.60446 1.8415 3.40196ZM1 6.51745L4.85 6.51745L4.85 9.82845C4.85 10.8515 4.366 11.506 3.5575 11.506C2.7545 11.506 2.265 10.8515 2.265 9.83395L2.265 7.92545L1 7.92545L1 6.51745ZM3.9645 9.54795L3.9645 7.92545L3.112 7.92545L3.112 9.54795C3.112 9.89995 3.266 10.1035 3.5355 10.1035C3.805 10.1035 3.9645 9.89995 3.9645 9.54795ZM0.999999 11.7704L4.85 11.7704L4.85 16.2694L3.959 16.2694L3.959 13.1674L3.3595 13.1674L3.3595 15.5049L2.5235 15.5049L2.5235 13.1674L1.8635 13.1674L1.8635 16.2694L0.999999 16.2694L0.999999 11.7704ZM0.999999 16.5829L4.85 16.5829L4.85 18.0954L3.6565 19.2064L2.474 20.3064L3.662 20.3064L4.85 20.3009L4.85 21.5219L0.999999 21.5219L0.999999 20.0039L2.188 18.8874L3.365 17.7929L2.177 17.7984L0.999999 17.7984L0.999999 16.5829ZM0.999999 23.0333L4.85 21.7408L4.85 23.1048L3.629 23.4733L2.4135 23.8363L3.629 24.3093L4.85 24.7768L4.85 25.9373L3.629 26.4103L2.4025 26.8833L3.629 27.2463L4.85 27.6148L4.85 28.9238L0.999999 27.6368L0.999999 26.2343L2.1825 25.7833L3.3595 25.3323L2.1825 24.8813L0.999999 24.4303L0.999999 23.0333ZM0.999999 28.2111L4.85 30.4331L4.85 31.9676L0.999999 34.1951L0.999999 32.6606L1.7205 32.2756L1.7205 30.0371L0.999999 29.6521L0.999999 28.2111ZM3.8325 31.1536L2.507 30.4551L2.507 31.8521L3.8325 31.1536ZM0.999998 34.3451L4.85 34.3451L4.85 37.7221C4.85 38.7561 4.443 39.3556 3.7335 39.3556C3.288 39.3556 2.947 39.1136 2.7765 38.6681C2.6775 39.0476 2.4465 39.2236 2.056 39.2456C1.594 39.2731 1.2365 39.3171 0.999998 39.4326L0.999998 37.9806C1.2035 37.8926 1.484 37.8761 1.946 37.8596C2.243 37.8486 2.342 37.7166 2.342 37.4086L2.342 35.7531L0.999998 35.7531L0.999998 34.3451ZM3.9755 37.4581L3.9755 35.7531L3.178 35.7531L3.178 37.4581C3.178 37.7771 3.321 37.9696 3.574 37.9696C3.8325 37.9696 3.9755 37.7826 3.9755 37.4581ZM0.999998 39.6732L4.85 39.6732L4.85 42.1812C4.85 43.7432 4.113 44.8102 2.925 44.8102C1.748 44.8102 0.999998 43.7322 0.999998 42.1812L0.999998 39.6732ZM3.926 42.0932L3.926 41.0812L1.913 41.0812L1.913 42.0932C1.913 42.8907 2.265 43.3582 2.914 43.3582C3.5685 43.3582 3.926 42.8907 3.926 42.0932ZM0.999998 45.1088L4.85 45.1088L4.85 48.4858C4.85 49.5198 4.443 50.1193 3.7335 50.1193C3.288 50.1193 2.947 49.8773 2.7765 49.4318C2.6775 49.8113 2.4465 49.9873 2.056 50.0093C1.594 50.0368 1.2365 50.0808 0.999998 50.1963L0.999998 48.7443C1.2035 48.6563 1.484 48.6398 1.946 48.6233C2.243 48.6123 2.342 48.4803 2.342 48.1723L2.342 46.5168L0.999998 46.5168L0.999998 45.1088ZM3.9755 48.2218L3.9755 46.5168L3.178 46.5168L3.178 48.2218C3.178 48.5408 3.321 48.7333 3.574 48.7333C3.8325 48.7333 3.9755 48.5463 3.9755 48.2218ZM0.889998 53.1061C0.889998 51.4561 1.704 50.2791 2.925 50.2791C4.146 50.2791 4.96 51.4561 4.96 53.1061C4.96 54.7451 4.146 55.9276 2.925 55.9276C1.704 55.9276 0.889998 54.7451 0.889998 53.1061ZM1.8415 53.1061C1.8415 53.8926 2.254 54.4646 2.925 54.4646C3.596 54.4646 4.0085 53.8926 4.0085 53.1061C4.0085 52.3086 3.596 51.7366 2.925 51.7366C2.254 51.7366 1.8415 52.3086 1.8415 53.1061ZM0.999998 56.2216L4.85 56.2216L4.85 59.6206C4.85 60.5886 4.443 61.1386 3.805 61.1386C3.42 61.1386 3.1285 60.9296 2.958 60.5501C2.8095 61.0176 2.5015 61.2706 2.0615 61.2706C1.407 61.2706 0.999997 60.7096 0.999997 59.7416L0.999998 56.2216ZM3.981 59.3456L3.981 57.6131L3.3155 57.6131L3.3155 59.3456C3.3155 59.6206 3.4255 59.7746 3.651 59.7746C3.8655 59.7746 3.981 59.6206 3.981 59.3456ZM2.5125 59.4446L2.5125 57.6131L1.8415 57.6131L1.8415 59.4446C1.8415 59.7196 1.9515 59.8791 2.177 59.8791C2.397 59.8791 2.5125 59.7196 2.5125 59.4446ZM0.999997 61.5389L4.85 61.5389L4.85 66.0379L3.959 66.0379L3.959 62.9359L3.3595 62.9359L3.3595 65.2734L2.5235 65.2734L2.5235 62.9359L1.8635 62.9359L1.8635 66.0379L0.999997 66.0379L0.999997 61.5389ZM0.999997 66.3514L4.85 66.3514L4.85 68.2544L3.5795 68.8044L2.309 69.3489L4.85 70.4489L4.85 72.3519L0.999997 72.3519L0.999997 71.0649L2.925 71.0704L3.6235 71.0759L2.925 70.7789L0.999997 69.9484L0.999997 68.7054L2.925 67.8749L3.6345 67.5779L0.999997 67.5834L0.999997 66.3514ZM0.999997 72.4958L4.85 74.7178L4.85 76.2523L0.999997 78.4798L0.999997 76.9453L1.7205 76.5603L1.7205 74.3218L0.999997 73.9368L0.999997 72.4958ZM3.8325 75.4383L2.507 74.7398L2.507 76.1368L3.8325 75.4383ZM0.999997 78.6298L4.85 78.6298L4.85 82.0068C4.85 83.0408 4.443 83.6403 3.7335 83.6403C3.288 83.6403 2.947 83.3983 2.7765 82.9528C2.6775 83.3323 2.4465 83.5083 2.056 83.5303C1.594 83.5578 1.2365 83.6018 0.999996 83.7173L0.999996 82.2653C1.2035 82.1773 1.484 82.1608 1.946 82.1443C2.243 82.1333 2.342 82.0013 2.342 81.6933L2.342 80.0378L0.999997 80.0378L0.999997 78.6298ZM3.9755 81.7428L3.9755 80.0378L3.178 80.0378L3.178 81.7428C3.178 82.0618 3.321 82.2543 3.574 82.2543C3.8325 82.2543 3.9755 82.0673 3.9755 81.7428ZM0.999996 83.9579L4.85 83.9579L4.85 85.3549L3.0625 85.3439L4.85 87.4669L4.85 89.1499L3.288 87.2854L0.999996 89.1774L0.999996 87.5109L2.5125 86.2954L1.737 85.3494L0.999996 85.3549L0.999996 83.9579ZM0.999996 89.3666L4.85 89.3666L4.85 93.8656L3.959 93.8656L3.959 90.7636L3.3595 90.7636L3.3595 93.1011L2.5235 93.1011L2.5235 90.7636L1.8635 90.7636L1.8635 93.8656L0.999996 93.8656L0.999996 89.3666ZM0.999996 96.0543L3.9425 96.0543L3.9425 94.0853L4.85 94.0853L4.85 99.4423L3.9425 99.4423L3.9425 97.4623L0.999996 97.4623L0.999996 96.0543Z" fill="black"/>
</svg>
