<svg width="68" height="16" viewBox="0 0 68 16" fill="none" xmlns="http://www.w3.org/2000/svg">
<path d="M0.883188 16L1.32319 14.24V2.36L0.883188 0.599999H10.4532C11.2012 0.599999 11.8832 0.885999 12.4112 1.414L13.9292 2.932C14.4572 3.46 14.7432 4.142 14.7432 4.89V7.97C14.7432 8.718 14.4572 9.4 13.9292 9.928L12.4112 11.446C11.8832 11.974 11.2012 12.26 10.4532 12.26H6.16319V14.24L6.60319 16H0.883188ZM6.16319 8.41H8.34119C9.24319 8.41 9.90319 7.75 9.90319 6.848V6.012C9.90319 5.11 9.24319 4.45 8.34119 4.45H6.16319V8.41ZM22.5473 16C21.7993 16 21.1173 15.714 20.5893 15.186L19.0713 13.668C18.5433 13.14 18.2573 12.458 18.2573 11.71V4.89C18.2573 4.142 18.5433 3.46 19.0713 2.932L20.5893 1.414C21.1173 0.885999 21.7993 0.599999 22.5473 0.599999H28.0473C28.7953 0.599999 29.4773 0.885999 30.0053 1.414L31.5233 2.932C32.0513 3.46 32.3373 4.142 32.3373 4.89V11.71C32.3373 12.458 32.0513 13.14 31.5233 13.668L30.0053 15.186C29.4773 15.714 28.7953 16 28.0473 16H22.5473ZM24.6593 12.15H25.9353C26.8373 12.15 27.4973 11.49 27.4973 10.588V6.012C27.4973 5.11 26.8373 4.45 25.9353 4.45H24.6593C23.7573 4.45 23.0973 5.11 23.0973 6.012V10.588C23.0973 11.49 23.7573 12.15 24.6593 12.15ZM36.5902 16L37.0302 14.24V2.36L36.5902 0.599999H46.1602C46.9082 0.599999 47.5902 0.885999 48.1182 1.414L49.6362 2.932C50.1642 3.438 50.4502 4.076 50.4502 4.78V7.332C50.4502 8.08 50.1862 8.784 49.6362 9.29L48.4702 10.368L50.1202 14.218L51.3082 16H45.3462L45.0602 14.218L43.8942 11.512H41.8702V14.24L42.3102 16H36.5902ZM41.8702 7.882H44.0482C44.9502 7.882 45.6102 7.266 45.6102 6.43V5.682C45.6102 4.846 44.9502 4.23 44.0482 4.23H41.8702V7.882ZM58.0578 16L58.4977 14.24V4.56H55.7477L54.0978 5L54.7578 0.599999H67.0778L67.7378 5L66.0878 4.56H63.3378V14.24L63.7778 16H58.0578Z" fill="#FFB3C7"/>
</svg>
