<svg width="14" height="55" viewBox="0 0 14 55" fill="none" xmlns="http://www.w3.org/2000/svg">
<path d="M2.08376 6.044C2.08376 3.076 3.91776 0.766 6.99776 0.766C10.0778 0.766 11.9118 3.076 11.9118 6.044C11.9118 8.928 10.0778 11.238 6.99776 11.238C3.91776 11.238 2.08376 8.928 2.08376 6.044ZM4.28176 6.044C4.28176 7.71 5.02376 9.39 6.99776 9.39C8.97176 9.39 9.71376 7.71 9.71376 6.044C9.71376 4.294 8.97176 2.614 6.99776 2.614C5.02376 2.614 4.28176 4.294 4.28176 6.044ZM13.5636 23.004L10.8756 33H8.69165L6.99765 26.196H6.96965L5.30365 33H3.07765L0.431648 23.004H2.62965L4.21165 29.808H4.23965L5.97565 23.004H8.03365L9.74165 29.892H9.76965L11.4076 23.004H13.5636ZM1.61541 55V45.004H4.70941L7.04741 51.878H7.07541L9.28741 45.004H12.3814V55H10.3234V47.916H10.2954L7.84541 55H6.15141L3.70141 47.986H3.67341V55H1.61541Z" fill="#D2D2D2"/>
</svg>
