<svg width="124" height="165" viewBox="0 0 124 165" fill="none" xmlns="http://www.w3.org/2000/svg">
<path d="M120.77 1.05049C120.62 1.05049 120.473 1.06715 120.33 1.10049C120.19 1.13715 120.063 1.19382 119.95 1.27049C119.837 1.34715 119.745 1.44715 119.675 1.57049C119.608 1.69382 119.575 1.84382 119.575 2.02049C119.575 2.19715 119.608 2.34715 119.675 2.47049C119.745 2.59382 119.837 2.69382 119.95 2.77049C120.063 2.84715 120.19 2.90215 120.33 2.93549C120.473 2.97215 120.62 2.99049 120.77 2.99049C120.927 2.99049 121.078 2.97215 121.225 2.93549C121.372 2.90215 121.502 2.84715 121.615 2.77049C121.732 2.69382 121.823 2.59382 121.89 2.47049C121.96 2.34715 121.995 2.19715 121.995 2.02049C121.995 1.84382 121.96 1.69382 121.89 1.57049C121.823 1.44715 121.732 1.34715 121.615 1.27049C121.502 1.19382 121.372 1.13715 121.225 1.10049C121.078 1.06715 120.927 1.05049 120.77 1.05049ZM120.77 0.265485C121.037 0.265485 121.283 0.305485 121.51 0.385485C121.74 0.465485 121.94 0.580485 122.11 0.730485C122.28 0.880485 122.413 1.06382 122.51 1.28049C122.607 1.50049 122.655 1.74715 122.655 2.02049C122.655 2.29715 122.607 2.54382 122.51 2.76049C122.413 2.97715 122.28 3.16049 122.11 3.31049C121.94 3.46049 121.74 3.57549 121.51 3.65549C121.283 3.73549 121.037 3.77549 120.77 3.77549C120.51 3.77549 120.267 3.73549 120.04 3.65549C119.817 3.57549 119.622 3.46049 119.455 3.31049C119.288 3.16049 119.157 2.97715 119.06 2.76049C118.967 2.54382 118.92 2.29715 118.92 2.02049C118.92 1.74715 118.967 1.50049 119.06 1.28049C119.157 1.06382 119.288 0.880485 119.455 0.730485C119.622 0.580485 119.817 0.465485 120.04 0.385485C120.267 0.305485 120.51 0.265485 120.77 0.265485ZM120.89 10.8971L120.89 11.5071C120.89 11.5971 120.897 11.6838 120.91 11.7671C120.923 11.8504 120.948 11.9238 120.985 11.9871C121.025 12.0504 121.08 12.1004 121.15 12.1371C121.22 12.1771 121.312 12.1971 121.425 12.1971C121.538 12.1971 121.63 12.1771 121.7 12.1371C121.77 12.1004 121.823 12.0504 121.86 11.9871C121.9 11.9238 121.927 11.8504 121.94 11.7671C121.953 11.6838 121.96 11.5971 121.96 11.5071L121.96 10.8971L120.89 10.8971ZM122.57 10.1121L122.57 11.7221C122.57 11.9454 122.537 12.1354 122.47 12.2921C122.407 12.4488 122.322 12.5754 122.215 12.6721C122.108 12.7721 121.987 12.8438 121.85 12.8871C121.713 12.9338 121.572 12.9571 121.425 12.9571C121.282 12.9571 121.14 12.9338 121 12.8871C120.863 12.8438 120.742 12.7721 120.635 12.6721C120.528 12.5754 120.442 12.4488 120.375 12.2921C120.312 12.1354 120.28 11.9454 120.28 11.7221L120.28 10.8971L119 10.8971L119 10.1121L122.57 10.1121ZM122.57 19.247L122.57 21.917L121.91 21.917L121.91 20.032L121.145 20.032L121.145 21.762L120.535 21.762L120.535 20.032L119.66 20.032L119.66 21.957L119 21.957L119 19.247L122.57 19.247ZM122.57 28.2892L122.57 29.0692L120.175 30.5592L120.175 30.5692L122.57 30.5692L122.57 31.3042L119 31.3042L119 30.5192L121.39 29.0342L121.39 29.0242L119 29.0242L119 28.2892L122.57 28.2892ZM119 41.1953L119 40.4153L121.43 39.8103L121.43 39.8003L119 39.2053L119 38.4103L122.57 37.4653L122.57 38.2503L120.14 38.8153L120.14 38.8253L122.57 39.4453L122.57 40.1803L120.11 40.7903L120.11 40.8003L122.57 41.3853L122.57 42.1553L119 41.1953ZM120.38 49.0949L120.38 50.0199L121.69 49.5699L121.69 49.5599L120.38 49.0949ZM122.57 49.1699L122.57 49.9749L119 51.3099L119 50.4949L119.795 50.2249L119.795 48.8899L119 48.6099L119 47.8199L122.57 49.1699ZM120.955 58.2028L120.955 59.0628C120.955 59.2428 120.995 59.3778 121.075 59.4678C121.155 59.5578 121.285 59.6028 121.465 59.6028C121.638 59.6028 121.763 59.5578 121.84 59.4678C121.92 59.3778 121.96 59.2428 121.96 59.0628L121.96 58.2028L120.955 58.2028ZM122.57 57.4178L122.57 59.3428C122.57 59.5028 122.543 59.6461 122.49 59.7728C122.44 59.9028 122.37 60.0128 122.28 60.1028C122.19 60.1961 122.085 60.2661 121.965 60.3128C121.848 60.3628 121.722 60.3878 121.585 60.3878C121.375 60.3878 121.193 60.3428 121.04 60.2528C120.887 60.1661 120.77 60.0228 120.69 59.8228L120.68 59.8228C120.653 59.9194 120.612 59.9994 120.555 60.0628C120.502 60.1261 120.437 60.1778 120.36 60.2178C120.287 60.2578 120.205 60.2861 120.115 60.3028C120.025 60.3228 119.935 60.3361 119.845 60.3428C119.788 60.3461 119.722 60.3494 119.645 60.3528C119.568 60.3561 119.49 60.3611 119.41 60.3678C119.33 60.3778 119.253 60.3911 119.18 60.4078C119.11 60.4278 119.05 60.4561 119 60.4928L119 59.7078C119.113 59.6644 119.248 59.6378 119.405 59.6278C119.562 59.6178 119.712 59.6028 119.855 59.5828C120.042 59.5561 120.178 59.4994 120.265 59.4128C120.352 59.3261 120.395 59.1844 120.395 58.9878L120.395 58.2028L119 58.2028L119 57.4178L122.57 57.4178ZM119.66 67.6111L119.66 68.3111C119.66 68.4245 119.678 68.5345 119.715 68.6411C119.752 68.7478 119.812 68.8428 119.895 68.9261C119.982 69.0095 120.093 69.0761 120.23 69.1261C120.367 69.1761 120.533 69.2011 120.73 69.2011C120.91 69.2011 121.072 69.1828 121.215 69.1461C121.362 69.1128 121.487 69.0561 121.59 68.9761C121.693 68.8961 121.772 68.7895 121.825 68.6561C121.882 68.5261 121.91 68.3645 121.91 68.1711L121.91 67.6111L119.66 67.6111ZM122.57 66.8261L122.57 68.3661C122.57 68.5961 122.533 68.8095 122.46 69.0061C122.387 69.2061 122.277 69.3778 122.13 69.5211C121.983 69.6678 121.8 69.7811 121.58 69.8611C121.36 69.9445 121.102 69.9861 120.805 69.9861C120.545 69.9861 120.305 69.9528 120.085 69.8861C119.865 69.8195 119.675 69.7178 119.515 69.5811C119.355 69.4478 119.228 69.2795 119.135 69.0761C119.045 68.8761 119 68.6395 119 68.3661L119 66.8261L122.57 66.8261ZM120.955 77.1172L120.955 77.9772C120.955 78.1572 120.995 78.2922 121.075 78.3822C121.155 78.4722 121.285 78.5172 121.465 78.5172C121.638 78.5172 121.763 78.4722 121.84 78.3822C121.92 78.2922 121.96 78.1572 121.96 77.9772L121.96 77.1172L120.955 77.1172ZM122.57 76.3322L122.57 78.2572C122.57 78.4172 122.543 78.5605 122.49 78.6872C122.44 78.8172 122.37 78.9272 122.28 79.0172C122.19 79.1105 122.085 79.1805 121.965 79.2272C121.848 79.2772 121.722 79.3022 121.585 79.3022C121.375 79.3022 121.193 79.2572 121.04 79.1672C120.887 79.0805 120.77 78.9372 120.69 78.7372L120.68 78.7372C120.653 78.8339 120.612 78.9139 120.555 78.9772C120.502 79.0405 120.437 79.0922 120.36 79.1322C120.287 79.1722 120.205 79.2005 120.115 79.2172C120.025 79.2372 119.935 79.2505 119.845 79.2572C119.788 79.2605 119.722 79.2639 119.645 79.2672C119.568 79.2705 119.49 79.2755 119.41 79.2822C119.33 79.2922 119.253 79.3055 119.18 79.3222C119.11 79.3422 119.05 79.3705 119 79.4072L119 78.6222C119.113 78.5789 119.248 78.5522 119.405 78.5422C119.562 78.5322 119.712 78.5172 119.855 78.4972C120.042 78.4705 120.178 78.4139 120.265 78.3272C120.352 78.2405 120.395 78.0989 120.395 77.9022L120.395 77.1172L119 77.1172L119 76.3322L122.57 76.3322ZM120.77 86.3706C120.62 86.3706 120.473 86.3873 120.33 86.4206C120.19 86.4573 120.063 86.5139 119.95 86.5906C119.837 86.6673 119.745 86.7673 119.675 86.8906C119.608 87.0139 119.575 87.1639 119.575 87.3406C119.575 87.5173 119.608 87.6673 119.675 87.7906C119.745 87.9139 119.837 88.0139 119.95 88.0906C120.063 88.1673 120.19 88.2223 120.33 88.2556C120.473 88.2923 120.62 88.3106 120.77 88.3106C120.927 88.3106 121.078 88.2923 121.225 88.2556C121.372 88.2223 121.502 88.1673 121.615 88.0906C121.732 88.0139 121.823 87.9139 121.89 87.7906C121.96 87.6673 121.995 87.5173 121.995 87.3406C121.995 87.1639 121.96 87.0139 121.89 86.8906C121.823 86.7673 121.732 86.6673 121.615 86.5906C121.502 86.5139 121.372 86.4573 121.225 86.4206C121.078 86.3873 120.927 86.3706 120.77 86.3706ZM120.77 85.5856C121.037 85.5856 121.283 85.6256 121.51 85.7056C121.74 85.7856 121.94 85.9006 122.11 86.0506C122.28 86.2006 122.413 86.3839 122.51 86.6006C122.607 86.8206 122.655 87.0673 122.655 87.3406C122.655 87.6173 122.607 87.8639 122.51 88.0806C122.413 88.2973 122.28 88.4806 122.11 88.6306C121.94 88.7806 121.74 88.8956 121.51 88.9756C121.283 89.0556 121.037 89.0956 120.77 89.0956C120.51 89.0956 120.267 89.0556 120.04 88.9756C119.817 88.8956 119.622 88.7806 119.455 88.6306C119.288 88.4806 119.157 88.2973 119.06 88.0806C118.967 87.8639 118.92 87.6173 118.92 87.3406C118.92 87.0673 118.967 86.8206 119.06 86.6006C119.157 86.3839 119.288 86.2006 119.455 86.0506C119.622 85.9006 119.817 85.7856 120.04 85.7056C120.267 85.6256 120.51 85.5856 120.77 85.5856ZM121.125 96.2172L121.125 97.0122C121.125 97.1522 121.158 97.2672 121.225 97.3572C121.292 97.4472 121.4 97.4922 121.55 97.4922C121.633 97.4922 121.702 97.4772 121.755 97.4472C121.808 97.4172 121.85 97.3772 121.88 97.3272C121.91 97.2772 121.93 97.2189 121.94 97.1522C121.953 97.0889 121.96 97.0222 121.96 96.9522L121.96 96.2172L121.125 96.2172ZM122.57 95.4322L122.57 97.1122C122.57 97.2822 122.555 97.4372 122.525 97.5772C122.495 97.7172 122.445 97.8372 122.375 97.9372C122.308 98.0372 122.218 98.1139 122.105 98.1672C121.992 98.2239 121.852 98.2522 121.685 98.2522C121.505 98.2522 121.355 98.2105 121.235 98.1272C121.115 98.0472 121.017 97.9272 120.94 97.7672C120.877 97.9872 120.765 98.1505 120.605 98.2572C120.448 98.3672 120.258 98.4222 120.035 98.4222C119.855 98.4222 119.698 98.3872 119.565 98.3172C119.435 98.2472 119.328 98.1522 119.245 98.0322C119.162 97.9155 119.1 97.7805 119.06 97.6272C119.02 97.4772 119 97.3222 119 97.1622L119 95.4322L122.57 95.4322ZM119.61 96.2172L119.61 97.0572C119.61 97.1339 119.617 97.2072 119.63 97.2772C119.647 97.3472 119.672 97.4089 119.705 97.4622C119.742 97.5155 119.79 97.5572 119.85 97.5872C119.91 97.6205 119.987 97.6372 120.08 97.6372C120.263 97.6372 120.393 97.5855 120.47 97.4822C120.55 97.3789 120.59 97.2422 120.59 97.0722L120.59 96.2172L119.61 96.2172ZM122.57 104.753L122.57 107.423L121.91 107.423L121.91 105.538L121.145 105.538L121.145 107.268L120.535 107.268L120.535 105.538L119.66 105.538L119.66 107.463L119 107.463L119 104.753L122.57 104.753ZM122.57 113.795L122.57 114.9L120.115 115.735L120.115 115.745L122.57 116.535L122.57 117.64L119 117.64L119 116.905L121.53 116.905L121.53 116.895L119 116.02L119 115.415L121.505 114.54L121.505 114.53L119 114.53L119 113.795L122.57 113.795ZM120.38 125.031L120.38 125.956L121.69 125.506L121.69 125.496L120.38 125.031ZM122.57 125.106L122.57 125.911L119 127.246L119 126.431L119.795 126.161L119.795 124.826L119 124.546L119 123.756L122.57 125.106ZM120.955 134.139L120.955 134.999C120.955 135.179 120.995 135.314 121.075 135.404C121.155 135.494 121.285 135.539 121.465 135.539C121.638 135.539 121.763 135.494 121.84 135.404C121.92 135.314 121.96 135.179 121.96 134.999L121.96 134.139L120.955 134.139ZM122.57 133.354L122.57 135.279C122.57 135.439 122.543 135.582 122.49 135.709C122.44 135.839 122.37 135.949 122.28 136.039C122.19 136.132 122.085 136.202 121.965 136.249C121.848 136.299 121.722 136.324 121.585 136.324C121.375 136.324 121.193 136.279 121.04 136.189C120.887 136.102 120.77 135.959 120.69 135.759L120.68 135.759C120.653 135.856 120.612 135.936 120.555 135.999C120.502 136.062 120.437 136.114 120.36 136.154C120.287 136.194 120.205 136.222 120.115 136.239C120.025 136.259 119.935 136.272 119.845 136.279C119.788 136.282 119.722 136.286 119.645 136.289C119.568 136.292 119.49 136.297 119.41 136.304C119.33 136.314 119.253 136.327 119.18 136.344C119.11 136.364 119.05 136.392 119 136.429L119 135.644C119.113 135.601 119.248 135.574 119.405 135.564C119.562 135.554 119.712 135.539 119.855 135.519C120.042 135.492 120.178 135.436 120.265 135.349C120.352 135.262 120.395 135.121 120.395 134.924L120.395 134.139L119 134.139L119 133.354L122.57 133.354ZM122.57 142.762L122.57 143.547L121.09 143.547L122.57 144.942L122.57 145.922L121.16 144.527L119 146.057L119 145.072L120.605 143.997L120.15 143.547L119 143.547L119 142.762L122.57 142.762ZM122.57 152.171L122.57 154.841L121.91 154.841L121.91 152.956L121.145 152.956L121.145 154.686L120.535 154.686L120.535 152.956L119.66 152.956L119.66 154.881L119 154.881L119 152.171L122.57 152.171ZM121.91 162.003L121.91 160.933L122.57 160.933L122.57 163.858L121.91 163.858L121.91 162.788L119 162.788L119 162.003L121.91 162.003Z" fill="white"/>
<path d="M3.23 163.95C3.38 163.95 3.52667 163.933 3.67 163.9C3.81 163.863 3.93667 163.806 4.05 163.73C4.16333 163.653 4.255 163.553 4.325 163.43C4.39167 163.306 4.425 163.156 4.425 162.98C4.425 162.803 4.39167 162.653 4.325 162.53C4.255 162.406 4.16333 162.306 4.05 162.23C3.93667 162.153 3.81 162.098 3.67 162.065C3.52667 162.028 3.38 162.01 3.23 162.01C3.07333 162.01 2.92167 162.028 2.775 162.065C2.62833 162.098 2.49833 162.153 2.385 162.23C2.26833 162.306 2.17667 162.406 2.11 162.53C2.04 162.653 2.005 162.803 2.005 162.98C2.005 163.156 2.04 163.306 2.11 163.43C2.17667 163.553 2.26833 163.653 2.385 163.73C2.49833 163.806 2.62833 163.863 2.775 163.9C2.92167 163.933 3.07333 163.95 3.23 163.95ZM3.23 164.735C2.96333 164.735 2.71667 164.695 2.49 164.615C2.26 164.535 2.06 164.42 1.89 164.27C1.72 164.12 1.58667 163.936 1.49 163.72C1.39333 163.5 1.345 163.253 1.345 162.98C1.345 162.703 1.39333 162.456 1.49 162.24C1.58667 162.023 1.72 161.84 1.89 161.69C2.06 161.54 2.26 161.425 2.49 161.345C2.71667 161.265 2.96333 161.225 3.23 161.225C3.49 161.225 3.73333 161.265 3.96 161.345C4.18333 161.425 4.37833 161.54 4.545 161.69C4.71167 161.84 4.84333 162.023 4.94 162.24C5.03333 162.456 5.08 162.703 5.08 162.98C5.08 163.253 5.03333 163.5 4.94 163.72C4.84333 163.936 4.71167 164.12 4.545 164.27C4.37833 164.42 4.18333 164.535 3.96 164.615C3.73333 164.695 3.49 164.735 3.23 164.735ZM3.11 154.103L3.11 153.493C3.11 153.403 3.10333 153.316 3.09 153.233C3.07667 153.15 3.05167 153.076 3.015 153.013C2.975 152.95 2.92 152.9 2.85 152.863C2.78 152.823 2.68833 152.803 2.575 152.803C2.46167 152.803 2.37 152.823 2.3 152.863C2.23 152.9 2.17667 152.95 2.14 153.013C2.1 153.076 2.07333 153.15 2.06 153.233C2.04667 153.316 2.04 153.403 2.04 153.493L2.04 154.103L3.11 154.103ZM1.43 154.888L1.43 153.278C1.43 153.055 1.46333 152.865 1.53 152.708C1.59333 152.551 1.67833 152.425 1.785 152.328C1.89167 152.228 2.01333 152.156 2.15 152.113C2.28667 152.066 2.42833 152.043 2.575 152.043C2.71833 152.043 2.86 152.066 3 152.113C3.13667 152.156 3.25833 152.228 3.365 152.328C3.47167 152.425 3.55833 152.551 3.625 152.708C3.68833 152.865 3.72 153.055 3.72 153.278L3.72 154.103L5 154.103L5 154.888L1.43 154.888ZM1.43 145.753L1.43 143.083L2.09 143.083L2.09 144.968L2.855 144.968L2.855 143.238L3.465 143.238L3.465 144.968L4.34 144.968L4.34 143.043L5 143.043L5 145.753L1.43 145.753ZM1.43 136.711L1.43 135.931L3.825 134.441L3.825 134.431L1.43 134.431L1.43 133.696L5 133.696L5 134.481L2.61 135.966L2.61 135.976L5 135.976L5 136.711L1.43 136.711ZM5 123.805L5 124.585L2.57 125.19L2.57 125.2L5 125.795L5 126.59L1.43 127.535L1.43 126.75L3.86 126.185L3.86 126.175L1.43 125.555L1.43 124.82L3.89 124.21L3.89 124.2L1.43 123.615L1.43 122.845L5 123.805ZM3.62 115.905L3.62 114.98L2.31 115.43L2.31 115.44L3.62 115.905ZM1.43 115.83L1.43 115.025L5 113.69L5 114.505L4.205 114.775L4.205 116.11L5 116.39L5 117.18L1.43 115.83ZM3.045 106.797L3.045 105.937C3.045 105.757 3.005 105.622 2.925 105.532C2.845 105.442 2.715 105.397 2.535 105.397C2.36167 105.397 2.23667 105.442 2.16 105.532C2.08 105.622 2.04 105.757 2.04 105.937L2.04 106.797L3.045 106.797ZM1.43 107.582L1.43 105.657C1.43 105.497 1.45667 105.354 1.51 105.227C1.56 105.097 1.63 104.987 1.72 104.897C1.81 104.804 1.915 104.734 2.035 104.687C2.15167 104.637 2.27833 104.612 2.415 104.612C2.625 104.612 2.80667 104.657 2.96 104.747C3.11333 104.834 3.23 104.977 3.31 105.177L3.32 105.177C3.34667 105.081 3.38833 105.001 3.445 104.937C3.49833 104.874 3.56333 104.822 3.64 104.782C3.71333 104.742 3.795 104.714 3.885 104.697C3.975 104.677 4.065 104.664 4.155 104.657C4.21167 104.654 4.27833 104.651 4.355 104.647C4.43167 104.644 4.51 104.639 4.59 104.632C4.67 104.622 4.74667 104.609 4.82 104.592C4.89 104.572 4.95 104.544 5 104.507L5 105.292C4.88667 105.336 4.75167 105.362 4.595 105.372C4.43833 105.382 4.28833 105.397 4.145 105.417C3.95833 105.444 3.82167 105.501 3.735 105.587C3.64833 105.674 3.605 105.816 3.605 106.012L3.605 106.797L5 106.797L5 107.582L1.43 107.582ZM4.34 97.3889L4.34 96.6889C4.34 96.5755 4.32167 96.4655 4.285 96.3589C4.24833 96.2522 4.18833 96.1572 4.105 96.0739C4.01833 95.9905 3.90667 95.9239 3.77 95.8739C3.63333 95.8239 3.46667 95.7989 3.27 95.7989C3.09 95.7989 2.92833 95.8172 2.785 95.8539C2.63833 95.8872 2.51333 95.9439 2.41 96.0239C2.30667 96.1039 2.22833 96.2105 2.175 96.3439C2.11833 96.4739 2.09 96.6355 2.09 96.8289L2.09 97.3889L4.34 97.3889ZM1.43 98.1739L1.43 96.6339C1.43 96.4039 1.46667 96.1905 1.54 95.9939C1.61333 95.7939 1.72333 95.6222 1.87 95.4789C2.01667 95.3322 2.2 95.2189 2.42 95.1389C2.64 95.0555 2.89833 95.0139 3.195 95.0139C3.455 95.0139 3.695 95.0472 3.915 95.1139C4.135 95.1805 4.325 95.2822 4.485 95.4189C4.645 95.5522 4.77167 95.7205 4.865 95.9239C4.955 96.1239 5 96.3605 5 96.6339L5 98.1739L1.43 98.1739ZM3.045 87.8828L3.045 87.0228C3.045 86.8428 3.005 86.7078 2.925 86.6178C2.845 86.5278 2.715 86.4828 2.535 86.4828C2.36167 86.4828 2.23667 86.5278 2.16 86.6178C2.08 86.7078 2.04 86.8428 2.04 87.0228L2.04 87.8828L3.045 87.8828ZM1.43 88.6678L1.43 86.7428C1.43 86.5828 1.45667 86.4395 1.51 86.3128C1.56 86.1828 1.63 86.0728 1.72 85.9828C1.81 85.8895 1.915 85.8195 2.035 85.7728C2.15167 85.7228 2.27833 85.6978 2.415 85.6978C2.625 85.6978 2.80667 85.7428 2.96 85.8328C3.11333 85.9195 3.23 86.0628 3.31 86.2628L3.32 86.2628C3.34667 86.1661 3.38833 86.0861 3.445 86.0228C3.49833 85.9595 3.56333 85.9078 3.64 85.8678C3.71333 85.8278 3.795 85.7995 3.885 85.7828C3.975 85.7628 4.065 85.7495 4.155 85.7428C4.21167 85.7395 4.27833 85.7361 4.355 85.7328C4.43167 85.7295 4.51 85.7245 4.59 85.7178C4.67 85.7078 4.74667 85.6945 4.82 85.6778C4.89 85.6578 4.95 85.6295 5 85.5928L5 86.3778C4.88667 86.4211 4.75167 86.4478 4.595 86.4578C4.43833 86.4678 4.28833 86.4828 4.145 86.5028C3.95833 86.5295 3.82167 86.5861 3.735 86.6728C3.64833 86.7595 3.605 86.9011 3.605 87.0978L3.605 87.8828L5 87.8828L5 88.6678L1.43 88.6678ZM3.23 78.6294C3.38 78.6294 3.52667 78.6127 3.67 78.5794C3.81 78.5427 3.93667 78.4861 4.05 78.4094C4.16333 78.3327 4.255 78.2327 4.325 78.1094C4.39167 77.9861 4.425 77.8361 4.425 77.6594C4.425 77.4827 4.39167 77.3327 4.325 77.2094C4.255 77.0861 4.16333 76.9861 4.05 76.9094C3.93667 76.8327 3.81 76.7777 3.67 76.7444C3.52667 76.7077 3.38 76.6894 3.23 76.6894C3.07333 76.6894 2.92167 76.7077 2.775 76.7444C2.62833 76.7777 2.49833 76.8327 2.385 76.9094C2.26833 76.9861 2.17667 77.0861 2.11 77.2094C2.04 77.3327 2.005 77.4827 2.005 77.6594C2.005 77.8361 2.04 77.9861 2.11 78.1094C2.17667 78.2327 2.26833 78.3327 2.385 78.4094C2.49833 78.4861 2.62833 78.5427 2.775 78.5794C2.92167 78.6127 3.07333 78.6294 3.23 78.6294ZM3.23 79.4144C2.96333 79.4144 2.71667 79.3744 2.49 79.2944C2.26 79.2144 2.06 79.0994 1.89 78.9494C1.72 78.7994 1.58667 78.6161 1.49 78.3994C1.39333 78.1794 1.345 77.9327 1.345 77.6594C1.345 77.3827 1.39333 77.1361 1.49 76.9194C1.58667 76.7027 1.72 76.5194 1.89 76.3694C2.06 76.2194 2.26 76.1044 2.49 76.0244C2.71667 75.9444 2.96333 75.9044 3.23 75.9044C3.49 75.9044 3.73333 75.9444 3.96 76.0244C4.18333 76.1044 4.37833 76.2194 4.545 76.3694C4.71167 76.5194 4.84333 76.7027 4.94 76.9194C5.03333 77.1361 5.08 77.3827 5.08 77.6594C5.08 77.9327 5.03333 78.1794 4.94 78.3994C4.84333 78.6161 4.71167 78.7994 4.545 78.9494C4.37833 79.0994 4.18333 79.2144 3.96 79.2944C3.73333 79.3744 3.49 79.4144 3.23 79.4144ZM2.875 68.7828L2.875 67.9878C2.875 67.8478 2.84167 67.7328 2.775 67.6428C2.70833 67.5528 2.6 67.5078 2.45 67.5078C2.36667 67.5078 2.29833 67.5228 2.245 67.5528C2.19167 67.5828 2.15 67.6228 2.12 67.6728C2.09 67.7228 2.07 67.7811 2.06 67.8478C2.04667 67.9111 2.04 67.9778 2.04 68.0478L2.04 68.7828L2.875 68.7828ZM1.43 69.5678L1.43 67.8878C1.43 67.7178 1.445 67.5628 1.475 67.4228C1.505 67.2828 1.555 67.1628 1.625 67.0628C1.69167 66.9628 1.78167 66.8861 1.895 66.8328C2.00833 66.7761 2.14833 66.7478 2.315 66.7478C2.495 66.7478 2.645 66.7895 2.765 66.8728C2.885 66.9528 2.98333 67.0728 3.06 67.2328C3.12333 67.0128 3.235 66.8495 3.395 66.7428C3.55167 66.6328 3.74167 66.5778 3.965 66.5778C4.145 66.5778 4.30167 66.6128 4.435 66.6828C4.565 66.7528 4.67167 66.8478 4.755 66.9678C4.83833 67.0845 4.9 67.2195 4.94 67.3728C4.98 67.5228 5 67.6778 5 67.8378L5 69.5678L1.43 69.5678ZM4.39 68.7828L4.39 67.9428C4.39 67.8661 4.38333 67.7928 4.37 67.7228C4.35333 67.6528 4.32833 67.5911 4.295 67.5378C4.25833 67.4845 4.21 67.4428 4.15 67.4128C4.09 67.3795 4.01333 67.3628 3.92 67.3628C3.73667 67.3628 3.60667 67.4145 3.53 67.5178C3.45 67.6211 3.41 67.7578 3.41 67.9278L3.41 68.7828L4.39 68.7828ZM1.43 60.2473L1.43 57.5773L2.09 57.5773L2.09 59.4623L2.855 59.4623L2.855 57.7323L3.465 57.7323L3.465 59.4623L4.34 59.4623L4.34 57.5373L5 57.5373L5 60.2473L1.43 60.2473ZM1.43 51.2051L1.43 50.1001L3.885 49.2651L3.885 49.2551L1.43 48.4651L1.43 47.3601L5 47.3601L5 48.0951L2.47 48.0951L2.47 48.1051L5 48.9801L5 49.5851L2.495 50.4601L2.495 50.4701L5 50.4701L5 51.2051L1.43 51.2051ZM3.62 39.969L3.62 39.044L2.31 39.494L2.31 39.504L3.62 39.969ZM1.43 39.894L1.43 39.089L5 37.754L5 38.569L4.205 38.839L4.205 40.174L5 40.454L5 41.244L1.43 39.894ZM3.045 30.8611L3.045 30.0011C3.045 29.8211 3.005 29.6861 2.925 29.5961C2.845 29.5061 2.715 29.4611 2.535 29.4611C2.36167 29.4611 2.23667 29.5061 2.16 29.5961C2.08 29.6861 2.04 29.8211 2.04 30.0011L2.04 30.8611L3.045 30.8611ZM1.43 31.6461L1.43 29.7211C1.43 29.5611 1.45667 29.4178 1.51 29.2911C1.56 29.1611 1.63 29.0511 1.72 28.9611C1.81 28.8678 1.915 28.7978 2.035 28.7511C2.15167 28.7011 2.27833 28.6761 2.415 28.6761C2.625 28.6761 2.80667 28.7211 2.96 28.8111C3.11333 28.8978 3.23 29.0411 3.31 29.2411L3.32 29.2411C3.34667 29.1445 3.38833 29.0645 3.445 29.0011C3.49833 28.9378 3.56333 28.8861 3.64 28.8461C3.71333 28.8061 3.795 28.7778 3.885 28.7611C3.975 28.7411 4.065 28.7278 4.155 28.7211C4.21167 28.7178 4.27833 28.7145 4.355 28.7111C4.43167 28.7078 4.51 28.7028 4.59 28.6961C4.67 28.6861 4.74667 28.6728 4.82 28.6561C4.89 28.6361 4.95 28.6078 5 28.5711L5 29.3561C4.88667 29.3995 4.75167 29.4261 4.595 29.4361C4.43833 29.4461 4.28833 29.4611 4.145 29.4811C3.95833 29.5078 3.82167 29.5645 3.735 29.6511C3.64833 29.7378 3.605 29.8795 3.605 30.0761L3.605 30.8611L5 30.8611L5 31.6461L1.43 31.6461ZM1.43 22.2377L1.43 21.4527L2.91 21.4527L1.43 20.0577L1.43 19.0777L2.84 20.4727L5 18.9427L5 19.9277L3.395 21.0027L3.85 21.4527L5 21.4527L5 22.2377L1.43 22.2377ZM1.43 12.8293L1.43 10.1593L2.09 10.1593L2.09 12.0443L2.855 12.0443L2.855 10.3143L3.465 10.3143L3.465 12.0443L4.34 12.0443L4.34 10.1193L5 10.1193L5 12.8293L1.43 12.8293ZM2.09 2.99713L2.09 4.06713L1.43 4.06713L1.43 1.14213L2.09 1.14213L2.09 2.21213L5 2.21213L5 2.99713L2.09 2.99713Z" fill="white"/>
</svg>
