<svg width="24" height="6" viewBox="0 0 24 6" fill="none" xmlns="http://www.w3.org/2000/svg">
<path d="M2.17844 6C1.90644 6 1.65844 5.896 1.46644 5.704L0.914438 5.152C0.722438 4.96 0.618438 4.712 0.618438 4.44V1.96C0.618438 1.688 0.722438 1.44 0.914438 1.248L1.46644 0.696C1.65844 0.504 1.90644 0.4 2.17844 0.4H4.17844C4.45044 0.4 4.69844 0.504 4.89044 0.696L5.44244 1.248C5.63444 1.44 5.73844 1.688 5.73844 1.96V4.44C5.73844 4.712 5.63444 4.96 5.44244 5.152L4.89044 5.704C4.69844 5.896 4.45044 6 4.17844 6H2.17844ZM2.94644 4.6H3.41044C3.73844 4.6 3.97844 4.36 3.97844 4.032V2.368C3.97844 2.04 3.73844 1.8 3.41044 1.8H2.94644C2.61844 1.8 2.37844 2.04 2.37844 2.368V4.032C2.37844 4.36 2.61844 4.6 2.94644 4.6ZM8.10375 6L8.18375 5.36L7.09575 1.04L6.78375 0.4H8.94375L8.86375 1.04L9.54375 4.056L10.2638 1.04L10.1038 0.4H11.9518L11.7918 1.04L12.5118 4.056L13.1918 1.04L13.1118 0.4H15.2718L14.9598 1.04L13.8718 5.36L13.9518 6H11.7198L11.0318 3.272L10.3358 6H8.10375ZM16.5349 6L16.6949 5.36V1.04L16.5349 0.4H18.6389L19.8549 2.584L21.0709 0.4H23.1749L23.0149 1.04V5.36L23.1749 6H21.1349L21.2949 5.36V2.88L20.0149 4.96H19.6949L18.4149 2.88V5.36L18.5749 6H16.5349Z" fill="#AD2316"/>
</svg>
