<svg width="66" height="5" viewBox="0 0 66 5" fill="none" xmlns="http://www.w3.org/2000/svg">
<path d="M1.35049 2.23C1.35049 2.38 1.36715 2.52667 1.40049 2.67C1.43715 2.81 1.49382 2.93667 1.57049 3.05C1.64716 3.16333 1.74716 3.255 1.87049 3.325C1.99382 3.39167 2.14382 3.425 2.32049 3.425C2.49716 3.425 2.64716 3.39167 2.77049 3.325C2.89382 3.255 2.99382 3.16333 3.07049 3.05C3.14716 2.93667 3.20216 2.81 3.23549 2.67C3.27216 2.52667 3.29049 2.38 3.29049 2.23C3.29049 2.07333 3.27216 1.92167 3.23549 1.775C3.20216 1.62833 3.14716 1.49833 3.07049 1.385C2.99382 1.26833 2.89382 1.17667 2.77049 1.11C2.64716 1.04 2.49716 1.005 2.32049 1.005C2.14382 1.005 1.99382 1.04 1.87049 1.11C1.74716 1.17667 1.64716 1.26833 1.57049 1.385C1.49382 1.49833 1.43715 1.62833 1.40049 1.775C1.36715 1.92167 1.35049 2.07333 1.35049 2.23ZM0.565488 2.23C0.565488 1.96333 0.605488 1.71667 0.685488 1.49C0.765488 1.26 0.880488 1.06 1.03049 0.89C1.18049 0.72 1.36382 0.586667 1.58049 0.49C1.80049 0.393333 2.04716 0.345 2.32049 0.345C2.59716 0.345 2.84382 0.393333 3.06049 0.49C3.27716 0.586667 3.46049 0.72 3.61049 0.89C3.76049 1.06 3.87549 1.26 3.95549 1.49C4.03549 1.71667 4.07549 1.96333 4.07549 2.23C4.07549 2.49 4.03549 2.73333 3.95549 2.96C3.87549 3.18333 3.76049 3.37833 3.61049 3.545C3.46049 3.71167 3.27716 3.84333 3.06049 3.94C2.84382 4.03333 2.59716 4.08 2.32049 4.08C2.04716 4.08 1.80049 4.03333 1.58049 3.94C1.36382 3.84333 1.18049 3.71167 1.03049 3.545C0.880488 3.37833 0.765488 3.18333 0.685488 2.96C0.605488 2.73333 0.565488 2.49 0.565488 2.23ZM5.39709 2.11H6.00709C6.09709 2.11 6.18376 2.10333 6.26709 2.09C6.35042 2.07667 6.42376 2.05167 6.48709 2.015C6.55042 1.975 6.60042 1.92 6.63709 1.85C6.67709 1.78 6.69709 1.68833 6.69709 1.575C6.69709 1.46167 6.67709 1.37 6.63709 1.3C6.60042 1.23 6.55042 1.17667 6.48709 1.14C6.42376 1.1 6.35042 1.07333 6.26709 1.06C6.18376 1.04667 6.09709 1.04 6.00709 1.04H5.39709V2.11ZM4.61209 0.43H6.22209C6.44542 0.43 6.63542 0.463333 6.79209 0.53C6.94876 0.593333 7.07542 0.678333 7.17209 0.785C7.27209 0.891667 7.34376 1.01333 7.38709 1.15C7.43376 1.28667 7.45709 1.42833 7.45709 1.575C7.45709 1.71833 7.43376 1.86 7.38709 2C7.34376 2.13667 7.27209 2.25833 7.17209 2.365C7.07542 2.47167 6.94876 2.55833 6.79209 2.625C6.63542 2.68833 6.44542 2.72 6.22209 2.72H5.39709V4H4.61209V0.43ZM7.94705 0.43H10.6171V1.09H8.73205V1.855H10.4621V2.465H8.73205V3.34H10.6571V4H7.94705V0.43ZM11.1892 0.43H11.9692L13.4592 2.825H13.4692V0.43H14.2042V4H13.4192L11.9342 1.61H11.9242V4H11.1892V0.43ZM18.2953 4H17.5153L16.9103 1.57H16.9003L16.3053 4L15.5103 4L14.5653 0.43H15.3503L15.9153 2.86H15.9253L16.5453 0.43H17.2803L17.8903 2.89H17.9003L18.4853 0.43H19.2553L18.2953 4ZM20.3949 2.62H21.3199L20.8699 1.31H20.8599L20.3949 2.62ZM20.4699 0.43H21.2749L22.6099 4H21.7949L21.5249 3.205H20.1899L19.9099 4H19.1199L20.4699 0.43ZM23.7028 2.045L24.5628 2.045C24.7428 2.045 24.8778 2.005 24.9678 1.925C25.0578 1.845 25.1028 1.715 25.1028 1.535C25.1028 1.36167 25.0578 1.23667 24.9678 1.16C24.8778 1.08 24.7428 1.04 24.5628 1.04L23.7028 1.04V2.045ZM22.9178 0.43H24.8428C25.0028 0.43 25.1461 0.456666 25.2728 0.51C25.4028 0.56 25.5128 0.63 25.6028 0.72C25.6961 0.81 25.7661 0.915 25.8128 1.035C25.8628 1.15167 25.8878 1.27833 25.8878 1.415C25.8878 1.625 25.8428 1.80667 25.7528 1.96C25.6661 2.11333 25.5228 2.23 25.3228 2.31V2.32C25.4194 2.34667 25.4994 2.38833 25.5628 2.445C25.6261 2.49833 25.6778 2.56333 25.7178 2.64C25.7578 2.71333 25.7861 2.795 25.8028 2.885C25.8228 2.975 25.8361 3.065 25.8428 3.155C25.8461 3.21167 25.8494 3.27833 25.8528 3.355C25.8561 3.43167 25.8611 3.51 25.8678 3.59C25.8778 3.67 25.8911 3.74667 25.9078 3.82C25.9278 3.89 25.9561 3.95 25.9928 4H25.2078C25.1644 3.88667 25.1378 3.75167 25.1278 3.595C25.1178 3.43833 25.1028 3.28833 25.0828 3.145C25.0561 2.95833 24.9994 2.82167 24.9128 2.735C24.8261 2.64833 24.6844 2.605 24.4878 2.605L23.7028 2.605V4H22.9178V0.43ZM27.3112 3.34H28.0112C28.1245 3.34 28.2345 3.32167 28.3412 3.285C28.4478 3.24833 28.5428 3.18833 28.6262 3.105C28.7095 3.01833 28.7762 2.90667 28.8262 2.77C28.8762 2.63333 28.9012 2.46667 28.9012 2.27C28.9012 2.09 28.8828 1.92833 28.8462 1.785C28.8128 1.63833 28.7562 1.51333 28.6762 1.41C28.5962 1.30667 28.4895 1.22833 28.3562 1.175C28.2262 1.11833 28.0645 1.09 27.8712 1.09H27.3112V3.34ZM26.5262 0.43L28.0662 0.43C28.2962 0.43 28.5095 0.466666 28.7062 0.54C28.9062 0.613333 29.0778 0.723333 29.2212 0.87C29.3678 1.01667 29.4812 1.2 29.5612 1.42C29.6445 1.64 29.6862 1.89833 29.6862 2.195C29.6862 2.455 29.6528 2.695 29.5862 2.915C29.5195 3.135 29.4178 3.325 29.2812 3.485C29.1478 3.645 28.9795 3.77167 28.7762 3.865C28.5762 3.955 28.3395 4 28.0662 4H26.5262V0.43ZM31.0172 2.045H31.8772C32.0572 2.045 32.1922 2.005 32.2822 1.925C32.3722 1.845 32.4172 1.715 32.4172 1.535C32.4172 1.36167 32.3722 1.23667 32.2822 1.16C32.1922 1.08 32.0572 1.04 31.8772 1.04H31.0172V2.045ZM30.2322 0.43H32.1572C32.3172 0.43 32.4605 0.456666 32.5872 0.51C32.7172 0.56 32.8272 0.63 32.9172 0.72C33.0105 0.81 33.0805 0.915 33.1272 1.035C33.1772 1.15167 33.2022 1.27833 33.2022 1.415C33.2022 1.625 33.1572 1.80667 33.0672 1.96C32.9805 2.11333 32.8372 2.23 32.6372 2.31V2.32C32.7339 2.34667 32.8139 2.38833 32.8772 2.445C32.9405 2.49833 32.9922 2.56333 33.0322 2.64C33.0722 2.71333 33.1005 2.795 33.1172 2.885C33.1372 2.975 33.1505 3.065 33.1572 3.155C33.1605 3.21167 33.1639 3.27833 33.1672 3.355C33.1705 3.43167 33.1755 3.51 33.1822 3.59C33.1922 3.67 33.2055 3.74667 33.2222 3.82C33.2422 3.89 33.2705 3.95 33.3072 4H32.5222C32.4789 3.88667 32.4522 3.75167 32.4422 3.595C32.4322 3.43833 32.4172 3.28833 32.3972 3.145C32.3705 2.95833 32.3139 2.82167 32.2272 2.735C32.1405 2.64833 31.9989 2.605 31.8022 2.605H31.0172V4H30.2322V0.43ZM34.4706 2.23C34.4706 2.38 34.4873 2.52667 34.5206 2.67C34.5573 2.81 34.6139 2.93667 34.6906 3.05C34.7673 3.16333 34.8673 3.255 34.9906 3.325C35.1139 3.39167 35.2639 3.425 35.4406 3.425C35.6173 3.425 35.7673 3.39167 35.8906 3.325C36.0139 3.255 36.1139 3.16333 36.1906 3.05C36.2673 2.93667 36.3223 2.81 36.3556 2.67C36.3923 2.52667 36.4106 2.38 36.4106 2.23C36.4106 2.07333 36.3923 1.92167 36.3556 1.775C36.3223 1.62833 36.2673 1.49833 36.1906 1.385C36.1139 1.26833 36.0139 1.17667 35.8906 1.11C35.7673 1.04 35.6173 1.005 35.4406 1.005C35.2639 1.005 35.1139 1.04 34.9906 1.11C34.8673 1.17667 34.7673 1.26833 34.6906 1.385C34.6139 1.49833 34.5573 1.62833 34.5206 1.775C34.4873 1.92167 34.4706 2.07333 34.4706 2.23ZM33.6856 2.23C33.6856 1.96333 33.7256 1.71667 33.8056 1.49C33.8856 1.26 34.0006 1.06 34.1506 0.89C34.3006 0.72 34.4839 0.586667 34.7006 0.49C34.9206 0.393333 35.1673 0.345 35.4406 0.345C35.7173 0.345 35.9639 0.393333 36.1806 0.49C36.3973 0.586667 36.5806 0.72 36.7306 0.89C36.8806 1.06 36.9956 1.26 37.0756 1.49C37.1556 1.71667 37.1956 1.96333 37.1956 2.23C37.1956 2.49 37.1556 2.73333 37.0756 2.96C36.9956 3.18333 36.8806 3.37833 36.7306 3.545C36.5806 3.71167 36.3973 3.84333 36.1806 3.94C35.9639 4.03333 35.7173 4.08 35.4406 4.08C35.1673 4.08 34.9206 4.03333 34.7006 3.94C34.4839 3.84333 34.3006 3.71167 34.1506 3.545C34.0006 3.37833 33.8856 3.18333 33.8056 2.96C33.7256 2.73333 33.6856 2.49 33.6856 2.23ZM38.5172 1.875H39.3122C39.4522 1.875 39.5672 1.84167 39.6572 1.775C39.7472 1.70833 39.7922 1.6 39.7922 1.45C39.7922 1.36667 39.7772 1.29833 39.7472 1.245C39.7172 1.19167 39.6772 1.15 39.6272 1.12C39.5772 1.09 39.5189 1.07 39.4522 1.06C39.3889 1.04667 39.3222 1.04 39.2522 1.04H38.5172V1.875ZM37.7322 0.43H39.4122C39.5822 0.43 39.7372 0.445 39.8772 0.475C40.0172 0.505 40.1372 0.555 40.2372 0.625C40.3372 0.691667 40.4139 0.781666 40.4672 0.895C40.5239 1.00833 40.5522 1.14833 40.5522 1.315C40.5522 1.495 40.5105 1.645 40.4272 1.765C40.3472 1.885 40.2272 1.98333 40.0672 2.06C40.2872 2.12333 40.4505 2.235 40.5572 2.395C40.6672 2.55167 40.7222 2.74167 40.7222 2.965C40.7222 3.145 40.6872 3.30167 40.6172 3.435C40.5472 3.565 40.4522 3.67167 40.3322 3.755C40.2155 3.83833 40.0805 3.9 39.9272 3.94C39.7772 3.98 39.6222 4 39.4622 4H37.7322V0.43ZM38.5172 3.39H39.3572C39.4339 3.39 39.5072 3.38333 39.5772 3.37C39.6472 3.35333 39.7089 3.32833 39.7622 3.295C39.8155 3.25833 39.8572 3.21 39.8872 3.15C39.9205 3.09 39.9372 3.01333 39.9372 2.92C39.9372 2.73667 39.8855 2.60667 39.7822 2.53C39.6789 2.45 39.5422 2.41 39.3722 2.41H38.5172V3.39ZM41.2527 0.43H43.9227V1.09H42.0377V1.855H43.7677V2.465H42.0377V3.34H43.9627V4H41.2527V0.43ZM44.4949 0.43H45.5999L46.4349 2.885H46.4449L47.2349 0.43H48.3399V4L47.6049 4V1.47H47.5949L46.7199 4H46.1149L45.2399 1.495H45.2299V4H44.4949V0.43ZM49.931 2.62H50.856L50.406 1.31H50.396L49.931 2.62ZM50.006 0.43H50.811L52.146 4H51.331L51.061 3.205H49.726L49.446 4H48.656L50.006 0.43ZM53.2389 2.045H54.0989C54.2789 2.045 54.4139 2.005 54.5039 1.925C54.5939 1.845 54.6389 1.715 54.6389 1.535C54.6389 1.36167 54.5939 1.23667 54.5039 1.16C54.4139 1.08 54.2789 1.04 54.0989 1.04H53.2389V2.045ZM52.4539 0.43H54.3789C54.5389 0.43 54.6822 0.456666 54.8089 0.51C54.9389 0.56 55.0489 0.63 55.1389 0.72C55.2322 0.81 55.3022 0.915 55.3489 1.035C55.3989 1.15167 55.4239 1.27833 55.4239 1.415C55.4239 1.625 55.3789 1.80667 55.2889 1.96C55.2022 2.11333 55.0589 2.23 54.8589 2.31V2.32C54.9556 2.34667 55.0356 2.38833 55.0989 2.445C55.1622 2.49833 55.2139 2.56333 55.2539 2.64C55.2939 2.71333 55.3222 2.795 55.3389 2.885C55.3589 2.975 55.3722 3.065 55.3789 3.155C55.3822 3.21167 55.3856 3.27833 55.3889 3.355C55.3922 3.43167 55.3972 3.51 55.4039 3.59C55.4139 3.67 55.4272 3.74667 55.4439 3.82C55.4639 3.89 55.4922 3.95 55.5289 4H54.7439C54.7006 3.88667 54.6739 3.75167 54.6639 3.595C54.6539 3.43833 54.6389 3.28833 54.6189 3.145C54.5922 2.95833 54.5356 2.82167 54.4489 2.735C54.3622 2.64833 54.2206 2.605 54.0239 2.605H53.2389V4H52.4539V0.43ZM56.0623 0.43H56.8473V1.91L58.2423 0.43H59.2223L57.8273 1.84L59.3573 4H58.3723L57.2973 2.395L56.8473 2.85V4H56.0623V0.43ZM59.6707 0.43L62.3407 0.43V1.09H60.4557V1.855H62.1857V2.465H60.4557V3.34H62.3807V4H59.6707V0.43ZM63.7029 1.09H62.6329V0.43H65.5579V1.09H64.4879V4H63.7029V1.09Z" fill="white"/>
</svg>
