<svg width="42" height="199" viewBox="0 0 42 199" fill="none" xmlns="http://www.w3.org/2000/svg">
<path d="M40.873 22.7559L41.873 22.7559L41.873 21.7559L40.873 21.7559L40.873 22.7559ZM40.873 39.0156L40.873 40.0156L41.873 40.0156L41.873 39.0156L40.873 39.0156ZM29.7988 39.0156L28.7988 39.0156L28.7988 40.0156L29.7988 40.0156L29.7988 39.0156ZM32.2891 25.1289L31.5324 24.475L31.5303 24.4775L32.2891 25.1289ZM40.873 1.92578L41.873 1.92578L41.873 0.92578L40.873 0.92578L40.873 1.92578ZM40.873 17.6875L40.873 18.6875L41.873 18.6875L41.873 17.6875L40.873 17.6875ZM24.8184 17.6875L24.8184 16.6875L23.8184 16.6875L23.8184 17.6875L24.8184 17.6875ZM24.8184 29.4355L24.8184 30.4355L25.8184 30.4355L25.8184 29.4355L24.8184 29.4355ZM17.1719 29.4355L16.1719 29.4355L16.1719 30.4355L17.1719 30.4355L17.1719 29.4355ZM17.1719 17.6875L18.1719 17.6875L18.1719 16.6875L17.1719 16.6875L17.1719 17.6875ZM1.05859 17.6875L0.0585929 17.6875L0.0585928 18.6875L1.05859 18.6875L1.05859 17.6875ZM1.05859 1.92578L1.05859 0.925779L0.0585936 0.925779L0.0585936 1.92578L1.05859 1.92578ZM40.873 22.7559L39.873 22.7559L39.873 39.0156L40.873 39.0156L41.873 39.0156L41.873 22.7559L40.873 22.7559ZM40.873 39.0156L40.873 38.0156L29.7988 38.0156L29.7988 39.0156L29.7988 40.0156L40.873 40.0156L40.873 39.0156ZM29.7988 39.0156L30.7988 39.0156L30.7988 35.9687L29.7988 35.9687L28.7988 35.9687L28.7988 39.0156L29.7988 39.0156ZM29.7988 35.9687L30.7988 35.9687C30.7988 30.7001 31.6416 27.4181 33.0478 25.7803L32.2891 25.1289L31.5303 24.4775C29.6162 26.7069 28.7988 30.6514 28.7988 35.9687L29.7988 35.9687ZM32.2891 25.1289L33.0457 25.7828C34.1491 24.5059 36.0179 23.7559 38.9102 23.7559L38.9102 22.7559L38.9102 21.7559C35.7087 21.7559 33.1633 22.5879 31.5324 24.475L32.2891 25.1289ZM38.9102 22.7559L38.9102 23.7559L40.873 23.7559L40.873 22.7559L40.873 21.7559L38.9102 21.7559L38.9102 22.7559ZM40.873 1.92578L39.873 1.92578L39.873 17.6875L40.873 17.6875L41.873 17.6875L41.873 1.92578L40.873 1.92578ZM40.873 17.6875L40.873 16.6875L24.8184 16.6875L24.8184 17.6875L24.8184 18.6875L40.873 18.6875L40.873 17.6875ZM24.8184 17.6875L23.8184 17.6875L23.8184 29.4355L24.8184 29.4355L25.8184 29.4355L25.8184 17.6875L24.8184 17.6875ZM24.8184 29.4355L24.8184 28.4355L17.1719 28.4355L17.1719 29.4355L17.1719 30.4355L24.8184 30.4355L24.8184 29.4355ZM17.1719 29.4355L18.1719 29.4355L18.1719 17.6875L17.1719 17.6875L16.1719 17.6875L16.1719 29.4355L17.1719 29.4355ZM17.1719 17.6875L17.1719 16.6875L1.05859 16.6875L1.05859 17.6875L1.05859 18.6875L17.1719 18.6875L17.1719 17.6875ZM1.05859 17.6875L2.05859 17.6875L2.05859 1.92578L1.05859 1.92578L0.0585936 1.92578L0.0585929 17.6875L1.05859 17.6875ZM1.05859 1.92578L1.05859 2.92578L40.873 2.92578L40.873 1.92578L40.873 0.92578L1.05859 0.925779L1.05859 1.92578ZM16.8496 76.0176L17.7905 75.679L16.8647 73.1062L15.9122 75.6692L16.8496 76.0176ZM11.6055 82.5508L12.1142 83.4118L12.123 83.4064L11.6055 82.5508ZM0.999996 84.4551L-3.77907e-06 84.4551L-3.82278e-06 85.4551L0.999996 85.4551L0.999996 84.4551ZM0.999997 66.9941L0.999997 65.9941L-2.97212e-06 65.9941L-3.01583e-06 66.9941L0.999997 66.9941ZM40.9316 66.9941L41.9316 66.9941L41.9316 65.9941L40.9316 65.9941L40.9316 66.9941ZM38.0019 79.9141L38.7822 80.5395L38.7828 80.5388L38.0019 79.9141ZM40.873 46.3691L41.873 46.3691L41.873 45.3691L40.873 45.3691L40.873 46.3691ZM40.873 62.1309L40.873 63.1309L41.873 63.1309L41.873 62.1309L40.873 62.1309ZM0.999997 62.1309L-2.80325e-06 62.1309L-2.84696e-06 63.1309L0.999997 63.1309L0.999997 62.1309ZM0.999998 46.3691L0.999998 45.3691L-2.07057e-06 45.3691L-2.11428e-06 46.3691L0.999998 46.3691ZM28.4805 83.752L28.4805 82.752C25.6758 82.752 23.4383 82.1398 21.7027 80.9857C19.9731 79.8355 18.6589 78.0921 17.7905 75.679L16.8496 76.0176L15.9087 76.3562C16.8958 79.0993 18.4478 81.2231 20.5952 82.6511C22.7365 84.075 25.3866 84.752 28.4805 84.752L28.4805 83.752ZM16.8496 76.0176L15.9122 75.6692C14.9092 78.3684 13.2989 80.3578 11.0879 81.6951L11.6055 82.5508L12.123 83.4064C14.7557 81.8141 16.6416 79.448 17.787 76.3659L16.8496 76.0176ZM11.6055 82.5508L11.0967 81.6899C9.12331 82.856 6.80406 83.4551 4.10547 83.4551L4.10546 84.4551L4.10546 85.4551C7.11 85.4551 9.79074 84.7847 12.1142 83.4117L11.6055 82.5508ZM4.10546 84.4551L4.10547 83.4551L0.999996 83.4551L0.999996 84.4551L0.999996 85.4551L4.10546 85.4551L4.10546 84.4551ZM0.999996 84.4551L2 84.4551L2 66.9941L0.999997 66.9941L-3.01583e-06 66.9941L-3.77907e-06 84.4551L0.999996 84.4551ZM0.999997 66.9941L0.999997 67.9941L40.9316 67.9941L40.9316 66.9941L40.9316 65.9941L0.999997 65.9941L0.999997 66.9941ZM40.9316 66.9941L39.9316 66.9941L39.9316 68.5176L40.9316 68.5176L41.9316 68.5176L41.9316 66.9941L40.9316 66.9941ZM40.9316 68.5176L39.9316 68.5176C39.9316 73.5826 38.966 77.1082 37.2211 79.2894L38.0019 79.9141L38.7828 80.5388C40.9441 77.8371 41.9316 73.7651 41.9316 68.5176L40.9316 68.5176ZM38.0019 79.9141L37.2217 79.2886C35.4162 81.5412 32.5755 82.752 28.4805 82.752L28.4805 83.752L28.4805 84.752C32.9792 84.752 36.4861 83.4042 38.7822 80.5395L38.0019 79.9141ZM40.873 46.3691L39.873 46.3691L39.873 62.1309L40.873 62.1309L41.873 62.1309L41.873 46.3691L40.873 46.3691ZM40.873 62.1309L40.873 61.1309L0.999997 61.1309L0.999997 62.1309L0.999997 63.1309L40.873 63.1309L40.873 62.1309ZM0.999997 62.1309L2 62.1309L2 46.3691L0.999998 46.3691L-2.11428e-06 46.3691L-2.80325e-06 62.1309L0.999997 62.1309ZM0.999998 46.3691L0.999998 47.3691L40.873 47.3691L40.873 46.3691L40.873 45.3691L0.999998 45.3691L0.999998 46.3691ZM40.873 112.727L41.873 112.727L41.873 111.727L40.873 111.727L40.873 112.727ZM31.1758 129.367L31.5086 130.31L31.5141 130.308L31.1758 129.367ZM7.62109 127.404L7.10547 128.261L7.10921 128.263L7.62109 127.404ZM0.999995 112.727L0.999995 111.727L-4.97115e-06 111.727L-5.01486e-06 112.727L0.999995 112.727ZM11.957 91.3398L12.2625 92.292L12.2638 92.2916L11.957 91.3398ZM38.0898 96.2324L37.2863 96.8277L37.2891 96.8314L38.0898 96.2324ZM40.873 107.951L40.873 108.951L41.873 108.951L41.873 107.951L40.873 107.951ZM0.999995 107.951L-4.80612e-06 107.951L-4.84983e-06 108.951L0.999995 108.951L0.999995 107.951ZM40.873 112.727L39.873 112.727L39.873 115.012L40.873 115.012L41.873 115.012L41.873 112.727L40.873 112.727ZM40.873 115.012L39.873 115.012C39.873 118.486 39.0991 121.286 37.6201 123.475C36.1439 125.661 33.9091 127.322 30.8375 128.426L31.1758 129.367L31.5141 130.308C34.9073 129.088 37.5211 127.195 39.2774 124.595C41.0307 121.999 41.873 118.783 41.873 115.012L40.873 115.012ZM31.1758 129.367L30.843 128.424C28.3148 129.316 25.3744 129.773 22.0059 129.773L22.0059 130.773L22.0059 131.773C25.5514 131.773 28.7243 131.293 31.5086 130.31L31.1758 129.367ZM22.0059 130.773L22.0059 129.773C16.3086 129.773 11.705 128.674 8.13296 126.545L7.62109 127.404L7.10921 128.263C11.0762 130.627 16.0625 131.773 22.0059 131.773L22.0059 130.773ZM7.62109 127.404L8.1367 126.547C4.05384 124.091 1.99999 120.304 1.99999 115.012L0.999995 115.012L-5.11474e-06 115.012C-5.37347e-06 120.931 2.36021 125.406 7.10548 128.261L7.62109 127.404ZM0.999995 115.012L1.99999 115.012L1.99999 112.727L0.999995 112.727L-5.01486e-06 112.727L-5.11474e-06 115.012L0.999995 115.012ZM0.999995 112.727L0.999995 113.727L40.873 113.727L40.873 112.727L40.873 111.727L0.999995 111.727L0.999995 112.727ZM0.999995 105.666L2 105.666C2 102.237 2.86578 99.4673 4.53357 97.2867C6.2055 95.1007 8.75088 93.4188 12.2625 92.292L11.957 91.3398L11.6515 90.3877C7.85848 91.6047 4.92535 93.4823 2.94494 96.0717C0.960383 98.6665 -4.54109e-06 101.888 -4.70623e-06 105.666L0.999995 105.666ZM11.957 91.3398L12.2638 92.2916C15.1162 91.3721 18.3598 90.9043 22.0059 90.9043L22.0059 89.9043L22.0059 88.9043C18.191 88.9043 14.7353 89.3935 11.6502 90.3881L11.957 91.3398ZM22.0059 89.9043L22.0059 90.9043C29.436 90.9043 34.4239 92.9634 37.2863 96.8276L38.0898 96.2324L38.8934 95.6372C35.5058 91.0639 29.7711 88.9043 22.0059 88.9043L22.0059 89.9043ZM38.0898 96.2324L37.2891 96.8314C38.9879 99.1024 39.873 102.023 39.873 105.666L40.873 105.666L41.873 105.666C41.873 101.692 40.9027 98.3233 38.8906 95.6334L38.0898 96.2324ZM40.873 105.666L39.873 105.666L39.873 107.951L40.873 107.951L41.873 107.951L41.873 105.666L40.873 105.666ZM40.873 107.951L40.873 106.951L0.999995 106.951L0.999995 107.951L0.999995 108.951L40.873 108.951L40.873 107.951ZM0.999995 107.951L2 107.951L2 105.666L0.999995 105.666L-4.70623e-06 105.666L-4.80612e-06 107.951L0.999995 107.951ZM40.9023 181.34L41.9023 181.34L41.9023 180.34L40.9023 180.34L40.9023 181.34ZM33.5781 196.867L33.8513 197.829L33.8549 197.828L33.5781 196.867ZM0.999991 197.541L-8.72221e-06 197.541L-8.76593e-06 198.541L0.999991 198.541L0.999991 197.541ZM0.999992 181.34L0.999992 180.34L-7.97033e-06 180.34L-8.01404e-06 181.34L0.999992 181.34ZM40.9023 159.602L41.9023 159.602L41.9023 158.602L40.9023 158.602L40.9023 159.602ZM40.9023 175.891L40.9023 176.891L41.9023 176.891L41.9023 175.891L40.9023 175.891ZM0.999992 175.891L-7.77585e-06 175.891L-7.81956e-06 176.891L0.999992 176.891L0.999992 175.891ZM0.999993 159.602L0.999993 158.602L-7.02012e-06 158.602L-7.06383e-06 159.602L0.999993 159.602ZM40.9023 137.805L41.9023 137.805L41.9023 136.805L40.9023 136.805L40.9023 137.805ZM40.9023 154.094L40.9023 155.094L41.9023 155.094L41.9023 154.094L40.9023 154.094ZM0.999993 154.094L-6.82307e-06 154.094L-6.86679e-06 155.094L0.999993 155.094L0.999993 154.094ZM0.999994 137.805L0.999994 136.805L-6.06735e-06 136.805L-6.11106e-06 137.805L0.999994 137.805ZM40.9023 181.34L39.9023 181.34L39.9023 183.977L40.9023 183.977L41.9023 183.977L41.9023 181.34L40.9023 181.34ZM40.9023 183.977L39.9023 183.977C39.9023 187.471 39.3068 190.151 38.2018 192.096C37.1141 194.01 35.4997 195.273 33.3014 195.906L33.5781 196.867L33.8549 197.828C36.5394 197.055 38.587 195.466 39.9407 193.084C41.2772 190.732 41.9023 187.67 41.9023 183.977L40.9023 183.977ZM33.5781 196.867L33.305 195.905C31.8313 196.324 30.1003 196.541 28.0996 196.541L28.0996 197.541L28.0996 198.541C30.2396 198.541 32.1609 198.309 33.8513 197.829L33.5781 196.867ZM28.0996 197.541L28.0996 196.541L0.999991 196.541L0.999991 197.541L0.999991 198.541L28.0996 198.541L28.0996 197.541ZM0.999991 197.541L1.99999 197.541L1.99999 181.34L0.999992 181.34L-8.01404e-06 181.34L-8.72221e-06 197.541L0.999991 197.541ZM0.999992 181.34L0.999992 182.34L40.9023 182.34L40.9023 181.34L40.9023 180.34L0.999992 180.34L0.999992 181.34ZM40.9023 159.602L39.9023 159.602L39.9023 175.891L40.9023 175.891L41.9023 175.891L41.9023 159.602L40.9023 159.602ZM40.9023 175.891L40.9023 174.891L0.999992 174.891L0.999992 175.891L0.999992 176.891L40.9023 176.891L40.9023 175.891ZM0.999992 175.891L1.99999 175.891L1.99999 159.602L0.999993 159.602L-7.06383e-06 159.602L-7.77585e-06 175.891L0.999992 175.891ZM0.999993 159.602L0.999993 160.602L40.9023 160.602L40.9023 159.602L40.9023 158.602L0.999993 158.602L0.999993 159.602ZM40.9023 137.805L39.9023 137.805L39.9023 154.094L40.9023 154.094L41.9023 154.094L41.9023 137.805L40.9023 137.805ZM40.9023 154.094L40.9023 153.094L0.999993 153.094L0.999993 154.094L0.999993 155.094L40.9023 155.094L40.9023 154.094ZM0.999993 154.094L1.99999 154.094L1.99999 137.805L0.999994 137.805L-6.11106e-06 137.805L-6.82307e-06 154.094L0.999993 154.094ZM0.999994 137.805L0.999994 138.805L40.9023 138.805L40.9023 137.805L40.9023 136.805L0.999994 136.805L0.999994 137.805Z" fill="#FF0000"/>
</svg>
