<svg width="4" height="56" viewBox="0 0 4 56" fill="none" xmlns="http://www.w3.org/2000/svg">
<path d="M1.7 0.239999L3.188 0.239999C3.596 0.239999 3.928 0.479999 3.928 0.999999C3.928 1.52 3.596 1.76 3.188 1.76L1.7 1.76C1.292 1.76 0.96 1.52 0.96 0.999999C0.96 0.479999 1.292 0.239999 1.7 0.239999ZM3.176 0.735999L1.712 0.735999C1.496 0.735999 1.392 0.799999 1.392 0.999999C1.392 1.2 1.496 1.264 1.712 1.264L3.176 1.264C3.392 1.264 3.496 1.2 3.496 0.999999C3.496 0.799999 3.392 0.735999 3.176 0.735999ZM3.48 3.936L2.592 3.936L2.592 4.128C2.592 4.452 2.692 4.552 3.036 4.552C3.38 4.552 3.48 4.452 3.48 4.128L3.48 3.936ZM1 3.936L1 3.44L3.888 3.44L3.888 4.152C3.888 4.764 3.652 5.048 3.036 5.048C2.42 5.048 2.184 4.764 2.184 4.152L2.184 3.936L1 3.936ZM1 8.024L1 6.64L3.888 6.64L3.888 7.968L3.456 7.968L3.456 7.136L2.712 7.136L2.712 7.776L2.28 7.776L2.28 7.136L1.432 7.136L1.432 8.024L1 8.024ZM1 10.0653L1 9.61734L3.888 9.61734L3.888 10.0773L2.236 10.6813L2.236 10.6893L3.888 10.6893L3.888 11.1373L1 11.1373L1 10.7053L2.804 10.0733L2.804 10.0653L1 10.0653ZM2.048 13.3533L3.888 13.6773L3.888 14.0853L2.048 14.4213L2.048 14.4293L3.888 14.7053L3.888 15.1693L0.999999 14.6613L0.999999 14.2453L2.908 13.8853L2.908 13.8773L0.999999 13.5413L0.999999 13.1253L3.888 12.5773L3.888 13.0413L2.048 13.3453L2.048 13.3533ZM3.312 17.1809L2.072 16.9849L2.072 17.3849L3.312 17.1889L3.312 17.1809ZM1.64 16.9129L0.999999 16.8249L0.999999 16.3449L3.888 16.8769L3.888 17.4929L0.999999 18.0249L0.999999 17.5449L1.64 17.4569L1.64 16.9129ZM3.48 20.0102L2.592 20.0102L2.592 20.1862C2.592 20.4542 2.692 20.5542 3.036 20.5542C3.38 20.5542 3.48 20.4542 3.48 20.1862L3.48 20.0102ZM2.184 20.0102L0.999999 20.0102L0.999999 19.5142L3.888 19.5142L3.888 20.2102C3.888 20.7662 3.652 21.0502 3.036 21.0502C2.572 21.0502 2.384 20.8702 2.308 20.7022L0.999999 21.1222L0.999999 20.6182L2.196 20.2662C2.188 20.2022 2.184 20.0982 2.184 20.0102ZM3.48 23.2102L1.408 23.2102L1.408 23.3822C1.408 23.6462 1.508 23.7382 1.812 23.7382L3.076 23.7382C3.38 23.7382 3.48 23.6462 3.48 23.3822L3.48 23.2102ZM0.999999 22.7142L3.888 22.7142L3.888 23.4502C3.888 23.9622 3.608 24.2342 3.016 24.2342L1.872 24.2342C1.28 24.2342 0.999999 23.9622 0.999999 23.4502L0.999999 22.7142ZM3.48 26.4102L2.592 26.4102L2.592 26.5862C2.592 26.8542 2.692 26.9542 3.036 26.9542C3.38 26.9542 3.48 26.8542 3.48 26.5862L3.48 26.4102ZM2.184 26.4102L0.999999 26.4102L0.999999 25.9142L3.888 25.9142L3.888 26.6102C3.888 27.1662 3.652 27.4502 3.036 27.4502C2.572 27.4502 2.384 27.2702 2.308 27.1022L0.999999 27.5222L0.999999 27.0182L2.196 26.6662C2.188 26.6022 2.184 26.4982 2.184 26.4102ZM1.7 29.1142L3.188 29.1142C3.596 29.1142 3.928 29.3542 3.928 29.8742C3.928 30.3942 3.596 30.6342 3.188 30.6342L1.7 30.6342C1.292 30.6342 0.959999 30.3942 0.959999 29.8742C0.959999 29.3542 1.292 29.1142 1.7 29.1142ZM3.176 29.6102L1.712 29.6102C1.496 29.6102 1.392 29.6742 1.392 29.8742C1.392 30.0742 1.496 30.1382 1.712 30.1382L3.176 30.1382C3.392 30.1382 3.496 30.0742 3.496 29.8742C3.496 29.6742 3.392 29.6102 3.176 29.6102ZM2.296 32.8102L1.408 32.8102L1.408 33.0182C1.408 33.2822 1.56 33.3782 1.852 33.3782C2.148 33.3782 2.296 33.2662 2.296 32.9702L2.296 32.8102ZM3.48 32.8102L2.704 32.8102L2.704 32.9902C2.704 33.1782 2.832 33.3222 3.072 33.3222C3.34 33.3222 3.48 33.2182 3.48 32.9982L3.48 32.8102ZM0.999999 32.3142L3.888 32.3142L3.888 33.0502C3.888 33.5822 3.616 33.8182 3.124 33.8182C2.876 33.8182 2.616 33.7142 2.52 33.4742C2.408 33.7262 2.208 33.8742 1.836 33.8742C1.36 33.8742 0.999999 33.6622 0.999999 33.0982L0.999999 32.3142ZM0.999998 36.8982L0.999998 35.5142L3.888 35.5142L3.888 36.8422L3.456 36.8422L3.456 36.0102L2.712 36.0102L2.712 36.6502L2.28 36.6502L2.28 36.0102L1.432 36.0102L1.432 36.8982L0.999998 36.8982ZM3.888 39.8276L3.888 40.4796L0.999998 40.4796L0.999998 40.0476L3.256 40.0476L3.256 40.0396L0.999998 39.5916L0.999998 39.3516L3.256 38.9036L3.256 38.8956L0.999998 38.8956L0.999998 38.4636L3.888 38.4636L3.888 39.1156L2.2 39.4676L2.2 39.4756L3.888 39.8276ZM3.312 42.7809L2.072 42.5849L2.072 42.9849L3.312 42.7889L3.312 42.7809ZM1.64 42.5129L0.999998 42.4249L0.999998 41.9449L3.888 42.4769L3.888 43.0929L0.999998 43.6249L0.999998 43.1449L1.64 43.0569L1.64 42.5129ZM3.48 45.6102L2.592 45.6102L2.592 45.7862C2.592 46.0542 2.692 46.1542 3.036 46.1542C3.38 46.1542 3.48 46.0542 3.48 45.7862L3.48 45.6102ZM2.184 45.6102L0.999998 45.6102L0.999998 45.1142L3.888 45.1142L3.888 45.8102C3.888 46.3662 3.652 46.6502 3.036 46.6502C2.572 46.6502 2.384 46.4702 2.308 46.3022L0.999998 46.7222L0.999998 46.2182L2.196 45.8662C2.188 45.8022 2.184 45.6982 2.184 45.6102ZM0.999998 48.7862L0.999998 48.2902L3.888 48.2902L3.888 48.7862L2.82 48.7862L2.82 48.7942L3.888 49.3142L3.888 49.8102L2.812 49.2742L0.999998 49.8782L0.999998 49.3742L2.344 48.9702L2.344 48.9622L2.024 48.7862L0.999998 48.7862ZM0.999998 52.6756L0.999998 51.2916L3.888 51.2916L3.888 52.6196L3.456 52.6196L3.456 51.7876L2.712 51.7876L2.712 52.4276L2.28 52.4276L2.28 51.7876L1.432 51.7876L1.432 52.6756L0.999998 52.6756ZM0.999998 54.5569L3.456 54.5569L3.456 54.0769L3.888 54.0769L3.888 55.5329L3.456 55.5329L3.456 55.0529L0.999998 55.0529L0.999998 54.5569Z" fill="white"/>
</svg>
