<svg width="107" height="80" viewBox="0 0 107 80" fill="none" xmlns="http://www.w3.org/2000/svg">
<path d="M44.7195 47.9751C41.5835 47.7191 39.1835 45.8631 39.1835 42.1191V29.8951C39.1835 26.1511 41.5835 24.2631 44.7195 24.0391V24.4551C43.5675 24.6471 42.7675 25.4151 42.7675 26.7271V45.3191C42.7675 46.5991 43.5675 47.3671 44.7195 47.5591V47.9751ZM45.5835 47.9751V47.5591C46.7355 47.3671 47.5675 46.5991 47.5675 45.3191V26.7271C47.5675 25.4151 46.7355 24.6471 45.5835 24.4551V24.0391C48.7195 24.2631 51.1195 26.1511 51.1195 29.8951V42.1191C51.1195 45.8631 48.7195 47.7511 45.5835 47.9751ZM55.033 47.8151V47.3031H56.793V24.7111H55.033V24.1991H60.313V47.3031H62.073V47.8151H55.033ZM68.281 47.8151C65.849 47.8151 64.825 46.4711 64.825 44.3271V38.2151C64.825 36.5831 63.865 35.8151 62.265 35.8151H61.209V35.3031H62.265C63.545 35.3031 64.345 34.5031 64.345 33.0631V26.9191C64.345 25.4791 63.833 24.7111 62.489 24.7111H61.209V24.1991H62.489C65.913 24.1991 67.993 26.1191 67.993 29.9271C67.993 33.3191 66.201 35.0151 63.577 35.5271C66.457 36.0711 68.281 37.3191 68.281 40.9671V47.3031H70.041V47.8151H68.281ZM71.908 47.8151V47.3031H73.668V24.7111H71.908V24.1991H78.948V24.7111H77.188V47.3031H78.948V47.8151H71.908ZM88.3118 47.9751C84.9198 47.7191 82.8398 45.8631 82.8398 42.0231V30.0231C82.8398 26.1831 85.1758 24.0391 88.7278 24.0391C89.8158 24.0391 90.8398 24.3271 91.7038 24.8391L91.4798 25.2871C90.7118 24.8391 89.7838 24.5511 88.8238 24.5511C87.5118 24.5511 86.5838 25.3191 86.5838 26.7591V45.5751C86.5838 46.7911 87.3198 47.2711 88.3118 47.4631V47.9751ZM92.3118 29.9271C91.2558 29.9271 90.3918 29.0631 90.3918 28.0071C90.3918 26.9191 91.2558 26.0551 92.3118 26.0551C93.3678 26.0551 94.2318 26.9191 94.2318 28.0071C94.2318 29.0631 93.3678 29.9271 92.3118 29.9271ZM89.1758 47.9751V47.4951C90.2318 47.3031 91.0638 46.6951 91.0638 45.2551V36.3911H89.3038V35.8791H96.3758V36.3911H94.6158V42.1191C94.6158 45.5431 92.5358 47.7191 89.1758 47.9751ZM98.5643 47.8151V47.3031H100.324V24.7111H98.5643V24.1991H105.604V24.7111H103.844V47.3031H105.604V47.8151H98.5643ZM72.679 79.8151L61.159 59.6551V56.7111H59.399V56.1991H63.815L72.679 71.6871V79.8151ZM72.679 70.7911L72.167 69.8631V56.7111H70.407V56.1991H74.439V56.7111H72.679V70.7911ZM59.399 79.8151V79.3031H61.159V60.5511L61.671 61.3831V79.3031H63.431V79.8151H59.399ZM85.3888 79.8151V79.3031H87.0848L81.2928 56.1991H84.8448L90.6368 79.3031H92.4608V79.8151H85.3888ZM74.8927 79.8151V79.3031H76.5568L81.6128 59.7511L81.8688 60.8391L78.9888 71.9431H84.6528L84.8128 72.4551H78.8608L77.0688 79.3031H78.6368V79.8151H74.8927ZM93.283 79.8151V79.3031H95.043V56.7111H93.283V56.1991H100.323V56.7111H98.563V79.8151H93.283ZM99.459 79.8151V79.3031H100.931C104.387 79.3031 106.371 76.9991 106.371 73.8311H106.883V79.8151H99.459Z" fill="#DC8D8D"/>
<path d="M62.2805 32.0249C65.4165 32.2809 67.8165 34.1369 67.8165 37.8809L67.8165 50.1049C67.8165 53.8489 65.4165 55.7369 62.2805 55.9609L62.2805 55.5449C63.4325 55.3529 64.2325 54.5849 64.2325 53.2729L64.2325 34.6809C64.2325 33.4009 63.4325 32.6329 62.2805 32.4409L62.2805 32.0249ZM61.4165 32.0249L61.4165 32.4409C60.2645 32.6329 59.4325 33.4009 59.4325 34.6809L59.4325 53.2729C59.4325 54.5849 60.2645 55.3529 61.4165 55.5449L61.4165 55.9609C58.2805 55.7369 55.8805 53.8489 55.8805 50.1049L55.8805 37.8809C55.8805 34.1369 58.2805 32.2489 61.4165 32.0249ZM51.967 32.1849L51.967 32.6969L50.207 32.6969L50.207 55.2889L51.967 55.2889L51.967 55.8009L46.687 55.8009L46.687 32.6969L44.927 32.6969L44.927 32.1849L51.967 32.1849ZM38.719 32.1849C41.151 32.1849 42.175 33.5289 42.175 35.6729L42.175 41.7849C42.175 43.4169 43.135 44.1849 44.735 44.1849L45.791 44.1849L45.791 44.6969L44.735 44.6969C43.455 44.6969 42.655 45.4969 42.655 46.9369L42.655 53.0809C42.655 54.5209 43.167 55.2889 44.511 55.2889L45.791 55.2889L45.791 55.8009L44.511 55.8009C41.087 55.8009 39.007 53.8809 39.007 50.0729C39.007 46.6809 40.799 44.9849 43.423 44.4729C40.543 43.9289 38.719 42.6809 38.719 39.0329L38.719 32.6969L36.959 32.6969L36.959 32.1849L38.719 32.1849ZM35.092 32.1849L35.092 32.6969L33.332 32.6969L33.332 55.2889L35.092 55.2889L35.092 55.8009L28.052 55.8009L28.052 55.2889L29.812 55.2889L29.812 32.6969L28.052 32.6969L28.052 32.1849L35.092 32.1849ZM18.6883 32.0249C22.0803 32.2809 24.1603 34.1369 24.1603 37.9769L24.1603 49.9769C24.1603 53.8169 21.8242 55.9609 18.2722 55.9609C17.1842 55.9609 16.1602 55.6729 15.2962 55.1609L15.5202 54.7129C16.2883 55.1609 17.2162 55.4489 18.1762 55.4489C19.4882 55.4489 20.4162 54.6809 20.4163 53.2409L20.4163 34.4249C20.4163 33.2089 19.6803 32.7289 18.6883 32.5369L18.6883 32.0249ZM14.6883 50.0729C15.7442 50.0729 16.6083 50.9369 16.6083 51.9929C16.6082 53.0809 15.7442 53.9449 14.6882 53.9449C13.6323 53.9449 12.7682 53.0809 12.7682 51.9929C12.7682 50.9369 13.6323 50.0729 14.6883 50.0729ZM17.8243 32.0249L17.8243 32.5049C16.7683 32.6969 15.9363 33.3049 15.9363 34.7449L15.9363 43.6089L17.6963 43.6089L17.6963 44.1209L10.6242 44.1209L10.6242 43.6089L12.3843 43.6089L12.3843 37.8809C12.3843 34.4569 14.4643 32.2809 17.8243 32.0249ZM8.43575 32.1849L8.43575 32.6969L6.67575 32.6969L6.67575 55.2889L8.43575 55.2889L8.43575 55.8009L1.39575 55.8009L1.39575 55.2889L3.15575 55.2889L3.15575 32.6969L1.39575 32.6969L1.39575 32.1849L8.43575 32.1849ZM34.321 0.184869L45.841 20.3449L45.841 23.2889L47.601 23.2889L47.601 23.8009L43.185 23.8009L34.321 8.31287L34.321 0.184869ZM34.321 9.20887L34.833 10.1369L34.833 23.2889L36.593 23.2889L36.593 23.8009L32.561 23.8009L32.561 23.2889L34.321 23.2889L34.321 9.20887ZM47.601 0.18487L47.601 0.69687L45.841 0.69687L45.841 19.4489L45.329 18.6169L45.329 0.69687L43.569 0.69687L43.569 0.18487L47.601 0.18487ZM21.6113 0.184868L21.6113 0.696868L19.9153 0.696868L25.7073 23.8009L22.1553 23.8009L16.3633 0.696868L14.5393 0.696867L14.5393 0.184867L21.6113 0.184868ZM32.1073 0.184869L32.1073 0.696869L30.4433 0.696869L25.3873 20.2489L25.1313 19.1609L28.0113 8.05687L22.3473 8.05687L22.1873 7.54487L28.1393 7.54487L29.9313 0.696869L28.3633 0.696869L28.3633 0.184869L32.1073 0.184869ZM13.717 0.184867L13.717 0.696867L11.957 0.696867L11.957 23.2889L13.717 23.2889L13.717 23.8009L6.677 23.8009L6.677 23.2889L8.437 23.2889L8.437 0.184867L13.717 0.184867ZM7.541 0.184867L7.541 0.696867L6.069 0.696867C2.613 0.696866 0.629004 3.00087 0.629004 6.16887L0.117004 6.16887L0.117005 0.184866L7.541 0.184867Z" fill="#DC8D8D"/>
</svg>
