<svg width="9" height="11" viewBox="0 0 9 11" fill="none" xmlns="http://www.w3.org/2000/svg">
<path d="M5.24508 -3.28266e-07L7.56908 8.862L7.56908 10.108L8.33908 10.108L8.33908 10.332L6.21108 10.332L4.50308 3.78L3.11708 9.17L3.11708 8.204L5.24508 -3.28266e-07ZM3.69108 -4.64121e-07L3.69108 0.224L2.92108 0.223999L2.92108 9.968L2.82308 10.332L0.611078 10.332L0.611078 10.108L1.38108 10.108L1.38108 0.223999L0.611079 0.223999L0.611079 -7.33383e-07L3.69108 -4.64121e-07ZM8.33908 -5.77796e-08L8.33908 0.224L7.56908 0.224L7.56908 8.064L7.34508 7.168L7.34508 0.224L6.57508 0.224L6.57508 -2.11993e-07L8.33908 -5.77796e-08Z" fill="white"/>
</svg>
