<svg width="7" height="107" viewBox="0 0 7 107" fill="none" xmlns="http://www.w3.org/2000/svg">
<path d="M4.78711 2.56543C4.52279 2.30111 4.20378 2.16895 3.83008 2.16895C3.45638 2.16895 3.13737 2.30111 2.87305 2.56543C2.60872 2.82975 2.47656 3.14876 2.47656 3.52246C2.47656 3.89616 2.60872 4.21517 2.87305 4.47949C3.13737 4.74381 3.45638 4.87598 3.83008 4.87598C4.20378 4.87598 4.52279 4.74381 4.78711 4.47949C5.05143 4.21517 5.18359 3.89616 5.18359 3.52246C5.18359 3.14876 5.05143 2.82975 4.78711 2.56543ZM3.20801 2.04932C3.40625 1.96501 3.61361 1.92285 3.83008 1.92285C4.04655 1.92285 4.25277 1.96501 4.44873 2.04932C4.64697 2.13363 4.81787 2.24756 4.96143 2.39111C5.10498 2.53467 5.21891 2.70443 5.30322 2.90039C5.38753 3.09863 5.42969 3.30599 5.42969 3.52246C5.42969 3.73893 5.38753 3.94515 5.30322 4.14111C5.21891 4.33936 5.10498 4.51025 4.96143 4.65381C4.81787 4.79736 4.64697 4.9113 4.44873 4.99561C4.25277 5.07992 4.04655 5.12207 3.83008 5.12207C3.61361 5.12207 3.40625 5.07992 3.20801 4.99561C3.01204 4.9113 2.84228 4.79736 2.69873 4.65381C2.55518 4.51025 2.44124 4.33936 2.35693 4.14111C2.27262 3.94515 2.23047 3.73893 2.23047 3.52246C2.23047 3.30599 2.27262 3.09863 2.35693 2.90039C2.44124 2.70443 2.55518 2.53467 2.69873 2.39111C2.84229 2.24756 3.01204 2.13363 3.20801 2.04932ZM4.75635 1.92285C4.4738 1.75879 4.16504 1.67676 3.83008 1.67676C3.49512 1.67676 3.18636 1.75879 2.90381 1.92285C2.62126 2.08919 2.39681 2.31364 2.23047 2.59619C2.06641 2.87874 1.98437 3.1875 1.98437 3.52246C1.98437 3.85742 2.06641 4.16618 2.23047 4.44873C2.39681 4.73128 2.62126 4.95459 2.90381 5.11865C3.18636 5.28499 3.49512 5.36816 3.83008 5.36816C4.16504 5.36816 4.4738 5.28499 4.75635 5.11865C5.0389 4.95459 5.26221 4.73128 5.42627 4.44873C5.59261 4.16618 5.67578 3.85742 5.67578 3.52246C5.67578 3.1875 5.59261 2.87874 5.42627 2.59619C5.26221 2.31364 5.0389 2.08919 4.75635 1.92285ZM2.78076 1.71094C3.10205 1.52409 3.45182 1.43066 3.83008 1.43066C4.20833 1.43066 4.55811 1.52409 4.87939 1.71094C5.20068 1.89779 5.45475 2.15186 5.6416 2.47314C5.82845 2.79443 5.92187 3.14421 5.92187 3.52246C5.92187 3.90072 5.82845 4.25049 5.6416 4.57178C5.45475 4.89307 5.20068 5.14714 4.87939 5.33398C4.55811 5.52083 4.20833 5.61426 3.83008 5.61426C3.45182 5.61426 3.10205 5.52083 2.78076 5.33398C2.45947 5.14714 2.2054 4.89307 2.01855 4.57178C1.83171 4.25049 1.73828 3.90072 1.73828 3.52246C1.73828 3.14421 1.83171 2.79443 2.01855 2.47314C2.2054 2.15186 2.45947 1.89779 2.78076 1.71094ZM4.73926 1.36914C4.44987 1.24609 4.14681 1.18457 3.83008 1.18457C3.51335 1.18457 3.21029 1.24609 2.9209 1.36914C2.63151 1.49219 2.382 1.65739 2.17236 1.86475C1.96501 2.07438 1.7998 2.32389 1.67676 2.61328C1.55371 2.90267 1.49219 3.20573 1.49219 3.52246C1.49219 3.83919 1.55371 4.14225 1.67676 4.43164C1.7998 4.72103 1.96501 4.9694 2.17236 5.17676C2.382 5.38639 2.63151 5.55273 2.9209 5.67578C3.21029 5.79883 3.51335 5.86035 3.83008 5.86035C4.14681 5.86035 4.44987 5.79883 4.73926 5.67578C5.02865 5.55273 5.27702 5.38639 5.48437 5.17676C5.69401 4.9694 5.86035 4.72103 5.9834 4.43164C6.10645 4.14225 6.16797 3.83919 6.16797 3.52246C6.16797 3.20573 6.10645 2.90267 5.9834 2.61328C5.86035 2.32389 5.69401 2.07438 5.48437 1.86475C5.27702 1.65739 5.02865 1.49219 4.73926 1.36914ZM2.53467 1.28369C2.93115 1.05355 3.36296 0.938476 3.83008 0.938476C4.2972 0.938476 4.729 1.05355 5.12549 1.28369C5.52197 1.51611 5.83529 1.83057 6.06543 2.22705C6.29785 2.62354 6.41406 3.05534 6.41406 3.52246C6.41406 3.98958 6.29785 4.42139 6.06543 4.81787C5.83529 5.21436 5.52197 5.52767 5.12549 5.75781C4.729 5.99023 4.2972 6.10645 3.83008 6.10645C3.36296 6.10645 2.93115 5.99023 2.53467 5.75781C2.13818 5.52767 1.82373 5.21436 1.59131 4.81787C1.36117 4.42139 1.24609 3.98958 1.24609 3.52246C1.24609 3.05534 1.36117 2.62353 1.59131 2.22705C1.82373 1.83057 2.13818 1.51611 2.53467 1.28369ZM4.92725 0.914551C4.57861 0.766439 4.21289 0.692383 3.83008 0.692383C3.44727 0.692383 3.0804 0.766439 2.72949 0.914551C2.38086 1.06494 2.08008 1.2666 1.82715 1.51953C1.57422 1.77246 1.37256 2.07324 1.22217 2.42187C1.07406 2.77279 1 3.13965 1 3.52246C1 3.90527 1.07406 4.271 1.22217 4.61963C1.37256 4.97054 1.57422 5.27246 1.82715 5.52539C2.08008 5.77832 2.38086 5.97884 2.72949 6.12695C3.0804 6.27734 3.44727 6.35254 3.83008 6.35254C4.21289 6.35254 4.57861 6.27734 4.92725 6.12695C5.27816 5.97884 5.58008 5.77832 5.83301 5.52539C6.08594 5.27246 6.28646 4.97054 6.43457 4.61963C6.58496 4.271 6.66016 3.90527 6.66016 3.52246C6.66016 3.13965 6.58496 2.77279 6.43457 2.42187C6.28646 2.07324 6.08594 1.77246 5.83301 1.51953C5.58008 1.2666 5.27816 1.06494 4.92725 0.914551ZM2.63379 0.688965C3.01432 0.527181 3.41309 0.446289 3.83008 0.446289C4.24707 0.446289 4.64469 0.527181 5.02295 0.688965C5.40348 0.853027 5.73047 1.07178 6.00391 1.34521C6.27962 1.62093 6.49837 1.94792 6.66016 2.32617C6.82422 2.70671 6.90625 3.10547 6.90625 3.52246C6.90625 3.93945 6.82422 4.33708 6.66016 4.71533C6.49837 5.09587 6.27962 5.42285 6.00391 5.69629C5.73047 5.97201 5.40348 6.19076 5.02295 6.35254C4.64469 6.5166 4.24707 6.59863 3.83008 6.59863C3.41309 6.59863 3.01432 6.5166 2.63379 6.35254C2.25553 6.19075 1.92855 5.972 1.65283 5.69629C1.37939 5.42285 1.16178 5.09587 1 4.71533C0.835937 4.33708 0.753906 3.93945 0.753906 3.52246C0.753906 3.10547 0.835937 2.70671 1 2.32617C1.16178 1.94792 1.37939 1.62093 1.65283 1.34521C1.92855 1.07178 2.25553 0.853027 2.63379 0.688965ZM3.67969 9.02197L3.67969 10.4507C3.67969 10.6854 3.7583 10.8836 3.91553 11.0454C4.07503 11.2095 4.29948 11.2915 4.58887 11.2915C4.80534 11.2915 4.99902 11.2061 5.16992 11.0352C5.3431 10.8643 5.42969 10.6694 5.42969 10.4507L5.42969 8.33838L1 8.33838L1 8.09228L5.67578 8.09229L5.67578 10.4507C5.67578 10.7378 5.56527 10.9907 5.34424 11.2095C5.12321 11.4282 4.87142 11.5376 4.58887 11.5376C4.24023 11.5376 3.95996 11.4316 3.74805 11.2197C3.53841 11.0078 3.43359 10.7515 3.43359 10.4507L3.43359 9.02197L3.67969 9.02197ZM3.1875 9.02197L3.1875 10.4507C3.1875 10.6877 3.24447 10.9064 3.3584 11.1069C3.47461 11.3097 3.64095 11.4727 3.85742 11.5957C4.07389 11.721 4.31771 11.7837 4.58887 11.7837C4.93978 11.7837 5.24967 11.6493 5.51855 11.3804C5.78743 11.1138 5.92187 10.8039 5.92187 10.4507L5.92187 7.84619L1 7.84619L1 7.6001L6.16797 7.6001L6.16797 10.4507C6.16797 10.7264 6.09505 10.9862 5.94922 11.23C5.80338 11.4738 5.60856 11.6675 5.36475 11.811C5.12093 11.9569 4.8623 12.0298 4.58887 12.0298C4.27897 12.0298 3.99642 11.9569 3.74121 11.811C3.48828 11.6652 3.29118 11.4715 3.1499 11.23C3.0109 10.9907 2.94141 10.731 2.94141 10.4507L2.94141 9.02197L3.1875 9.02197ZM2.69531 9.02197L2.69531 10.4507C2.69531 10.6945 2.74316 10.9281 2.83887 11.1514C2.93685 11.3747 3.06787 11.5684 3.23193 11.7324C3.39827 11.8988 3.5988 12.0309 3.8335 12.1289C4.07047 12.2269 4.32227 12.2759 4.58887 12.2759C4.90788 12.2759 5.20752 12.1927 5.48779 12.0264C5.77034 11.86 5.99479 11.6356 6.16113 11.353C6.32975 11.0728 6.41406 10.772 6.41406 10.4507L6.41406 7.354L1 7.354L1 7.10791L6.66016 7.10791L6.66016 10.4507C6.66016 10.8153 6.56445 11.1571 6.37305 11.4761C6.18392 11.7951 5.92985 12.0492 5.61084 12.2383C5.29183 12.4274 4.95117 12.522 4.58887 12.522C4.2653 12.522 3.9668 12.4661 3.69336 12.3545C3.4222 12.2428 3.19661 12.0924 3.0166 11.9033C2.83659 11.7142 2.69645 11.4943 2.59619 11.2437C2.49821 10.993 2.44922 10.7287 2.44922 10.4507L2.44922 9.02197L2.69531 9.02197ZM1 8.83057L1 8.58447L5.18359 8.58447L5.18359 10.4507C5.18359 10.6125 5.12435 10.7515 5.00586 10.8677C4.88737 10.9862 4.74837 11.0454 4.58887 11.0454C4.14681 11.0454 3.92578 10.8472 3.92578 10.4507L3.92578 9.02197L4.17187 9.02197L4.17187 10.4507C4.17187 10.5601 4.20264 10.6455 4.26416 10.707C4.32568 10.7686 4.43392 10.7993 4.58887 10.7993C4.68913 10.7993 4.7723 10.7651 4.83838 10.6968C4.90446 10.6307 4.9375 10.5487 4.9375 10.4507L4.9375 8.83057L1 8.83057ZM0.999999 14.2925L0.999999 14.0464L6.66016 14.0464L6.66016 14.2925L0.999999 14.2925ZM0.999999 13.8003L0.999999 13.5542L6.66016 13.5542L6.66016 13.8003L0.999999 13.8003ZM0.999999 13.3081L0.999999 13.062L6.66016 13.062L6.66016 13.3081L0.999999 13.3081ZM2.23047 14.7847L2.23047 17.4028L1.98437 17.4028L1.98437 14.7847L1.73828 14.7847L1.73828 17.4028L1.49219 17.4028L1.49219 14.7847L1.24609 14.7847L1.24609 17.4028L0.999999 17.4028L0.999999 14.5386L6.66016 14.5386L6.66016 17.4028L6.41406 17.4028L6.41406 14.7847L6.16797 14.7847L6.16797 17.4028L5.92187 17.4028L5.92187 14.7847L5.67578 14.7847L5.67578 17.4028L5.42969 17.4028L5.42969 14.7847L4.44531 14.7847L4.44531 16.1279L4.19922 16.1279L4.19922 14.7847L3.95312 14.7847L3.95312 16.1279L3.70703 16.1279L3.70703 14.7847L3.46094 14.7847L3.46094 16.1279L3.21484 16.1279L3.21484 14.7847L2.23047 14.7847ZM3.72412 22.0308L4.13086 21.7847L6.66016 21.7847L6.66016 22.0308L3.72412 22.0308ZM2.91748 22.5229L3.33105 22.2769L6.66016 22.2769L6.66016 22.5229L2.91748 22.5229ZM2.10058 23.0151L2.51758 22.769L6.66016 22.769L6.66016 23.0151L2.10058 23.0151ZM3.93603 19.4878L3.5293 19.7339L0.999999 19.7339L0.999999 19.4878L3.93603 19.4878ZM4.74267 18.9956L4.3291 19.2417L0.999999 19.2417L0.999999 18.9956L4.74267 18.9956ZM5.55957 18.5034L5.14258 18.7495L0.999999 18.7495L0.999999 18.5034L5.55957 18.5034ZM6.66016 18.5889L6.66016 18.876L0.999999 22.3555L0.999999 22.0684L6.66016 18.5889ZM6.66016 19.1699L6.66016 19.4604L0.999999 22.9365L0.999999 22.6426L6.66016 19.1699ZM6.66016 19.7476L6.66016 20.0347L1.3999 23.2612L6.66016 23.2612L6.66016 23.5073L0.999999 23.5073C0.999999 23.5073 0.999999 23.4105 0.999999 23.2168L6.66016 19.7476ZM6.26025 18.2573L0.999999 18.2573L0.999999 18.0112L6.66016 18.0112C6.66016 18.0112 6.66016 18.1092 6.66016 18.3052L0.999999 21.7744L0.999999 21.4907L6.26025 18.2573ZM2.73974 25.7769L2.25439 25.6606L6.66016 24.4917L6.66016 24.7446L2.73974 25.7769ZM3.68652 26.0332L3.21484 25.9067L6.66016 25.001L6.66016 25.2505L3.68652 26.0332ZM4.66748 26.2896L4.18896 26.1597L6.66016 25.5068L6.66016 25.7632L4.66748 26.2896ZM0.999999 27.2637L0.999999 27.0073L6.65332 28.5044L6.66016 28.501L6.66015 28.7607L6.65332 28.7607L4.35644 29.4272L6.66015 30.0391L6.66015 30.2954L0.999999 28.7949L0.999999 28.5386L3.29346 27.8687L0.999999 27.2637ZM0.999999 26.751L0.999999 26.498L6.66016 27.9951L6.66016 28.248L0.999999 26.751ZM0.999999 26.2417L0.999999 25.9888L6.66016 27.4893L6.66016 27.7388L0.999999 26.2417ZM0.999999 30.3262L0.999999 30.0698L6.66015 31.5669L6.66015 31.8232L0.999999 30.3262ZM0.999999 29.8135L0.999999 29.5605L6.66015 31.0576L6.66015 31.3105L0.999999 29.8135ZM0.999999 29.3042L0.999999 29.0513L6.66015 30.5518L6.66015 30.8013L0.999999 29.3042ZM1.48535 25.606L6.66016 26.9766L6.66016 27.2329L0.999999 25.7324L0.999999 25.4761L6.66016 23.979L6.66016 24.2354L1.48535 25.606ZM3.77539 27.9985L1.46484 28.6616L1.95361 28.7915L4.25732 28.125L3.77539 27.9985ZM4.73926 28.2515L2.43555 28.918L2.91748 29.0479L5.22461 28.3813L4.73926 28.2515ZM5.69629 28.5044L3.39258 29.1743L3.87793 29.3008L6.18848 28.6377L5.69629 28.5044ZM2.66113 34.4619L2.90723 34.561L2.90723 35.4019L2.66113 35.501L2.66113 34.4619ZM2.16894 34.2705L2.41504 34.3662L2.41504 35.5933L2.16894 35.6992L2.16894 34.2705ZM1.67676 34.0791L1.92285 34.1748L1.92285 35.7881L1.67676 35.8906L1.67676 34.0791ZM0.999999 32.0796L0.999999 31.813L6.66015 34.0518L6.66015 34.3184L0.999998 36.5537L0.999998 36.2905L6.32861 34.1851L0.999999 32.0796ZM5.74414 34.2158L5.42969 34.356L0.999999 32.606L0.999999 32.3428L5.74414 34.2158ZM5.09473 34.4893L4.75635 34.6191L0.999999 33.1392L0.999999 32.8726L5.09473 34.4893ZM4.41797 34.749L4.07275 34.8789L0.999999 33.6655L0.999999 33.4023L4.41797 34.749ZM0.999998 38.1431L0.999998 37.8765L6.66015 35.6411L6.66015 35.9043L0.999998 38.1431ZM6.66015 35.3745L0.999998 37.6133L0.999998 37.3501L6.66015 35.1113L6.66015 35.3745ZM6.66015 34.8447L0.999998 37.0835L0.999998 36.8169L6.66015 34.5815L6.66015 34.8447ZM3.8164 40.4331L3.8164 41.9165C3.8164 42.1421 3.88932 42.3324 4.03515 42.4873C4.18099 42.6445 4.38834 42.7231 4.65722 42.7231C4.85547 42.7231 5.0332 42.6411 5.19043 42.4771C5.34993 42.313 5.42969 42.1261 5.42969 41.9165L5.42969 39.8042L0.999998 39.8042L0.999998 39.5581L5.67578 39.5581L5.67578 41.9165C5.67578 42.1945 5.5721 42.4395 5.36474 42.6514C5.15967 42.8633 4.92383 42.9692 4.65722 42.9692C4.3291 42.9692 4.06592 42.8667 3.86767 42.6616C3.66943 42.4565 3.57031 42.2082 3.57031 41.9165L3.57031 40.4331L3.8164 40.4331ZM3.32422 40.4331L3.32422 41.9165C3.32422 42.272 3.4484 42.5773 3.69678 42.8325C3.94743 43.0877 4.26758 43.2153 4.65722 43.2153C4.99219 43.2153 5.28613 43.0843 5.53906 42.8223C5.79427 42.5625 5.92187 42.2606 5.92187 41.9165L5.92187 39.312L0.999998 39.312L0.999998 39.0659L6.16797 39.0659L6.16797 41.9165C6.16797 42.1877 6.09847 42.4417 5.95947 42.6787C5.82047 42.918 5.63362 43.1082 5.39892 43.2495C5.1665 43.3908 4.91927 43.4614 4.65722 43.4614C4.20833 43.4614 3.83235 43.3088 3.52929 43.0034C3.22851 42.7004 3.07812 42.3381 3.07812 41.9165L3.07812 40.4331L3.32422 40.4331ZM2.83203 40.4331L2.83203 41.9165C2.83203 42.2355 2.91064 42.5317 3.06787 42.8052C3.2251 43.0786 3.44385 43.2974 3.72412 43.4614C4.00667 43.6255 4.31771 43.7075 4.65722 43.7075C4.96484 43.7075 5.25309 43.6255 5.52197 43.4614C5.79313 43.2996 6.0096 43.0809 6.17138 42.8052C6.33317 42.5295 6.41406 42.2332 6.41406 41.9165L6.41406 38.8198L0.999998 38.8198L0.999998 38.5737L6.66015 38.5737L6.66015 41.9165C6.66015 42.2743 6.56787 42.6104 6.3833 42.9248C6.20101 43.2393 5.95491 43.4888 5.64502 43.6733C5.3374 43.8602 5.00814 43.9536 4.65722 43.9536C4.25163 43.9536 3.89502 43.8659 3.5874 43.6904C3.27978 43.5173 3.03939 43.2814 2.86621 42.9829L0.999998 43.6187L0.999998 43.3589L2.75 42.7505C2.71354 42.6593 2.68847 42.5898 2.6748 42.542L0.999998 43.1128L0.999998 42.853L2.6167 42.2959C2.61214 42.2754 2.60416 42.2025 2.59277 42.0771L0.999998 42.6069L0.999998 42.3472L2.58594 41.8242L2.58594 41.6021L0.999998 42.1011L0.999998 41.8413L2.58594 41.3389L2.58594 40.4331L2.83203 40.4331ZM0.999998 40.2964L0.999998 40.0503L5.18359 40.0503L5.18359 41.9165C5.18359 42.0692 5.13118 42.2002 5.02637 42.3096C4.92383 42.4212 4.80078 42.4771 4.65722 42.4771C4.26074 42.4771 4.0625 42.2902 4.0625 41.9165L4.0625 40.4331L4.30859 40.4331L4.30859 41.9165C4.30859 42.0145 4.33366 42.0908 4.38379 42.1455C4.4362 42.2025 4.52734 42.231 4.65722 42.231C4.73698 42.231 4.80306 42.2002 4.85547 42.1387C4.91015 42.0794 4.9375 42.0054 4.9375 41.9165L4.9375 40.2964L0.999998 40.2964ZM2.47656 45.9565L5.18359 45.9565C5.18359 45.9565 5.18359 46.516 5.18359 47.6348C5.18359 47.9059 5.05029 48.1383 4.78369 48.332C4.51937 48.528 4.2015 48.626 3.83008 48.626C3.45638 48.626 3.13737 48.528 2.87304 48.332C2.60872 48.1383 2.47656 47.9059 2.47656 47.6348L2.47656 45.9565ZM2.72265 46.2026L2.72265 47.6348C2.72265 47.8376 2.83089 48.0107 3.04736 48.1543C3.26383 48.3001 3.52474 48.373 3.83008 48.373C4.13769 48.373 4.3986 48.3001 4.61279 48.1543C4.82926 48.0107 4.9375 47.8376 4.9375 47.6348L4.9375 46.2026L2.72265 46.2026ZM2.23047 45.7104L2.23047 47.6348C2.23047 47.9743 2.38655 48.266 2.69873 48.5098C3.01318 48.7559 3.3903 48.8789 3.83008 48.8789C4.11946 48.8789 4.3872 48.8219 4.6333 48.708C4.87939 48.5964 5.07308 48.4448 5.21435 48.2534C5.35791 48.0643 5.42969 47.8581 5.42969 47.6348L5.42969 45.7104L2.23047 45.7104ZM1.98437 45.4644L5.67578 45.4644L5.67578 47.6348C5.67578 47.9014 5.59375 48.1497 5.42969 48.3799C5.26562 48.61 5.04118 48.7923 4.75635 48.9268C4.47379 49.0635 4.16504 49.1318 3.83008 49.1318C3.49739 49.1318 3.18864 49.0635 2.90381 48.9268C2.61898 48.7923 2.39453 48.61 2.23047 48.3799C2.0664 48.1497 1.98437 47.9014 1.98437 47.6348L1.98437 45.4644ZM1.73828 45.2183L1.73828 47.6348C1.73828 47.9469 1.8317 48.2363 2.01855 48.5029C2.2054 48.7718 2.45947 48.986 2.78076 49.1455C3.10205 49.305 3.45182 49.3848 3.83008 49.3848C4.20605 49.3848 4.55469 49.305 4.87597 49.1455C5.19954 48.986 5.45475 48.7718 5.6416 48.5029C5.82845 48.234 5.92187 47.9447 5.92187 47.6348L5.92187 45.2183L1.73828 45.2183ZM1.49219 44.9722L6.16797 44.9722L6.16797 47.6348C6.16797 47.9902 6.06315 48.3218 5.85351 48.6294C5.64616 48.937 5.36247 49.182 5.00244 49.3643C4.64241 49.5465 4.25163 49.6377 3.83008 49.6377C3.40853 49.6377 3.01774 49.5465 2.65771 49.3643C2.29769 49.182 2.01286 48.937 1.80322 48.6294C1.59586 48.3218 1.49219 47.9902 1.49219 47.6348L1.49219 44.9722ZM1.24609 44.7261L1.24609 47.6348C1.24609 47.9333 1.31445 48.2215 1.45117 48.4995C1.58789 48.7775 1.77132 49.0179 2.00146 49.2207C2.23161 49.4235 2.50618 49.5853 2.82519 49.7061C3.14648 49.8291 3.48144 49.8906 3.83008 49.8906C4.17871 49.8906 4.51253 49.8291 4.83154 49.7061C5.15055 49.5853 5.42513 49.4235 5.65527 49.2207C5.88769 49.0179 6.07226 48.7775 6.20898 48.4995C6.3457 48.2215 6.41406 47.9333 6.41406 47.6348L6.41406 44.7261L1.24609 44.7261ZM0.999998 47.6348L0.999998 44.48L6.66015 44.48L6.66015 47.6348C6.66015 48.0791 6.53369 48.4938 6.28076 48.8789C6.02783 49.264 5.68375 49.5705 5.24853 49.7983C4.81331 50.0285 4.34049 50.1436 3.83008 50.1436C3.44726 50.1436 3.0804 50.0752 2.72949 49.9385C2.38086 49.804 2.08008 49.624 1.82715 49.3984C1.57422 49.1729 1.37256 48.9051 1.22217 48.5952C1.07405 48.2876 0.999998 47.9674 0.999998 47.6348ZM3.8164 52.5464L3.8164 54.0298C3.8164 54.2554 3.88932 54.4456 4.03515 54.6006C4.18099 54.7578 4.38834 54.8364 4.65722 54.8364C4.85547 54.8364 5.0332 54.7544 5.19043 54.5903C5.34993 54.4263 5.42969 54.2394 5.42969 54.0298L5.42969 51.9175L0.999998 51.9175L0.999998 51.6714L5.67578 51.6714L5.67578 54.0298C5.67578 54.3078 5.5721 54.5527 5.36474 54.7646C5.15967 54.9766 4.92383 55.0825 4.65722 55.0825C4.3291 55.0825 4.06592 54.98 3.86767 54.7749C3.66943 54.5698 3.57031 54.3215 3.57031 54.0298L3.57031 52.5464L3.8164 52.5464ZM3.32422 52.5464L3.32422 54.0298C3.32422 54.3853 3.4484 54.6906 3.69677 54.9458C3.94743 55.201 4.26758 55.3286 4.65722 55.3286C4.99219 55.3286 5.28613 55.1976 5.53906 54.9355C5.79427 54.6758 5.92187 54.3739 5.92187 54.0298L5.92187 51.4253L0.999998 51.4253L0.999998 51.1792L6.16797 51.1792L6.16797 54.0298C6.16797 54.3009 6.09847 54.555 5.95947 54.792C5.82047 55.0312 5.63362 55.2215 5.39892 55.3628C5.1665 55.5041 4.91927 55.5747 4.65722 55.5747C4.20833 55.5747 3.83235 55.422 3.52929 55.1167C3.22851 54.8136 3.07812 54.4513 3.07812 54.0298L3.07812 52.5464L3.32422 52.5464ZM2.83203 52.5464L2.83203 54.0298C2.83203 54.3488 2.91064 54.645 3.06787 54.9185C3.2251 55.1919 3.44385 55.4106 3.72412 55.5747C4.00667 55.7388 4.31771 55.8208 4.65722 55.8208C4.96484 55.8208 5.25309 55.7388 5.52197 55.5747C5.79313 55.4129 6.0096 55.1942 6.17138 54.9185C6.33317 54.6427 6.41406 54.3465 6.41406 54.0298L6.41406 50.9331L0.999998 50.9331L0.999998 50.687L6.66015 50.687L6.66015 54.0298C6.66015 54.3875 6.56787 54.7236 6.3833 55.0381C6.20101 55.3525 5.95491 55.6021 5.64502 55.7866C5.3374 55.9735 5.00814 56.0669 4.65722 56.0669C4.25163 56.0669 3.89502 55.9792 3.5874 55.8037C3.27978 55.6305 3.03939 55.3947 2.86621 55.0962L0.999998 55.7319L0.999998 55.4722L2.75 54.8638C2.71354 54.7726 2.68847 54.7031 2.6748 54.6553L0.999998 55.2261L0.999998 54.9663L2.6167 54.4092C2.61214 54.3887 2.60416 54.3158 2.59277 54.1904L0.999998 54.7202L0.999998 54.4604L2.58594 53.9375L2.58594 53.7153L0.999998 54.2144L0.999998 53.9546L2.58594 53.4521L2.58594 52.5464L2.83203 52.5464ZM0.999998 52.4097L0.999998 52.1636L5.18359 52.1636L5.18359 54.0298C5.18359 54.1825 5.13118 54.3135 5.02636 54.4229C4.92383 54.5345 4.80078 54.5903 4.65722 54.5903C4.26074 54.5903 4.0625 54.4035 4.0625 54.0298L4.0625 52.5464L4.30859 52.5464L4.30859 54.0298C4.30859 54.1278 4.33366 54.2041 4.38379 54.2588C4.4362 54.3158 4.52734 54.3442 4.65722 54.3442C4.73698 54.3442 4.80306 54.3135 4.85547 54.252C4.91015 54.1927 4.9375 54.1187 4.9375 54.0298L4.9375 52.4097L0.999998 52.4097ZM4.78711 57.8203C4.52278 57.556 4.20377 57.4238 3.83008 57.4238C3.45638 57.4238 3.13737 57.556 2.87304 57.8203C2.60872 58.0846 2.47656 58.4036 2.47656 58.7773C2.47656 59.151 2.60872 59.4701 2.87304 59.7344C3.13737 59.9987 3.45638 60.1309 3.83008 60.1309C4.20377 60.1309 4.52278 59.9987 4.78711 59.7344C5.05143 59.4701 5.18359 59.151 5.18359 58.7773C5.18359 58.4036 5.05143 58.0846 4.78711 57.8203ZM3.20801 57.3042C3.40625 57.2199 3.6136 57.1777 3.83008 57.1777C4.04655 57.1777 4.25276 57.2199 4.44873 57.3042C4.64697 57.3885 4.81787 57.5024 4.96142 57.646C5.10498 57.7896 5.21891 57.9593 5.30322 58.1553C5.38753 58.3535 5.42968 58.5609 5.42968 58.7773C5.42968 58.9938 5.38753 59.2 5.30322 59.396C5.21891 59.5942 5.10498 59.7651 4.96142 59.9087C4.81787 60.0522 4.64697 60.1662 4.44873 60.2505C4.25276 60.3348 4.04655 60.377 3.83008 60.377C3.6136 60.377 3.40625 60.3348 3.20801 60.2505C3.01204 60.1662 2.84228 60.0522 2.69873 59.9087C2.55517 59.7651 2.44124 59.5942 2.35693 59.396C2.27262 59.2 2.23047 58.9938 2.23047 58.7773C2.23047 58.5609 2.27262 58.3535 2.35693 58.1553C2.44124 57.9593 2.55517 57.7896 2.69873 57.646C2.84228 57.5024 3.01204 57.3885 3.20801 57.3042ZM4.75635 57.1777C4.47379 57.0137 4.16504 56.9316 3.83008 56.9316C3.49511 56.9316 3.18636 57.0137 2.90381 57.1777C2.62125 57.3441 2.39681 57.5685 2.23047 57.8511C2.0664 58.1336 1.98437 58.4424 1.98437 58.7773C1.98437 59.1123 2.0664 59.4211 2.23047 59.7036C2.39681 59.9862 2.62125 60.2095 2.90381 60.3735C3.18636 60.5399 3.49511 60.623 3.83008 60.623C4.16504 60.623 4.47379 60.5399 4.75635 60.3735C5.0389 60.2095 5.2622 59.9862 5.42627 59.7036C5.59261 59.4211 5.67578 59.1123 5.67578 58.7773C5.67578 58.4424 5.59261 58.1336 5.42627 57.8511C5.2622 57.5685 5.0389 57.3441 4.75635 57.1777ZM2.78076 56.9658C3.10205 56.779 3.45182 56.6855 3.83008 56.6855C4.20833 56.6855 4.5581 56.779 4.87939 56.9658C5.20068 57.1527 5.45475 57.4067 5.6416 57.728C5.82845 58.0493 5.92187 58.3991 5.92187 58.7773C5.92187 59.1556 5.82845 59.5054 5.6416 59.8267C5.45475 60.1479 5.20068 60.402 4.87939 60.5889C4.5581 60.7757 4.20833 60.8691 3.83008 60.8691C3.45182 60.8691 3.10205 60.7757 2.78076 60.5889C2.45947 60.402 2.2054 60.1479 2.01855 59.8267C1.8317 59.5054 1.73828 59.1556 1.73828 58.7773C1.73828 58.3991 1.8317 58.0493 2.01855 57.728C2.2054 57.4067 2.45947 57.1527 2.78076 56.9658ZM4.73926 56.624C4.44987 56.501 4.14681 56.4395 3.83008 56.4395C3.51334 56.4395 3.21028 56.501 2.9209 56.624C2.63151 56.7471 2.382 56.9123 2.17236 57.1196C1.965 57.3293 1.7998 57.5788 1.67676 57.8682C1.55371 58.1576 1.49218 58.4606 1.49218 58.7773C1.49218 59.0941 1.55371 59.3971 1.67676 59.6865C1.7998 59.9759 1.965 60.2243 2.17236 60.4316C2.382 60.6413 2.63151 60.8076 2.9209 60.9307C3.21028 61.0537 3.51334 61.1152 3.83008 61.1152C4.14681 61.1152 4.44987 61.0537 4.73926 60.9307C5.02864 60.8076 5.27702 60.6413 5.48437 60.4316C5.69401 60.2243 5.86035 59.9759 5.9834 59.6865C6.10644 59.3971 6.16797 59.0941 6.16797 58.7773C6.16797 58.4606 6.10644 58.1576 5.9834 57.8682C5.86035 57.5788 5.69401 57.3293 5.48437 57.1196C5.27702 56.9123 5.02864 56.7471 4.73926 56.624ZM2.53467 56.5386C2.93115 56.3084 3.36295 56.1934 3.83008 56.1934C4.2972 56.1934 4.729 56.3084 5.12549 56.5386C5.52197 56.771 5.83528 57.0854 6.06543 57.4819C6.29785 57.8784 6.41406 58.3102 6.41406 58.7773C6.41406 59.2445 6.29785 59.6763 6.06543 60.0728C5.83528 60.4692 5.52197 60.7826 5.12549 61.0127C4.729 61.2451 4.2972 61.3613 3.83008 61.3613C3.36295 61.3613 2.93115 61.2451 2.53467 61.0127C2.13818 60.7826 1.82373 60.4692 1.59131 60.0728C1.36116 59.6763 1.24609 59.2445 1.24609 58.7773C1.24609 58.3102 1.36116 57.8784 1.59131 57.4819C1.82373 57.0854 2.13818 56.771 2.53467 56.5386ZM4.92724 56.1694C4.57861 56.0213 4.21289 55.9473 3.83008 55.9473C3.44726 55.9473 3.0804 56.0213 2.72949 56.1694C2.38086 56.3198 2.08008 56.5215 1.82715 56.7744C1.57422 57.0273 1.37256 57.3281 1.22217 57.6768C1.07405 58.0277 0.999997 58.3945 0.999997 58.7773C0.999997 59.1602 1.07405 59.5259 1.22217 59.8745C1.37256 60.2254 1.57422 60.5273 1.82715 60.7803C2.08008 61.0332 2.38086 61.2337 2.72949 61.3818C3.0804 61.5322 3.44726 61.6074 3.83008 61.6074C4.21289 61.6074 4.57861 61.5322 4.92724 61.3818C5.27815 61.2337 5.58008 61.0332 5.83301 60.7803C6.08593 60.5273 6.28646 60.2254 6.43457 59.8745C6.58496 59.5259 6.66015 59.1602 6.66015 58.7773C6.66015 58.3945 6.58496 58.0277 6.43457 57.6768C6.28646 57.3281 6.08594 57.0273 5.83301 56.7744C5.58008 56.5215 5.27816 56.3198 4.92724 56.1694ZM2.63379 55.9438C3.01432 55.7821 3.41308 55.7012 3.83008 55.7012C4.24707 55.7012 4.64469 55.7821 5.02295 55.9438C5.40348 56.1079 5.73047 56.3267 6.0039 56.6001C6.27962 56.8758 6.49837 57.2028 6.66015 57.5811C6.82422 57.9616 6.90625 58.3604 6.90625 58.7773C6.90625 59.1943 6.82422 59.592 6.66015 59.9702C6.49837 60.3507 6.27962 60.6777 6.0039 60.9512C5.73047 61.2269 5.40348 61.4456 5.02295 61.6074C4.64469 61.7715 4.24707 61.8535 3.83008 61.8535C3.41308 61.8535 3.01432 61.7715 2.63379 61.6074C2.25553 61.4456 1.92855 61.2269 1.65283 60.9512C1.37939 60.6777 1.16178 60.3507 0.999997 59.9702C0.835935 59.592 0.753904 59.1943 0.753904 58.7773C0.753904 58.3604 0.835935 57.9616 0.999997 57.5811C1.16178 57.2028 1.37939 56.8758 1.65283 56.6001C1.92855 56.3267 2.25553 56.1079 2.63379 55.9438ZM2.97217 66.1226C3.06103 66.1226 3.12028 66.0952 3.1499 66.0405C3.17952 65.9881 3.19433 65.9106 3.19433 65.8081L3.19433 64.2222L3.44043 64.2222L3.44043 65.8081C3.44043 66.1818 3.28434 66.3687 2.97217 66.3687C2.79671 66.3687 2.67024 66.3174 2.59277 66.2148C2.5153 66.1123 2.47656 65.9767 2.47656 65.8081L2.47656 64.2222L2.72265 64.2222L2.72265 65.8081C2.72265 66.0177 2.80582 66.1226 2.97217 66.1226ZM0.999997 64.0854L0.999997 63.8394L5.18359 63.8394L5.18359 65.8081C5.18359 65.9631 5.13574 66.0952 5.04004 66.2046C4.94661 66.314 4.82926 66.3687 4.68799 66.3687C4.50114 66.3687 4.36556 66.3174 4.28125 66.2148C4.19922 66.1123 4.1582 65.9767 4.1582 65.8081L4.1582 64.2222L4.40429 64.2222L4.40429 65.8081C4.40429 66.0177 4.49886 66.1226 4.68799 66.1226C4.76546 66.1226 4.82584 66.0929 4.86914 66.0337C4.91471 65.9744 4.9375 65.8993 4.9375 65.8081L4.9375 64.0854L0.999997 64.0854ZM3.91211 64.2222L3.91211 65.8081C3.91211 66.0337 3.97933 66.224 4.11377 66.3789C4.25049 66.5361 4.44189 66.6147 4.68799 66.6147C4.88623 66.6147 5.0594 66.5327 5.20752 66.3687C5.35563 66.2069 5.42968 66.02 5.42968 65.8081L5.42968 63.5933L0.999997 63.5933L0.999997 63.3472L5.67578 63.3472L5.67578 65.8081C5.67578 66.0884 5.57666 66.3333 5.37842 66.543C5.18245 66.7549 4.95231 66.8608 4.68799 66.8608C4.48063 66.8608 4.29948 66.8118 4.14453 66.7139C3.98958 66.6182 3.86995 66.4883 3.78564 66.3242C3.65804 66.682 3.39827 66.8608 3.00634 66.8608C2.69645 66.8608 2.44808 66.7583 2.26123 66.5532C2.07666 66.3481 1.98437 66.0998 1.98437 65.8081L1.98437 64.2222L2.23047 64.2222L2.23047 65.8081C2.23047 66.0337 2.29769 66.224 2.43213 66.3789C2.56884 66.5361 2.76025 66.6147 3.00634 66.6147C3.17269 66.6147 3.31966 66.5555 3.44726 66.437C3.57487 66.3185 3.64892 66.1442 3.66943 65.9141C3.66715 65.8913 3.66601 65.856 3.66601 65.8081L3.66601 64.2222L3.91211 64.2222ZM4.68799 67.353C4.36897 67.353 4.08073 67.2402 3.82324 67.0146C3.57259 67.2402 3.30029 67.353 3.00634 67.353C2.72151 67.353 2.46175 67.2812 2.22705 67.1377C1.99463 66.9964 1.81347 66.8073 1.68359 66.5703C1.55599 66.3356 1.49218 66.0815 1.49218 65.8081L1.49218 64.2222L1.73828 64.2222L1.73828 65.8081C1.73828 66.1636 1.85677 66.4689 2.09375 66.7241C2.333 66.9793 2.6372 67.1069 3.00634 67.1069C3.13851 67.1069 3.28434 67.0728 3.44384 67.0044C3.60563 66.9383 3.72868 66.846 3.81299 66.7275C4.04996 66.9805 4.34163 67.1069 4.68799 67.1069C5.02067 67.1069 5.30892 66.9771 5.55273 66.7173C5.79883 66.4575 5.92187 66.1545 5.92187 65.8081L5.92187 63.1011L0.999997 63.1011L0.999997 62.855L6.16797 62.855L6.16797 65.8081C6.16797 66.0793 6.10075 66.3333 5.96631 66.5703C5.83414 66.8096 5.65299 66.9998 5.42285 67.1411C5.19498 67.2824 4.95003 67.353 4.68799 67.353ZM3.80957 67.2949C4.08073 67.4977 4.37353 67.5991 4.68799 67.5991C4.9956 67.5991 5.28157 67.5171 5.5459 67.353C5.8125 67.1912 6.02327 66.9725 6.17822 66.6968C6.33545 66.4211 6.41406 66.1248 6.41406 65.8081L6.41406 62.6089L0.999997 62.6089L0.999997 62.3628L6.66015 62.3628L6.66015 65.8081C6.66015 66.1681 6.57129 66.5042 6.39355 66.8164C6.21582 67.1309 5.97428 67.3804 5.66894 67.5649C5.36588 67.7518 5.0389 67.8452 4.68799 67.8452C4.35302 67.8452 4.05908 67.7507 3.80615 67.5615C3.54411 67.7507 3.2775 67.8452 3.00634 67.8452C2.70101 67.8452 2.42073 67.7905 2.16552 67.6812C1.91259 67.5718 1.70182 67.4237 1.5332 67.2368C1.36458 67.0522 1.23356 66.8369 1.14013 66.5908C1.04671 66.3447 0.999997 66.0838 0.999997 65.8081L0.999997 64.2222L1.24609 64.2222L1.24609 65.8081C1.24609 66.0474 1.29052 66.2764 1.37939 66.4951C1.47054 66.7139 1.59358 66.9041 1.74853 67.0659C1.90348 67.2277 2.09033 67.3564 2.30908 67.4521C2.52783 67.5501 2.76025 67.5991 3.00634 67.5991C3.11572 67.5991 3.24674 67.5729 3.39941 67.5205C3.55436 67.4704 3.69108 67.3952 3.80957 67.2949ZM0.999997 69.6294L0.999997 69.3833L6.66015 69.3833L6.66015 69.6294L0.999997 69.6294ZM0.999997 69.1372L0.999997 68.8911L6.66015 68.8911L6.66015 69.1372L0.999997 69.1372ZM0.999997 68.645L0.999997 68.3989L6.66015 68.3989L6.66015 68.645L0.999997 68.645ZM2.23047 70.1216L2.23047 72.7397L1.98437 72.7397L1.98437 70.1216L1.73828 70.1216L1.73828 72.7397L1.49218 72.7397L1.49218 70.1216L1.24609 70.1216L1.24609 72.7397L0.999997 72.7397L0.999997 69.8755L6.66015 69.8755L6.66015 72.7397L6.41406 72.7397L6.41406 70.1216L6.16797 70.1216L6.16797 72.7397L5.92187 72.7397L5.92187 70.1216L5.67578 70.1216L5.67578 72.7397L5.42968 72.7397L5.42968 70.1216L4.44531 70.1216L4.44531 71.4648L4.19922 71.4648L4.19922 70.1216L3.95312 70.1216L3.95312 71.4648L3.70703 71.4648L3.70703 70.1216L3.46093 70.1216L3.46093 71.4648L3.21484 71.4648L3.21484 70.1216L2.23047 70.1216ZM3.06445 77.4224L3.52929 77.6685L0.999997 77.6685L0.999997 77.4224L3.06445 77.4224ZM4.00781 77.9146L4.47265 78.1606L0.999997 78.1606L0.999997 77.9146L4.00781 77.9146ZM4.9375 78.4067L5.40576 78.6528L0.999997 78.6528L0.999997 78.4067L4.9375 78.4067ZM3.18066 76.7559L3.43701 76.6157L6.66015 78.311L6.66015 78.5879L3.18066 76.7559ZM3.71728 76.4722L3.97705 76.3286L6.66015 77.7505L6.66015 78.0308L3.71728 76.4722ZM3.50195 74.8247L3.03711 75.0708L0.999997 75.0708L0.999997 74.8247L3.50195 74.8247ZM4.43847 74.3325L3.97363 74.5786L0.999997 74.5786L0.999997 74.3325L4.43847 74.3325ZM5.375 73.8403L4.90674 74.0864L0.999997 74.0864L0.999997 73.8403L5.375 73.8403ZM2.47656 75.8296L2.47656 75.5527L6.19189 73.5942L0.999997 73.5942L0.999997 73.3481L6.66015 73.3481L6.66015 73.625L2.47656 75.8296ZM2.47656 76.3867L2.47656 76.1064L6.66015 73.9053L6.66015 74.1855L2.47656 76.3867ZM6.19189 78.8989L2.47656 76.9404L2.47656 76.6602L6.66015 74.4624L6.66015 74.7393L2.73632 76.8037L6.66015 78.8647L6.66015 79.145L0.999997 79.145L0.999997 78.8989L6.19189 78.8989ZM2.66113 82.2383L2.90722 82.3374L2.90722 83.1782L2.66113 83.2773L2.66113 82.2383ZM2.16894 82.0469L2.41504 82.1426L2.41504 83.3696L2.16894 83.4756L2.16894 82.0469ZM1.67675 81.8555L1.92285 81.9512L1.92285 83.5645L1.67675 83.667L1.67675 81.8555ZM0.999997 79.856L0.999997 79.5894L6.66015 81.8281L6.66015 82.0947L0.999996 84.3301L0.999996 84.0669L6.32861 81.9614L0.999997 79.856ZM5.74414 81.9922L5.42968 82.1323L0.999996 80.3823L0.999996 80.1191L5.74414 81.9922ZM5.09472 82.2656L4.75634 82.3955L0.999996 80.9155L0.999996 80.6489L5.09472 82.2656ZM4.41797 82.5254L4.07275 82.6553L0.999996 81.4419L0.999996 81.1787L4.41797 82.5254ZM0.999996 85.9194L0.999996 85.6528L6.66015 83.4175L6.66015 83.6807L0.999996 85.9194ZM6.66015 83.1509L0.999996 85.3896L0.999996 85.1265L6.66015 82.8877L6.66015 83.1509ZM6.66015 82.6211L0.999996 84.8599L0.999996 84.5933L6.66015 82.3579L6.66015 82.6211ZM3.8164 88.2095L3.8164 89.6929C3.8164 89.9185 3.88932 90.1087 4.03515 90.2637C4.18099 90.4209 4.38834 90.4995 4.65722 90.4995C4.85546 90.4995 5.0332 90.4175 5.19043 90.2534C5.34993 90.0894 5.42968 89.9025 5.42968 89.6929L5.42968 87.5806L0.999996 87.5806L0.999996 87.3345L5.67578 87.3345L5.67578 89.6929C5.67578 89.9709 5.5721 90.2158 5.36474 90.4277C5.15966 90.6396 4.92382 90.7456 4.65722 90.7456C4.3291 90.7456 4.06591 90.6431 3.86767 90.438C3.66943 90.2329 3.57031 89.9845 3.57031 89.6929L3.57031 88.2095L3.8164 88.2095ZM3.32421 88.2095L3.32421 89.6929C3.32421 90.0483 3.4484 90.3537 3.69677 90.6089C3.94742 90.8641 4.26757 90.9917 4.65722 90.9917C4.99218 90.9917 5.28613 90.8607 5.53906 90.5986C5.79427 90.3389 5.92187 90.0369 5.92187 89.6929L5.92187 87.0884L0.999996 87.0884L0.999996 86.8423L6.16796 86.8423L6.16796 89.6929C6.16796 89.964 6.09847 90.2181 5.95947 90.4551C5.82047 90.6943 5.63362 90.8846 5.39892 91.0259C5.1665 91.1672 4.91927 91.2378 4.65722 91.2378C4.20833 91.2378 3.83235 91.0851 3.52929 90.7798C3.22851 90.4767 3.07812 90.1144 3.07812 89.6929L3.07812 88.2095L3.32421 88.2095ZM2.83203 88.2095L2.83203 89.6929C2.83203 90.0119 2.91064 90.3081 3.06787 90.5815C3.22509 90.855 3.44384 91.0737 3.72412 91.2378C4.00667 91.4019 4.3177 91.4839 4.65722 91.4839C4.96484 91.4839 5.25309 91.4019 5.52197 91.2378C5.79313 91.076 6.0096 90.8573 6.17138 90.5815C6.33317 90.3058 6.41406 90.0096 6.41406 89.6929L6.41406 86.5962L0.999996 86.5962L0.999996 86.3501L6.66015 86.3501L6.66015 89.6929C6.66015 90.0506 6.56787 90.3867 6.3833 90.7012C6.20101 91.0156 5.95491 91.2651 5.64502 91.4497C5.3374 91.6366 5.00813 91.73 4.65722 91.73C4.25162 91.73 3.89502 91.6423 3.5874 91.4668C3.27978 91.2936 3.03938 91.0578 2.86621 90.7593L0.999996 91.395L0.999996 91.1353L2.75 90.5269C2.71354 90.4357 2.68847 90.3662 2.6748 90.3184L0.999996 90.8892L0.999996 90.6294L2.6167 90.0723C2.61214 90.0518 2.60416 89.9788 2.59277 89.8535L0.999996 90.3833L0.999996 90.1235L2.58593 89.6006L2.58593 89.3784L0.999996 89.8774L0.999996 89.6177L2.58593 89.1152L2.58593 88.2095L2.83203 88.2095ZM0.999996 88.0728L0.999996 87.8267L5.18359 87.8267L5.18359 89.6929C5.18359 89.8455 5.13118 89.9766 5.02636 90.0859C4.92382 90.1976 4.80078 90.2534 4.65722 90.2534C4.26074 90.2534 4.0625 90.0666 4.0625 89.6929L4.0625 88.2095L4.30859 88.2095L4.30859 89.6929C4.30859 89.7909 4.33365 89.8672 4.38379 89.9219C4.43619 89.9788 4.52734 90.0073 4.65722 90.0073C4.73698 90.0073 4.80306 89.9766 4.85546 89.915C4.91015 89.8558 4.9375 89.7817 4.9375 89.6929L4.9375 88.0728L0.999996 88.0728ZM0.999996 93.979L0.999996 93.7329L6.66015 93.7329L6.66015 93.979L0.999996 93.979ZM0.999996 93.4868L0.999996 93.2407L6.66015 93.2407L6.66015 93.4868L0.999996 93.4868ZM0.999996 92.9946L0.999996 92.7485L6.66015 92.7485L6.66015 92.9946L0.999996 92.9946ZM0.999996 92.5024L0.999996 92.2563L6.66015 92.2563L6.66015 92.5024L0.999996 92.5024ZM3.83007 95.7769L6.66015 97.2227L6.66015 97.4961L3.83007 96.0503L0.999996 97.4961L0.999996 97.2227L3.83007 95.7769ZM3.83007 95.2266L6.66015 96.6724L6.66015 96.9458L3.83007 95.5L0.999996 96.9458L0.999996 96.6724L3.83007 95.2266ZM3.83007 94.6763L6.66015 96.1221L6.66015 96.3955L3.83007 94.9497L0.999996 96.3955L0.999996 96.1221L3.83007 94.6763ZM3.83007 94.1226L6.66015 95.5718L6.66015 95.8452L3.83007 94.396L0.999996 95.8452L0.999996 95.5718L3.83007 94.1226ZM0.999996 99.2017L0.999996 98.9556L6.66015 98.9556L6.66015 99.2017L0.999996 99.2017ZM0.999996 98.7095L0.999996 98.4634L6.66015 98.4634L6.66015 98.7095L0.999996 98.7095ZM0.999996 98.2173L0.999996 97.9712L6.66015 97.9712L6.66015 98.2173L0.999996 98.2173ZM2.23046 99.6938L2.23046 102.312L1.98437 102.312L1.98437 99.6938L1.73828 99.6938L1.73828 102.312L1.49218 102.312L1.49218 99.6938L1.24609 99.6938L1.24609 102.312L0.999996 102.312L0.999996 99.4478L6.66015 99.4478L6.66015 102.312L6.41406 102.312L6.41406 99.6938L6.16796 99.6938L6.16796 102.312L5.92187 102.312L5.92187 99.6938L5.67578 99.6938L5.67578 102.312L5.42968 102.312L5.42968 99.6938L4.44531 99.6938L4.44531 101.037L4.19921 101.037L4.19921 99.6938L3.95312 99.6938L3.95312 101.037L3.70703 101.037L3.70703 99.6938L3.46093 99.6938L3.46093 101.037L3.21484 101.037L3.21484 99.6938L2.23046 99.6938ZM6.41406 102.811L6.66015 102.811L6.66015 106.502L6.41406 106.502L6.41406 102.811ZM5.92187 102.811L6.16796 102.811L6.16796 106.502L5.92187 106.502L5.92187 102.811ZM5.42968 102.811L5.67578 102.811L5.67578 106.502L5.42968 106.502L5.42968 105.518L0.999995 105.518L0.999995 105.272L5.42968 105.272L5.42968 105.026L0.999995 105.026L0.999995 104.78L5.42968 104.78L5.42968 104.534L0.999995 104.534L0.999995 104.288L5.42968 104.288L5.42968 104.042L0.999995 104.042L0.999995 103.795L5.42968 103.795L5.42968 102.811Z" fill="white"/>
</svg>
