<svg width="113" height="30" viewBox="0 0 113 30" fill="none" xmlns="http://www.w3.org/2000/svg">
<path d="M15.92 29.48C13.7067 29.48 11.6533 29.12 9.76 28.4C7.89333 27.68 6.26667 26.6667 4.88 25.36C3.52 24.0533 2.45333 22.52 1.68 20.76C0.933333 19 0.56 17.08 0.56 15C0.56 12.92 0.933333 11 1.68 9.24C2.45333 7.48 3.53333 5.94667 4.92 4.64C6.30667 3.33333 7.93333 2.32 9.8 1.6C11.6667 0.879999 13.6933 0.52 15.88 0.52C18.0933 0.52 20.12 0.879999 21.96 1.6C23.8267 2.32 25.44 3.33333 26.8 4.64C28.1867 5.94667 29.2667 7.48 30.04 9.24C30.8133 10.9733 31.2 12.8933 31.2 15C31.2 17.08 30.8133 19.0133 30.04 20.8C29.2667 22.56 28.1867 24.0933 26.8 25.4C25.44 26.68 23.8267 27.68 21.96 28.4C20.12 29.12 18.1067 29.48 15.92 29.48ZM15.88 23.96C17.1333 23.96 18.28 23.7467 19.32 23.32C20.3867 22.8933 21.32 22.28 22.12 21.48C22.92 20.68 23.5333 19.7333 23.96 18.64C24.4133 17.5467 24.64 16.3333 24.64 15C24.64 13.6667 24.4133 12.4533 23.96 11.36C23.5333 10.2667 22.92 9.32 22.12 8.52C21.3467 7.72 20.4267 7.10666 19.36 6.68C18.2933 6.25333 17.1333 6.04 15.88 6.04C14.6267 6.04 13.4667 6.25333 12.4 6.68C11.36 7.10666 10.44 7.72 9.64 8.52C8.84 9.32 8.21333 10.2667 7.76 11.36C7.33333 12.4533 7.12 13.6667 7.12 15C7.12 16.3067 7.33333 17.52 7.76 18.64C8.21333 19.7333 8.82667 20.68 9.6 21.48C10.4 22.28 11.3333 22.8933 12.4 23.32C13.4667 23.7467 14.6267 23.96 15.88 23.96ZM41.8916 29L32.7316 0.999998H39.4516L47.4116 25.8H44.0516L52.3716 0.999998H58.3716L66.3716 25.8H63.1316L71.2916 0.999998H77.4916L68.3316 29H61.3716L54.2916 7.24H56.1316L48.8516 29H41.8916ZM81.1091 29V0.999998H86.4691L98.3891 20.76H95.5491L107.269 0.999998H112.589L112.669 29H106.589L106.549 10.32H107.669L98.3091 26.04H95.3891L85.8291 10.32H87.1891V29H81.1091Z" fill="black"/>
</svg>
