<svg width="38" height="72" viewBox="0 0 38 72" fill="none" xmlns="http://www.w3.org/2000/svg">
<path d="M34.2417 0.986666C34.883 0.986667 35.4791 1.147 36.03 1.46767C36.5809 1.78833 37.0167 2.22 37.3373 2.76267C37.658 3.31356 37.8183 3.91378 37.8183 4.56333C37.8183 5.21289 37.658 5.809 37.3373 6.35167C37.0167 6.90256 36.5809 7.33833 36.03 7.659C35.4791 7.97967 34.883 8.14 34.2417 8.14L32.3423 8.14C31.701 8.14 31.1049 7.97967 30.554 7.659C30.0031 7.33833 29.5673 6.90256 29.2467 6.35167C28.926 5.809 28.7657 5.21289 28.7657 4.56333C28.7657 3.91378 28.926 3.31356 29.2467 2.76267C29.5673 2.22 30.0031 1.78833 30.554 1.46767C31.1049 1.147 31.701 0.986666 32.3423 0.986666L34.2417 0.986666ZM32.3423 3.23133C31.9477 3.23133 31.6106 3.35467 31.331 3.60133C31.0514 3.848 30.9117 4.16867 30.9117 4.56333C30.9117 4.94978 31.0514 5.26633 31.331 5.513C31.6106 5.75967 31.9477 5.883 32.3423 5.883L34.254 5.883C34.6569 5.883 34.994 5.75967 35.2653 5.513C35.5367 5.26633 35.6723 4.94978 35.6723 4.56333C35.6723 4.16867 35.5367 3.848 35.2653 3.60133C34.994 3.35467 34.6569 3.23133 34.254 3.23133L32.3423 3.23133ZM29 10.8439L37.584 10.8439L37.584 14.4329C37.584 15.0331 37.473 15.5511 37.251 15.9869C36.9961 16.4884 36.6302 16.8872 36.1533 17.1832C35.6847 17.4792 35.1667 17.6272 34.5993 17.6272C34.032 17.6272 33.5099 17.4792 33.033 17.1832C32.5561 16.8954 32.1902 16.5008 31.9353 15.9992C31.7133 15.5717 31.6023 15.0496 31.6023 14.4329L31.6023 13.0886L29 13.0886L29 10.8439ZM37.584 19.7391L37.584 25.9921L35.4133 25.9921L35.4133 21.9838L34.328 21.9838L34.328 25.3138L32.2683 25.3138L32.2683 21.9838L31.1707 21.9838L31.1707 25.9921L29 25.9921L29 19.7391L37.584 19.7391ZM29.0123 28.6097L37.5963 28.6097L37.5963 29.0907L31.7627 35.0847L37.5963 35.0847L37.5963 35.541L29.0123 35.541L29.0123 28.6097ZM19.6487 4.329L22.584 3.53967L22.584 8.63333L14 6.327L14 5.846L18.773 4.56333L14 3.28067L14 2.79967L22.584 0.493333L22.584 0.961999L14.851 3.034L19.6487 4.329ZM22.1277 8.04133L22.1277 4.13167L19.6487 4.79767L14.851 6.09267L22.1277 8.04133ZM14 17.7382L14 9.64756L22.769 13.6929L14 17.7382ZM14.4563 10.3629L14.4563 17.0229L21.6837 13.6929L14.4563 10.3629ZM14 26.3744L14 19.7761L22.584 19.7761L22.584 23.1184C22.584 23.8338 22.4566 24.4176 22.2017 24.8698C21.955 25.3138 21.6179 25.6591 21.1903 25.9058C20.7628 26.1524 20.29 26.2758 19.772 26.2758C19.1307 26.2758 18.5551 26.0784 18.0453 25.6838C17.5438 25.2891 17.2108 24.7917 17.0463 24.1914L14 26.3744ZM22.1277 20.5531L17.441 23.9078C17.5561 24.4587 17.8316 24.915 18.2673 25.2768C18.7031 25.6386 19.2047 25.8194 19.772 25.8194C20.2242 25.8194 20.6353 25.7084 21.0053 25.4864C21.3753 25.2644 21.659 24.952 21.8563 24.5491C22.0372 24.1873 22.1277 23.7146 22.1277 23.1308L22.1277 20.5531ZM21.8317 20.2324L17.404 20.2324L17.404 23.4021L21.8317 20.2324ZM14.4563 20.2324L14.4563 25.5111L16.96 23.7104L16.9477 23.3281L16.9477 20.2324L14.4563 20.2324ZM14 28.8687L22.584 28.8687L22.584 32.063C22.584 32.6879 22.4278 33.2634 22.1153 33.7897C21.8029 34.3241 21.3794 34.7476 20.845 35.06C20.3188 35.3724 19.7432 35.5287 19.1183 35.5287L17.4657 35.5287C16.8408 35.5287 16.2611 35.3724 15.7267 35.06C15.2004 34.7476 14.7811 34.3241 14.4687 33.7897C14.1562 33.2634 14 32.6879 14 32.063L14 28.8687ZM14 44.6336L14 38.0352L22.584 38.0352L22.584 41.3776C22.584 42.0929 22.4566 42.6767 22.2017 43.1289C21.955 43.5729 21.6179 43.9182 21.1903 44.1649C20.7628 44.4116 20.29 44.5349 19.772 44.5349C19.1307 44.5349 18.5551 44.3376 18.0453 43.9429C17.5438 43.5482 17.2108 43.0508 17.0463 42.4506L14 44.6336ZM22.1277 38.8122L17.441 42.1669C17.5561 42.7178 17.8316 43.1741 18.2673 43.5359C18.7031 43.8977 19.2047 44.0786 19.772 44.0786C20.2242 44.0786 20.6353 43.9676 21.0053 43.7456C21.3753 43.5236 21.659 43.2111 21.8563 42.8082C22.0372 42.4465 22.1277 41.9737 22.1277 41.3899L22.1277 38.8122ZM21.8317 38.4916L17.404 38.4916L17.404 41.6612L21.8317 38.4916ZM14.4563 38.4916L14.4563 43.7702L16.96 41.9696L16.9477 41.5872L16.9477 38.4916L14.4563 38.4916ZM19.2417 46.6345C19.883 46.6345 20.4791 46.7948 21.03 47.1155C21.5809 47.4361 22.0167 47.8678 22.3373 48.4105C22.658 48.9613 22.8183 49.5616 22.8183 50.2111C22.8183 50.8607 22.658 51.4568 22.3373 51.9995C22.0167 52.5503 21.5809 52.9861 21.03 53.3068C20.4791 53.6275 19.883 53.7878 19.2417 53.7878L17.3423 53.7878C16.701 53.7878 16.1049 53.6275 15.554 53.3068C15.0031 52.9861 14.5673 52.5503 14.2467 51.9995C13.926 51.4568 13.7657 50.8607 13.7657 50.2111C13.7657 49.5616 13.926 48.9613 14.2467 48.4105C14.5673 47.8678 15.0031 47.4361 15.554 47.1155C16.1049 46.7948 16.701 46.6345 17.3423 46.6345L19.2417 46.6345ZM17.3423 48.8791C16.9477 48.8791 16.6106 49.0025 16.331 49.2491C16.0514 49.4958 15.9117 49.8165 15.9117 50.2111C15.9117 50.5976 16.0514 50.9141 16.331 51.1608C16.6106 51.4075 16.9477 51.5308 17.3423 51.5308L19.254 51.5308C19.6569 51.5308 19.994 51.4075 20.2653 51.1608C20.5367 50.9141 20.6723 50.5976 20.6723 50.2111C20.6723 49.8165 20.5367 49.4958 20.2653 49.2491C19.994 49.0025 19.6569 48.8791 19.254 48.8791L17.3423 48.8791ZM22.584 59.945C22.584 60.4877 22.5018 60.9193 22.3373 61.24C22.14 61.6265 21.8687 61.9225 21.5233 62.128C21.178 62.3418 20.7916 62.4487 20.364 62.4487C19.9611 62.4487 19.587 62.3418 19.2417 62.128C18.9046 61.9142 18.6373 61.6223 18.44 61.2523C18.2838 61.6963 18.0124 62.0705 17.626 62.3747C17.2396 62.6789 16.8038 62.831 16.3187 62.831C15.8911 62.831 15.4964 62.72 15.1347 62.498C14.7811 62.2842 14.5016 61.9965 14.296 61.6347C14.1973 61.4538 14.1233 61.2523 14.074 61.0303C14.0247 60.8083 14 60.5123 14 60.1423L14 56.3437L22.584 56.3437L22.584 59.945ZM22.584 65.3869L22.584 71.6399L20.4133 71.6399L20.4133 67.6316L19.328 67.6316L19.328 70.9616L17.2683 70.9616L17.2683 67.6316L16.1707 67.6316L16.1707 71.6399L14 71.6399L14 65.3869L22.584 65.3869ZM8.59633 1.09767L8.59633 1.591L3.293 4.588L8.59633 7.57267L8.59633 8.029L0.012333 8.029L0.0123333 1.09766L8.59633 1.09767ZM0.456333 1.554L0.456333 7.57267L7.67133 7.57267L2.78733 4.79767L2.78733 4.366L7.74533 1.554L0.456333 1.554ZM-7.75362e-07 17.7382L-4.21708e-07 9.64756L8.769 13.6929L-7.75362e-07 17.7382ZM0.456333 10.3629L0.456333 17.0229L7.68367 13.6929L0.456333 10.3629ZM-1.15286e-06 26.3744L-8.64441e-07 19.7761L8.584 19.7761L8.584 23.1184C8.584 23.8338 8.45656 24.4176 8.20167 24.8698C7.955 25.3138 7.61789 25.6591 7.19033 25.9058C6.76278 26.1524 6.29 26.2758 5.772 26.2758C5.13067 26.2758 4.55511 26.0784 4.04533 25.6838C3.54378 25.2891 3.21078 24.7917 3.04633 24.1914L-1.15286e-06 26.3744ZM8.12767 20.5531L3.441 23.9078C3.55611 24.4587 3.83155 24.915 4.26733 25.2768C4.70311 25.6386 5.20467 25.8194 5.772 25.8194C6.22422 25.8194 6.63533 25.7084 7.00533 25.4864C7.37533 25.2644 7.659 24.952 7.85633 24.5491C8.03722 24.1873 8.12767 23.7146 8.12767 23.1308L8.12767 20.5531ZM7.83167 20.2324L3.404 20.2324L3.404 23.4021L7.83167 20.2324ZM0.456332 20.2324L0.456332 25.5111L2.96 23.7104L2.94767 23.3281L2.94767 20.2324L0.456332 20.2324ZM5.00733 32.0753L-1.5584e-06 35.652L-1.2565e-06 28.7453L8.584 28.7453L8.584 35.652L5.00733 32.0753ZM4.68667 31.7547L2.13367 29.2017L0.456332 29.2017L0.456332 34.7763L4.68667 31.7547ZM8.584 37.9982L8.584 44.2512L6.41333 44.2512L6.41333 40.2429L5.328 40.2429L5.328 43.5729L3.26833 43.5729L3.26833 40.2429L2.17067 40.2429L2.17067 44.2512L-1.93428e-06 44.2512L-1.66096e-06 37.9982L8.584 37.9982ZM-2.18509e-06 49.9891L6.41333 49.9891L6.41333 46.7455L8.584 46.7455L8.584 53.6768L6.41333 53.6768L6.41333 50.4331L-2.2045e-06 50.4331L-2.18509e-06 49.9891Z" fill="#233250"/>
</svg>
