<svg width="48" height="67" viewBox="0 0 48 67" fill="none" xmlns="http://www.w3.org/2000/svg">
<mask id="path-1-outside-1_1_445" maskUnits="userSpaceOnUse" x="0" y="0" width="62" height="80" fill="black">
<rect fill="white" width="62" height="80"/>
<path d="M60.9131 79L0.816591 79L0.816591 0.818314L31.258 0.818314C37.7732 0.818314 43.0901 1.97906 47.2089 4.30055C51.2528 6.54714 54.398 9.6175 56.6446 13.5116C58.8912 17.4057 60.0145 21.7117 60.0145 26.4296C60.0145 32.2707 58.2172 37.5128 54.6227 42.1558C51.0281 46.7238 46.4975 49.7568 41.0307 51.2545L60.9131 79ZM7.89338 4.97452L38.4471 47.6599C43.4646 46.6115 47.6208 44.1028 50.9158 40.1338C54.2108 36.1648 55.8583 31.5967 55.8583 26.4296C55.8583 22.3108 54.8473 18.5665 52.8254 15.1966C50.8034 11.8267 47.9578 9.24307 44.2883 7.44579C40.9933 5.79828 36.6873 4.97452 31.3704 4.97452L7.89338 4.97452ZM4.9728 7.67044L4.9728 47.9969L33.8416 47.9969L4.9728 7.67044ZM4.9728 74.8438L53.05 74.8438L36.6499 52.0408L33.1676 52.1531L4.9728 52.1531L4.9728 74.8438Z"/>
</mask>
<path d="M60.9131 79V79.3H61.4972L61.157 78.8253L60.9131 79ZM0.816591 79H0.516591V79.3H0.816591V79ZM0.816591 0.818314V0.518314H0.516591V0.818314H0.816591ZM47.2089 4.30055L47.0616 4.5619L47.0632 4.56279L47.2089 4.30055ZM56.6446 13.5116L56.3847 13.6615L56.3847 13.6615L56.6446 13.5116ZM54.6227 42.1558L54.8584 42.3413L54.8599 42.3394L54.6227 42.1558ZM41.0307 51.2545L40.9515 50.9652L40.5359 51.079L40.7869 51.4292L41.0307 51.2545ZM7.89338 4.97452V4.67452H7.30971L7.64943 5.14914L7.89338 4.97452ZM38.4471 47.6599L38.2032 47.8345L38.317 47.9936L38.5085 47.9536L38.4471 47.6599ZM50.9158 40.1338L50.6849 39.9422L50.6849 39.9422L50.9158 40.1338ZM44.2883 7.44579L44.1541 7.71412L44.1563 7.7152L44.2883 7.44579ZM4.9728 7.67044L5.21674 7.49581L4.6728 6.736V7.67044H4.9728ZM4.9728 47.9969H4.6728V48.2969H4.9728V47.9969ZM33.8416 47.9969V48.2969H34.4253L34.0855 47.8223L33.8416 47.9969ZM4.9728 74.8438H4.6728V75.1438H4.9728V74.8438ZM53.05 74.8438V75.1438H53.6353L53.2936 74.6686L53.05 74.8438ZM36.6499 52.0408L36.8934 51.8656L36.8 51.7358L36.6402 51.741L36.6499 52.0408ZM33.1676 52.1531L33.1676 52.4533L33.1773 52.453L33.1676 52.1531ZM4.9728 52.1531V51.8531H4.6728V52.1531H4.9728ZM60.9131 79V78.7L0.816591 78.7V79V79.3L60.9131 79.3V79ZM0.816591 79H1.11659L1.11659 0.818314H0.816591H0.516591L0.516591 79H0.816591ZM0.816591 0.818314V1.11831L31.258 1.11831V0.818314V0.518314L0.816591 0.518314V0.818314ZM31.258 0.818314V1.11831C37.7402 1.11831 43.0016 2.27353 47.0616 4.56189L47.2089 4.30055L47.3562 4.0392C43.1786 1.68458 37.8062 0.518314 31.258 0.518314V0.818314ZM47.2089 4.30055L47.0632 4.56279C51.061 6.78379 54.1661 9.81592 56.3847 13.6615L56.6446 13.5116L56.9045 13.3617C54.6299 9.41907 51.4445 6.3105 47.3546 4.0383L47.2089 4.30055ZM56.6446 13.5116L56.3847 13.6615C58.6037 17.5078 59.7145 21.7616 59.7145 26.4296H60.0145H60.3145C60.3145 21.6618 59.1787 17.3037 56.9045 13.3617L56.6446 13.5116ZM60.0145 26.4296H59.7145C59.7145 32.2039 57.9395 37.3814 54.3855 41.9721L54.6227 42.1558L54.8599 42.3394C58.4949 37.6442 60.3145 32.3376 60.3145 26.4296H60.0145ZM54.6227 42.1558L54.3869 41.9702C50.831 46.4892 46.3546 49.4848 40.9515 50.9652L41.0307 51.2545L41.11 51.5438C46.6403 50.0287 51.2252 46.9584 54.8584 42.3413L54.6227 42.1558ZM41.0307 51.2545L40.7869 51.4292L60.6693 79.1747L60.9131 79L61.157 78.8253L41.2746 51.0797L41.0307 51.2545ZM7.89338 4.97452L7.64943 5.14914L38.2032 47.8345L38.4471 47.6599L38.6911 47.4853L8.13733 4.79991L7.89338 4.97452ZM38.4471 47.6599L38.5085 47.9536C43.5928 46.8912 47.8086 44.3463 51.1466 40.3254L50.9158 40.1338L50.6849 39.9422C47.433 43.8594 43.3363 46.3318 38.3858 47.3663L38.4471 47.6599ZM50.9158 40.1338L51.1466 40.3254C54.4864 36.3025 56.1583 31.6666 56.1583 26.4296H55.8583H55.5583C55.5583 31.5269 53.9352 36.0271 50.6849 39.9422L50.9158 40.1338ZM55.8583 26.4296H56.1583C56.1583 22.2591 55.1339 18.461 53.0826 15.0422L52.8254 15.1966L52.5681 15.3509C54.5607 18.6719 55.5583 22.3624 55.5583 26.4296H55.8583ZM52.8254 15.1966L53.0826 15.0422C51.0297 11.6206 48.1395 8.99805 44.4203 7.17637L44.2883 7.44579L44.1563 7.7152C47.776 9.48809 50.5772 12.0327 52.5681 15.3509L52.8254 15.1966ZM44.2883 7.44579L44.4225 7.17746C41.0715 5.50197 36.7147 4.67452 31.3704 4.67452V4.97452V5.27452C36.6599 5.27452 40.9151 6.09459 44.1541 7.71411L44.2883 7.44579ZM31.3704 4.97452V4.67452L7.89338 4.67452V4.97452V5.27452L31.3704 5.27452V4.97452ZM4.9728 7.67044H4.6728L4.6728 47.9969H4.9728H5.2728L5.2728 7.67044H4.9728ZM4.9728 47.9969V48.2969L33.8416 48.2969V47.9969V47.6969L4.9728 47.6969V47.9969ZM33.8416 47.9969L34.0855 47.8223L5.21674 7.49581L4.9728 7.67044L4.72887 7.84507L33.5977 48.1715L33.8416 47.9969ZM4.9728 74.8438V75.1438L53.05 75.1438V74.8438V74.5438L4.9728 74.5438V74.8438ZM53.05 74.8438L53.2936 74.6686L36.8934 51.8656L36.6499 52.0408L36.4063 52.216L52.8065 75.019L53.05 74.8438ZM36.6499 52.0408L36.6402 51.741L33.158 51.8533L33.1676 52.1531L33.1773 52.453L36.6595 52.3406L36.6499 52.0408ZM33.1676 52.1531V51.8531L4.9728 51.8531V52.1531V52.4531L33.1676 52.4531L33.1676 52.1531ZM4.9728 52.1531H4.6728L4.6728 74.8438H4.9728H5.2728L5.2728 52.1531H4.9728Z" fill="white" mask="url(#path-1-outside-1_1_445)"/>
</svg>
