<svg width="93" height="76" viewBox="0 0 93 76" fill="none" xmlns="http://www.w3.org/2000/svg">
<path d="M5.972 9.187C2.958 9.187 1.704 6.844 1.704 4.864C1.704 3.082 3.002 0.563 6.038 0.563C8.513 0.563 10.361 2.125 10.361 4.688C10.361 7.152 8.623 9.187 5.972 9.187ZM6.269 8.769C7.259 8.769 9.305 8.197 9.305 4.996C9.305 2.356 7.699 0.937 5.961 0.937C4.124 0.937 2.749 2.147 2.749 4.556C2.749 7.119 4.289 8.769 6.269 8.769ZM16.1623 5.843V3.907C16.1623 2.191 16.1623 1.883 16.1403 1.531C16.1183 1.157 16.0303 0.981 15.6673 0.903999C15.5793 0.882 15.3923 0.871 15.2933 0.871C15.2493 0.871 15.2053 0.848999 15.2053 0.804999C15.2053 0.738999 15.2603 0.717 15.3813 0.717C15.8763 0.717 16.5363 0.749999 16.6243 0.749999C16.8663 0.749999 17.5043 0.717 18.0103 0.717C19.3853 0.717 19.8803 1.179 20.0563 1.344C20.2983 1.575 20.6063 2.07 20.6063 2.785C20.6063 4.215 19.4623 5.271 17.9003 5.271C17.8453 5.271 17.7243 5.271 17.6693 5.26C17.6143 5.26 17.5483 5.238 17.5483 5.183C17.5483 5.095 17.6143 5.084 17.8453 5.084C18.9123 5.084 19.7483 4.358 19.7483 3.203C19.7483 2.928 19.7153 2.191 19.1323 1.597C18.5493 1.003 17.8783 1.047 17.6253 1.047C17.4383 1.047 17.2513 1.069 17.1523 1.113C17.0863 1.135 17.0643 1.212 17.0643 1.322V5.843C17.0643 6.899 17.0643 7.768 17.1193 8.23C17.1523 8.549 17.2183 8.791 17.5483 8.835C17.7023 8.857 17.9443 8.879 18.0433 8.879C18.1093 8.879 18.1313 8.912 18.1313 8.945C18.1313 9 18.0763 9.033 17.9553 9.033C17.3503 9.033 16.6573 9 16.6023 9C16.5693 9 15.8763 9.033 15.5463 9.033C15.4253 9.033 15.3703 9.011 15.3703 8.945C15.3703 8.912 15.3923 8.879 15.4583 8.879C15.5573 8.879 15.6893 8.857 15.7883 8.835C16.0083 8.791 16.0633 8.549 16.1073 8.23C16.1623 7.768 16.1623 6.899 16.1623 5.843ZM26.2836 5.843V3.907C26.2836 2.191 26.2836 1.883 26.2616 1.531C26.2396 1.157 26.1516 0.981 25.7886 0.903999C25.7116 0.882 25.5686 0.882 25.4696 0.871C25.3926 0.86 25.3266 0.848999 25.3266 0.804999C25.3266 0.738999 25.3816 0.717 25.5026 0.717C25.7556 0.717 26.0526 0.717 26.7456 0.749999C26.8226 0.749999 29.0116 0.749999 29.2646 0.738999C29.5066 0.728 29.7046 0.706 29.7706 0.673C29.8366 0.639999 29.8586 0.629 29.8916 0.629C29.9246 0.629 29.9356 0.673 29.9356 0.728C29.9356 0.804999 29.8696 0.937 29.8476 1.245C29.8366 1.41 29.8256 1.619 29.8036 1.905C29.7926 2.015 29.7596 2.092 29.7156 2.092C29.6496 2.092 29.6276 2.037 29.6276 1.949C29.6276 1.806 29.6056 1.674 29.5726 1.586C29.4956 1.333 29.2646 1.223 28.7806 1.179C28.5936 1.157 27.3946 1.146 27.2736 1.146C27.2296 1.146 27.2076 1.179 27.2076 1.256V4.292C27.2076 4.369 27.2186 4.402 27.2736 4.402C27.4166 4.402 28.7696 4.402 29.0226 4.38C29.3196 4.358 29.4626 4.325 29.5726 4.193C29.6276 4.127 29.6606 4.083 29.7046 4.083C29.7376 4.083 29.7596 4.105 29.7596 4.171C29.7596 4.237 29.7046 4.424 29.6716 4.787C29.6386 5.128 29.6386 5.381 29.6276 5.535C29.6166 5.645 29.5946 5.7 29.5506 5.7C29.4846 5.7 29.4736 5.612 29.4736 5.524C29.4736 5.425 29.4626 5.315 29.4296 5.216C29.3856 5.051 29.2536 4.897 28.8576 4.853C28.5606 4.82 27.4716 4.798 27.2846 4.798C27.2296 4.798 27.2076 4.831 27.2076 4.875V5.843C27.2076 6.217 27.1966 7.493 27.2076 7.724C27.2296 8.175 27.2956 8.417 27.5706 8.527C27.7576 8.604 28.0546 8.626 28.4836 8.626C28.8136 8.626 29.1766 8.615 29.4736 8.527C29.8256 8.417 29.9466 8.186 30.0346 7.713C30.0566 7.592 30.0786 7.548 30.1336 7.548C30.1996 7.548 30.1996 7.636 30.1996 7.713C30.1996 7.801 30.1116 8.549 30.0566 8.78C29.9796 9.066 29.8916 9.066 29.4626 9.066C28.6486 9.066 28.2856 9.044 27.8566 9.033C27.4166 9.022 26.9106 9 26.4816 9C26.2176 9 25.9536 9.044 25.6676 9.033C25.5466 9.033 25.4916 9.011 25.4916 8.945C25.4916 8.912 25.5466 8.89 25.6126 8.879C25.7226 8.868 25.7886 8.868 25.8656 8.846C26.0966 8.791 26.2396 8.637 26.2616 7.812C26.2726 7.383 26.2836 6.822 26.2836 5.843ZM35.9345 7.416V5.788C35.9345 1.817 35.9565 3.247 35.9455 1.113C35.9455 0.684 35.9785 0.563 36.0665 0.563C36.1545 0.563 36.3415 0.804999 36.4515 0.915C36.6165 1.102 38.2555 2.873 39.9495 4.688C41.0385 5.854 42.2375 7.196 42.5895 7.559L42.4685 1.971C42.4575 1.256 42.3805 1.014 42.0395 0.926C41.8415 0.882 41.6655 0.871 41.5665 0.871C41.4455 0.871 41.4125 0.838 41.4125 0.793999C41.4125 0.728 41.5005 0.717 41.6325 0.717C42.1275 0.717 42.6555 0.749999 42.7765 0.749999C42.8975 0.749999 43.2605 0.717 43.7115 0.717C43.8325 0.717 43.9095 0.728 43.9095 0.793999C43.9095 0.838 43.8655 0.86 43.7885 0.871C43.7005 0.882 43.6345 0.892999 43.5025 0.915C43.1945 0.981 43.1175 1.146 43.1175 1.905L43.0955 8.329C43.0955 9.055 43.0735 9.11 42.9965 9.11C42.9085 9.11 42.7765 8.989 42.1935 8.406C42.0725 8.296 40.4885 6.679 39.3225 5.425C38.0465 4.05 36.8035 2.664 36.4515 2.268L36.5945 7.537C36.6165 8.439 36.7265 8.725 37.0235 8.813C37.2325 8.868 37.4745 8.879 37.5735 8.879C37.6285 8.879 37.6615 8.901 37.6615 8.945C37.6615 9.011 37.5955 9.033 37.4635 9.033C36.8365 9.033 36.3965 9 36.2975 9C36.1985 9 35.7365 9.033 35.2415 9.033C35.1315 9.033 35.0655 9.022 35.0655 8.945C35.0655 8.901 35.0985 8.879 35.1535 8.879C35.2415 8.879 35.4395 8.868 35.6045 8.813C35.8795 8.736 35.9345 8.417 35.9345 7.416ZM4.036 41.318L2.078 34.795C1.902 34.212 1.759 34.047 1.473 33.937C1.33 33.882 1.055 33.871 0.978 33.871C0.923 33.871 0.879 33.86 0.879 33.794C0.879 33.739 0.945 33.717 1.055 33.717C1.627 33.717 2.232 33.75 2.353 33.75C2.452 33.75 2.936 33.717 3.486 33.717C3.64 33.717 3.684 33.75 3.684 33.794C3.684 33.86 3.629 33.871 3.574 33.871C3.486 33.871 3.277 33.871 3.145 33.937C3.079 33.97 3.002 34.058 3.002 34.201C3.002 34.344 3.101 34.729 3.211 35.213C3.376 35.917 4.52 39.954 4.696 40.57L7.039 34.267C7.204 33.816 7.248 33.761 7.314 33.761C7.391 33.761 7.457 33.904 7.589 34.278L9.8 40.581C10.119 39.503 11.131 36.313 11.516 34.905C11.626 34.498 11.637 34.344 11.637 34.201C11.637 34.003 11.516 33.871 11.01 33.871C10.955 33.871 10.911 33.838 10.911 33.794C10.911 33.739 10.966 33.717 11.098 33.717C11.659 33.717 12.121 33.75 12.22 33.75C12.297 33.75 12.77 33.717 13.111 33.717C13.21 33.717 13.265 33.739 13.265 33.783C13.265 33.838 13.232 33.871 13.166 33.871C13.122 33.871 12.913 33.882 12.792 33.926C12.462 34.047 12.286 34.509 12.077 35.114C11.593 36.511 10.482 40.009 10.053 41.241C9.767 42.055 9.712 42.187 9.591 42.187C9.481 42.187 9.415 42.044 9.261 41.615L7.094 35.466C6.687 36.555 5.18 40.581 4.784 41.604C4.608 42.066 4.531 42.187 4.421 42.187C4.311 42.187 4.256 42.066 4.036 41.318ZM20.6446 38.788H18.2796C18.2246 38.788 18.1916 38.821 18.1696 38.876L17.5096 40.823C17.4106 41.098 17.3556 41.362 17.3556 41.56C17.3556 41.78 17.5646 41.879 17.7516 41.879C17.7846 41.879 17.8176 41.879 17.8506 41.879C17.9606 41.879 17.9936 41.901 17.9936 41.945C17.9936 42.011 17.8946 42.033 17.7956 42.033C17.5316 42.033 17.0916 42 16.9706 42C16.8496 42 16.2446 42.033 15.7276 42.033C15.5846 42.033 15.5186 42.011 15.5186 41.945C15.5186 41.901 15.5736 41.879 15.6726 41.879C15.7496 41.879 15.8486 41.868 15.9366 41.857C16.4426 41.791 16.6626 41.373 16.8606 40.823L19.3576 33.992C19.4896 33.629 19.5336 33.563 19.5996 33.563C19.6656 33.563 19.7096 33.618 19.8416 33.959C20.0066 34.377 21.7336 38.92 22.4046 40.592C22.8006 41.571 23.1196 41.747 23.3506 41.813C23.5156 41.868 23.6916 41.879 23.7796 41.879C23.8456 41.879 23.9006 41.89 23.9006 41.945C23.9006 42.011 23.8016 42.033 23.6806 42.033C23.5156 42.033 22.7126 42.033 21.9536 42.011C21.7446 42 21.6236 42 21.6236 41.934C21.6236 41.89 21.6566 41.868 21.7006 41.857C21.7666 41.835 21.8326 41.736 21.7666 41.56L20.7436 38.854C20.7216 38.81 20.6996 38.788 20.6446 38.788ZM18.4006 38.392H20.5016C20.5566 38.392 20.5566 38.359 20.5456 38.315L19.5006 35.345C19.4456 35.18 19.3906 35.18 19.3356 35.345L18.3676 38.315C18.3456 38.37 18.3676 38.392 18.4006 38.392ZM28.7758 38.843V36.907C28.7758 35.191 28.7758 34.883 28.7538 34.531C28.7318 34.157 28.6438 33.981 28.2808 33.904C28.1928 33.882 28.0058 33.871 27.9068 33.871C27.8628 33.871 27.8188 33.849 27.8188 33.805C27.8188 33.739 27.8738 33.717 27.9948 33.717C28.4898 33.717 29.1828 33.75 29.2378 33.75C29.3588 33.75 30.1948 33.717 30.5358 33.717C31.2288 33.717 31.9658 33.783 32.5488 34.201C32.8238 34.399 33.3078 34.938 33.3078 35.697C33.3078 36.511 32.9668 37.325 31.9768 38.238C32.8788 39.393 33.6268 40.372 34.2648 41.054C34.8588 41.681 35.3318 41.802 35.6068 41.846C35.8158 41.879 35.9698 41.879 36.0358 41.879C36.0908 41.879 36.1348 41.912 36.1348 41.945C36.1348 42.011 36.0688 42.033 35.8708 42.033H35.0898C34.4738 42.033 34.1988 41.978 33.9128 41.824C33.4398 41.571 33.0548 41.032 32.4278 40.207C31.9658 39.602 31.4488 38.865 31.2288 38.579C31.1848 38.535 31.1518 38.513 31.0858 38.513L29.7328 38.491C29.6778 38.491 29.6558 38.524 29.6558 38.579V38.843C29.6558 39.899 29.6558 40.768 29.7108 41.23C29.7438 41.549 29.8098 41.791 30.1398 41.835C30.2938 41.857 30.5358 41.879 30.6348 41.879C30.7008 41.879 30.7228 41.912 30.7228 41.945C30.7228 42 30.6678 42.033 30.5468 42.033C29.9418 42.033 29.2488 42 29.1938 42C29.1828 42 28.4898 42.033 28.1598 42.033C28.0388 42.033 27.9838 42.011 27.9838 41.945C27.9838 41.912 28.0058 41.879 28.0718 41.879C28.1708 41.879 28.3028 41.857 28.4018 41.835C28.6218 41.791 28.6768 41.549 28.7208 41.23C28.7758 40.768 28.7758 39.899 28.7758 38.843ZM29.6558 34.267V37.864C29.6558 37.919 29.6778 37.963 29.7328 37.996C29.8978 38.095 30.4038 38.172 30.8878 38.172C31.1518 38.172 31.4598 38.139 31.7128 37.963C32.0978 37.699 32.3838 37.105 32.3838 36.269C32.3838 34.894 31.6578 34.069 30.4808 34.069C30.1508 34.069 29.8538 34.102 29.7438 34.135C29.6888 34.157 29.6558 34.201 29.6558 34.267ZM40.3687 38.843V36.907C40.3687 35.191 40.3687 34.883 40.3467 34.531C40.3247 34.157 40.2697 33.981 39.9067 33.904C39.8187 33.882 39.6317 33.871 39.5327 33.871C39.4557 33.871 39.4117 33.849 39.4117 33.805C39.4117 33.739 39.4667 33.717 39.5877 33.717C40.0827 33.717 40.7757 33.75 40.8307 33.75C40.9627 33.75 41.6557 33.717 42.3157 33.717C43.4047 33.717 45.4177 33.618 46.7267 34.971C47.2767 35.543 47.7937 36.456 47.7937 37.765C47.7937 39.151 47.2217 40.218 46.6057 40.867C46.1327 41.362 45.1427 42.132 43.2727 42.132C42.7997 42.132 42.2167 42.099 41.7437 42.066C41.2597 42.033 40.8857 42 40.8307 42C40.8087 42 40.6217 42 40.3907 42.011C40.1707 42.011 39.9177 42.033 39.7527 42.033C39.6317 42.033 39.5767 42.011 39.5767 41.945C39.5767 41.912 39.5987 41.879 39.6867 41.879C39.8077 41.868 39.8957 41.857 39.9947 41.835C40.2147 41.791 40.2697 41.549 40.3137 41.23C40.3687 40.768 40.3687 39.899 40.3687 38.843ZM41.2927 36.731V38.095C41.2927 39.261 41.3037 40.273 41.3147 40.482C41.3257 40.757 41.3477 41.197 41.4357 41.318C41.5787 41.527 42.0077 41.758 43.3057 41.758C44.3287 41.758 45.2747 41.384 45.9237 40.735C46.4957 40.174 46.8037 39.118 46.8037 38.106C46.8037 36.709 46.1987 35.807 45.7477 35.334C44.7137 34.245 43.4597 34.091 42.1507 34.091C41.9307 34.091 41.5237 34.124 41.4357 34.168C41.3367 34.212 41.3037 34.267 41.3037 34.388C41.2927 34.762 41.2927 35.884 41.2927 36.731ZM53.5945 38.843V36.907C53.5945 35.191 53.5945 34.883 53.5725 34.531C53.5505 34.157 53.4625 33.981 53.0995 33.904C53.0115 33.882 52.8245 33.871 52.7255 33.871C52.6815 33.871 52.6375 33.849 52.6375 33.805C52.6375 33.739 52.6925 33.717 52.8135 33.717C53.3085 33.717 54.0015 33.75 54.0565 33.75C54.1775 33.75 55.0135 33.717 55.3545 33.717C56.0475 33.717 56.7845 33.783 57.3675 34.201C57.6425 34.399 58.1265 34.938 58.1265 35.697C58.1265 36.511 57.7855 37.325 56.7955 38.238C57.6975 39.393 58.4455 40.372 59.0835 41.054C59.6775 41.681 60.1505 41.802 60.4255 41.846C60.6345 41.879 60.7885 41.879 60.8545 41.879C60.9095 41.879 60.9535 41.912 60.9535 41.945C60.9535 42.011 60.8875 42.033 60.6895 42.033H59.9085C59.2925 42.033 59.0175 41.978 58.7315 41.824C58.2585 41.571 57.8735 41.032 57.2465 40.207C56.7845 39.602 56.2675 38.865 56.0475 38.579C56.0035 38.535 55.9705 38.513 55.9045 38.513L54.5515 38.491C54.4965 38.491 54.4745 38.524 54.4745 38.579V38.843C54.4745 39.899 54.4745 40.768 54.5295 41.23C54.5625 41.549 54.6285 41.791 54.9585 41.835C55.1125 41.857 55.3545 41.879 55.4535 41.879C55.5195 41.879 55.5415 41.912 55.5415 41.945C55.5415 42 55.4865 42.033 55.3655 42.033C54.7605 42.033 54.0675 42 54.0125 42C54.0015 42 53.3085 42.033 52.9785 42.033C52.8575 42.033 52.8025 42.011 52.8025 41.945C52.8025 41.912 52.8245 41.879 52.8905 41.879C52.9895 41.879 53.1215 41.857 53.2205 41.835C53.4405 41.791 53.4955 41.549 53.5395 41.23C53.5945 40.768 53.5945 39.899 53.5945 38.843ZM54.4745 34.267V37.864C54.4745 37.919 54.4965 37.963 54.5515 37.996C54.7165 38.095 55.2225 38.172 55.7065 38.172C55.9705 38.172 56.2785 38.139 56.5315 37.963C56.9165 37.699 57.2025 37.105 57.2025 36.269C57.2025 34.894 56.4765 34.069 55.2995 34.069C54.9695 34.069 54.6725 34.102 54.5625 34.135C54.5075 34.157 54.4745 34.201 54.4745 34.267ZM68.2552 42.187C65.2412 42.187 63.9872 39.844 63.9872 37.864C63.9872 36.082 65.2852 33.563 68.3212 33.563C70.7962 33.563 72.6442 35.125 72.6442 37.688C72.6442 40.152 70.9062 42.187 68.2552 42.187ZM68.5522 41.769C69.5422 41.769 71.5882 41.197 71.5882 37.996C71.5882 35.356 69.9822 33.937 68.2442 33.937C66.4072 33.937 65.0322 35.147 65.0322 37.556C65.0322 40.119 66.5722 41.769 68.5522 41.769ZM78.4455 38.843V36.907C78.4455 35.191 78.4455 34.883 78.4235 34.531C78.4015 34.157 78.3135 33.981 77.9505 33.904C77.8625 33.882 77.6755 33.871 77.6315 33.871C77.5325 33.871 77.4885 33.849 77.4885 33.805C77.4885 33.739 77.5435 33.717 77.6645 33.717C78.1595 33.717 78.8525 33.75 78.9075 33.75C79.1715 33.75 79.6005 33.717 80.1065 33.717C81.9105 33.717 82.3065 34.817 82.3065 35.367C82.3065 36.269 81.7895 36.808 81.2725 37.347C82.0865 37.6 83.1755 38.381 83.1755 39.668C83.1755 40.845 82.2515 42.066 80.3705 42.066C80.2495 42.066 79.8975 42.044 79.5785 42.033C79.2595 42.011 78.9515 42 78.9075 42C78.5555 42 78.2145 42.033 77.8295 42.033C77.7085 42.033 77.6535 42.011 77.6535 41.956C77.6535 41.923 77.6755 41.879 77.8185 41.879C77.9065 41.879 77.9835 41.868 78.0825 41.846C78.3025 41.802 78.3465 41.549 78.3905 41.23C78.4455 40.768 78.4455 39.899 78.4455 38.843ZM79.3255 34.201V37.149C79.3255 37.226 79.3475 37.248 79.4025 37.27C79.4685 37.281 79.6665 37.314 80.0735 37.314C80.6895 37.314 80.8435 37.292 81.0745 37.028C81.3055 36.764 81.4705 36.368 81.4705 35.917C81.4705 35.004 81.0635 34.025 79.9855 34.025C79.8645 34.025 79.6335 34.036 79.4575 34.08C79.3585 34.102 79.3255 34.135 79.3255 34.201ZM79.3255 37.688V38.315C79.3255 39.162 79.3255 40.526 79.3365 40.691C79.3695 41.23 79.3695 41.384 79.7105 41.549C80.0075 41.692 80.4805 41.714 80.6785 41.714C81.2725 41.714 82.2295 41.395 82.2295 40.152C82.2295 39.492 82.0095 38.535 81.1625 37.952C80.7885 37.699 80.5135 37.666 80.2495 37.633C80.1065 37.611 79.5565 37.611 79.3915 37.611C79.3475 37.611 79.3255 37.633 79.3255 37.688ZM89.0394 38.843V36.907C89.0394 35.191 89.0394 34.883 89.0174 34.531C88.9954 34.157 88.9074 33.981 88.5444 33.904C88.4674 33.882 88.3244 33.882 88.2254 33.871C88.1484 33.86 88.0824 33.849 88.0824 33.805C88.0824 33.739 88.1374 33.717 88.2584 33.717C88.5114 33.717 88.8084 33.717 89.5014 33.75C89.5784 33.75 91.7674 33.75 92.0204 33.739C92.2624 33.728 92.4604 33.706 92.5264 33.673C92.5924 33.64 92.6144 33.629 92.6474 33.629C92.6804 33.629 92.6914 33.673 92.6914 33.728C92.6914 33.805 92.6254 33.937 92.6034 34.245C92.5924 34.41 92.5814 34.619 92.5594 34.905C92.5484 35.015 92.5154 35.092 92.4714 35.092C92.4054 35.092 92.3834 35.037 92.3834 34.949C92.3834 34.806 92.3614 34.674 92.3284 34.586C92.2514 34.333 92.0204 34.223 91.5364 34.179C91.3494 34.157 90.1504 34.146 90.0294 34.146C89.9854 34.146 89.9634 34.179 89.9634 34.256V37.292C89.9634 37.369 89.9744 37.402 90.0294 37.402C90.1724 37.402 91.5254 37.402 91.7784 37.38C92.0754 37.358 92.2184 37.325 92.3284 37.193C92.3834 37.127 92.4164 37.083 92.4604 37.083C92.4934 37.083 92.5154 37.105 92.5154 37.171C92.5154 37.237 92.4604 37.424 92.4274 37.787C92.3944 38.128 92.3944 38.381 92.3834 38.535C92.3724 38.645 92.3504 38.7 92.3064 38.7C92.2404 38.7 92.2294 38.612 92.2294 38.524C92.2294 38.425 92.2184 38.315 92.1854 38.216C92.1414 38.051 92.0094 37.897 91.6134 37.853C91.3164 37.82 90.2274 37.798 90.0404 37.798C89.9854 37.798 89.9634 37.831 89.9634 37.875V38.843C89.9634 39.217 89.9524 40.493 89.9634 40.724C89.9854 41.175 90.0514 41.417 90.3264 41.527C90.5134 41.604 90.8104 41.626 91.2394 41.626C91.5694 41.626 91.9324 41.615 92.2294 41.527C92.5814 41.417 92.7024 41.186 92.7904 40.713C92.8124 40.592 92.8344 40.548 92.8894 40.548C92.9554 40.548 92.9554 40.636 92.9554 40.713C92.9554 40.801 92.8674 41.549 92.8124 41.78C92.7354 42.066 92.6474 42.066 92.2184 42.066C91.4044 42.066 91.0414 42.044 90.6124 42.033C90.1724 42.022 89.6664 42 89.2374 42C88.9734 42 88.7094 42.044 88.4234 42.033C88.3024 42.033 88.2474 42.011 88.2474 41.945C88.2474 41.912 88.3024 41.89 88.3684 41.879C88.4784 41.868 88.5444 41.868 88.6214 41.846C88.8524 41.791 88.9954 41.637 89.0174 40.812C89.0284 40.383 89.0394 39.822 89.0394 38.843ZM10.405 66.86L11.142 73.614C11.186 74.01 11.263 74.626 11.736 74.78C12.055 74.879 12.308 74.879 12.418 74.879C12.473 74.879 12.539 74.89 12.539 74.945C12.539 75.011 12.506 75.033 12.374 75.033C12.132 75.033 10.878 75 10.471 74.967C10.218 74.945 10.163 74.912 10.163 74.857C10.163 74.813 10.185 74.802 10.24 74.78C10.317 74.747 10.306 74.582 10.284 74.384L9.756 68.642L7.028 74.428C6.797 74.912 6.764 75.011 6.665 75.011C6.588 75.011 6.533 74.901 6.324 74.505C6.038 73.966 5.092 72.063 5.037 71.953C4.938 71.755 3.673 69.038 3.552 68.741L3.101 73.922C3.09 74.098 3.079 74.252 3.079 74.439C3.079 74.714 3.211 74.802 3.376 74.835C3.563 74.879 3.706 74.879 3.772 74.879C3.838 74.879 3.882 74.901 3.882 74.934C3.882 75.011 3.827 75.033 3.717 75.033C3.31 75.033 2.749 75 2.661 75C2.562 75 2.034 75.033 1.737 75.033C1.627 75.033 1.55 75.022 1.55 74.945C1.55 74.901 1.605 74.879 1.66 74.879C1.748 74.879 1.825 74.879 1.99 74.846C2.353 74.78 2.375 74.384 2.43 73.933L3.222 66.783C3.233 66.662 3.277 66.563 3.343 66.563C3.409 66.563 3.453 66.607 3.508 66.728L6.874 73.647L10.108 66.739C10.152 66.64 10.196 66.563 10.273 66.563C10.35 66.563 10.383 66.651 10.405 66.86ZM20.7843 71.788H18.4193C18.3643 71.788 18.3313 71.821 18.3093 71.876L17.6493 73.823C17.5503 74.098 17.4953 74.362 17.4953 74.56C17.4953 74.78 17.7043 74.879 17.8913 74.879C17.9243 74.879 17.9573 74.879 17.9903 74.879C18.1003 74.879 18.1333 74.901 18.1333 74.945C18.1333 75.011 18.0343 75.033 17.9353 75.033C17.6713 75.033 17.2313 75 17.1103 75C16.9893 75 16.3843 75.033 15.8673 75.033C15.7243 75.033 15.6583 75.011 15.6583 74.945C15.6583 74.901 15.7133 74.879 15.8123 74.879C15.8893 74.879 15.9883 74.868 16.0763 74.857C16.5823 74.791 16.8023 74.373 17.0003 73.823L19.4973 66.992C19.6293 66.629 19.6733 66.563 19.7393 66.563C19.8053 66.563 19.8493 66.618 19.9813 66.959C20.1463 67.377 21.8733 71.92 22.5443 73.592C22.9403 74.571 23.2593 74.747 23.4903 74.813C23.6553 74.868 23.8313 74.879 23.9193 74.879C23.9853 74.879 24.0403 74.89 24.0403 74.945C24.0403 75.011 23.9413 75.033 23.8203 75.033C23.6553 75.033 22.8523 75.033 22.0933 75.011C21.8843 75 21.7633 75 21.7633 74.934C21.7633 74.89 21.7963 74.868 21.8403 74.857C21.9063 74.835 21.9723 74.736 21.9063 74.56L20.8833 71.854C20.8613 71.81 20.8393 71.788 20.7843 71.788ZM18.5403 71.392H20.6413C20.6963 71.392 20.6963 71.359 20.6853 71.315L19.6403 68.345C19.5853 68.18 19.5303 68.18 19.4753 68.345L18.5073 71.315C18.4853 71.37 18.5073 71.392 18.5403 71.392ZM28.9154 71.843V69.907C28.9154 68.191 28.9154 67.883 28.8934 67.531C28.8714 67.157 28.7834 66.981 28.4204 66.904C28.3324 66.882 28.1454 66.871 28.0464 66.871C28.0024 66.871 27.9584 66.849 27.9584 66.805C27.9584 66.739 28.0134 66.717 28.1344 66.717C28.6294 66.717 29.3224 66.75 29.3774 66.75C29.4984 66.75 30.3344 66.717 30.6754 66.717C31.3684 66.717 32.1054 66.783 32.6884 67.201C32.9634 67.399 33.4474 67.938 33.4474 68.697C33.4474 69.511 33.1064 70.325 32.1164 71.238C33.0184 72.393 33.7664 73.372 34.4044 74.054C34.9984 74.681 35.4714 74.802 35.7464 74.846C35.9554 74.879 36.1094 74.879 36.1754 74.879C36.2304 74.879 36.2744 74.912 36.2744 74.945C36.2744 75.011 36.2084 75.033 36.0104 75.033H35.2294C34.6134 75.033 34.3384 74.978 34.0524 74.824C33.5794 74.571 33.1944 74.032 32.5674 73.207C32.1054 72.602 31.5884 71.865 31.3684 71.579C31.3244 71.535 31.2914 71.513 31.2254 71.513L29.8724 71.491C29.8174 71.491 29.7954 71.524 29.7954 71.579V71.843C29.7954 72.899 29.7954 73.768 29.8504 74.23C29.8834 74.549 29.9494 74.791 30.2794 74.835C30.4334 74.857 30.6754 74.879 30.7744 74.879C30.8404 74.879 30.8624 74.912 30.8624 74.945C30.8624 75 30.8074 75.033 30.6864 75.033C30.0814 75.033 29.3884 75 29.3334 75C29.3224 75 28.6294 75.033 28.2994 75.033C28.1784 75.033 28.1234 75.011 28.1234 74.945C28.1234 74.912 28.1454 74.879 28.2114 74.879C28.3104 74.879 28.4424 74.857 28.5414 74.835C28.7614 74.791 28.8164 74.549 28.8604 74.23C28.9154 73.768 28.9154 72.899 28.9154 71.843ZM29.7954 67.267V70.864C29.7954 70.919 29.8174 70.963 29.8724 70.996C30.0374 71.095 30.5434 71.172 31.0274 71.172C31.2914 71.172 31.5994 71.139 31.8524 70.963C32.2374 70.699 32.5234 70.105 32.5234 69.269C32.5234 67.894 31.7974 67.069 30.6204 67.069C30.2904 67.069 29.9934 67.102 29.8834 67.135C29.8284 67.157 29.7954 67.201 29.7954 67.267ZM41.3884 69.907V70.611C41.7294 70.281 43.2254 68.708 43.8964 68.015C44.5564 67.333 44.6004 67.223 44.6004 67.091C44.6004 67.003 44.5454 66.915 44.4574 66.882C44.3804 66.849 44.3584 66.827 44.3584 66.783C44.3584 66.739 44.4244 66.717 44.5234 66.717C44.8424 66.717 44.8094 66.75 45.1834 66.75C45.5244 66.75 46.1734 66.717 46.3494 66.717C46.5034 66.717 46.5364 66.75 46.5364 66.794C46.5364 66.838 46.5144 66.86 46.4154 66.871C46.2064 66.893 46.0084 66.937 45.8544 67.003C45.5794 67.113 45.3704 67.245 44.7104 67.883C43.7424 68.818 42.4884 70.061 42.2024 70.38C42.8954 71.139 44.8974 73.174 45.4144 73.658C46.3164 74.505 46.7014 74.747 47.2294 74.846C47.3284 74.868 47.4384 74.879 47.5484 74.879C47.6364 74.879 47.7024 74.901 47.7024 74.956C47.7024 75.011 47.6584 75.033 47.5374 75.033H46.7234C45.7664 75.033 45.5134 74.912 44.9964 74.505C44.3364 73.988 42.3564 71.865 41.3884 70.71V71.843C41.3884 72.899 41.3884 73.768 41.4434 74.23C41.4764 74.549 41.5424 74.791 41.8724 74.835C42.0264 74.857 42.2464 74.879 42.3124 74.879C42.4114 74.879 42.4444 74.923 42.4444 74.956C42.4444 75.011 42.4004 75.033 42.2794 75.033C41.6744 75.033 40.9814 75 40.9264 75C40.8714 75 40.2224 75.033 39.8924 75.033C39.7714 75.033 39.7164 75.022 39.7164 74.956C39.7164 74.923 39.7384 74.879 39.8374 74.879C39.9034 74.879 40.0244 74.868 40.1234 74.846C40.3434 74.802 40.4094 74.549 40.4534 74.23C40.5084 73.768 40.5084 72.899 40.5084 71.843V69.907C40.5084 68.191 40.5084 67.883 40.4864 67.531C40.4644 67.157 40.3544 66.97 40.1124 66.915C39.9914 66.882 39.7934 66.871 39.7164 66.871C39.6284 66.871 39.5954 66.849 39.5954 66.805C39.5954 66.739 39.6504 66.717 39.7714 66.717C40.1344 66.717 40.8714 66.75 40.9264 66.75C40.9814 66.75 41.6744 66.717 42.0044 66.717C42.1254 66.717 42.1804 66.739 42.1804 66.794C42.1804 66.838 42.1584 66.86 42.0594 66.871C41.9384 66.882 41.9274 66.882 41.8174 66.893C41.5204 66.926 41.4324 67.146 41.4104 67.531C41.3884 67.883 41.3884 68.191 41.3884 69.907ZM52.3162 71.843V69.907C52.3162 68.191 52.3162 67.883 52.2942 67.531C52.2722 67.157 52.1842 66.981 51.8212 66.904C51.7442 66.882 51.6012 66.882 51.5022 66.871C51.4252 66.86 51.3592 66.849 51.3592 66.805C51.3592 66.739 51.4142 66.717 51.5352 66.717C51.7882 66.717 52.0852 66.717 52.7782 66.75C52.8552 66.75 55.0442 66.75 55.2972 66.739C55.5392 66.728 55.7372 66.706 55.8032 66.673C55.8692 66.64 55.8912 66.629 55.9242 66.629C55.9572 66.629 55.9682 66.673 55.9682 66.728C55.9682 66.805 55.9022 66.937 55.8802 67.245C55.8692 67.41 55.8582 67.619 55.8362 67.905C55.8252 68.015 55.7922 68.092 55.7482 68.092C55.6822 68.092 55.6602 68.037 55.6602 67.949C55.6602 67.806 55.6382 67.674 55.6052 67.586C55.5282 67.333 55.2972 67.223 54.8132 67.179C54.6262 67.157 53.4272 67.146 53.3062 67.146C53.2622 67.146 53.2402 67.179 53.2402 67.256V70.292C53.2402 70.369 53.2512 70.402 53.3062 70.402C53.4492 70.402 54.8022 70.402 55.0552 70.38C55.3522 70.358 55.4952 70.325 55.6052 70.193C55.6602 70.127 55.6932 70.083 55.7372 70.083C55.7702 70.083 55.7922 70.105 55.7922 70.171C55.7922 70.237 55.7372 70.424 55.7042 70.787C55.6712 71.128 55.6712 71.381 55.6602 71.535C55.6492 71.645 55.6272 71.7 55.5832 71.7C55.5172 71.7 55.5062 71.612 55.5062 71.524C55.5062 71.425 55.4952 71.315 55.4622 71.216C55.4182 71.051 55.2862 70.897 54.8902 70.853C54.5932 70.82 53.5042 70.798 53.3172 70.798C53.2622 70.798 53.2402 70.831 53.2402 70.875V71.843C53.2402 72.217 53.2292 73.493 53.2402 73.724C53.2622 74.175 53.3282 74.417 53.6032 74.527C53.7902 74.604 54.0872 74.626 54.5162 74.626C54.8462 74.626 55.2092 74.615 55.5062 74.527C55.8582 74.417 55.9792 74.186 56.0672 73.713C56.0892 73.592 56.1112 73.548 56.1662 73.548C56.2322 73.548 56.2322 73.636 56.2322 73.713C56.2322 73.801 56.1442 74.549 56.0892 74.78C56.0122 75.066 55.9242 75.066 55.4952 75.066C54.6812 75.066 54.3182 75.044 53.8892 75.033C53.4492 75.022 52.9432 75 52.5142 75C52.2502 75 51.9862 75.044 51.7002 75.033C51.5792 75.033 51.5242 75.011 51.5242 74.945C51.5242 74.912 51.5792 74.89 51.6452 74.879C51.7552 74.868 51.8212 74.868 51.8982 74.846C52.1292 74.791 52.2722 74.637 52.2942 73.812C52.3052 73.383 52.3162 72.822 52.3162 71.843ZM64.6731 67.19V71.843C64.6731 72.899 64.6731 73.768 64.7281 74.23C64.7611 74.549 64.8271 74.791 65.1571 74.835C65.3111 74.857 65.5531 74.879 65.6521 74.879C65.7181 74.879 65.7401 74.912 65.7401 74.945C65.7401 75 65.6851 75.033 65.5641 75.033C64.9591 75.033 64.2661 75 64.2111 75C64.1561 75 63.4631 75.033 63.1331 75.033C63.0121 75.033 62.9571 75.011 62.9571 74.945C62.9571 74.912 62.9791 74.879 63.0451 74.879C63.1441 74.879 63.2761 74.857 63.3751 74.835C63.5951 74.791 63.6501 74.549 63.6941 74.23C63.7491 73.768 63.7491 72.899 63.7491 71.843V67.19C63.2101 67.201 62.6601 67.201 62.1211 67.212C61.4391 67.223 61.1751 67.3 60.9991 67.564C60.8781 67.751 60.8451 67.828 60.8121 67.905C60.7791 67.993 60.7461 68.015 60.7021 68.015C60.6691 68.015 60.6471 67.982 60.6471 67.916C60.6471 67.806 60.8671 66.86 60.8891 66.772C60.9111 66.706 60.9551 66.563 60.9991 66.563C61.0761 66.563 61.1861 66.673 61.4831 66.695C61.8021 66.728 62.2201 66.75 62.3521 66.75H66.4771C66.8291 66.75 67.0821 66.728 67.2581 66.695C67.4231 66.673 67.5221 66.64 67.5661 66.64C67.6211 66.64 67.6211 66.706 67.6211 66.772C67.6211 67.102 67.5881 67.861 67.5881 67.982C67.5881 68.081 67.5551 68.125 67.5111 68.125C67.4561 68.125 67.4341 68.092 67.4231 67.938C67.4231 67.894 67.4121 67.861 67.4121 67.817C67.3791 67.487 67.1151 67.234 66.0591 67.212C65.5971 67.201 65.1351 67.201 64.6731 67.19Z" fill="white"/>
</svg>
