<svg width="84" height="63" viewBox="0 0 84 63" fill="none" xmlns="http://www.w3.org/2000/svg">
<path d="M-206.553 87.44C-213.193 87.44 -219.353 86.36 -225.033 84.2C-230.633 82.04 -235.513 79 -239.673 75.08C-243.753 71.16 -246.953 66.56 -249.273 61.28C-251.513 56 -252.633 50.24 -252.633 44C-252.633 37.76 -251.513 32 -249.273 26.72C-246.953 21.44 -243.713 16.84 -239.553 12.92C-235.393 8.99999 -230.513 5.95999 -224.913 3.79999C-219.313 1.64 -213.233 0.559999 -206.673 0.559999C-200.033 0.559999 -193.953 1.64 -188.433 3.79999C-182.833 5.95999 -177.993 8.99999 -173.913 12.92C-169.753 16.84 -166.513 21.44 -164.193 26.72C-161.873 31.92 -160.713 37.68 -160.713 44C-160.713 50.24 -161.873 56.04 -164.193 61.4C-166.513 66.68 -169.753 71.28 -173.913 75.2C-177.993 79.04 -182.833 82.04 -188.433 84.2C-193.953 86.36 -199.993 87.44 -206.553 87.44ZM-206.673 70.88C-202.913 70.88 -199.473 70.24 -196.353 68.96C-193.153 67.68 -190.353 65.84 -187.953 63.44C-185.553 61.04 -183.713 58.2 -182.433 54.92C-181.073 51.64 -180.393 48 -180.393 44C-180.393 40 -181.073 36.36 -182.433 33.08C-183.713 29.8 -185.553 26.96 -187.953 24.56C-190.273 22.16 -193.033 20.32 -196.233 19.04C-199.433 17.76 -202.913 17.12 -206.673 17.12C-210.433 17.12 -213.913 17.76 -217.113 19.04C-220.233 20.32 -222.993 22.16 -225.393 24.56C-227.793 26.96 -229.673 29.8 -231.033 33.08C-232.313 36.36 -232.953 40 -232.953 44C-232.953 47.92 -232.313 51.56 -231.033 54.92C-229.673 58.2 -227.833 61.04 -225.513 63.44C-223.113 65.84 -220.313 67.68 -217.113 68.96C-213.913 70.24 -210.433 70.88 -206.673 70.88ZM-128.638 86L-156.118 1.99999H-135.958L-112.078 76.4H-122.158L-97.1981 1.99999H-79.1981L-55.1981 76.4H-64.918L-40.438 1.99999H-21.8381L-49.318 86H-70.1981L-91.4381 20.72H-85.9181L-107.758 86H-128.638ZM-10.9856 86V1.99999H5.09444L40.8544 61.28H32.3344L67.4944 1.99999H83.4545L83.6944 86H65.4544L65.3344 29.96H68.6944L40.6144 77.12H31.8544L3.17444 29.96H7.25445V86L-10.9856 86Z" fill="#EBFDEE"/>
</svg>
