<svg width="196" height="286" viewBox="0 0 196 286" fill="none" xmlns="http://www.w3.org/2000/svg">
<mask id="mask0_1_413" style="mask-type:alpha" maskUnits="userSpaceOnUse" x="0" y="0" width="196" height="286">
<rect width="196" height="286" fill="#7F2611"/>
</mask>
<g mask="url(#mask0_1_413)">
<path d="M-206.553 310.44C-213.193 310.44 -219.353 309.36 -225.033 307.2C-230.633 305.04 -235.513 302 -239.673 298.08C-243.753 294.16 -246.953 289.56 -249.273 284.28C-251.513 279 -252.633 273.24 -252.633 267C-252.633 260.76 -251.513 255 -249.273 249.72C-246.953 244.44 -243.713 239.84 -239.553 235.92C-235.393 232 -230.513 228.96 -224.913 226.8C-219.313 224.64 -213.233 223.56 -206.673 223.56C-200.033 223.56 -193.953 224.64 -188.433 226.8C-182.833 228.96 -177.993 232 -173.913 235.92C-169.753 239.84 -166.513 244.44 -164.193 249.72C-161.873 254.92 -160.713 260.68 -160.713 267C-160.713 273.24 -161.873 279.04 -164.193 284.4C-166.513 289.68 -169.753 294.28 -173.913 298.2C-177.993 302.04 -182.833 305.04 -188.433 307.2C-193.953 309.36 -199.993 310.44 -206.553 310.44ZM-206.673 293.88C-202.913 293.88 -199.473 293.24 -196.353 291.96C-193.153 290.68 -190.353 288.84 -187.953 286.44C-185.553 284.04 -183.713 281.2 -182.433 277.92C-181.073 274.64 -180.393 271 -180.393 267C-180.393 263 -181.073 259.36 -182.433 256.08C-183.713 252.8 -185.553 249.96 -187.953 247.56C-190.273 245.16 -193.033 243.32 -196.233 242.04C-199.433 240.76 -202.913 240.12 -206.673 240.12C-210.433 240.12 -213.913 240.76 -217.113 242.04C-220.233 243.32 -222.993 245.16 -225.393 247.56C-227.793 249.96 -229.673 252.8 -231.033 256.08C-232.313 259.36 -232.953 263 -232.953 267C-232.953 270.92 -232.313 274.56 -231.033 277.92C-229.673 281.2 -227.833 284.04 -225.513 286.44C-223.113 288.84 -220.313 290.68 -217.113 291.96C-213.913 293.24 -210.433 293.88 -206.673 293.88ZM-128.638 309L-156.118 225H-135.958L-112.078 299.4H-122.158L-97.1981 225H-79.1981L-55.1981 299.4H-64.918L-40.438 225H-21.8381L-49.318 309H-70.1981L-91.4381 243.72H-85.9181L-107.758 309H-128.638ZM-10.9856 309V225H5.09444L40.8544 284.28H32.3344L67.4944 225H83.4545L83.6944 309H65.4544L65.3344 252.96H68.6944L40.6144 300.12H31.8544L3.17444 252.96H7.25445V309H-10.9856Z" fill="black"/>
</g>
</svg>
