<svg width="128" height="160" viewBox="0 0 128 160" fill="none" xmlns="http://www.w3.org/2000/svg">
<mask id="mask0_1_364" style="mask-type:alpha" maskUnits="userSpaceOnUse" x="0" y="0" width="128" height="160">
<rect width="128" height="160" fill="#AAAAAA"/>
</mask>
<g mask="url(#mask0_1_364)">
<path d="M3.4992 12.8359L4.4736 13.2727C4.4512 15.2663 4.1488 16.8903 3.5664 18.1447C2.984 19.4215 2.2 20.3511 1.2144 20.9335C0.228801 21.5383 -0.879999 21.8407 -2.112 21.8407C-3.456 21.8407 -4.6432 21.5159 -5.6736 20.8663C-6.704 20.2391 -7.5216 19.3095 -8.1264 18.0775C-8.7088 16.8455 -9 15.3111 -9 13.4743L-9 -3.32569L3.936 -1.34329L16.2 -3.32569L16.2 12.8695C16.2 15.1991 15.6512 16.9911 14.5536 18.2455C13.4784 19.5223 11.9888 20.1607 10.0848 20.1607C9.0768 20.1607 8.0912 19.9143 7.128 19.4215C6.1872 18.9511 5.3808 18.1783 4.7088 17.1031C4.0592 16.0503 3.656 14.6279 3.4992 12.8359ZM-7.7568 1.14311L-5.4384 -0.570491L-5.4384 12.9703C-5.4384 14.3591 -5.1248 15.4343 -4.4976 16.1959C-3.848 16.9799 -2.9296 17.3719 -1.7424 17.3719C-0.487999 17.3719 0.486401 16.9127 1.1808 15.9943C1.8752 15.0983 2.2224 13.7655 2.2224 11.9959L2.2224 1.07591L5.6496 1.07591L5.6496 11.5591C5.6496 12.7463 5.9744 13.7319 6.624 14.5159C7.296 15.2999 8.248 15.6919 9.48 15.6919C10.3984 15.6919 11.1488 15.3671 11.7312 14.7175C12.336 14.0679 12.6384 13.1271 12.6384 11.8951L12.6384 -0.57049L14.9568 1.14311L3.936 2.92391L-7.7568 1.14311ZM-9.4704 39.1004C-9.4704 36.2332 -8.9216 33.7132 -7.824 31.5404C-6.7264 29.3676 -5.2032 27.6764 -3.2544 26.4668C-1.2832 25.2572 1.0016 24.6524 3.6 24.6524C6.1984 24.6524 8.472 25.2572 10.4208 26.4668C12.392 27.6764 13.9264 29.3676 15.024 31.5404C16.1216 33.7132 16.6704 36.2332 16.6704 39.1004C16.6704 41.9676 16.1216 44.4876 15.024 46.6604C13.9264 48.8332 12.392 50.5244 10.4208 51.734C8.472 52.9436 6.1984 53.5484 3.6 53.5484C1.0016 53.5484 -1.2832 52.9436 -3.2544 51.734C-5.2032 50.5244 -6.7264 48.8332 -7.824 46.6604C-8.9216 44.4876 -9.4704 41.9676 -9.4704 39.1004ZM-5.5056 39.1004C-5.5056 41.1388 -5.136 42.8972 -4.3968 44.3756C-3.6576 45.854 -2.6048 46.9964 -1.2384 47.8028C0.128 48.6316 1.7408 49.046 3.6 49.046C5.4592 49.046 7.072 48.6316 8.4384 47.8028C9.8048 46.9964 10.8576 45.854 11.5968 44.3756C12.336 42.8972 12.7056 41.1388 12.7056 39.1004C12.7056 37.0844 12.336 35.326 11.5968 33.8252C10.8576 32.3468 9.8048 31.1932 8.4384 30.3644C7.072 29.558 5.4592 29.1548 3.6 29.1548C1.7408 29.1548 0.128001 29.558 -1.2384 30.3644C-2.6048 31.1932 -3.6576 32.3468 -4.3968 33.8252C-5.136 35.326 -5.5056 37.0844 -5.5056 39.1004ZM4.8432 60.9485L4.8432 71.1965C4.8432 72.6749 5.1792 73.8397 5.8512 74.6909C6.5232 75.5645 7.4416 76.0013 8.6064 76.0013C9.7936 76.0013 10.712 75.5645 11.3616 74.6909C12.0336 73.8397 12.3696 72.6749 12.3696 71.1965L12.3696 60.3101L14.856 62.2925L-9 62.2925L-9 57.8573L16.2 57.8573L16.2 71.5997C16.2 73.3693 15.8752 74.9149 15.2256 76.2365C14.5984 77.5805 13.7136 78.6221 12.5712 79.3613C11.4512 80.1229 10.1296 80.5037 8.6064 80.5037C7.128 80.5037 5.8176 80.1229 4.6752 79.3613C3.5552 78.6221 2.6704 77.5805 2.0208 76.2365C1.3936 74.9149 1.08 73.3693 1.08 71.5997L1.08 60.9485L4.8432 60.9485ZM2.7936 65.9213L2.7936 71.1293L-9 81.1421L-9 75.8333L2.7936 65.9213ZM16.2 96.4821C16.2 99.3493 15.6736 101.858 14.6208 104.008C13.568 106.181 12.0896 107.872 10.1856 109.082C8.304 110.292 6.1088 110.896 3.6 110.896C1.0912 110.896 -1.1152 110.292 -3.0192 109.082C-4.9008 107.872 -6.368 106.181 -7.4208 104.008C-8.4736 101.858 -9 99.3493 -9 96.4821L-9 85.0917L16.2 85.0917L16.2 96.4821ZM-7.4544 89.5269L-5.1024 87.0741L-5.1024 96.7845C-5.1024 98.7109 -4.744 100.391 -4.0272 101.824C-3.288 103.28 -2.2688 104.4 -0.969603 105.184C0.351997 105.991 1.8752 106.394 3.6 106.394C5.3472 106.394 6.8704 105.991 8.1696 105.184C9.4688 104.4 10.4768 103.28 11.1936 101.824C11.9328 100.391 12.3024 98.7109 12.3024 96.7845L12.3024 87.0741L14.6544 89.5269L-7.4544 89.5269ZM5.448 135.11L1.752 135.11L1.752 117.504L5.448 117.504L5.448 135.11ZM3.6 120.427L-7.65601 118.646L-5.1696 116.529L-5.16961 136.085L-9.00001 136.085L-9.00001 114.11L3.6 116.126L16.2 114.11L16.2 135.917L12.3696 135.917L12.3696 116.529L14.856 118.646L3.6 120.427ZM4.8432 143.8L4.8432 154.048C4.8432 155.526 5.1792 156.691 5.8512 157.542C6.5232 158.416 7.4416 158.853 8.6064 158.853C9.7936 158.853 10.712 158.416 11.3616 157.542C12.0336 156.691 12.3696 155.526 12.3696 154.048L12.3696 143.162L14.856 145.144L-9.00001 145.144L-9.00001 140.709L16.2 140.709L16.2 154.451C16.2 156.221 15.8752 157.766 15.2256 159.088C14.5984 160.432 13.7136 161.474 12.5712 162.213C11.4512 162.974 10.1296 163.355 8.6064 163.355C7.128 163.355 5.8176 162.974 4.6752 162.213C3.5552 161.474 2.6704 160.432 2.0208 159.088C1.3936 157.766 1.08 156.221 1.08 154.451L1.08 143.8L4.8432 143.8ZM2.7936 148.773L2.7936 153.981L-9.00001 163.994L-9.00001 158.685L2.7936 148.773Z" fill="#61A421"/>
<path d="M2.424 -5.27449L2.42399 165.136L0.743994 165.136L0.744001 -5.27449L2.424 -5.27449Z" fill="#61A421"/>
<path d="M130.499 12.8359L131.474 13.2727C131.451 15.2663 131.149 16.8903 130.566 18.1447C129.984 19.4215 129.2 20.3511 128.214 20.9335C127.229 21.5383 126.12 21.8407 124.888 21.8407C123.544 21.8407 122.357 21.5159 121.326 20.8663C120.296 20.2391 119.478 19.3095 118.874 18.0775C118.291 16.8455 118 15.3111 118 13.4743L118 -3.32569L130.936 -1.34329L143.2 -3.32569L143.2 12.8695C143.2 15.1991 142.651 16.9911 141.554 18.2455C140.478 19.5223 138.989 20.1607 137.085 20.1607C136.077 20.1607 135.091 19.9143 134.128 19.4215C133.187 18.9511 132.381 18.1783 131.709 17.1031C131.059 16.0503 130.656 14.6279 130.499 12.8359ZM119.243 1.14311L121.562 -0.570491L121.562 12.9703C121.562 14.3591 121.875 15.4343 122.502 16.1959C123.152 16.9799 124.07 17.3719 125.258 17.3719C126.512 17.3719 127.486 16.9127 128.181 15.9943C128.875 15.0983 129.222 13.7655 129.222 11.9959L129.222 1.07591L132.65 1.07591L132.65 11.5591C132.65 12.7463 132.974 13.7319 133.624 14.5159C134.296 15.2999 135.248 15.6919 136.48 15.6919C137.398 15.6919 138.149 15.3671 138.731 14.7175C139.336 14.0679 139.638 13.1271 139.638 11.8951L139.638 -0.57049L141.957 1.14311L130.936 2.92391L119.243 1.14311ZM117.53 39.1004C117.53 36.2332 118.078 33.7132 119.176 31.5404C120.274 29.3676 121.797 27.6764 123.746 26.4668C125.717 25.2572 128.002 24.6524 130.6 24.6524C133.198 24.6524 135.472 25.2572 137.421 26.4668C139.392 27.6764 140.926 29.3676 142.024 31.5404C143.122 33.7132 143.67 36.2332 143.67 39.1004C143.67 41.9676 143.122 44.4876 142.024 46.6604C140.926 48.8332 139.392 50.5244 137.421 51.734C135.472 52.9436 133.198 53.5484 130.6 53.5484C128.002 53.5484 125.717 52.9436 123.746 51.734C121.797 50.5244 120.274 48.8332 119.176 46.6604C118.078 44.4876 117.53 41.9676 117.53 39.1004ZM121.494 39.1004C121.494 41.1388 121.864 42.8972 122.603 44.3756C123.342 45.854 124.395 46.9964 125.762 47.8028C127.128 48.6316 128.741 49.046 130.6 49.046C132.459 49.046 134.072 48.6316 135.438 47.8028C136.805 46.9964 137.858 45.854 138.597 44.3756C139.336 42.8972 139.706 41.1388 139.706 39.1004C139.706 37.0844 139.336 35.326 138.597 33.8252C137.858 32.3468 136.805 31.1932 135.438 30.3644C134.072 29.558 132.459 29.1548 130.6 29.1548C128.741 29.1548 127.128 29.558 125.762 30.3644C124.395 31.1932 123.342 32.3468 122.603 33.8252C121.864 35.326 121.494 37.0844 121.494 39.1004ZM131.843 60.9485L131.843 71.1965C131.843 72.6749 132.179 73.8397 132.851 74.6909C133.523 75.5645 134.442 76.0013 135.606 76.0013C136.794 76.0013 137.712 75.5645 138.362 74.6909C139.034 73.8397 139.37 72.6749 139.37 71.1965L139.37 60.3101L141.856 62.2925L118 62.2925L118 57.8573L143.2 57.8573L143.2 71.5997C143.2 73.3693 142.875 74.9149 142.226 76.2365C141.598 77.5805 140.714 78.6221 139.571 79.3613C138.451 80.1229 137.13 80.5037 135.606 80.5037C134.128 80.5037 132.818 80.1229 131.675 79.3613C130.555 78.6221 129.67 77.5805 129.021 76.2365C128.394 74.9149 128.08 73.3693 128.08 71.5997L128.08 60.9485L131.843 60.9485ZM129.794 65.9213L129.794 71.1293L118 81.1421L118 75.8333L129.794 65.9213ZM143.2 96.4821C143.2 99.3493 142.674 101.858 141.621 104.008C140.568 106.181 139.09 107.872 137.186 109.082C135.304 110.292 133.109 110.896 130.6 110.896C128.091 110.896 125.885 110.292 123.981 109.082C122.099 107.872 120.632 106.181 119.579 104.008C118.526 101.858 118 99.3493 118 96.4821L118 85.0917L143.2 85.0917L143.2 96.4821ZM119.546 89.5269L121.898 87.0741L121.898 96.7845C121.898 98.7109 122.256 100.391 122.973 101.824C123.712 103.28 124.731 104.4 126.03 105.184C127.352 105.991 128.875 106.394 130.6 106.394C132.347 106.394 133.87 105.991 135.17 105.184C136.469 104.4 137.477 103.28 138.194 101.824C138.933 100.391 139.302 98.7109 139.302 96.7845L139.302 87.0741L141.654 89.5269L119.546 89.5269ZM132.448 135.11L128.752 135.11L128.752 117.504L132.448 117.504L132.448 135.11ZM130.6 120.427L119.344 118.646L121.83 116.529L121.83 136.085L118 136.085L118 114.11L130.6 116.126L143.2 114.11L143.2 135.917L139.37 135.917L139.37 116.529L141.856 118.646L130.6 120.427ZM131.843 143.8L131.843 154.048C131.843 155.526 132.179 156.691 132.851 157.542C133.523 158.416 134.442 158.853 135.606 158.853C136.794 158.853 137.712 158.416 138.362 157.542C139.034 156.691 139.37 155.526 139.37 154.048L139.37 143.162L141.856 145.144L118 145.144L118 140.709L143.2 140.709L143.2 154.451C143.2 156.221 142.875 157.766 142.226 159.088C141.598 160.432 140.714 161.474 139.571 162.213C138.451 162.974 137.13 163.355 135.606 163.355C134.128 163.355 132.818 162.974 131.675 162.213C130.555 161.474 129.67 160.432 129.021 159.088C128.394 157.766 128.08 156.221 128.08 154.451L128.08 143.8L131.843 143.8ZM129.794 148.773L129.794 153.981L118 163.994L118 158.685L129.794 148.773Z" fill="#61A421"/>
<path d="M129.424 -5.27449L129.424 165.136L127.744 165.136L127.744 -5.27449L129.424 -5.27449Z" fill="#61A421"/>
</g>
</svg>
