<svg width="18" height="5" viewBox="0 0 18 5" fill="none" xmlns="http://www.w3.org/2000/svg">
<path d="M3.28504 4.07C2.85837 4.07 2.48337 3.98833 2.16004 3.825C1.83671 3.66167 1.58504 3.435 1.40504 3.145C1.22504 2.85167 1.13504 2.51167 1.13504 2.125C1.13504 1.73833 1.22504 1.4 1.40504 1.11C1.58504 0.816667 1.83671 0.588333 2.16004 0.425C2.48337 0.261666 2.85837 0.18 3.28504 0.18C3.71171 0.18 4.08671 0.261666 4.41004 0.425C4.73337 0.588333 4.98504 0.816667 5.16504 1.11C5.34504 1.4 5.43504 1.73833 5.43504 2.125C5.43504 2.51167 5.34504 2.85167 5.16504 3.145C4.98504 3.435 4.73337 3.66167 4.41004 3.825C4.08671 3.98833 3.71171 4.07 3.28504 4.07ZM3.28504 3.48C3.58837 3.48 3.85004 3.425 4.07004 3.315C4.29004 3.205 4.46004 3.04833 4.58004 2.845C4.70337 2.64167 4.76504 2.40167 4.76504 2.125C4.76504 1.84833 4.70337 1.60833 4.58004 1.405C4.46004 1.20167 4.29004 1.045 4.07004 0.935C3.85004 0.825 3.58837 0.77 3.28504 0.77C2.98504 0.77 2.72337 0.825 2.50004 0.935C2.28004 1.045 2.10837 1.20167 1.98504 1.405C1.86504 1.60833 1.80504 1.84833 1.80504 2.125C1.80504 2.40167 1.86504 2.64167 1.98504 2.845C2.10837 3.04833 2.28004 3.205 2.50004 3.315C2.72337 3.425 2.98504 3.48 3.28504 3.48ZM10.4542 3.75H10.2042L11.3542 0.25L12.0442 0.25L10.7742 4H9.93418L8.66918 0.565L8.97918 0.565L7.71418 4H6.87418L5.60418 0.25L6.29918 0.25L7.44418 3.75L7.20418 3.745L8.46918 0.25L9.18418 0.25L10.4542 3.75ZM17.5812 0.25V4H16.9512V0.45L17.1562 0.46L15.4112 4H14.7062L12.9612 0.465L13.1662 0.455V4H12.5362V0.25L13.5462 0.25L15.2262 3.715H14.8962L16.5712 0.25L17.5812 0.25Z" fill="#61A421"/>
<path d="M0.915039 2.3L18.0012 2.3V2.55L0.915039 2.55V2.3Z" fill="#61A421"/>
</svg>
