<svg width="5" height="73" viewBox="0 0 5 73" fill="none" xmlns="http://www.w3.org/2000/svg">
<path d="M0.89 -23.598C0.89 -25.248 1.704 -26.425 2.925 -26.425C4.146 -26.425 4.96 -25.248 4.96 -23.598C4.96 -21.959 4.146 -20.7765 2.925 -20.7765C1.704 -20.7765 0.89 -21.959 0.89 -23.598ZM1.8415 -23.598C1.8415 -22.8115 2.254 -22.2395 2.925 -22.2395C3.596 -22.2395 4.0085 -22.8115 4.0085 -23.598C4.0085 -24.3955 3.596 -24.9675 2.925 -24.9675C2.254 -24.9675 1.8415 -24.3955 1.8415 -23.598ZM1 -20.4825L4.85 -20.4825L4.85 -17.1715C4.85 -16.1485 4.366 -15.494 3.5575 -15.494C2.7545 -15.494 2.265 -16.1485 2.265 -17.166L2.265 -19.0745L1 -19.0745L1 -20.4825ZM3.9645 -17.452L3.9645 -19.0745L3.112 -19.0745L3.112 -17.452C3.112 -17.1 3.266 -16.8965 3.5355 -16.8965C3.805 -16.8965 3.9645 -17.1 3.9645 -17.452ZM0.999999 -15.2296L4.85 -15.2296L4.85 -10.7306L3.959 -10.7306L3.959 -13.8326L3.3595 -13.8326L3.3595 -11.4951L2.5235 -11.4951L2.5235 -13.8326L1.8635 -13.8326L1.8635 -10.7306L0.999999 -10.7306L0.999999 -15.2296ZM0.999999 -10.4171L4.85 -10.4171L4.85 -8.90462L3.6565 -7.79362L2.474 -6.69362L3.662 -6.69362L4.85 -6.69912L4.85 -5.47812L0.999999 -5.47812L0.999999 -6.99612L2.188 -8.11262L3.365 -9.20712L2.177 -9.20162L0.999999 -9.20162L0.999999 -10.4171ZM0.999999 -3.96674L4.85 -5.25924L4.85 -3.89524L3.629 -3.52674L2.4135 -3.16374L3.629 -2.69074L4.85 -2.22324L4.85 -1.06274L3.629 -0.589736L2.4025 -0.116736L3.629 0.246264L4.85 0.614764L4.85 1.92376L0.999999 0.636764L0.999999 -0.765737L2.1825 -1.21674L3.3595 -1.66774L2.1825 -2.11874L0.999999 -2.56974L0.999999 -3.96674ZM0.999999 1.21113L4.85 3.43313L4.85 4.96763L0.999999 7.19513L0.999999 5.66063L1.7205 5.27563L1.7205 3.03713L0.999999 2.65213L0.999999 1.21113ZM3.8325 4.15363L2.507 3.45513L2.507 4.85213L3.8325 4.15363ZM0.999998 7.34509L4.85 7.34509L4.85 10.7221C4.85 11.7561 4.443 12.3556 3.7335 12.3556C3.288 12.3556 2.947 12.1136 2.7765 11.6681C2.6775 12.0476 2.4465 12.2236 2.056 12.2456C1.594 12.2731 1.2365 12.3171 0.999998 12.4326L0.999998 10.9806C1.2035 10.8926 1.484 10.8761 1.946 10.8596C2.243 10.8486 2.342 10.7166 2.342 10.4086L2.342 8.75309L0.999998 8.75309L0.999998 7.34509ZM3.9755 10.4581L3.9755 8.75309L3.178 8.75309L3.178 10.4581C3.178 10.7771 3.321 10.9696 3.574 10.9696C3.8325 10.9696 3.9755 10.7826 3.9755 10.4581ZM0.999998 12.6732L4.85 12.6732L4.85 15.1812C4.85 16.7432 4.113 17.8102 2.925 17.8102C1.748 17.8102 0.999998 16.7322 0.999998 15.1812L0.999998 12.6732ZM3.926 15.0932L3.926 14.0812L1.913 14.0812L1.913 15.0932C1.913 15.8907 2.265 16.3582 2.914 16.3582C3.5685 16.3582 3.926 15.8907 3.926 15.0932ZM0.999998 18.1088L4.85 18.1088L4.85 21.4858C4.85 22.5198 4.443 23.1193 3.7335 23.1193C3.288 23.1193 2.947 22.8773 2.7765 22.4318C2.6775 22.8113 2.4465 22.9873 2.056 23.0093C1.594 23.0368 1.2365 23.0808 0.999998 23.1963L0.999998 21.7443C1.2035 21.6563 1.484 21.6398 1.946 21.6233C2.243 21.6123 2.342 21.4803 2.342 21.1723L2.342 19.5168L0.999998 19.5168L0.999998 18.1088ZM3.9755 21.2218L3.9755 19.5168L3.178 19.5168L3.178 21.2218C3.178 21.5408 3.321 21.7333 3.574 21.7333C3.8325 21.7333 3.9755 21.5463 3.9755 21.2218ZM0.889998 26.1061C0.889998 24.4561 1.704 23.2791 2.925 23.2791C4.146 23.2791 4.96 24.4561 4.96 26.1061C4.96 27.7451 4.146 28.9276 2.925 28.9276C1.704 28.9276 0.889998 27.7451 0.889998 26.1061ZM1.8415 26.1061C1.8415 26.8926 2.254 27.4646 2.925 27.4646C3.596 27.4646 4.0085 26.8926 4.0085 26.1061C4.0085 25.3086 3.596 24.7366 2.925 24.7366C2.254 24.7366 1.8415 25.3086 1.8415 26.1061ZM0.999998 29.2216L4.85 29.2216L4.85 32.6206C4.85 33.5886 4.443 34.1386 3.805 34.1386C3.42 34.1386 3.1285 33.9296 2.958 33.5501C2.8095 34.0176 2.5015 34.2706 2.0615 34.2706C1.407 34.2706 0.999997 33.7096 0.999997 32.7416L0.999998 29.2216ZM3.981 32.3456L3.981 30.6131L3.3155 30.6131L3.3155 32.3456C3.3155 32.6206 3.4255 32.7746 3.651 32.7746C3.8655 32.7746 3.981 32.6206 3.981 32.3456ZM2.5125 32.4446L2.5125 30.6131L1.8415 30.6131L1.8415 32.4446C1.8415 32.7196 1.9515 32.8791 2.177 32.8791C2.397 32.8791 2.5125 32.7196 2.5125 32.4446ZM0.999997 34.5389L4.85 34.5389L4.85 39.0379L3.959 39.0379L3.959 35.9359L3.3595 35.9359L3.3595 38.2734L2.5235 38.2734L2.5235 35.9359L1.8635 35.9359L1.8635 39.0379L0.999997 39.0379L0.999997 34.5389ZM0.999997 39.3514L4.85 39.3514L4.85 41.2544L3.5795 41.8044L2.309 42.3489L4.85 43.4489L4.85 45.3519L0.999997 45.3519L0.999997 44.0649L2.925 44.0704L3.6235 44.0759L2.925 43.7789L0.999997 42.9484L0.999997 41.7054L2.925 40.8749L3.6345 40.5779L0.999997 40.5834L0.999997 39.3514ZM0.999997 45.4958L4.85 47.7178L4.85 49.2523L0.999997 51.4798L0.999997 49.9453L1.7205 49.5603L1.7205 47.3218L0.999997 46.9368L0.999997 45.4958ZM3.8325 48.4383L2.507 47.7398L2.507 49.1368L3.8325 48.4383ZM0.999997 51.6298L4.85 51.6298L4.85 55.0068C4.85 56.0408 4.443 56.6403 3.7335 56.6403C3.288 56.6403 2.947 56.3983 2.7765 55.9528C2.6775 56.3323 2.4465 56.5083 2.056 56.5303C1.594 56.5578 1.2365 56.6018 0.999996 56.7173L0.999996 55.2653C1.2035 55.1773 1.484 55.1608 1.946 55.1443C2.243 55.1333 2.342 55.0013 2.342 54.6933L2.342 53.0378L0.999997 53.0378L0.999997 51.6298ZM3.9755 54.7428L3.9755 53.0378L3.178 53.0378L3.178 54.7428C3.178 55.0618 3.321 55.2543 3.574 55.2543C3.8325 55.2543 3.9755 55.0673 3.9755 54.7428ZM0.999996 56.9579L4.85 56.9579L4.85 58.3549L3.0625 58.3439L4.85 60.4669L4.85 62.1499L3.288 60.2854L0.999996 62.1774L0.999996 60.5109L2.5125 59.2954L1.737 58.3494L0.999996 58.3549L0.999996 56.9579ZM0.999996 62.3666L4.85 62.3666L4.85 66.8656L3.959 66.8656L3.959 63.7636L3.3595 63.7636L3.3595 66.1011L2.5235 66.1011L2.5235 63.7636L1.8635 63.7636L1.8635 66.8656L0.999996 66.8656L0.999996 62.3666ZM0.999996 69.0543L3.9425 69.0543L3.9425 67.0853L4.85 67.0853L4.85 72.4423L3.9425 72.4423L3.9425 70.4623L0.999996 70.4623L0.999996 69.0543Z" fill="black"/>
</svg>
