<svg width="4" height="17" viewBox="0 0 4 17" fill="none" xmlns="http://www.w3.org/2000/svg">
<path d="M2.33984 3.89258C2.10937 3.89258 1.9056 3.85026 1.72852 3.76562C1.55273 3.68099 1.4056 3.5599 1.28711 3.40234C1.16862 3.24479 1.07878 3.05339 1.01758 2.82812C0.957682 2.60417 0.927734 2.35221 0.927734 2.07227C0.927734 1.79232 0.957682 1.53906 1.01758 1.3125C1.07878 1.08724 1.16862 0.895182 1.28711 0.736328C1.4056 0.577474 1.55273 0.455078 1.72852 0.369141C1.9056 0.283203 2.10937 0.240234 2.33984 0.240234C2.57031 0.240234 2.77344 0.283203 2.94922 0.369141C3.1263 0.455078 3.27409 0.577474 3.39258 0.736328C3.51107 0.895182 3.60026 1.08724 3.66016 1.3125C3.72135 1.53906 3.75195 1.79232 3.75195 2.07227C3.75195 2.35221 3.72135 2.60417 3.66016 2.82812C3.60026 3.05339 3.51107 3.24479 3.39258 3.40234C3.27409 3.5599 3.1263 3.68099 2.94922 3.76562C2.77344 3.85026 2.57031 3.89258 2.33984 3.89258ZM2.33984 3.16016C2.4401 3.16016 2.53971 3.14388 2.63867 3.11133C2.73893 3.08008 2.82878 3.02344 2.9082 2.94141C2.98763 2.86068 3.05208 2.75 3.10156 2.60937C3.15104 2.46875 3.17578 2.28971 3.17578 2.07227C3.17578 1.92643 3.16406 1.79818 3.14062 1.6875C3.11849 1.57682 3.08724 1.48112 3.04687 1.40039C3.00651 1.31966 2.95898 1.25195 2.9043 1.19727C2.85091 1.14258 2.79297 1.09896 2.73047 1.06641C2.66927 1.03385 2.60482 1.01042 2.53711 0.996094C2.4707 0.983073 2.40495 0.976562 2.33984 0.976562C2.27344 0.976562 2.20638 0.983073 2.13867 0.996094C2.07096 1.01042 2.00586 1.03385 1.94336 1.06641C1.88216 1.09896 1.82487 1.14258 1.77148 1.19727C1.7181 1.25195 1.67122 1.31966 1.63086 1.40039C1.5918 1.48112 1.56055 1.57682 1.53711 1.6875C1.51497 1.79818 1.50391 1.92643 1.50391 2.07227C1.50391 2.28971 1.52865 2.46875 1.57812 2.60937C1.6276 2.75 1.69206 2.86068 1.77148 2.94141C1.85091 3.02344 1.9401 3.08008 2.03906 3.11133C2.13932 3.14388 2.23958 3.16016 2.33984 3.16016ZM3.68359 8.34062L1.82031 9.02617L3.68359 9.76836L3.68359 10.5203L1 9.44219L1 8.6375L2.80469 7.93633L1 7.23711L1 6.43242L3.68359 5.35234L3.68359 6.10625L1.85937 6.83281L3.68359 7.53398L3.68359 8.34062ZM0.999999 15.5953L2.88476 15.5953L0.999999 14.5992L0.999999 13.9039L2.88477 12.9078L0.999999 12.9078L0.999999 12.1832L3.68359 12.1832L3.68359 13.1676L1.65234 14.2516L3.68359 15.3355L3.68359 16.316L0.999999 16.316L0.999999 15.5953Z" fill="white"/>
</svg>
